<svg width="77" height="81" viewBox="0 0 77 81" fill="none" xmlns="http://www.w3.org/2000/svg">
<path d="M66.3407 27.5856C63.3977 27.5856 60.5489 25.8232 58.9139 22.991C56.5418 18.8786 57.5283 13.8462 61.1198 11.7733C62.1507 11.1803 63.2924 10.8755 64.5061 10.8755C67.4491 10.8755 70.2979 12.638 71.9329 15.4701C74.305 19.5825 73.3185 24.6149 69.727 26.6878C68.6962 27.2808 67.5544 27.5856 66.3407 27.5856Z" fill="#1877F2"/>
<path d="M64.5063 11.4298C67.15 11.4298 69.8768 13.0093 71.4564 15.7472C73.6789 19.5992 72.7866 24.2824 69.4556 26.2056C68.4913 26.7654 67.4216 27.0259 66.3464 27.0259C63.7027 27.0259 60.9758 25.4463 59.3963 22.7084C57.1738 18.8565 58.0661 14.1732 61.3971 12.25C62.3614 11.6902 63.4311 11.4298 64.5063 11.4298ZM64.5063 10.3213C63.2094 10.3213 61.9402 10.6594 60.8428 11.2912C58.9473 12.383 57.6615 14.2508 57.2237 16.5509C56.7969 18.79 57.2237 21.1732 58.4319 23.2682C60.1667 26.2721 63.1983 28.1399 66.3408 28.1399C67.6377 28.1399 68.9069 27.8018 70.0043 27.17C71.8998 26.0782 73.1856 24.2104 73.6235 21.9103C74.0502 19.6712 73.6235 17.288 72.4152 15.193C70.6805 12.1891 67.6488 10.3213 64.5063 10.3213Z" fill="#04223D"/>
<path d="M65.0167 25.2083C64.0856 25.2083 62.4451 24.6319 61.9075 20.7689C61.7024 19.3223 61.9518 18.1862 62.6391 17.3991C63.5536 16.3516 65.0167 16.1909 65.8037 16.1909C66.2194 16.1909 66.6517 16.2353 67.0175 16.3073C68.1925 16.5512 70.293 18.2471 70.0547 21.2455C69.7942 24.4767 65.6541 25.1307 65.4657 25.1529C65.4657 25.1529 65.2938 25.2083 65.0167 25.2083Z" fill="#FF8080"/>
<path d="M65.803 16.4678C66.2464 16.4678 66.651 16.5177 66.9614 16.5787C67.9923 16.7893 70.0041 18.3799 69.7769 21.2231C69.533 24.277 65.4261 24.8811 65.4261 24.8811C65.4261 24.8811 65.2654 24.931 65.0216 24.931C64.2733 24.931 62.7049 24.4654 62.1839 20.7299C61.6906 17.2216 64.0516 16.4678 65.8086 16.4678M65.803 15.9136C64.3565 15.9136 63.1593 16.3736 62.4277 17.216C61.6851 18.0695 61.4135 19.2778 61.6296 20.8075C62.2227 25.0307 64.1957 25.4852 65.016 25.4852C65.2654 25.4852 65.4539 25.4464 65.5425 25.4242C66.0081 25.3466 70.0595 24.5929 70.3311 21.2675C70.5861 18.0973 68.3359 16.296 67.0778 16.0355C66.8062 15.9801 66.3628 15.9136 65.803 15.9136Z" fill="#04223D"/>
<g opacity="0.5">
<path d="M61.3912 13.9131C64.7222 11.9899 69.2281 13.5529 71.4506 17.4103C72.1267 18.5742 72.5091 19.8212 72.6255 21.0406C72.8029 19.3224 72.4316 17.4547 71.4506 15.7476C69.2281 11.8957 64.7222 10.3272 61.3912 12.2504C59.069 13.5917 57.9328 16.2741 58.2099 19.0841C58.4372 16.9171 59.5345 14.9883 61.3912 13.9131Z" fill="white"/>
</g>
<g opacity="0.25">
<path d="M66.9612 18.2412C67.8203 18.4186 69.361 19.5603 69.7157 21.5833C69.7379 21.4613 69.7656 21.345 69.7767 21.2175C70.004 18.3798 67.9921 16.7836 66.9612 16.573C65.4204 16.2571 61.563 16.3236 62.1782 20.7242C62.1782 20.7298 62.1782 20.7353 62.1782 20.7408C62.6382 17.9863 65.6421 17.9641 66.9612 18.2357V18.2412Z" fill="black"/>
</g>
<g opacity="0.25">
<path d="M69.4504 25.0971C66.1195 27.0203 61.6135 25.4573 59.3911 21.5999C58.6706 20.3528 58.2826 19.0171 58.1939 17.7202C58.0886 19.3552 58.4655 21.101 59.3911 22.7083C61.6135 26.5602 66.1195 28.1287 69.4504 26.2055C71.7061 24.9031 72.8368 22.3425 72.6539 19.6268C72.5042 21.9158 71.3958 23.9775 69.4504 25.0971Z" fill="#04223D"/>
</g>
<path d="M11.178 27.5856C9.95871 27.5856 8.82253 27.2864 7.79165 26.6878C4.20022 24.6149 3.21368 19.5825 5.5858 15.4701C7.22079 12.638 10.0696 10.8755 13.0125 10.8755C14.2319 10.8755 15.368 11.1748 16.3989 11.7733C19.9903 13.8462 20.9769 18.8786 18.6048 22.991C16.9698 25.8232 14.121 27.5856 11.178 27.5856Z" fill="#1877F2"/>
<path d="M13.013 11.4299C14.0937 11.4299 15.1579 11.696 16.1222 12.2502C19.4532 14.1734 20.351 18.8567 18.123 22.7086C16.5434 25.4465 13.8166 27.0261 11.1729 27.0261C10.0922 27.0261 9.02803 26.76 8.06367 26.2058C4.73272 24.2826 3.83486 19.5993 6.06288 15.7474C7.64245 13.0095 10.3693 11.4299 13.013 11.4299ZM13.013 10.3215C9.87047 10.3215 6.83881 12.1892 5.10406 15.1932C2.57675 19.5716 3.65751 24.9421 7.51498 27.1646C8.6179 27.802 9.88156 28.1345 11.1785 28.1345C14.321 28.1345 17.3526 26.2668 19.0874 23.2628C20.2956 21.1678 20.7279 18.7846 20.2956 16.5455C19.8578 14.251 18.5719 12.3832 16.6765 11.2858C15.5735 10.6485 14.3099 10.3159 13.013 10.3159V10.3215Z" fill="#04223D"/>
<path d="M12.5028 25.2085C12.2201 25.2085 12.0317 25.1475 12.0095 25.142C11.8765 25.1253 7.72531 24.4769 7.46482 21.2402C7.22096 18.2418 9.32151 16.5458 10.4965 16.3019C10.8678 16.2243 11.3001 16.1855 11.7103 16.1855C12.5028 16.1855 13.9604 16.3407 14.8749 17.3938C15.5622 18.1863 15.8116 19.3225 15.6065 20.7635C15.0634 24.6265 13.4228 25.2029 12.4917 25.2029L12.5028 25.2085Z" fill="#FF8080"/>
<path d="M11.716 16.4678C13.473 16.4678 15.8285 17.2216 15.3407 20.7299C14.8198 24.4654 13.2513 24.931 12.5031 24.931C12.2537 24.931 12.0985 24.8811 12.0985 24.8811C12.0985 24.8811 7.9916 24.277 7.74774 21.2231C7.5205 18.3855 9.53237 16.7893 10.5632 16.5787C10.8736 16.5121 11.2782 16.4678 11.7216 16.4678M11.716 15.9136C11.1618 15.9136 10.7184 15.9801 10.4413 16.0355C9.17766 16.296 6.93301 18.0973 7.18796 21.2675C7.45399 24.5929 11.511 25.3466 11.9765 25.4242C12.0652 25.4464 12.2537 25.4852 12.5031 25.4852C13.3233 25.4852 15.2964 25.0307 15.8894 20.8075C16.1056 19.2778 15.834 18.0695 15.0913 17.216C14.3597 16.3791 13.1626 15.9136 11.716 15.9136Z" fill="#04223D"/>
<g opacity="0.5">
<path d="M16.127 13.9131C17.9837 14.9828 19.081 16.9171 19.3083 19.0841C19.5854 16.2742 18.4492 13.5917 16.127 12.2504C12.796 10.3272 8.29011 11.8902 6.06763 15.7476C5.08109 17.4547 4.70976 19.3169 4.89265 21.0406C5.01458 19.8213 5.39701 18.5798 6.06763 17.4103C8.29011 13.5584 12.796 11.9899 16.127 13.9131Z" fill="white"/>
</g>
<g opacity="0.25">
<path d="M10.5579 18.2417C9.6988 18.4191 8.15803 19.5608 7.80332 21.5838C7.78115 21.4618 7.75344 21.3454 7.74235 21.218C7.51511 18.3803 9.52698 16.7841 10.5579 16.5735C12.0986 16.2576 15.9561 16.3241 15.3409 20.7247C15.3409 20.7302 15.3409 20.7358 15.3409 20.7413C14.8809 17.9868 11.8769 17.9646 10.5579 18.2362V18.2417Z" fill="black"/>
</g>
<g opacity="0.25">
<path d="M8.06932 25.0971C11.4003 27.0203 15.9062 25.4573 18.1287 21.5999C18.8492 20.3528 19.2371 19.0171 19.3258 17.7202C19.4311 19.3552 19.0542 21.101 18.1287 22.7083C15.9062 26.5602 11.4003 28.1287 8.06932 26.2055C5.81358 24.9031 4.68295 22.3425 4.86584 19.6268C5.01549 21.9158 6.12396 23.9775 8.06932 25.0971Z" fill="#04223D"/>
</g>
<path d="M38.7286 79.7553C20.8324 79.7553 13.6108 70.6326 11.4659 67.0411C11.4104 67.3349 11.3772 67.6508 11.3439 67.9501C11.3273 68.1164 11.3107 68.2771 11.2885 68.4267C11.2553 68.654 11.089 68.8369 10.8673 68.8923C10.823 68.9034 10.7786 68.9089 10.7343 68.9089C10.5569 68.9089 10.3851 68.8202 10.2798 68.6706C9.19351 67.1132 8.58386 65.4339 8.47301 63.7878C8.27903 64.7355 8.1183 65.9826 7.99083 67.6453C7.9742 67.8669 7.8301 68.0554 7.61949 68.1274C7.55853 68.1496 7.49756 68.1607 7.43659 68.1607C7.28695 68.1607 7.13731 68.0997 7.02646 67.9833C4.78181 65.5502 3.01381 58.1956 3.46828 53.6619C2.85308 54.7205 2.3321 56.0063 1.81666 57.6801C1.74461 57.9129 1.52846 58.0736 1.2846 58.0736C1.26797 58.0736 1.2458 58.0736 1.22918 58.0736C0.968686 58.0459 0.758078 57.8409 0.735908 57.5748C0.259267 52.62 0.309149 46.3793 4.96471 42.0286C5.18086 41.7902 5.48015 40.3769 5.76281 39.008C6.55536 35.2337 7.88552 28.9099 11.6211 22.78C16.2323 15.2203 26.8902 8.85768 27.7825 8.33115C28.4809 7.73258 36.2789 1.24805 45.0136 1.24805H45.1023C45.3296 1.24805 45.5346 1.39215 45.6178 1.6083C45.7009 1.82445 45.6399 2.06831 45.4681 2.21796C44.2211 3.32642 42.8577 4.5402 41.4998 6.53544C44.3042 4.11898 48.2393 1.70806 52.2187 1.70806H52.4237C52.6676 1.7136 52.8782 1.87987 52.9447 2.10711C53.0112 2.33989 52.9226 2.58929 52.7175 2.72231C49.7911 4.66767 49.2203 7.51089 49.1094 8.60273C54.3248 9.79433 60.1775 14.4333 63.1426 18.324C66.6897 22.9796 68.236 30.1624 68.8956 33.2273C69.0064 33.7317 69.1173 34.2582 69.1727 34.4189C69.2281 34.4854 69.3334 34.5908 69.472 34.7349C76.3389 41.8678 76.9209 50.1093 76.2004 55.768C76.1671 56.0285 75.951 56.2336 75.6905 56.2502C75.6794 56.2502 75.6628 56.2502 75.6517 56.2502C75.4023 56.2502 75.1861 56.0839 75.1196 55.8401C74.9312 55.1528 74.3659 54.0277 73.4735 53.1077C73.9724 56.3444 72.8971 62.2304 69.6438 65.3008C69.5385 65.4006 69.3999 65.4505 69.2614 65.4505C69.1671 65.4505 69.0674 65.4283 68.9843 65.3729C68.7736 65.251 68.6683 65.0016 68.7293 64.7577C68.9177 63.9984 69.0341 62.9841 68.9953 62.0032C64.5282 72.3174 53.8038 78.1979 47.1918 79.129C44.2543 79.5391 41.4056 79.7497 38.7231 79.7497L38.7286 79.7553Z" fill="#1877F2"/>
<path d="M45.0135 1.79694C45.0135 1.79694 45.069 1.79694 45.0967 1.79694C43.0682 3.5982 41.0341 5.47151 39.1054 9.7114C41.738 6.5689 47.0698 2.2625 52.2186 2.2625C52.2851 2.2625 52.3516 2.2625 52.4126 2.2625C48.4941 4.8674 48.5329 9.04632 48.5329 9.04632C53.5931 9.9996 59.5844 14.5665 62.7047 18.6623C67.0665 24.3931 68.3801 34.2141 68.6904 34.7018C69.1061 35.3558 77.3863 42.1119 75.646 55.6962C75.3246 54.5267 74.1385 52.4927 72.3206 51.5505C73.8005 53.1245 73.1963 61.172 69.2557 64.902C69.6049 63.4942 69.7102 61.427 69.1837 59.9582C65.3983 71.0595 54.2859 77.5773 47.1086 78.586C44.0824 79.0128 41.2891 79.2012 38.7175 79.2012C20.3723 79.2012 13.2172 69.4911 11.3826 65.7611C10.8672 66.3707 10.834 67.5069 10.7231 68.3493C9.02161 65.9107 8.46737 63.0065 9.5703 60.4238C8.53942 61.1443 7.81892 62.5354 7.42541 67.6011C4.55448 64.4863 2.76985 53.6067 4.84823 51.0074C3.32408 52.4484 2.29875 54.1831 1.27342 57.5141C0.780151 52.3763 0.996301 46.4793 5.32487 42.4278C6.35574 41.4635 6.61623 32.0193 12.081 23.0574C16.7753 15.3646 28.0928 8.77475 28.0928 8.77475C28.0928 8.77475 36.1403 1.7914 44.9969 1.79694M45.0135 0.688477C36.2234 0.688477 28.3921 7.08433 27.461 7.87135C26.3026 8.55305 15.7666 14.9157 11.1499 22.4809C7.36445 28.6939 6.0232 35.0731 5.21956 38.8863C4.98124 40.0335 4.70967 41.3249 4.52677 41.6685C-0.295063 46.2354 -0.261809 52.9527 0.18712 57.6194C0.237002 58.1459 0.652677 58.5616 1.1792 58.617C1.218 58.617 1.25679 58.6225 1.29005 58.6225C1.77223 58.6225 2.20453 58.3066 2.34863 57.8411C2.52599 57.2591 2.70334 56.7326 2.8807 56.256C3.09131 60.7619 4.66533 66.2322 6.62177 68.3549C6.83793 68.5876 7.13167 68.7096 7.4365 68.7096C7.55843 68.7096 7.68036 68.6874 7.80229 68.6486C8.21797 68.5045 8.51171 68.1276 8.54497 67.6842C8.56713 67.3683 8.59485 67.0691 8.62256 66.7864C8.92739 67.5346 9.33198 68.2717 9.82525 68.9812C10.0359 69.2804 10.3795 69.4578 10.7342 69.4578C10.8229 69.4578 10.906 69.4467 10.9947 69.4245C11.4104 69.3248 11.7263 68.9978 11.8149 68.5877C14.7856 72.7832 22.3897 80.3097 38.7285 80.3097C41.4387 80.3097 44.3097 80.0991 47.2748 79.6834C51.3041 79.1181 56.1038 76.9732 60.0998 73.9416C62.6271 72.0239 65.7862 69.0588 68.1584 64.9242C68.1639 65.301 68.369 65.6613 68.707 65.8608C68.8789 65.9606 69.0728 66.0105 69.2668 66.0105C69.5439 66.0105 69.8155 65.9052 70.0317 65.7056C72.753 63.134 74.1053 58.484 74.1552 54.9701C74.3602 55.347 74.5043 55.6962 74.5875 55.9899C74.7205 56.4776 75.1583 56.8046 75.6571 56.8046C75.6848 56.8046 75.707 56.8046 75.7347 56.8046C76.2612 56.7658 76.688 56.3613 76.7545 55.8403C77.4916 50.0652 76.8986 41.6464 69.8765 34.3526C69.81 34.2806 69.7324 34.203 69.677 34.142C69.6215 33.9314 69.5329 33.5157 69.4442 33.1111C68.7791 30.0074 67.2106 22.7414 63.5915 17.9917C60.6596 14.1453 54.951 9.57839 49.7356 8.18726C49.9462 6.98457 50.6557 4.76764 53.0333 3.18807C53.4379 2.92204 53.6208 2.42323 53.4822 1.95767C53.3492 1.49212 52.928 1.17066 52.4403 1.15958C52.3682 1.15958 52.2906 1.15958 52.2186 1.15958C49.7301 1.15958 47.2693 2.05743 45.0745 3.31554C45.3295 3.08277 45.5789 2.86107 45.8338 2.63938C46.1774 2.33455 46.2994 1.84683 46.1331 1.42007C45.9668 0.993305 45.5622 0.688477 45.1078 0.688477H45.0191H45.0135Z" fill="#04223D"/>
<g opacity="0.25">
<path d="M1.28996 54.1888C1.23454 53.5903 1.18466 52.9806 1.1514 52.3654C1.0461 54.1057 1.12923 55.8515 1.28996 57.5142C2.09914 54.8872 2.90833 53.2577 3.96137 51.9774C3.95028 50.0709 4.22186 48.4858 4.86477 47.6821C3.34063 49.1231 2.3153 50.8579 1.28996 54.1888ZM9.5813 57.0986C8.55043 57.8191 7.82992 59.2102 7.43642 64.2759C5.69612 62.3915 4.35488 57.6528 4.03342 53.6346C3.59003 57.8856 5.17514 65.1516 7.43642 67.6013C7.76341 63.4113 8.31211 61.7375 9.07141 60.8784C8.91068 59.6037 9.06032 58.3179 9.57576 57.1041L9.5813 57.0986ZM69.4995 61.344C69.6381 62.5633 69.5217 63.899 69.2667 64.9022C72.4148 61.9259 73.429 56.1896 72.9579 53.2023C72.6254 55.9901 71.5391 59.2545 69.4995 61.344ZM69.2002 56.633C65.4148 67.7343 54.3024 74.2521 47.1251 75.2608C22.5005 78.7137 13.4942 66.6868 11.3992 62.4358C10.8837 63.0455 10.8505 64.1817 10.7396 65.0241C9.99143 63.9544 9.46491 62.7905 9.20442 61.61C8.6779 63.8713 9.2931 66.2822 10.7396 68.3495C10.856 67.5071 10.8837 66.3709 11.3992 65.7612C13.4886 70.0122 22.4949 82.0391 47.1251 78.5862C54.3024 77.5775 65.4204 71.0597 69.2002 59.9584C69.2944 60.2244 69.3665 60.5182 69.4219 60.8175C69.6381 59.4928 69.6381 57.8579 69.2002 56.633ZM75.8399 50.3702C75.8011 51.0242 75.7457 51.6837 75.657 52.3709C75.3356 51.2015 74.1495 49.1675 72.3316 48.2253C72.8692 48.8017 73.1297 50.2371 73.0577 52.0107C74.4599 53.0527 75.3799 54.6876 75.657 55.6963C75.9009 53.7842 75.9397 52.0107 75.8399 50.3702Z" fill="#04223D"/>
</g>
<g opacity="0.5">
<path d="M62.7105 18.6569C59.762 14.7828 53.9148 10.1161 48.5388 9.04092C48.4446 10.36 48.9489 11.5516 48.9489 11.5516C54.2141 12.5437 60.4548 17.2935 63.7026 21.5555C64.9718 23.2238 65.9916 25.2245 66.8119 27.2475C65.9029 24.3378 64.5894 21.1121 62.7105 18.6458V18.6569ZM45.1025 1.79708C36.2126 1.75275 28.1097 8.77489 28.1097 8.77489C28.1097 8.77489 16.7923 15.3647 12.0979 23.0575C10.2523 26.0892 8.99974 29.1762 8.10742 31.9696C8.87781 30.063 9.83109 28.0899 11.0171 26.1446C15.8999 18.1359 27.683 11.28 27.683 11.28C27.683 11.28 34.5056 5.36635 42.6085 4.21354C43.4343 3.29352 44.2656 2.53976 45.097 1.79708H45.1025ZM52.4184 2.26264C49.481 2.20167 46.4659 3.57063 43.922 5.34418C40.8959 7.46135 39.1113 9.71154 39.1113 9.71154C39.1113 9.71154 42.5919 6.26975 49.8301 4.91742C50.401 3.99185 51.2268 3.05519 52.4184 2.26264Z" fill="white"/>
</g>
<path d="M39.3172 72.0574C33.7416 72.0574 28.2824 70.572 24.3362 67.9782C14.7369 61.6655 17.9459 51.3124 18.0845 50.8745C19.2262 47.3385 21.6814 45.6204 25.5999 45.6204C28.2048 45.6204 31.1256 46.3742 33.6972 47.0392C35.831 47.5935 37.8429 48.1089 39.3116 48.1089C40.9799 48.1089 43.0527 47.4993 45.253 46.8508C47.7969 46.1026 50.424 45.3267 52.8793 45.3267C56.576 45.3267 59.0534 47.1612 60.4556 50.941C61.032 52.4874 63.454 60.5847 54.6029 67.7953C51.2831 70.5 45.7075 72.0518 39.3116 72.0518L39.3172 72.0574Z" fill="#FFF1E6"/>
<path d="M52.8851 45.6094C55.95 45.6094 58.6491 46.862 60.201 51.0464C60.9769 53.1359 62.828 60.7511 54.4369 67.5903C50.8843 70.4834 45.1424 71.7859 39.3174 71.7859C33.4924 71.7859 28.266 70.234 24.4917 67.751C15.9121 62.1089 17.6635 53.0971 18.3508 50.9633C19.6089 47.0615 22.3801 45.9032 25.6002 45.9032C30.3222 45.9032 36.0087 48.3972 39.3174 48.3972C42.9421 48.3972 48.3182 45.6205 52.8851 45.6149M52.8851 45.0552C50.391 45.0552 47.7418 45.8366 45.1812 46.5904C43.0031 47.2333 40.9413 47.8374 39.3174 47.8374C37.882 47.8374 35.8867 47.322 33.7696 46.7733C31.1757 46.1027 28.2438 45.3434 25.6002 45.3434C21.5487 45.3434 19.0048 47.1225 17.8187 50.7915C17.6746 51.2349 14.4046 61.7819 24.1813 68.2111C28.1663 70.8326 33.6864 72.3401 39.3119 72.3401C45.7743 72.3401 51.4108 70.7661 54.7806 68.0226C63.7758 60.6901 61.3039 52.4376 60.7164 50.858C59.2699 46.9562 56.7038 45.0607 52.8795 45.0607L52.8851 45.0552Z" fill="#04223D"/>
<g opacity="0.25">
<path d="M54.4372 64.265C50.8845 67.1581 45.1427 68.4606 39.3177 68.4606C33.4927 68.4606 28.2662 66.9087 24.4919 64.4257C19.7532 61.3054 18.1681 57.1597 17.8134 53.7124C17.4365 57.4147 18.0683 63.5279 24.4919 67.7511C28.2662 70.2341 33.6201 71.786 39.3177 71.786C45.0152 71.786 50.8845 70.4835 54.4372 67.5904C60.6335 62.5413 61.2487 57.0711 60.8275 53.7124C60.4395 56.8272 58.8655 60.6514 54.4372 64.265Z" fill="#3A1A04"/>
</g>
<path d="M34.6453 64.8695L31.2645 68.328C31.0982 68.5053 30.8377 68.5497 30.616 68.4444L29.3136 67.8014L27.8947 67.0532C27.6564 66.9313 27.5456 66.6542 27.6232 66.3992L29.1639 61.0952C29.9676 61.1839 30.5828 61.3612 31.1813 61.5996C31.6247 61.7714 31.9794 61.9931 32.312 62.2148C33.5313 63.035 33.559 63.5726 34.6508 64.8751L34.6453 64.8695Z" fill="white" stroke="#8D9299" stroke-width="0.554234" stroke-linecap="round" stroke-linejoin="bevel"/>
<path d="M32.5499 62.3418C31.5744 64.2151 30.7653 66.2381 29.3076 67.801C29.8009 65.7227 31.0424 63.9325 32.0566 62.0813C32.2284 61.7876 32.694 62.037 32.5443 62.3418H32.5499Z" fill="#8D9299"/>
<path d="M49.0219 63.6499C46.1566 67.2136 40.3482 68.7987 36.1582 66.7979C35.7481 66.5873 35.1273 66.1107 34.961 65.8336C32.9048 62.8906 31.6523 61.1891 27.7726 61.2944C26.7639 61.2944 25.722 61.3553 24.6855 61.1614C26.7307 60.7512 28.8645 60.5462 30.904 61.1724C33.0157 61.7876 34.2405 63.8605 35.4765 65.44C37.1614 67.1305 40.0434 67.2413 42.2991 66.8533C44.8486 66.4654 46.8216 64.8914 49.0219 63.6499Z" fill="#686360"/>
<path d="M51.078 23.3407C54.0598 24.1388 55.8832 25.7849 56.964 27.3367C56.7146 26.6772 54.8634 21.5782 49.116 20.2425C47.3258 19.8269 45.1754 20.891 46.1065 22.3985C46.7661 23.4626 48.268 22.5925 51.078 23.3462V23.3407Z" fill="black"/>
<path d="M39.2508 53.0864C40.0766 53.8568 40.1764 55.0207 40.3094 56.0737C40.5699 59.8592 39.079 63.8663 36.0362 66.2218C35.7536 66.4324 35.421 66.0222 35.6926 65.7895C38.4361 63.4284 39.8549 59.704 39.7219 56.1181C39.6775 55.065 39.3228 54.1727 39.2563 53.092L39.2508 53.0864Z" fill="#686360"/>
<path d="M26.2541 24.2553C23.2723 25.0533 21.4489 26.6994 20.3682 28.2513C20.6176 27.5917 22.4687 22.4928 28.2161 21.1571C30.0063 20.7414 32.1567 21.8055 31.2256 23.3131C30.5661 24.3772 29.0641 23.507 26.2541 24.2608V24.2553Z" fill="black"/>
<path d="M28.6268 40.8661C25.2682 40.8661 22.5303 37.8511 22.5303 34.1433C22.5303 30.4354 25.2626 27.4204 28.6268 27.4204C31.991 27.4204 34.7234 30.4354 34.7234 34.1433C34.7234 37.8511 31.991 40.8661 28.6268 40.8661Z" fill="white"/>
<path d="M28.6266 27.7027C31.8412 27.7027 34.4461 30.5902 34.4461 34.1484C34.4461 37.7066 31.8412 40.5941 28.6266 40.5941C25.4121 40.5941 22.8072 37.7066 22.8072 34.1484C22.8072 30.5902 25.4121 27.7027 28.6266 27.7027ZM28.6266 27.1484C25.1128 27.1484 22.2529 30.2909 22.2529 34.1484C22.2529 38.0059 25.1128 41.1484 28.6266 41.1484C32.1405 41.1484 35.0003 38.0059 35.0003 34.1484C35.0003 30.2909 32.1405 27.1484 28.6266 27.1484Z" fill="#04223D"/>
<path d="M30.6833 38.8482C32.5719 38.8482 34.1029 36.9301 34.1029 34.564C34.1029 32.1979 32.5719 30.2798 30.6833 30.2798C28.7947 30.2798 27.2637 32.1979 27.2637 34.564C27.2637 36.9301 28.7947 38.8482 30.6833 38.8482Z" fill="black"/>
<path d="M50.6132 41.4203C47.2545 41.4203 44.5166 38.4053 44.5166 34.6975C44.5166 30.9896 47.249 27.9746 50.6132 27.9746C53.9774 27.9746 56.7097 30.9896 56.7097 34.6975C56.7097 38.4053 53.9774 41.4203 50.6132 41.4203Z" fill="white"/>
<path d="M50.6129 28.2569C53.8275 28.2569 56.4324 31.1444 56.4324 34.7026C56.4324 38.2608 53.8275 41.1483 50.6129 41.1483C47.3984 41.1483 44.7935 38.2608 44.7935 34.7026C44.7935 31.1444 47.3984 28.2569 50.6129 28.2569ZM50.6129 27.7026C47.0991 27.7026 44.2393 30.8451 44.2393 34.7026C44.2393 38.5601 47.0991 41.7026 50.6129 41.7026C54.1268 41.7026 56.9866 38.5601 56.9866 34.7026C56.9866 30.8451 54.1268 27.7026 50.6129 27.7026Z" fill="#04223D"/>
<path d="M52.6745 39.4024C54.5631 39.4024 56.0941 37.4843 56.0941 35.1182C56.0941 32.7521 54.5631 30.834 52.6745 30.834C50.7859 30.834 49.2549 32.7521 49.2549 35.1182C49.2549 37.4843 50.7859 39.4024 52.6745 39.4024Z" fill="black"/>
<path d="M35.8536 52.8035L33.0325 51.1464C29.1917 48.8851 31.2922 44.2129 36.1529 44.2129H41.795C46.6556 44.2129 48.7617 48.8906 44.9153 51.1464L42.0942 52.8035C40.2542 53.8843 37.6881 53.8843 35.8536 52.8035Z" fill="black"/>
<path d="M32.4112 32.0587C32.9009 32.0587 33.298 31.6617 33.298 31.1719C33.298 30.6822 32.9009 30.2852 32.4112 30.2852C31.9214 30.2852 31.5244 30.6822 31.5244 31.1719C31.5244 31.6617 31.9214 32.0587 32.4112 32.0587Z" fill="white"/>
<path d="M54.3653 32.0587C54.855 32.0587 55.2521 31.6617 55.2521 31.1719C55.2521 30.6822 54.855 30.2852 54.3653 30.2852C53.8755 30.2852 53.4785 30.6822 53.4785 31.1719C53.4785 31.6617 53.8755 32.0587 54.3653 32.0587Z" fill="white"/>
<path opacity="0.3" d="M43.807 47.3556C41.8727 45.4712 36.1308 45.4546 34.0303 47.3556C34.0303 47.3556 35.3383 47.023 38.8466 46.9842C42.4602 46.9454 43.807 47.3556 43.807 47.3556Z" fill="white"/>
<path opacity="0.25" d="M31.7516 63.3177C32.8711 64.0715 32.993 64.5924 33.8521 65.6843L34.6446 64.8751C33.5528 63.5726 33.5251 63.0295 32.3058 62.2148C31.9732 61.9931 31.6241 61.7714 31.1751 61.5996C30.571 61.3668 29.9558 61.1839 29.1577 61.0952L28.8252 62.2369C29.518 62.3312 30.0778 62.4974 30.6209 62.708C31.0643 62.8798 31.419 63.1015 31.7516 63.3232V63.3177Z" fill="#8D9299"/>
</svg>
