<svg width="20" height="20" viewBox="0 0 20 20" fill="none" xmlns="http://www.w3.org/2000/svg">
<g clip-path="url(#clip0_395_11639)">
<path d="M9.36666 20C9.09364 19.9991 8.82409 19.9388 8.57666 19.8234C8.1725 19.6434 7.84791 19.3221 7.66379 18.9198C7.47968 18.5175 7.4487 18.0619 7.57666 17.6384L8.87749 13.3334H5.81249C5.422 13.3338 5.03682 13.2428 4.68783 13.0676C4.33884 12.8924 4.03575 12.6379 3.80284 12.3245C3.56993 12.011 3.41368 11.6474 3.34662 11.2627C3.27956 10.878 3.30355 10.483 3.41666 10.1092L5.93666 1.77587C6.09027 1.26044 6.4069 0.808729 6.83904 0.488533C7.27117 0.168338 7.7955 -0.00306802 8.33333 4.15744e-05H11.4108C11.7606 0.000334193 12.1051 0.0853132 12.415 0.247716C12.7248 0.410119 12.9906 0.645118 13.1899 0.932628C13.3891 1.22014 13.5158 1.55161 13.559 1.89872C13.6023 2.24583 13.5609 2.59825 13.4383 2.92587L12.0358 6.66671H14.1667C14.6209 6.66667 15.0665 6.79038 15.4557 7.02455C15.8449 7.25871 16.163 7.59449 16.3757 7.9958C16.5884 8.39711 16.6878 8.8488 16.6632 9.30234C16.6385 9.75588 16.4908 10.1941 16.2358 10.57L10.9025 19.1534C10.7376 19.4116 10.5107 19.6244 10.2424 19.7723C9.97409 19.9202 9.67301 19.9985 9.36666 20Z" fill="#FFB629"/>
<line x1="15.0941" y1="9.65704" x2="9.74442" y2="17.888" stroke="#FEC961" stroke-linecap="round"/>
<line x1="7.5" y1="1.5" x2="11.5" y2="1.5" stroke="#FEC961" stroke-linecap="round"/>
</g>
<defs>
<clipPath id="clip0_395_11639">
<rect width="20" height="20" fill="white"/>
</clipPath>
</defs>
</svg>
