<svg width="33" height="32" viewBox="0 0 33 32" fill="none" xmlns="http://www.w3.org/2000/svg">
<rect x="0.333374" width="32" height="32" rx="16" fill="#F0F8FF"/>
<g clip-path="url(#clip0_1019_3329)">
<path d="M11.7767 23C11.9678 22.9993 12.1565 22.9571 12.3297 22.8764C12.6126 22.7504 12.8398 22.5255 12.9687 22.2439C13.0976 21.9623 13.1193 21.6433 13.0297 21.3469L12.1191 18.3334H14.2646C14.538 18.3337 14.8076 18.27 15.0519 18.1473C15.2962 18.0247 15.5083 17.8465 15.6714 17.6271C15.8344 17.4077 15.9438 17.1532 15.9907 16.8839C16.0377 16.6146 16.0209 16.3381 15.9417 16.0764L14.1777 10.2431C14.0702 9.88231 13.8485 9.56611 13.546 9.34197C13.2435 9.11784 12.8765 8.99785 12.5 9.00003H10.3458C10.1009 9.00023 9.85976 9.05972 9.64289 9.1734C9.42602 9.28708 9.2399 9.45158 9.10044 9.65284C8.96098 9.8541 8.87231 10.0861 8.84203 10.3291C8.81174 10.5721 8.84074 10.8188 8.92653 11.0481L9.90828 13.6667H8.4167C8.09875 13.6667 7.7868 13.7533 7.51436 13.9172C7.24193 14.0811 7.01929 14.3161 6.87038 14.5971C6.72146 14.878 6.65189 15.1942 6.66914 15.5116C6.68639 15.8291 6.78981 16.1359 6.96828 16.399L10.7016 22.4074C10.817 22.5881 10.9759 22.7371 11.1637 22.8406C11.3515 22.9441 11.5622 22.9989 11.7767 23Z" fill="#FFB629"/>
<line x1="0.4375" y1="-0.4375" x2="7.13416" y2="-0.4375" transform="matrix(0.544954 0.838466 0.838466 -0.544954 7.87024 15.2754)" stroke="#FEC961" stroke-width="0.875" stroke-linecap="round"/>
<line x1="0.4375" y1="-0.4375" x2="3.0625" y2="-0.4375" transform="matrix(-1 0 0 1 13.4333 10.4004)" stroke="#FEC961" stroke-width="0.875" stroke-linecap="round"/>
</g>
<g clip-path="url(#clip1_1019_3329)">
<path d="M20.5151 23C20.3239 22.9993 20.1353 22.9571 19.9621 22.8764C19.6791 22.7504 19.4519 22.5255 19.323 22.2439C19.1942 21.9623 19.1725 21.6433 19.2621 21.3469L20.1726 18.3334H18.0271C17.7538 18.3337 17.4842 18.27 17.2399 18.1473C16.9956 18.0247 16.7834 17.8465 16.6204 17.6271C16.4573 17.4077 16.348 17.1532 16.301 16.8839C16.2541 16.6146 16.2709 16.3381 16.3501 16.0764L18.1141 10.2431C18.2216 9.88231 18.4432 9.56611 18.7457 9.34197C19.0482 9.11784 19.4152 8.99785 19.7917 9.00003H21.946C22.1908 9.00023 22.432 9.05972 22.6489 9.1734C22.8657 9.28708 23.0518 9.45158 23.1913 9.65284C23.3308 9.8541 23.4194 10.0861 23.4497 10.3291C23.48 10.5721 23.451 10.8188 23.3652 11.0481L22.3835 13.6667H23.8751C24.193 13.6667 24.5049 13.7533 24.7774 13.9172C25.0498 14.0811 25.2725 14.3161 25.4214 14.5971C25.5703 14.878 25.6399 15.1942 25.6226 15.5116C25.6054 15.8291 25.5019 16.1359 25.3235 16.399L21.5901 22.4074C21.4747 22.5881 21.3159 22.7371 21.1281 22.8406C20.9403 22.9441 20.7295 22.9989 20.5151 23Z" fill="#FFB629"/>
<line x1="24.5499" y1="15.8806" x2="20.9005" y2="21.4956" stroke="#FEC961" stroke-width="0.875" stroke-linecap="round"/>
<line x1="19.2959" y1="9.96289" x2="21.9209" y2="9.96289" stroke="#FEC961" stroke-width="0.875" stroke-linecap="round"/>
</g>
<defs>
<clipPath id="clip0_1019_3329">
<rect width="14" height="14" fill="white" transform="matrix(-1 0 0 1 18.3334 9)"/>
</clipPath>
<clipPath id="clip1_1019_3329">
<rect width="14" height="14" fill="white" transform="translate(13.9584 9)"/>
</clipPath>
</defs>
</svg>
