<svg width="33" height="32" viewBox="0 0 33 32" fill="none" xmlns="http://www.w3.org/2000/svg">
<rect x="0.666748" width="32" height="32" rx="16" fill="#F0F8FF"/>
<g clip-path="url(#clip0_1019_38)">
<path d="M16.1601 24C15.9417 23.9992 15.726 23.951 15.5281 23.8587C15.2047 23.7147 14.9451 23.4577 14.7978 23.1359C14.6505 22.814 14.6257 22.4495 14.7281 22.1107L15.7687 18.6667H13.3167C13.0043 18.6671 12.6962 18.5943 12.417 18.4541C12.1378 18.3139 11.8953 18.1103 11.709 17.8596C11.5227 17.6088 11.3977 17.3179 11.344 17.0102C11.2904 16.7024 11.3096 16.3864 11.4001 16.0874L13.4161 9.4207C13.539 9.00835 13.7923 8.64698 14.138 8.39083C14.4837 8.13467 14.9031 7.99755 15.3334 8.00003H17.7954C18.0752 8.00027 18.3509 8.06825 18.5987 8.19817C18.8466 8.3281 19.0593 8.51609 19.2187 8.7461C19.378 8.97611 19.4794 9.24129 19.514 9.51898C19.5486 9.79666 19.5155 10.0786 19.4174 10.3407L18.2954 13.3334H20.0001C20.3634 13.3333 20.72 13.4323 21.0313 13.6196C21.3427 13.807 21.5971 14.0756 21.7673 14.3966C21.9375 14.7177 22.017 15.079 21.9973 15.4419C21.9776 15.8047 21.8594 16.1553 21.6554 16.456L17.3887 23.3227C17.2568 23.5293 17.0753 23.6995 16.8607 23.8178C16.646 23.9361 16.4052 23.9988 16.1601 24Z" fill="#FFB629"/>
<line x1="20.7714" y1="15.8636" x2="16.6007" y2="22.2806" stroke="#FEC961" stroke-linecap="round"/>
<line x1="14.7667" y1="9.09961" x2="17.7667" y2="9.09961" stroke="#FEC961" stroke-linecap="round"/>
</g>
<g clip-path="url(#clip1_1019_38)">
<path d="M23.2868 24C23.123 23.9994 22.9612 23.9633 22.8128 23.894C22.5703 23.786 22.3755 23.5933 22.2651 23.3519C22.1546 23.1105 22.136 22.8371 22.2128 22.583L22.9933 20H21.1543C20.92 20.0003 20.6889 19.9457 20.4795 19.8406C20.2701 19.7355 20.0882 19.5828 19.9485 19.3947C19.8087 19.2066 19.715 18.9884 19.6748 18.7576C19.6345 18.5268 19.6489 18.2898 19.7168 18.0655L21.2288 13.0655C21.3209 12.7563 21.5109 12.4852 21.7702 12.2931C22.0295 12.101 22.3441 11.9982 22.6668 12H24.5133C24.7232 12.0002 24.9299 12.0512 25.1158 12.1486C25.3016 12.2461 25.4612 12.3871 25.5807 12.5596C25.7002 12.7321 25.7762 12.931 25.8022 13.1392C25.8282 13.3475 25.8033 13.559 25.7298 13.7555L24.8883 16H26.1668C26.4393 16 26.7067 16.0742 26.9402 16.2147C27.1737 16.3552 27.3646 16.5567 27.4922 16.7975C27.6198 17.0383 27.6795 17.3093 27.6647 17.5814C27.6499 17.8535 27.5613 18.1165 27.4083 18.342L24.2083 23.492C24.1094 23.647 23.9732 23.7746 23.8122 23.8634C23.6512 23.9521 23.4706 23.9991 23.2868 24Z" fill="#FFB629"/>
<line x1="26.7452" y1="17.8977" x2="23.6172" y2="22.7105" stroke="#FEC961" stroke-width="0.75" stroke-linecap="round"/>
<line x1="22.2417" y1="12.8242" x2="24.4917" y2="12.8242" stroke="#FEC961" stroke-width="0.75" stroke-linecap="round"/>
</g>
<g clip-path="url(#clip2_1019_38)">
<path d="M9.28677 24C9.12296 23.9994 8.96123 23.9633 8.81277 23.894C8.57028 23.786 8.37552 23.5933 8.26506 23.3519C8.15459 23.1105 8.136 22.8371 8.21277 22.583L8.99327 20H7.15427C6.91998 20.0003 6.68887 19.9457 6.47948 19.8406C6.27008 19.7355 6.08823 19.5828 5.94848 19.3947C5.80874 19.2066 5.71499 18.9884 5.67475 18.7576C5.63451 18.5268 5.64891 18.2898 5.71677 18.0655L7.22877 13.0655C7.32094 12.7563 7.51092 12.4852 7.7702 12.2931C8.02948 12.101 8.34408 11.9982 8.66677 12H10.5133C10.7232 12.0002 10.9299 12.0512 11.1158 12.1486C11.3016 12.2461 11.4612 12.3871 11.5807 12.5596C11.7002 12.7321 11.7762 12.931 11.8022 13.1392C11.8282 13.3475 11.8033 13.559 11.7298 13.7555L10.8883 16H12.1668C12.4393 16 12.7067 16.0742 12.9402 16.2147C13.1737 16.3552 13.3646 16.5567 13.4922 16.7975C13.6198 17.0383 13.6795 17.3093 13.6647 17.5814C13.6499 17.8535 13.5613 18.1165 13.4083 18.342L10.2083 23.492C10.1094 23.647 9.97318 23.7746 9.81221 23.8634C9.65123 23.9521 9.47059 23.9991 9.28677 24Z" fill="#FFB629"/>
<line x1="12.7452" y1="17.8977" x2="9.61716" y2="22.7105" stroke="#FEC961" stroke-width="0.75" stroke-linecap="round"/>
<line x1="8.2417" y1="12.8242" x2="10.4917" y2="12.8242" stroke="#FEC961" stroke-width="0.75" stroke-linecap="round"/>
</g>
<defs>
<clipPath id="clip0_1019_38">
<rect width="16" height="16" fill="white" transform="translate(8.66675 8)"/>
</clipPath>
<clipPath id="clip1_1019_38">
<rect width="12" height="12" fill="white" transform="translate(17.6667 12)"/>
</clipPath>
<clipPath id="clip2_1019_38">
<rect width="12" height="12" fill="white" transform="translate(3.66675 12)"/>
</clipPath>
</defs>
</svg>
