<svg width="32" height="32" viewBox="0 0 32 32" fill="none" xmlns="http://www.w3.org/2000/svg">
<rect width="32" height="32" rx="16" fill="#F6F6F6"/>
<g clip-path="url(#clip0_108_17234)">
<path d="M16 14.2229C17.3606 13.8639 18.7343 13.6816 20.0912 13.6816C21.6208 13.6816 23.1718 13.9127 24.7011 14.3683C25.4717 14.5979 26 15.3065 26 16.1106V24.1823C26 25.1863 25.1861 26.0002 24.182 26.0002H17.2073C16.5405 26.0002 16 25.4597 16 24.793L14.7928 19.0361L16 14.2229Z" fill="#D18A56"/>
<path d="M16 14.2229C14.6394 13.8639 13.2657 13.6816 11.9088 13.6816C10.3793 13.6816 8.82824 13.9127 7.29891 14.3683C6.52828 14.5979 6 15.3065 6 16.1106V24.1823C6 25.1863 6.81395 26.0002 7.81797 26.0002H14.7927C15.4595 26.0002 16 25.4597 16 24.793V14.2229Z" fill="#C27B48"/>
<path d="M7.81796 21.6885V23.2981C7.81796 23.8776 8.35308 24.3098 8.91921 24.1862C11.0259 23.7264 13.123 23.7519 15.2307 24.2627C15.7364 24.3852 16.2635 24.3852 16.7693 24.2627C18.877 23.7519 20.9741 23.7264 23.0808 24.1862C23.6469 24.3098 24.182 23.8776 24.182 23.2981C24.182 22.735 24.182 22.2017 24.182 21.6885H7.81796Z" fill="#E9EDF5"/>
<path d="M7.81796 21.6885V23.2981C7.81796 23.8776 8.35308 24.3098 8.91921 24.1862C11.0259 23.7264 13.123 23.7519 15.2307 24.2627C15.4836 24.3239 15.7418 24.3546 16 24.3546V21.6885H7.81796Z" fill="#DCE1EB"/>
<path d="M16 12.9293C18.4409 12.2022 20.8646 12.1241 23.3018 12.6951C23.8168 12.8158 24.182 13.2735 24.182 13.8024V21.6889C24.182 22.2684 23.6469 22.7006 23.0808 22.577C20.9741 22.1172 18.877 22.1427 16.7693 22.6534C16.2635 22.776 15.7365 22.776 15.2307 22.6534C13.123 22.1427 11.0259 22.1172 8.91921 22.577C8.35308 22.7006 7.81796 22.2684 7.81796 21.6889C7.81796 18.1288 7.81796 17.3626 7.81796 13.8024C7.81796 13.2735 8.18324 12.8158 8.6982 12.6951C11.1354 12.1241 13.5591 12.2022 16 12.9293Z" fill="#F2F6FC"/>
<path d="M8.6982 12.6951C8.18324 12.8158 7.81796 13.2735 7.81796 13.8024V21.6889C7.81796 22.2684 8.35308 22.7006 8.91921 22.577C11.0259 22.1172 13.123 22.1427 15.2307 22.6535C15.4836 22.7148 15.7418 22.7454 16 22.7454V12.9294C13.5591 12.2022 11.1354 12.1241 8.6982 12.6951Z" fill="#E9EDF5"/>
<path d="M21.2314 11.2314C21.2314 8.36632 18.9282 6.03921 16.0723 6.0005C13.1499 5.96089 10.7785 8.29073 10.7686 11.2135C10.7632 12.8336 11.4943 14.283 12.6462 15.2461C13.2355 15.7388 13.5855 16.4601 13.5855 17.2282V17.2676H18.4145V17.2279C18.4145 16.4666 18.7532 15.7446 19.339 15.2584C20.4951 14.2989 21.2314 12.8512 21.2314 11.2314Z" fill="#FFE45C"/>
<path d="M13.9879 11.2314C13.9879 9.04753 15.1477 7.13464 16.885 6.07479C16.6203 6.02968 16.3489 6.00425 16.0723 6.0005C13.1499 5.96089 10.7785 8.29073 10.7687 11.2135C10.7632 12.8336 11.4944 14.283 12.6462 15.2461C13.2355 15.7389 13.5856 16.4601 13.5856 17.2282V17.2676H18.4145V17.2279C18.4145 17.169 18.4173 17.1104 18.4213 17.052C15.8656 16.3498 13.9879 14.0101 13.9879 11.2314Z" fill="#FFDA45"/>
<path d="M16.9535 10.961C16.9535 10.3718 16.5266 10.3164 16 10.3164C15.4735 10.3164 15.0465 10.3718 15.0465 10.961C15.0465 11.5503 15.4734 12.0279 16 12.0279C16.5266 12.0279 16.9535 11.5502 16.9535 10.961Z" fill="#495560"/>
<path d="M12.9927 10.853C12.8309 10.853 12.6997 10.7218 12.6997 10.56V10.0771C12.6997 9.91535 12.8309 9.78418 12.9927 9.78418C13.1545 9.78418 13.2857 9.91535 13.2857 10.0771V10.56C13.2857 10.7218 13.1545 10.853 12.9927 10.853Z" fill="#495560"/>
<path d="M19.0073 10.853C18.8455 10.853 18.7144 10.7218 18.7144 10.56V10.0771C18.7144 9.91535 18.8455 9.78418 19.0073 9.78418C19.1692 9.78418 19.3003 9.91535 19.3003 10.0771V10.56C19.3003 10.7218 19.1692 10.853 19.0073 10.853Z" fill="#495560"/>
<path d="M18.4145 18.0726L16 18.8774L13.5855 18.0726C13.141 18.0726 12.7807 17.7122 12.7807 17.2677C12.7807 16.8232 13.141 16.4629 13.5855 16.4629H18.4145C18.859 16.4629 19.2193 16.8232 19.2193 17.2677C19.2193 17.7123 18.859 18.0726 18.4145 18.0726Z" fill="#636978"/>
<path d="M15.1952 17.2677C15.1952 16.8232 15.5555 16.4629 16 16.4629H13.5855C13.141 16.4629 12.7807 16.8232 12.7807 17.2677C12.7807 17.7122 13.141 18.0726 13.5855 18.0726L16 18.8774V18.0725C15.5555 18.0725 15.1952 17.7122 15.1952 17.2677Z" fill="#555A66"/>
<path d="M18.4145 19.682H13.5855C13.141 19.682 12.7807 19.3216 12.7807 18.8771C12.7807 18.4326 13.141 18.0723 13.5855 18.0723H18.4145C18.859 18.0723 19.2193 18.4326 19.2193 18.8771C19.2193 19.3216 18.859 19.682 18.4145 19.682Z" fill="#707789"/>
<path d="M15.1952 18.8771C15.1952 18.4326 15.5555 18.0723 16 18.0723H13.5855C13.141 18.0723 12.7807 18.4326 12.7807 18.8771C12.7807 19.3216 13.141 19.682 13.5855 19.682H16C15.5555 19.682 15.1952 19.3216 15.1952 18.8771Z" fill="#636978"/>
<path d="M22.4285 9.18469C22.3088 9.18469 22.1965 9.11083 22.1532 8.99184C22.0978 8.83981 22.1762 8.67169 22.3282 8.61633L22.7064 8.47872C22.8586 8.42329 23.0266 8.5018 23.0819 8.65383C23.1373 8.80587 23.0588 8.97399 22.9068 9.02934L22.5287 9.16696C22.4956 9.17899 22.4618 9.18469 22.4285 9.18469Z" fill="#FFE45C"/>
<path d="M21.2407 7.12681C21.1571 7.12681 21.0741 7.09123 21.0161 7.02216C20.9121 6.89822 20.9283 6.71341 21.0523 6.60943L21.3605 6.35076C21.4845 6.24677 21.6692 6.26294 21.7732 6.38689C21.8773 6.51083 21.8611 6.69564 21.7371 6.79962L21.4288 7.0583C21.374 7.10431 21.3071 7.12681 21.2407 7.12681Z" fill="#FFE45C"/>
<path d="M22.7383 10.3357C22.5988 10.3357 22.4752 10.2356 22.4502 10.0935C22.422 9.9342 22.5284 9.78225 22.6878 9.75416L23.8767 9.54452C24.036 9.51651 24.188 9.6228 24.2161 9.78217C24.2442 9.94151 24.1378 10.0935 23.9785 10.1215L22.7895 10.3312C22.7723 10.3342 22.7552 10.3357 22.7383 10.3357Z" fill="#FFE45C"/>
<path d="M21.9293 8.10274C21.828 8.10274 21.7295 8.0502 21.6753 7.95621C21.5944 7.8161 21.6424 7.63692 21.7825 7.55602L22.8281 6.95238C22.9681 6.87149 23.1474 6.91949 23.2283 7.05961C23.3092 7.19973 23.2611 7.37891 23.121 7.45981L22.0755 8.06344C22.0294 8.09008 21.979 8.10274 21.9293 8.10274Z" fill="#FFE45C"/>
<path d="M9.57148 9.18468C9.5382 9.18468 9.50437 9.17898 9.47133 9.16695L9.09316 9.02933C8.94113 8.97398 8.86273 8.80585 8.91808 8.65382C8.9734 8.50175 9.14148 8.42332 9.29359 8.47871L9.67176 8.61632C9.82379 8.67168 9.90218 8.8398 9.84683 8.99183C9.80351 9.11082 9.69117 9.18468 9.57148 9.18468Z" fill="#FFE45C"/>
<path d="M10.7593 7.12681C10.6929 7.12681 10.6261 7.10431 10.5712 7.0583L10.2629 6.79962C10.1389 6.6956 10.1227 6.51083 10.2268 6.38689C10.3308 6.26294 10.5155 6.24677 10.6395 6.35076L10.9477 6.60943C11.0717 6.71345 11.0879 6.89822 10.9839 7.02216C10.9259 7.09123 10.8429 7.12681 10.7593 7.12681Z" fill="#FFE45C"/>
<path d="M9.26168 10.3357C9.24476 10.3357 9.22769 10.3342 9.21043 10.3312L8.02148 10.1215C7.86215 10.0935 7.75574 9.9415 7.78387 9.78216C7.81199 9.62279 7.96375 9.51654 8.12324 9.54451L9.31219 9.75415C9.47152 9.78224 9.57793 9.93419 9.5498 10.0935C9.52476 10.2356 9.40117 10.3357 9.26168 10.3357Z" fill="#FFE45C"/>
<path d="M10.0707 8.10275C10.021 8.10275 9.97066 8.0901 9.92452 8.06346L8.87898 7.45982C8.73886 7.37893 8.69085 7.19975 8.77175 7.05963C8.85261 6.91951 9.03171 6.87146 9.17195 6.9524L10.2175 7.55603C10.3576 7.63693 10.4056 7.81611 10.3247 7.95623C10.2705 8.05018 10.172 8.10275 10.0707 8.10275Z" fill="#FFE45C"/>
</g>
<defs>
<clipPath id="clip0_108_17234">
<rect width="20" height="20" fill="white" transform="translate(6 6)"/>
</clipPath>
</defs>
</svg>
