<svg width="34" height="35" viewBox="0 0 34 35" fill="none" xmlns="http://www.w3.org/2000/svg">
<g clip-path="url(#clip0_703_16020)">
<path fill-rule="evenodd" clip-rule="evenodd" d="M5.27609 10.2715H15.2655L17 13.2769L18.7364 10.2715H28.7239C29.4907 10.2715 30.1164 9.64573 30.1164 8.87894V1.92574C30.1164 1.15895 29.4907 0.533203 28.7239 0.533203H5.27609C4.51122 0.533203 3.88541 1.15895 3.88541 1.92574V8.87894C3.88541 9.6458 4.51122 10.2715 5.27609 10.2715Z" fill="#FDD835"/>
<path fill-rule="evenodd" clip-rule="evenodd" d="M10.3867 4.02339C11.1497 3.81866 11.9319 4.27062 12.1347 5.03356C12.3394 5.79458 11.8874 6.57678 11.1264 6.78151C10.3654 6.98624 9.58127 6.53428 9.37847 5.77133C9.17374 5.01038 9.6257 4.22812 10.3867 4.02339Z" fill="white"/>
<path fill-rule="evenodd" clip-rule="evenodd" d="M16.6311 4.02339C17.3921 3.81866 18.1762 4.27062 18.379 5.03356C18.5838 5.79458 18.1318 6.57678 17.3708 6.78151C16.6079 6.98624 15.8257 6.53428 15.6209 5.77133C15.4181 5.01038 15.8701 4.22812 16.6311 4.02339Z" fill="white"/>
<path fill-rule="evenodd" clip-rule="evenodd" d="M22.8755 4.02339C23.6365 3.81866 24.4206 4.27062 24.6234 5.03356C24.8282 5.79458 24.3762 6.57678 23.6152 6.78151C22.8522 6.98624 22.07 6.53428 21.8653 5.77133C21.6625 5.01038 22.1145 4.22812 22.8755 4.02339Z" fill="white"/>
<path fill-rule="evenodd" clip-rule="evenodd" d="M9.09652 22.3564H11.6518C14.5683 22.3564 16.9536 24.7418 16.9536 27.6563V29.3541C15.1439 30.4782 12.859 31.1484 10.3751 31.1484C7.88932 31.1484 5.60441 30.4781 3.79471 29.3541V27.6563C3.79471 24.7418 6.18002 22.3564 9.09652 22.3564Z" fill="#00D696"/>
<path fill-rule="evenodd" clip-rule="evenodd" d="M10.3751 22.3567C12.716 22.3567 14.6262 20.4465 14.6262 18.1056C14.6262 15.7627 12.716 13.8525 10.3751 13.8525C8.03222 13.8525 6.12204 15.7627 6.12204 18.1056C6.12204 20.4465 8.03228 22.3567 10.3751 22.3567Z" fill="#FFAF93"/>
<path fill-rule="evenodd" clip-rule="evenodd" d="M9.09652 22.3564H10.5393C7.32347 22.3564 4.69093 24.9871 4.69093 28.2048V29.8543C4.38187 29.6998 4.08251 29.5337 3.79471 29.3541V27.6563C3.79471 24.7418 6.18002 22.3564 9.09652 22.3564Z" fill="#00C78B"/>
<path fill-rule="evenodd" clip-rule="evenodd" d="M10.3751 13.8525C10.5528 13.8525 10.7305 13.8642 10.9024 13.8853C8.80286 14.1461 7.17856 15.9346 7.17856 18.1055C7.17856 20.2746 8.80293 22.0631 10.9024 22.3238C10.7304 22.345 10.5527 22.3566 10.3751 22.3566C8.02644 22.3566 6.12204 20.4522 6.12204 18.1055C6.12204 15.757 8.02644 13.8525 10.3751 13.8525Z" fill="#EE8778"/>
<path fill-rule="evenodd" clip-rule="evenodd" d="M22.3482 22.3564H24.9054C27.82 22.3564 30.2053 24.7418 30.2053 27.6563V29.3541C28.3974 30.4782 26.1125 31.1484 23.6268 31.1484C21.143 31.1484 18.8561 30.4781 17.0483 29.3541V27.6563C17.0483 24.7418 19.4336 22.3564 22.3482 22.3564Z" fill="#8399FE"/>
<path fill-rule="evenodd" clip-rule="evenodd" d="M23.6268 22.3567C25.9697 22.3567 27.8798 20.4465 27.8798 18.1056C27.8798 15.7627 25.9696 13.8525 23.6268 13.8525C21.2859 13.8525 19.3757 15.7627 19.3757 18.1056C19.3757 20.4465 21.2858 22.3567 23.6268 22.3567Z" fill="#FFAF93"/>
<path fill-rule="evenodd" clip-rule="evenodd" d="M22.3482 22.3564H23.791C20.5751 22.3564 17.9445 24.9871 17.9445 28.2048V29.8543C17.6335 29.6998 17.3361 29.5337 17.0483 29.3541V27.6563C17.0483 24.7418 19.4336 22.3564 22.3482 22.3564Z" fill="#728BF1"/>
<path fill-rule="evenodd" clip-rule="evenodd" d="M23.6268 13.8525C23.8064 13.8525 23.9821 13.8642 24.156 13.8853C22.0565 14.1461 20.4322 15.9346 20.4322 18.1055C20.4322 20.2746 22.0566 22.0631 24.156 22.3238C23.9821 22.345 23.8064 22.3566 23.6268 22.3566C21.2781 22.3566 19.3757 20.4522 19.3757 18.1055C19.3757 15.757 21.2781 13.8525 23.6268 13.8525Z" fill="#EE8778"/>
<path fill-rule="evenodd" clip-rule="evenodd" d="M15.5939 24.7979H18.4061C21.6123 24.7979 24.2352 27.4208 24.2352 30.6269V32.4947C22.2478 33.7288 19.733 34.4667 17 34.4667C14.267 34.4667 11.7542 33.7288 9.76477 32.4947V30.6269C9.76477 27.4208 12.3877 24.7979 15.5939 24.7979Z" fill="#FF5BA8"/>
<path fill-rule="evenodd" clip-rule="evenodd" d="M17 24.7979C19.5765 24.7979 21.676 22.6984 21.676 20.1219C21.676 17.5472 19.5765 15.4458 17 15.4458C14.4253 15.4458 12.3239 17.5472 12.3239 20.1219C12.3239 22.6984 14.4253 24.7979 17 24.7979Z" fill="#FFAF93"/>
<path fill-rule="evenodd" clip-rule="evenodd" d="M15.5939 24.7979H17.1816C13.6451 24.7979 10.7518 27.6912 10.7518 31.2296V33.0432C10.4099 32.8733 10.0815 32.6898 9.76477 32.4947V30.6269C9.76477 27.4208 12.3877 24.7979 15.5939 24.7979Z" fill="#ED4593"/>
<path fill-rule="evenodd" clip-rule="evenodd" d="M17 15.4458C17.1969 15.4458 17.392 15.4574 17.5814 15.4825C15.2733 15.7683 13.4867 17.7366 13.4867 20.1219C13.4867 22.5072 15.2733 24.4753 17.5814 24.7631C17.3921 24.7863 17.197 24.7979 17 24.7979C14.4176 24.7979 12.3239 22.7043 12.3239 20.1219C12.3239 17.5396 14.4176 15.4458 17 15.4458Z" fill="#EE8778"/>
<path fill-rule="evenodd" clip-rule="evenodd" d="M5.45957 8.87901V1.92574C5.45957 1.15895 6.08531 0.533203 6.85025 0.533203H5.27609C4.51122 0.533203 3.88541 1.15895 3.88541 1.92574V8.87894C3.88541 9.64573 4.51122 10.2715 5.27609 10.2715H6.85025C6.08538 10.2715 5.45957 9.6458 5.45957 8.87901Z" fill="#FBC02D"/>
</g>
<defs>
<clipPath id="clip0_703_16020">
<rect width="34" height="34" fill="white" transform="translate(0 0.5)"/>
</clipPath>
</defs>
</svg>
