<svg width="15" height="24" viewBox="0 0 15 24" fill="none" xmlns="http://www.w3.org/2000/svg">
<path d="M7.43577 23.9995C0.786091 23.9995 -5.04896 16.7801 6.90581 0.727444C7.07794 0.49631 7.47365 0.609585 7.50172 0.896402C7.57163 1.6108 7.7468 2.56125 8.18506 2.99951C8.93506 3.74951 8.93506 5.99951 8.93506 5.99951C8.93506 5.99951 9.32801 8.99951 10.4555 8.99951C11.2187 8.99951 11.636 8.31217 11.8259 7.86804C11.88 7.74159 12.0771 7.72958 12.1405 7.85164C17.856 18.8591 14.1143 23.9995 7.43577 23.9995Z" fill="#FD3A00"/>
<path d="M5.91338 9.75063C7.61298 8.03414 7.43506 8.25075 7.43506 8.25075L7.79922 9.62187C7.79922 9.62187 8.51943 12.3061 9.68506 12.7507C10.2806 12.9779 11.0462 12.7881 11.7311 11.5962C11.7995 11.4771 11.9845 11.4947 12.0237 11.6263C13.5058 16.6099 14.8983 18.8232 13.4134 21.7506C12.6851 23.2506 8.05798 24.6555 5.17991 23.2506C2.37719 21.8825 0.36765 19.0209 2.02195 16.6876C2.08516 16.5985 2.21902 16.6119 2.26789 16.7097L2.64049 17.4549C2.71061 17.5951 2.92787 17.5474 2.93722 17.3909C3.1264 14.2256 4.31578 11.3641 5.91338 9.75063Z" fill="#FD7400"/>
<path d="M7.09184 15.8708C8.07312 14.8798 7.9704 15.0048 7.9704 15.0048L8.18065 15.7965C8.18065 15.7965 8.59647 17.3462 9.26945 17.603C9.61328 17.7341 10.0553 17.6245 10.4507 16.9364C10.4903 16.8676 10.5971 16.8777 10.6197 16.9538C11.4754 19.8311 12.2793 21.1089 11.422 22.7991C11.0015 23.6651 8.33004 24.4763 6.66837 23.6651C5.05019 22.8752 3.88997 21.2231 4.84509 19.8759C4.88159 19.8245 4.95887 19.8322 4.98709 19.8887L5.20221 20.3189C5.2427 20.3999 5.36813 20.3723 5.37353 20.282C5.48276 18.4545 6.16945 16.8024 7.09184 15.8708Z" fill="#FEA903"/>
</svg>
