<svg width="24" height="25" viewBox="0 0 24 25" fill="none" xmlns="http://www.w3.org/2000/svg">
<g clip-path="url(#clip0_869_6568)">
<path d="M19.3444 3.16915H18.6762L12 4.13495L5.32373 3.16915H4.55906C3.73461 3.16915 3.06628 2.50082 3.06628 1.67637C3.06624 0.851924 3.73461 0.183594 4.55906 0.183594H19.3444C20.1689 0.183594 20.8372 0.851924 20.8372 1.67637C20.8372 2.50082 20.1689 3.16915 19.3444 3.16915Z" fill="#B98080"/>
<path d="M19.441 0.183594H17.9923C18.8168 0.183594 19.4851 0.851924 19.4851 1.67637C19.4851 2.50083 18.8168 3.16916 17.9923 3.16916H19.441C20.2655 3.16916 20.9338 2.50083 20.9338 1.67637C20.9338 0.851924 20.2655 0.183594 19.441 0.183594Z" fill="#AE6C6C"/>
<path d="M18.5796 5.0439V3.16992H5.32373V5.0439C5.32373 7.95094 7.18182 10.4237 9.77513 11.34C10.133 11.4665 10.3724 11.8048 10.3724 12.1843C10.3724 12.5639 10.133 12.9022 9.77513 13.0286C7.18187 13.945 5.32373 16.4177 5.32373 19.3247V21.1987H18.5796V19.3247C18.5796 16.4177 16.7215 13.945 14.1282 13.0286C13.7703 12.9021 13.531 12.5639 13.531 12.1843H13.6275C13.6275 11.8047 13.7703 11.4665 14.1282 11.34C16.7215 10.4237 18.5796 7.95094 18.5796 5.0439Z" fill="#EFEDEF"/>
<path d="M5.32373 3.16992V4.11635H16.3C16.8122 4.11635 17.2275 4.53164 17.2275 5.0439C17.2275 7.94191 15.3809 10.4083 12.8003 11.3314C12.481 11.4456 12.2367 11.7182 12.1883 12.0538C12.1262 12.4845 12.3777 12.8878 12.7761 13.0286C15.3694 13.945 17.2275 16.4177 17.2275 19.3247V21.1987H18.6762V19.3247C18.6762 16.4267 16.8296 13.9603 14.249 13.0372C13.9297 12.923 13.6854 12.6504 13.637 12.3148C13.5749 11.8841 13.8263 11.4808 14.2248 11.34C16.8181 10.4237 18.6762 7.9509 18.6762 5.0439V4.1164V3.16992H5.32373Z" fill="#D7D0D6"/>
<path d="M19.3444 24.1838H4.55906C3.73461 24.1838 3.06628 23.5154 3.06628 22.691C3.06628 21.8665 3.73461 21.1982 4.55906 21.1982H5.32383L12.0001 20.2324L18.6763 21.1982H19.3445C20.169 21.1982 20.8373 21.8665 20.8373 22.691C20.8372 23.5154 20.1689 24.1838 19.3444 24.1838Z" fill="#B98080"/>
<path d="M19.441 21.1973H17.9923C18.8168 21.1973 19.4851 21.8656 19.4851 22.69C19.4851 23.5145 18.8168 24.1828 17.9923 24.1828H19.441C20.2655 24.1828 20.9338 23.5145 20.9338 22.69C20.9338 21.8656 20.2655 21.1973 19.441 21.1973Z" fill="#AE6C6C"/>
<path d="M15.2149 15.9614H14.5118C13.8047 15.9614 13.1048 15.4499 12.9892 14.7523L12.7023 13.022C12.5563 12.1413 13.2356 11.34 14.1283 11.34C15.8607 10.7279 17.264 9.42063 18.0055 7.75391H5.89807C6.63951 9.42067 8.04281 10.7279 9.7752 11.34C10.6679 11.34 11.3473 12.1413 11.2012 13.022L10.9144 14.7523C10.7987 15.4499 10.1954 15.9614 9.48831 15.9614H8.68858C6.84517 15.9614 5.3339 17.4446 5.32395 19.288C5.3239 19.3003 5.32385 19.3125 5.32385 19.3248V21.1988H18.5797V19.3248C18.5797 19.3125 18.5797 19.3003 18.5796 19.288C18.5696 17.4446 17.0584 15.9614 15.2149 15.9614Z" fill="#FED402"/>
<path d="M18.6762 19.288C18.6662 17.4446 17.155 15.9614 15.3115 15.9614H14.5118C13.8047 15.9614 13.2014 15.4499 13.0857 14.7523L12.7988 13.022C12.6528 12.1413 13.3321 11.34 14.2249 11.34C15.9573 10.7279 17.3605 9.42063 18.102 7.75391H16.6533C15.9119 9.42067 14.5086 10.7279 12.7762 11.34C11.8835 11.34 11.2041 12.1413 11.3501 13.022L11.637 14.7523C11.7527 15.4499 12.356 15.9614 13.0631 15.9614H13.8629C15.7063 15.9614 17.2175 17.4446 17.2275 19.288C17.2275 19.3003 17.2276 19.3125 17.2276 19.3248V21.1988H18.6763V19.3248C18.6763 19.3125 18.6762 19.3003 18.6762 19.288Z" fill="#FAC600"/>
</g>
<defs>
<clipPath id="clip0_869_6568">
<rect width="24" height="24" fill="white" transform="translate(0 0.183594)"/>
</clipPath>
</defs>
</svg>
