<svg width="137" height="45" viewBox="0 0 137 45" fill="none" xmlns="http://www.w3.org/2000/svg">
<g clip-path="url(#clip0_1294_7302)">
<path d="M105.772 42.8764C105.636 42.408 105.702 41.7129 106.775 41.0279C107.898 40.3127 109.117 40.1616 109.943 40.1616C110.31 40.1616 110.673 40.1868 111.031 40.2422C111.595 40.3278 112.068 40.6401 112.325 41.1035C112.471 41.3755 112.532 41.6374 112.496 41.9043V41.9295L112.476 41.995C112.446 42.1914 112.335 42.4231 112.154 42.6397L112.083 42.7253L109.993 42.8412C108.648 42.9167 107.324 42.9872 106.029 43.0527L105.828 43.0628L105.772 42.8714V42.8764Z" fill="#334058"/>
<path d="M109.943 40.4133C110.361 40.4133 110.718 40.4536 110.99 40.4939C111.454 40.5644 111.877 40.8213 112.104 41.2293C112.204 41.4157 112.275 41.6322 112.245 41.874C112.24 41.8891 112.24 41.9042 112.235 41.9193C112.204 42.0956 112.119 42.287 111.957 42.4835C109.918 42.5943 107.938 42.7051 106.014 42.8058C105.883 42.3525 106.024 41.8035 106.911 41.2394C107.938 40.5846 109.061 40.4133 109.943 40.4133ZM109.943 39.9097C108.709 39.9097 107.565 40.2219 106.639 40.8163C105.435 41.5819 105.369 42.3978 105.531 42.9468L105.641 43.3296L106.039 43.3095C107.354 43.239 108.699 43.1685 110.069 43.0929L111.983 42.9871L112.204 42.9771L112.345 42.8058C112.542 42.564 112.668 42.3122 112.723 42.0503L112.728 42.01V41.9899L112.743 41.9395C112.784 41.6272 112.718 41.3099 112.547 40.9926C112.25 40.4587 111.711 40.096 111.066 40.0003C110.703 39.9449 110.321 39.9147 109.943 39.9147V39.9097Z" fill="#04223D"/>
<g opacity="0.3">
<path d="M106.91 41.5669C108.426 40.5998 110.149 40.6905 110.99 40.8215C111.453 40.892 111.877 41.1488 112.103 41.5568C112.164 41.6676 112.209 41.7885 112.234 41.9195C112.239 41.9044 112.239 41.8892 112.244 41.8741C112.274 41.6324 112.204 41.4158 112.103 41.2294C111.877 40.8215 111.453 40.5646 110.99 40.4941C110.149 40.3631 108.426 40.2724 106.91 41.2395C106.099 41.7533 105.913 42.2569 105.989 42.6851C106.044 42.3375 106.296 41.9547 106.91 41.5669Z" fill="white"/>
</g>
<path d="M95.5825 24.8548C92.9079 24.8548 90.319 23.2531 88.8332 20.6793C86.6775 16.942 87.574 12.3687 90.8378 10.4849C91.7747 9.94597 92.8122 9.66895 93.9153 9.66895C96.5949 9.66895 99.1787 11.2706 100.665 13.8444C102.82 17.5817 101.924 22.1551 98.6599 24.0388C97.7231 24.5778 96.6855 24.8548 95.5825 24.8548Z" fill="#1877F2"/>
<path d="M93.9207 10.1724C96.3232 10.1724 98.8013 11.6079 100.237 14.096C102.257 17.5966 101.446 21.8527 98.4185 23.6004C97.5421 24.1091 96.57 24.3458 95.5929 24.3458C93.1903 24.3458 90.7122 22.9104 89.2768 20.4222C87.257 16.9217 88.0679 12.6656 91.095 10.9178C91.9714 10.4091 92.9435 10.1724 93.9207 10.1724ZM93.9207 9.16504C92.7421 9.16504 91.5886 9.47228 90.5914 10.0465C87.0858 12.0713 86.1036 16.9519 88.4004 20.9259C89.9769 23.6558 92.732 25.3532 95.5878 25.3532C96.7664 25.3532 97.9199 25.046 98.9171 24.4718C102.423 22.447 103.405 17.5664 101.108 13.5924C99.5316 10.8624 96.7765 9.16504 93.9207 9.16504Z" fill="#04223D"/>
<path d="M94.3791 22.6987C93.5329 22.6987 92.042 22.1749 91.5535 18.6643C91.3671 17.3497 91.5938 16.3171 92.2183 15.6019C93.0494 14.65 94.3791 14.5039 95.0943 14.5039C95.4721 14.5039 95.8649 14.5442 96.1974 14.6097C97.2652 14.8313 99.1741 16.3725 98.9525 19.0974C98.7158 22.0339 94.9533 22.6232 94.782 22.6484C94.782 22.6484 94.6259 22.6987 94.3741 22.6987H94.3791Z" fill="#FF8080"/>
<path d="M95.094 14.7507C95.4969 14.7507 95.8646 14.7961 96.1467 14.8515C97.0835 15.0429 98.9118 16.4884 98.7053 19.0723C98.4837 21.8475 94.7515 22.3966 94.7515 22.3966C94.7515 22.3966 94.6054 22.4419 94.3838 22.4419C93.7038 22.4419 92.2784 22.0188 91.805 18.624C91.3567 15.4357 93.5024 14.7507 95.099 14.7507M95.094 14.2471C93.7794 14.2471 92.6914 14.6651 92.0266 15.4307C91.3517 16.2064 91.1049 17.3044 91.3013 18.6945C91.8402 22.5325 93.6333 22.9456 94.3788 22.9456C94.6054 22.9456 94.7767 22.9103 94.8573 22.8902C95.2803 22.8196 98.9622 22.1346 99.209 19.1126C99.4407 16.2316 97.3958 14.5946 96.2524 14.3579C96.0056 14.3075 95.6027 14.2471 95.094 14.2471Z" fill="#04223D"/>
<g opacity="0.5">
<path d="M91.09 12.434C94.1171 10.6863 98.2119 12.1066 100.232 15.6122C100.846 16.67 101.194 17.8032 101.299 18.9113C101.461 17.3499 101.123 15.6525 100.232 14.1012C98.2119 10.6007 94.1171 9.17525 91.09 10.923C88.9796 12.1419 87.947 14.5797 88.1989 17.1333C88.4054 15.164 89.4026 13.4112 91.09 12.434Z" fill="white"/>
</g>
<g opacity="0.25">
<path d="M96.1517 16.3679C96.9324 16.5291 98.3326 17.5667 98.655 19.4051C98.6751 19.2943 98.7003 19.1885 98.7104 19.0726C98.9169 16.4938 97.0885 15.0432 96.1517 14.8518C94.7515 14.5647 91.2459 14.6252 91.805 18.6244C91.805 18.6294 91.805 18.6344 91.805 18.6395C92.223 16.1362 94.9529 16.1161 96.1517 16.3629V16.3679Z" fill="black"/>
</g>
<g opacity="0.25">
<path d="M98.4137 22.598C95.3866 24.3457 91.2917 22.9254 89.272 19.4198C88.6172 18.2865 88.2646 17.0726 88.1841 15.894C88.0884 17.3799 88.4309 18.9665 89.272 20.4271C91.2917 23.9277 95.3866 25.3531 98.4137 23.6053C100.464 22.4217 101.491 20.0947 101.325 17.6267C101.189 19.7069 100.182 21.5806 98.4137 22.598Z" fill="#04223D"/>
</g>
<path d="M45.4417 24.8548C44.3336 24.8548 43.301 24.5828 42.3642 24.0388C39.1004 22.1551 38.2038 17.5817 40.3596 13.8444C41.8454 11.2706 44.4343 9.66895 47.1088 9.66895C48.2169 9.66895 49.2495 9.94093 50.1863 10.4849C53.4501 12.3687 54.3467 16.942 52.1909 20.6793C50.7051 23.2531 48.1162 24.8548 45.4417 24.8548Z" fill="#1877F2"/>
<path d="M47.1088 10.1724C48.091 10.1724 49.0581 10.4142 49.9345 10.9178C52.9615 12.6656 53.7775 16.9217 51.7527 20.4222C50.3172 22.9104 47.8392 24.3458 45.4366 24.3458C44.4545 24.3458 43.4874 24.1041 42.611 23.6004C39.5839 21.8527 38.7679 17.5966 40.7927 14.096C42.2282 11.6079 44.7063 10.1724 47.1088 10.1724ZM47.1088 9.16504C44.253 9.16504 41.4979 10.8624 39.9214 13.5924C37.6246 17.5714 38.6068 22.452 42.1124 24.4718C43.1147 25.051 44.2631 25.3532 45.4417 25.3532C48.2975 25.3532 51.0526 23.6558 52.6291 20.9259C54.9259 16.9468 53.9437 12.0662 50.4381 10.0465C49.4358 9.46724 48.2874 9.16504 47.1088 9.16504Z" fill="#04223D"/>
<path d="M46.6455 22.6989C46.3886 22.6989 46.2173 22.6435 46.1972 22.6384C46.0763 22.6233 42.3038 22.034 42.067 19.0926C41.8454 16.3677 43.7544 14.8264 44.8222 14.6048C45.1596 14.5343 45.5525 14.499 45.9252 14.499C46.6455 14.499 47.9701 14.6401 48.8012 15.597C49.4258 16.3173 49.6524 17.3498 49.4661 18.6594C48.9725 22.17 47.4816 22.6938 46.6354 22.6938L46.6455 22.6989Z" fill="#FF8080"/>
<path d="M45.9301 14.7507C47.5267 14.7507 49.6674 15.4357 49.2241 18.624C48.7507 22.0188 47.3253 22.4419 46.6453 22.4419C46.4186 22.4419 46.2776 22.3966 46.2776 22.3966C46.2776 22.3966 42.5454 21.8475 42.3238 19.0723C42.1172 16.4935 43.9456 15.0429 44.8824 14.8515C45.1645 14.791 45.5322 14.7507 45.9351 14.7507M45.9301 14.2471C45.4264 14.2471 45.0235 14.3075 44.7716 14.3579C43.6232 14.5946 41.5834 16.2316 41.815 19.1126C42.0568 22.1296 45.7437 22.8196 46.1668 22.8902C46.2474 22.9103 46.4186 22.9456 46.6453 22.9456C47.3907 22.9456 49.1838 22.5325 49.7228 18.6945C49.9192 17.3044 49.6724 16.2064 48.9975 15.4307C48.3326 14.6702 47.2447 14.2471 45.9301 14.2471Z" fill="#04223D"/>
<g opacity="0.5">
<path d="M49.9345 12.434C51.6218 13.4061 52.6191 15.1639 52.8256 17.1333C53.0774 14.5796 52.0449 12.1418 49.9345 10.9229C46.9074 9.17518 42.8125 10.5955 40.7928 14.1011C39.8962 15.6525 39.5588 17.3448 39.725 18.9112C39.8358 17.8032 40.1833 16.6749 40.7928 15.6122C42.8125 12.1116 46.9074 10.6862 49.9345 12.434Z" fill="white"/>
</g>
<g opacity="0.25">
<path d="M44.8726 16.3679C44.0919 16.5291 42.6917 17.5667 42.3694 19.4051C42.3492 19.2943 42.324 19.1885 42.314 19.0726C42.1075 16.4938 43.9358 15.0432 44.8726 14.8518C46.2729 14.5647 49.7785 14.6252 49.2194 18.6244C49.2194 18.6294 49.2194 18.6344 49.2194 18.6395C48.8013 16.1362 46.0714 16.1161 44.8726 16.3629V16.3679Z" fill="black"/>
</g>
<g opacity="0.25">
<path d="M42.6113 22.598C45.6384 24.3457 49.7333 22.9254 51.753 19.4198C52.4078 18.2865 52.7604 17.0726 52.841 15.894C52.9367 17.3799 52.5942 18.9665 51.753 20.4271C49.7333 23.9277 45.6384 25.3531 42.6113 23.6053C40.5613 22.4217 39.5338 20.0947 39.7 17.6267C39.836 19.7069 40.8434 21.5806 42.6113 22.598Z" fill="#04223D"/>
</g>
<path d="M67.7848 44.0195C66.0774 44.0195 64.4908 44.0094 63.015 43.9893C60.6226 43.954 58.3913 43.8936 56.3917 43.8029C56.3917 43.8029 54.0496 43.6972 53.2538 43.6619C50.5944 43.536 47.2903 43.3899 43.6386 43.2237L37.3376 42.9417C37.1764 42.9366 37.0253 42.851 36.9347 42.71C36.849 42.574 36.8289 42.4027 36.8893 42.2516C37.5491 40.6046 38.5212 39.1691 39.7905 37.9905C39.9869 37.7739 40.2539 36.4896 40.5158 35.2455C41.09 32.5256 41.9513 28.4156 43.9559 24.0538C44.2732 23.3537 44.6258 22.6485 44.9985 21.9635C45.2705 21.4548 45.5526 20.9562 45.8397 20.4878C46.6103 19.2286 47.6126 17.9291 48.8214 16.6195C49.7683 15.592 50.8311 14.5696 52.0752 13.4866C56.0139 10.0616 60.0836 7.62386 60.5319 7.35691C61.1615 6.81797 68.2533 0.919922 76.1962 0.919922H76.2768C76.4833 0.919922 76.6697 1.05088 76.7452 1.24731C76.8208 1.44375 76.7654 1.66536 76.6093 1.80136C75.471 2.80871 74.2319 3.91176 73.0029 5.725C75.5515 3.52897 79.1327 1.33797 82.7491 1.33797H82.9354C83.1571 1.34301 83.3485 1.48908 83.4089 1.70062C83.4693 1.91216 83.3887 2.13882 83.2024 2.2597C80.543 4.03264 80.0242 6.6165 79.9234 7.60875C82.8145 8.26856 86.1791 10.1523 89.2415 12.8268C90.4604 13.8946 91.5181 14.9876 92.3945 16.0806L92.6765 16.4432C93.8199 17.9442 94.8323 19.8582 95.6936 22.1297C95.9454 22.7845 96.1922 23.4796 96.4188 24.1998C97.1693 26.5571 97.6327 28.7128 97.9097 30.0022C98.0105 30.4605 98.1112 30.934 98.1565 31.0851C98.2069 31.1455 98.3026 31.2412 98.4285 31.3722C99.5618 32.5508 103.017 36.137 104.286 42.3221C104.317 42.4682 104.286 42.6143 104.191 42.7301C104.095 42.8459 103.964 42.9165 103.818 42.9265C98.0508 43.2187 92.5708 43.4554 87.5239 43.6317C83.7363 43.7626 80.4372 43.8533 77.4302 43.9137C75.9797 43.944 74.5946 43.9692 73.2649 43.9843C72.6403 43.9843 71.4516 43.9943 70.3183 44.0094C69.2657 44.0195 68.2583 44.0296 67.7697 44.0296L67.7848 44.0195Z" fill="#1877F2"/>
<path d="M76.2011 1.41849C76.2262 1.41849 76.2514 1.41849 76.2766 1.41849C74.4332 3.05543 72.5847 4.75786 70.8319 8.61099C73.2243 5.75514 78.0747 1.83654 82.7539 1.83654C82.8143 1.83654 82.8697 1.83654 82.9302 1.83654C79.3692 4.20885 79.4044 8.00657 79.4044 8.00657C82.5474 8.60091 86.0882 10.7264 88.9189 13.1995C90.0975 14.232 91.1552 15.32 92.0115 16.3878C92.1072 16.5086 92.1978 16.6295 92.2885 16.7454C93.5175 18.3622 94.4845 20.3315 95.23 22.3009C95.4969 22.9909 95.7336 23.6759 95.9452 24.3458C97.0936 27.9421 97.562 31.0699 97.7282 31.3318C98.0153 31.7801 102.357 35.3764 103.803 42.4127C97.8189 42.7149 92.4043 42.9466 87.5187 43.1179C83.8721 43.2438 80.5125 43.3395 77.4351 43.3999C75.9845 43.4301 74.5994 43.4553 73.2747 43.4704C72.081 43.4704 68.797 43.5158 67.7846 43.5158C66.0772 43.5158 64.4956 43.5057 63.0199 43.4855C60.4964 43.4503 58.3054 43.3848 56.4116 43.2992C55.51 43.2589 54.4574 43.2085 53.2737 43.1582C49.1486 42.9668 43.4722 42.7149 37.3575 42.4379C37.9519 40.9521 38.8434 39.5619 40.1328 38.3581C40.9336 37.6076 41.2258 31.2059 44.414 24.2653C44.7213 23.5853 45.0638 22.8953 45.4415 22.2052C45.6984 21.7217 45.9754 21.2331 46.2726 20.7496C47.0735 19.44 48.0808 18.1657 49.1939 16.9619C50.2063 15.8639 51.3043 14.8264 52.4074 13.8643C56.5778 10.2379 60.8289 7.76481 60.8289 7.76481C60.8289 7.76481 68.1473 1.41849 76.2011 1.41849ZM76.2011 0.411133C68.2077 0.411133 61.0857 6.2286 60.2446 6.94382C59.62 7.31654 55.6813 9.68885 51.7476 13.1088C50.4934 14.2068 49.4156 15.2444 48.4535 16.282C47.2246 17.6117 46.2021 18.9414 45.4113 20.2258C45.1192 20.6992 44.8271 21.2079 44.55 21.7368C44.1773 22.4218 43.8197 23.137 43.4923 23.8573C41.4675 28.2644 40.5962 32.4097 40.022 35.1497C39.8054 36.1873 39.5586 37.3608 39.3924 37.6782C38.0979 38.9021 37.0956 40.3779 36.4207 42.0702C36.2998 42.3724 36.3351 42.7149 36.5114 42.9919C36.6876 43.2639 36.9848 43.4402 37.3122 43.4503L43.9104 43.7475C47.4411 43.9086 50.6395 44.0497 53.2233 44.1705C53.999 44.2058 54.7142 44.236 55.374 44.2662L56.3663 44.3116C58.376 44.4022 60.6072 44.4677 63.0047 44.4979C64.4805 44.5181 66.0872 44.5282 67.7846 44.5282C68.2732 44.5282 69.2856 44.5181 70.3383 44.508C71.4715 44.4979 72.6552 44.4828 73.2747 44.4828C74.4583 44.4677 75.783 44.4476 77.4552 44.4123C80.4471 44.3519 83.7512 44.2612 87.5539 44.1303C92.5957 43.954 98.0808 43.7172 103.853 43.4251C104.145 43.41 104.417 43.269 104.598 43.0373C104.78 42.8056 104.85 42.5034 104.79 42.2163C103.49 35.8901 99.9595 32.2233 98.801 31.0196C98.7406 30.9541 98.6701 30.8836 98.6197 30.8332C98.5693 30.6418 98.4888 30.264 98.4132 29.8964C98.1362 28.5969 97.6678 26.426 96.9072 24.0487C96.6755 23.3234 96.4287 22.6132 96.1718 21.9483C95.2954 19.6365 94.2579 17.6822 93.0944 16.146L92.9735 15.9848C92.9181 15.9143 92.8627 15.8438 92.8073 15.7682C91.9107 14.6501 90.8278 13.5319 89.5888 12.449C86.6221 9.85507 83.3634 7.99146 80.4974 7.23091C80.6888 6.13793 81.3335 4.12323 83.4943 2.68271C83.862 2.44095 84.0282 1.98764 83.9023 1.56455C83.7814 1.14146 83.3986 0.849331 82.9554 0.839258C82.8899 0.839258 82.8244 0.839258 82.7589 0.839258C80.4974 0.839258 78.2611 1.65521 76.2665 2.79856C76.4982 2.59205 76.7249 2.38554 76.9515 2.18407C77.2638 1.90705 77.3746 1.46382 77.2235 1.07599C77.0775 0.683118 76.7048 0.426243 76.2867 0.426243H76.2061L76.2011 0.411133Z" fill="#04223D"/>
<g opacity="0.5">
<path d="M92.2835 16.7405C89.6039 13.2198 84.2901 8.97883 79.4045 8.0017C79.3189 9.20045 79.7772 10.2834 79.7772 10.2834C84.5621 11.1849 90.2335 15.5014 93.1851 19.3747C94.3385 20.8908 95.2653 22.7091 96.0107 24.5475C95.1847 21.9032 93.991 18.9718 92.2835 16.7304V16.7405ZM76.2767 1.41865C68.1977 1.37835 60.8339 7.75993 60.8339 7.75993C60.8339 7.75993 50.5489 13.7486 46.2827 20.7397C44.6055 23.4948 43.4672 26.3003 42.6562 28.8388C43.3564 27.1061 44.2227 25.3131 45.3006 23.5452C49.7379 16.267 60.4461 10.0366 60.4461 10.0366C60.4461 10.0366 66.6464 4.66232 74.0101 3.61468C74.7606 2.77857 75.5161 2.09357 76.2716 1.41865H76.2767ZM82.9302 1.84174C80.2607 1.78633 77.5207 3.03041 75.2089 4.64218C72.4588 6.56622 70.8369 8.61115 70.8369 8.61115C70.8369 8.61115 74 5.48332 80.578 4.25435C81.0968 3.41321 81.8473 2.56199 82.9302 1.84174Z" fill="white"/>
</g>
<path d="M67.7849 43.7676C66.0774 43.7676 64.4959 43.7575 63.0151 43.7374C60.6226 43.7021 58.3964 43.6417 56.4018 43.551L55.47 43.5107C54.8001 43.4805 54.0597 43.4453 53.2639 43.415L52.6494 43.3899L53.1078 42.9768C54.3115 41.8939 55.9082 41.3701 57.9985 41.3701C59.8318 41.3701 61.8113 41.7882 63.3274 42.1508C64.0224 42.317 64.7125 42.4984 65.3824 42.6696C66.2487 42.8963 67.0697 43.1078 67.8403 43.2791L70.0665 43.7777H67.7849V43.7676Z" fill="#FFF1E6"/>
<path d="M57.9982 41.6171C59.6805 41.6171 61.4987 41.9646 63.2666 42.3877C64.8582 42.7705 66.4096 43.2087 67.7846 43.516C66.0771 43.516 64.4956 43.5059 63.0198 43.4857C60.4964 43.4505 58.3054 43.385 56.4116 43.2994C55.51 43.2591 54.4573 43.2087 53.2737 43.1584C54.5429 42.015 56.19 41.6171 57.9982 41.6171ZM57.9982 41.1134C55.8424 41.1134 54.1904 41.6624 52.9362 42.7856L52.0195 43.6117L53.2535 43.662C54.0292 43.6973 54.7444 43.7275 55.3992 43.7577L56.3914 43.8031C58.391 43.8937 60.6223 43.9542 63.0148 43.9894C64.4855 44.0096 66.0923 44.0196 67.7846 44.0196H72.3479L67.8954 43.0224C67.1248 42.8511 66.3088 42.6396 65.4375 42.4129C64.7726 42.2417 64.0826 42.0603 63.3875 41.8941C61.8563 41.5264 59.8618 41.1084 57.9982 41.1084V41.1134Z" fill="#04223D"/>
<path d="M73.2194 43.2241C74.0756 43.0176 74.9722 42.7557 75.914 42.4737C76.3119 42.3578 76.7098 42.2369 77.1178 42.1211C78.9764 41.5922 80.9558 41.0986 82.8043 41.0986C84.8493 41.0986 86.4509 41.698 87.7001 42.9371L88.1131 43.3501L87.5288 43.3702C83.7462 43.5012 80.4421 43.5918 77.4402 43.6523C75.9896 43.6825 74.6045 43.7077 73.2798 43.7228L71.0586 43.748L73.2143 43.2241H73.2194Z" fill="#FFF1E6"/>
<path d="M82.8047 41.3552C84.5726 41.3552 86.2045 41.8136 87.5191 43.1181C83.8725 43.244 80.513 43.3397 77.4355 43.4002C75.9849 43.4304 74.5998 43.4556 73.2751 43.4707C74.5041 43.1735 75.8288 42.7555 77.1837 42.3676C79.0674 41.8287 81.0066 41.3552 82.8047 41.3552ZM82.8047 40.8516C80.9209 40.8516 78.9264 41.3502 77.0477 41.8841C76.6447 41.9999 76.2418 42.1158 75.8439 42.2367C74.902 42.5137 74.0105 42.7756 73.1593 42.9821L68.8428 44.0247L73.2852 43.9744C74.4537 43.9592 75.7784 43.9391 77.4506 43.9038C80.4374 43.8434 83.7415 43.7527 87.5392 43.6218L88.7027 43.5815L87.8717 42.7605C86.5722 41.4761 84.9151 40.8516 82.7997 40.8516H82.8047Z" fill="#04223D"/>
<path d="M77.1834 42.3676C76.5991 41.0429 75.0126 39.9751 72.7964 39.9751H67.6639C65.4377 39.9751 63.846 41.053 63.2668 42.3877C63.1107 42.7403 63.0251 43.113 63.02 43.4857C64.4958 43.5059 66.0773 43.5159 67.7848 43.5159C68.8476 43.4706 72.0862 43.4706 73.2749 43.4706C74.5995 43.4555 75.9847 43.4303 77.4352 43.4001C77.4201 43.0475 77.3345 42.7 77.1834 42.3676Z" fill="black"/>
<path d="M59.8014 20.0396C60.7483 20.1302 61.8917 20.2562 62.617 20.2864C63.5689 20.3267 64.4705 20.095 64.4705 19.1078C64.4705 17.6773 61.3779 18.0702 59.8669 18.1609C56.6988 18.3422 54.397 21.5254 54.397 21.5254C54.397 21.5254 56.0541 19.687 59.8014 20.0446V20.0396Z" fill="black"/>
<path d="M58.7387 37.1592C55.6814 37.1592 53.1982 34.4242 53.1982 31.0647C53.1982 27.7052 55.6814 24.9702 58.7387 24.9702C61.796 24.9702 64.2791 27.7052 64.2791 31.0647C64.2791 34.4242 61.796 37.1592 58.7387 37.1592Z" fill="white"/>
<path d="M58.7386 25.2175C61.6599 25.2175 64.0272 27.8316 64.0272 31.0602C64.0272 34.2888 61.6599 36.9028 58.7386 36.9028C55.8172 36.9028 53.45 34.2888 53.45 31.0602C53.45 27.8316 55.8172 25.2175 58.7386 25.2175ZM58.7386 24.7139C55.5453 24.7139 52.9463 27.5596 52.9463 31.0602C52.9463 34.5607 55.5453 37.4065 58.7386 37.4065C61.9319 37.4065 64.5308 34.5607 64.5308 31.0602C64.5308 27.5596 61.9319 24.7139 58.7386 24.7139Z" fill="#04223D"/>
<path d="M59.4286 34.4247C61.1477 34.4247 62.5414 33.031 62.5414 31.3119C62.5414 29.5928 61.1477 28.1992 59.4286 28.1992C57.7095 28.1992 56.3159 29.5928 56.3159 31.3119C56.3159 33.031 57.7095 34.4247 59.4286 34.4247Z" fill="black"/>
<path d="M81.6913 37.1592C78.634 37.1592 76.1509 34.4242 76.1509 31.0647C76.1509 27.7052 78.634 24.9702 81.6913 24.9702C84.7486 24.9702 87.2318 27.7052 87.2318 31.0647C87.2318 34.4242 84.7486 37.1592 81.6913 37.1592Z" fill="white"/>
<path d="M81.6912 25.2175C84.6125 25.2175 86.9798 27.8316 86.9798 31.0602C86.9798 34.2888 84.6125 36.9028 81.6912 36.9028C78.7699 36.9028 76.4026 34.2888 76.4026 31.0602C76.4026 27.8316 78.7699 25.2175 81.6912 25.2175ZM81.6912 24.7139C78.4979 24.7139 75.8989 27.5596 75.8989 31.0602C75.8989 34.5607 78.4979 37.4065 81.6912 37.4065C84.8845 37.4065 87.4835 34.5607 87.4835 31.0602C87.4835 27.5596 84.8845 24.7139 81.6912 24.7139Z" fill="#04223D"/>
<path d="M80.996 34.4247C82.7151 34.4247 84.1087 33.031 84.1087 31.3119C84.1087 29.5928 82.7151 28.1992 80.996 28.1992C79.2769 28.1992 77.8833 29.5928 77.8833 31.3119C77.8833 33.031 79.2769 34.4247 80.996 34.4247Z" fill="black"/>
<path d="M82.7389 20.0396C81.792 20.1302 80.6486 20.2562 79.9233 20.2864C78.9714 20.3267 78.0698 20.095 78.0698 19.1078C78.0698 17.6773 81.1624 18.0702 82.6734 18.1609C85.8416 18.3422 88.1434 21.5254 88.1434 21.5254C88.1434 21.5254 86.4863 19.687 82.7389 20.0446V20.0396Z" fill="black"/>
<path d="M-0.000180377 41.2844C8.51699 40.8966 21.0787 41.773 29.7369 42.0651C38.4001 42.3976 50.9165 43.0473 59.4437 43.2891C81.9581 43.7676 105.414 42.327 127.903 41.0779C130.931 40.9369 133.963 40.8563 136.995 40.8966C132.492 41.5463 127.959 41.9342 123.426 42.2515C102.679 43.5056 80.4067 44.9965 59.4034 44.4777C50.8913 44.2007 38.2843 43.4956 29.6815 43.1329C21.0485 42.6494 8.4918 42.4278 -0.0102539 41.2794L-0.000180377 41.2844Z" fill="#1E2935"/>
<path d="M113.649 44.0093C113.247 44.0093 112.818 43.828 112.39 43.4754C111.141 42.4479 112.738 39.8842 113.796 38.1868L114.078 37.7285C114.229 37.4817 114.793 36.6758 115.71 36.6758C116.007 36.6758 116.314 36.7614 116.621 36.9327C117.069 37.1795 117.351 37.522 117.457 37.9551C117.719 39.0028 116.873 40.2922 116.198 41.3247C116.047 41.5514 115.911 41.7629 115.8 41.9493C115.755 42.0248 115.704 42.1205 115.649 42.2213C115.286 42.8911 114.682 44.0093 113.654 44.0093H113.649Z" fill="#334058"/>
<path d="M115.71 36.9281C115.946 36.9281 116.208 36.9936 116.5 37.1498C118.339 38.1672 116.339 40.5496 115.584 41.8188C115.256 42.3679 114.677 43.758 113.655 43.758C113.332 43.758 112.97 43.622 112.552 43.2795C111.363 42.3024 113.347 39.4113 114.289 37.8599C114.41 37.6635 114.904 36.9281 115.705 36.9281M115.71 36.4245C114.657 36.4245 114.027 37.321 113.861 37.598C113.776 37.7391 113.68 37.8902 113.579 38.0513C112.411 39.9301 110.814 42.4988 112.229 43.6673C112.708 44.0602 113.186 44.2617 113.65 44.2617C114.828 44.2617 115.478 43.0629 115.866 42.3427C115.921 42.2419 115.967 42.1513 116.012 42.0757C116.123 41.8894 116.259 41.6829 116.405 41.4562C117.11 40.3783 117.986 39.0436 117.699 37.8851C117.573 37.3865 117.251 36.9886 116.742 36.7065C116.4 36.5151 116.052 36.4194 115.71 36.4194V36.4245Z" fill="#04223D"/>
<g opacity="0.3">
<path d="M116.304 37.512C117.231 38.0157 117.211 38.8568 116.858 39.7282C117.352 38.7309 117.538 37.7235 116.501 37.1493C115.231 36.4492 114.451 37.5976 114.295 37.8545C114.284 37.8746 114.269 37.8948 114.259 37.9099C114.617 37.5019 115.317 36.968 116.304 37.507V37.512Z" fill="white"/>
</g>
<g opacity="0.25">
<path d="M112.839 42.73C112.239 42.2364 112.436 41.2592 112.904 40.2065C112.26 41.4506 111.852 42.6997 112.552 43.279C114.143 44.5885 115.005 42.8811 115.463 42.0298C114.949 42.8811 114.133 43.8078 112.834 42.73H112.839Z" fill="#04223D"/>
</g>
<path d="M116.596 44.2613C116.269 44.2613 115.946 44.1404 115.634 43.9037C114.455 43.0072 115.09 41.9897 116.148 40.3075C116.435 39.8491 116.762 39.4512 117.024 39.1289L117.084 39.0533C117.518 38.5245 117.966 38.2676 118.454 38.2676C118.752 38.2676 119.059 38.3633 119.366 38.5597C119.739 38.7914 119.966 39.1138 120.036 39.5117C120.238 40.5845 119.23 41.9293 118.747 42.574L118.596 42.7805C118.193 43.3346 117.518 44.2613 116.591 44.2613H116.596Z" fill="#334058"/>
<path d="M118.46 38.5193C118.691 38.5193 118.948 38.5898 119.235 38.7711C120.666 39.6677 119.069 41.7227 118.505 42.4782C118.157 42.9416 117.477 44.0094 116.596 44.0094C116.344 44.0094 116.072 43.9237 115.785 43.7072C114.838 42.9869 115.211 42.2767 116.359 40.4484C116.661 39.9649 117.014 39.5418 117.281 39.2194C117.558 38.8769 117.941 38.5243 118.454 38.5243M118.46 38.0156C117.613 38.0156 117.074 38.6754 116.898 38.8971L116.833 38.9776C116.566 39.305 116.233 39.708 115.936 40.1764C114.878 41.8536 114.118 43.0675 115.483 44.1051C115.84 44.3771 116.213 44.513 116.596 44.513C117.649 44.513 118.399 43.4805 118.802 42.9265C118.842 42.8711 118.878 42.8257 118.908 42.7804L118.953 42.72C119.457 42.045 120.509 40.6448 120.288 39.4612C120.202 38.9978 119.93 38.61 119.502 38.343C119.155 38.1264 118.802 38.0156 118.454 38.0156H118.46Z" fill="#04223D"/>
<g opacity="0.3">
<path d="M119.089 39.1139C119.734 39.4967 119.794 40.0911 119.608 40.7056C119.91 39.9803 119.961 39.2298 119.235 38.7765C118.314 38.2023 117.689 38.7211 117.286 39.2197C117.13 39.4162 116.938 39.6478 116.747 39.8997C116.848 39.7788 116.949 39.663 117.039 39.5622C117.467 39.0636 118.127 38.5398 119.099 39.119L119.089 39.1139Z" fill="white"/>
</g>
<g opacity="0.25">
<path d="M116.092 43.3244C115.155 42.6042 115.488 41.8839 116.586 40.106C116.51 40.2168 116.435 40.3276 116.359 40.4434C115.211 42.2718 114.838 42.987 115.785 43.7022C116.757 44.4376 117.563 43.6871 118.092 43.0273C117.573 43.5561 116.883 43.9389 116.092 43.3244Z" fill="#04223D"/>
</g>
<path d="M119.759 43.4708C119.512 43.4708 119.25 43.3903 118.983 43.2392C118.772 43.1183 118.636 42.9319 118.581 42.7053C118.414 42.0152 119.039 41.0532 119.593 40.197C119.699 40.0307 119.799 39.8796 119.885 39.7386C120.187 39.245 120.55 38.9932 120.958 38.9932C121.195 38.9932 121.436 39.0738 121.713 39.245C121.955 39.3961 122.106 39.6076 122.167 39.8746C122.333 40.62 121.698 41.5871 121.315 42.1613L121.154 42.4131C120.913 42.806 120.505 43.4658 119.764 43.4658L119.759 43.4708Z" fill="#334058"/>
<path d="M120.958 39.2449C121.17 39.2449 121.381 39.3355 121.578 39.4615C122.509 40.0407 121.381 41.592 121.003 42.1763C120.787 42.5137 120.424 43.2239 119.759 43.2239C119.568 43.2239 119.356 43.1685 119.11 43.0275C118.223 42.5137 119.492 40.8718 120.097 39.8795C120.379 39.4161 120.671 39.255 120.953 39.255M120.958 38.7412C120.454 38.7412 120.021 39.0333 119.674 39.6075C119.588 39.7486 119.487 39.8997 119.387 40.0608C118.807 40.9574 118.153 41.9698 118.344 42.7656C118.415 43.0628 118.596 43.2995 118.868 43.4556C119.175 43.6319 119.477 43.7226 119.769 43.7226C120.651 43.7226 121.119 42.957 121.376 42.549L121.442 42.4432L121.537 42.2972C122.056 41.5114 122.595 40.5998 122.424 39.8191C122.353 39.4867 122.157 39.2147 121.86 39.0333C121.542 38.8369 121.255 38.7412 120.973 38.7412H120.958Z" fill="#04223D"/>
<path d="M35.5646 44.0697C35.0509 44.0697 34.6328 43.7977 34.3457 43.289C34.0889 42.8307 33.9982 42.2766 34.0788 41.6823C34.0989 41.5513 34.1141 41.4053 34.1342 41.2441C34.3508 39.5417 34.7537 36.3735 36.6375 36.3735C36.6828 36.3735 36.7281 36.3735 36.7785 36.3786C37.3628 36.4289 37.806 36.6506 38.0981 37.0434C38.5565 37.6629 38.622 38.6703 38.2946 40.1259C38.2392 40.3677 38.1938 40.5994 38.1485 40.826C37.8967 42.0701 37.6952 43.0523 36.8944 43.5811C36.4058 43.9035 35.9575 44.0697 35.5646 44.0697Z" fill="#334058"/>
<path d="M36.6372 36.6256C36.6775 36.6256 36.7128 36.6256 36.7531 36.6256C37.9115 36.7213 38.5965 37.5826 38.0475 40.0657C37.7101 41.5767 37.5992 42.8057 36.7531 43.3648C36.2695 43.6871 35.8767 43.813 35.5594 43.813C35.0658 43.813 34.7535 43.5058 34.557 43.1633C34.3102 42.7251 34.2498 42.2113 34.3203 41.7127C34.5218 40.2621 34.8038 36.6205 36.6322 36.6205M36.6372 36.1219C34.5319 36.1219 34.1088 39.431 33.8821 41.209C33.862 41.3702 33.8418 41.5163 33.8267 41.6422C33.736 42.2919 33.8368 42.9014 34.1239 43.4051C34.4513 43.9893 34.965 44.3117 35.5644 44.3117C36.0076 44.3117 36.5063 44.1354 37.0351 43.7828C37.9166 43.1985 38.1382 42.1156 38.3951 40.8665C38.4404 40.6449 38.4857 40.4132 38.5411 40.1715C38.8786 38.6453 38.803 37.5674 38.2994 36.8875C37.9619 36.4342 37.4582 36.1723 36.7984 36.1169C36.743 36.1169 36.6926 36.1118 36.6372 36.1118V36.1219Z" fill="#04223D"/>
<path opacity="0.25" d="M36.864 42.9468C35.5695 43.788 34.9047 43.3145 34.5723 42.7353C34.4161 42.4633 34.3406 42.1661 34.3154 41.8589C34.2751 42.3122 34.3406 42.7705 34.5622 43.1634C34.8795 43.7275 35.5141 44.1909 36.7532 43.3699C37.2266 43.0576 37.4684 42.5288 37.6497 41.8639C37.4734 42.3273 37.2417 42.7 36.864 42.9468Z" fill="#04223D"/>
<path opacity="0.3" d="M36.7126 36.8525C37.584 36.923 38.1934 37.4217 38.2388 38.6859C38.2791 37.2554 37.6646 36.7064 36.758 36.6309C35.7808 36.5503 35.2268 37.472 34.8843 38.6003C35.2419 37.5728 35.7959 36.777 36.7126 36.8525Z" fill="white"/>
<path d="M32.4719 44.1605C32.3158 44.1605 32.1596 44.1504 31.9934 44.1252C31.2732 44.0194 30.7393 43.4503 30.699 42.7451C30.6587 42.0501 30.7896 41.0125 31.112 39.4763C31.4192 38.0055 32.069 37.2651 33.0411 37.2651C33.1972 37.2651 33.3433 37.2853 33.4692 37.3054C34.0635 37.3961 34.7284 37.7487 34.8342 38.4589C35.0155 39.718 34.6075 41.7176 34.124 43.138C33.8973 43.8029 33.308 44.1705 32.4719 44.1705V44.1605Z" fill="#334058"/>
<path d="M33.0463 37.512C33.1873 37.512 33.3233 37.5321 33.4341 37.5472C33.9529 37.6278 34.507 37.925 34.5876 38.4841C34.7639 39.708 34.3559 41.6824 33.8875 43.0474C33.6507 43.7374 33.0262 43.9087 32.4721 43.9087C32.316 43.9087 32.1649 43.8936 32.0339 43.8734C31.4497 43.7878 30.9913 43.3194 30.9561 42.7301C30.9057 41.9242 31.1223 40.6751 31.364 39.5267C31.7267 37.7991 32.4772 37.512 33.0463 37.512ZM33.0463 37.0083C31.9382 37.0083 31.2029 37.8192 30.8704 39.4209C30.543 40.9823 30.4121 42.0451 30.4524 42.7603C30.5028 43.5863 31.1223 44.2461 31.9634 44.372C32.1397 44.3972 32.311 44.4123 32.4772 44.4123C33.4291 44.4123 34.104 43.9842 34.366 43.2086C34.8596 41.758 35.2776 39.713 35.0862 38.4136C34.9855 37.7084 34.3811 37.1846 33.5097 37.0486C33.3787 37.0284 33.2226 37.0083 33.0463 37.0083Z" fill="#04223D"/>
<path opacity="0.3" d="M33.3989 37.734C33.9277 37.8146 34.4918 38.1219 34.5775 38.696C34.6127 38.958 34.6228 39.2551 34.6127 39.5724C34.6379 39.1745 34.6329 38.8069 34.5875 38.4895C34.5069 37.9305 33.9529 37.6333 33.4341 37.5527C32.9254 37.4721 32.0037 37.3915 31.5 39.0083C32.0289 37.5779 32.9103 37.6585 33.4039 37.7391L33.3989 37.734Z" fill="white"/>
<path opacity="0.25" d="M32.1046 43.4907C31.485 43.4 31.0015 42.9215 30.9612 42.3171C30.9612 42.2667 30.9612 42.2063 30.9612 42.1509C30.9511 42.3574 30.9461 42.5538 30.9562 42.7251C30.9914 43.3144 31.4498 43.7828 32.034 43.8684C32.6385 43.9591 33.5854 43.9238 33.8876 43.0424C33.9027 42.9971 33.9178 42.9467 33.9329 42.9014C33.535 43.5511 32.6787 43.5712 32.1096 43.4856L32.1046 43.4907Z" fill="#04223D"/>
<path d="M29.0316 44.12C28.6891 44.12 28.3717 43.9487 28.0796 43.6062C27.0924 42.4528 27.9386 41.0677 28.4977 40.151C29.0769 39.1991 29.6662 38.7407 30.2908 38.7407C30.457 38.7407 30.6282 38.776 30.8045 38.8415C31.1722 38.9825 31.963 39.4862 31.3787 41.0879C31.3585 41.1433 31.3485 41.1987 31.3334 41.2541C31.3132 41.3397 31.2931 41.4304 31.2628 41.5109C30.8801 42.4881 30.0792 44.125 29.0366 44.125L29.0316 44.12Z" fill="#334058"/>
<path d="M30.291 38.9876C30.432 38.9876 30.5731 39.0178 30.7141 39.0682C31.3336 39.3049 31.525 39.9546 31.1422 40.9922C31.0919 41.1282 31.0818 41.2743 31.0264 41.4102C30.7846 42.0247 29.9787 43.8632 29.0318 43.8632C28.785 43.8632 28.5281 43.7372 28.2662 43.435C27.3999 42.4277 28.1353 41.2088 28.7095 40.2719C29.2837 39.3301 29.8024 38.9825 30.291 38.9825M30.291 38.4839C29.5657 38.4839 28.9109 38.9876 28.2813 40.0151C27.682 40.9972 26.7804 42.478 27.8885 43.7675C28.231 44.1654 28.6188 44.3719 29.0318 44.3719C30.2255 44.3719 31.0868 42.6342 31.4948 41.6016C31.5351 41.4908 31.5603 41.3901 31.5804 41.3045C31.5905 41.2591 31.6006 41.2138 31.6157 41.1685C32.2755 39.3552 31.3286 38.771 30.8954 38.5997C30.6939 38.5242 30.4925 38.4839 30.296 38.4839H30.291Z" fill="#04223D"/>
<path d="M60.532 29.3222C60.977 29.3222 61.3378 28.9614 61.3378 28.5163C61.3378 28.0713 60.977 27.7104 60.532 27.7104C60.0869 27.7104 59.7261 28.0713 59.7261 28.5163C59.7261 28.9614 60.0869 29.3222 60.532 29.3222Z" fill="white"/>
<path d="M82.759 29.6396C83.2041 29.6396 83.5649 29.2788 83.5649 28.8337C83.5649 28.3886 83.2041 28.0278 82.759 28.0278C82.3139 28.0278 81.9531 28.3886 81.9531 28.8337C81.9531 29.2788 82.3139 29.6396 82.759 29.6396Z" fill="white"/>
<path opacity="0.3" d="M74.6148 42.7002C72.857 40.9877 67.6389 40.9726 65.73 42.7002C65.73 42.7002 66.9187 42.398 70.1069 42.3627C73.3909 42.3275 74.6148 42.7002 74.6148 42.7002Z" fill="white"/>
<path opacity="0.3" d="M30.5881 39.2445C31.1321 39.4561 31.3587 39.9749 31.2026 40.7807C31.4796 39.8691 31.2832 39.2899 30.704 39.0682C30.2406 38.892 29.757 38.9776 29.2231 39.5669C29.7067 39.1337 30.1549 39.0733 30.5831 39.2445H30.5881Z" fill="white"/>
<path opacity="0.25" d="M28.5184 43.0674C27.9946 42.4227 28.0399 41.7075 28.2817 41.0225C27.8737 41.8082 27.6168 42.6846 28.2666 43.4451C28.9918 44.2913 29.697 43.7423 30.2208 42.9818C29.7272 43.556 29.1329 43.8229 28.5184 43.0724V43.0674Z" fill="#04223D"/>
<g opacity="0.3">
<path d="M121.431 39.7179C121.94 40.0302 121.849 40.6245 121.597 41.2038C121.935 40.559 122.157 39.8186 121.577 39.461C121.109 39.1689 120.595 39.0631 120.102 39.874C120.091 39.8892 120.081 39.9043 120.071 39.9194C120.53 39.3402 121.003 39.451 121.431 39.7179Z" fill="white"/>
</g>
<g opacity="0.25">
<path d="M119.291 42.6846C118.847 42.4328 118.928 41.909 119.2 41.3247C118.812 42.0399 118.596 42.7199 119.114 43.0171C120.087 43.5761 120.605 42.8206 120.902 42.3371C120.575 42.7551 120.076 43.1329 119.291 42.6846Z" fill="#04223D"/>
</g>
</g>
<defs>
<clipPath id="clip0_1294_7302">
<rect width="137" height="44.1775" fill="white" transform="translate(0 0.411133)"/>
</clipPath>
</defs>
</svg>
