<svg width="54" height="54" viewBox="0 0 54 54" fill="none" xmlns="http://www.w3.org/2000/svg">
<g clip-path="url(#clip0_106_13815)">
<path d="M50.991 53.2891H33.6954V29.2451H50.991C52.6528 29.2451 54 30.5923 54 32.2541V50.28C54 51.9418 52.6528 53.2891 50.991 53.2891Z" fill="#A4E6FF"/>
<path d="M19.9058 53.2895H2.90035C1.34718 53.2895 0 51.9422 0 50.2804V42.9763C0 41.3145 1.34718 39.9673 2.90035 39.9673H19.9058V53.2895Z" fill="#FFBE6B"/>
<path d="M28.1866 1.33522L29.2713 2.91557C29.4583 3.18796 29.7332 3.38777 30.05 3.48132L31.8882 4.02458C32.8571 4.31098 33.2372 5.48051 32.6216 6.28171L31.4538 7.80164C31.2525 8.0636 31.1475 8.38684 31.1563 8.71714L31.2077 10.6332C31.2348 11.6432 30.2399 12.3661 29.2877 12.0282L27.4813 11.3873C27.1699 11.2768 26.83 11.2768 26.5187 11.3873L24.7123 12.0282C23.76 12.3661 22.7651 11.6432 22.7923 10.6332L22.8437 8.71714C22.8526 8.38684 22.7475 8.0636 22.5462 7.80164L21.3784 6.28171C20.7628 5.48051 21.1428 4.31098 22.1118 4.02458L23.95 3.48132C24.2668 3.38766 24.5418 3.18796 24.7287 2.91557L25.8133 1.33522C26.3852 0.502191 27.6149 0.502191 28.1866 1.33522Z" fill="#FFBE6B"/>
<path d="M33.6954 29.2451H41.2871V53.2891H33.6954V29.2451Z" fill="#5BD6FF"/>
<path d="M12.8933 39.9673H19.9058V53.2894H12.8933V39.9673Z" fill="#FFAA3E"/>
<path d="M18.0001 53.2884H36.0001V20.489C36.0001 18.8272 34.6529 17.48 32.9911 17.48H21.0091C19.3472 17.48 18.0001 18.8272 18.0001 20.489V53.2884Z" fill="#FFF18F"/>
<path d="M31.1698 8.47891C30.824 8.54181 30.4762 8.57561 30.1316 8.57561C28.4683 8.57561 26.9919 7.88012 25.7907 6.77752C24.8357 5.90081 24.3114 4.68598 24.0989 3.4292C24.0504 3.44963 24.0009 3.46723 23.95 3.48222L22.1118 4.02548C21.1428 4.31178 20.7628 5.48142 21.3784 6.28262L22.5462 7.80255C22.7475 8.06451 22.8525 8.38775 22.8437 8.71805L22.7923 10.6341C22.7652 11.6442 23.76 12.367 24.7123 12.0291L26.5187 11.3882C26.8301 11.2777 27.17 11.2777 27.4813 11.3882L29.2877 12.0291C30.2399 12.367 31.2349 11.6442 31.2077 10.6341L31.1563 8.71805C31.1542 8.63732 31.1598 8.55768 31.1698 8.47891Z" fill="#FFAA3E"/>
</g>
<defs>
<clipPath id="clip0_106_13815">
<rect width="54" height="54" fill="white"/>
</clipPath>
</defs>
</svg>
