<svg width="17" height="14" viewBox="0 0 17 14" fill="none" xmlns="http://www.w3.org/2000/svg">
<path d="M3.32294 4.64746C1.66044 5.26021 0.5 6.6488 0.5 8.26409C0.5 9.45259 1.12819 10.5186 2.12237 11.243L2.12294 11.2419L1.54278 12.5926C1.44266 12.8257 1.62134 13.089 1.85706 13.0523C3.35528 12.8193 4.20525 12.1262 4.20919 12.123C4.53837 12.1836 4.88034 12.2158 5.23131 12.2158C5.96831 12.2158 6.66581 12.0749 7.28756 11.8237L3.32294 4.64746Z" fill="#898A8D"/>
<path d="M3.92195 4.46631C3.7162 4.51568 3.5163 4.57659 3.32308 4.64781C3.06992 5.24075 2.93164 5.87921 2.93164 6.54475C2.93164 8.95581 4.74105 11.0136 7.28742 11.8234C7.5122 11.7326 7.72739 11.6278 7.93064 11.5096L3.92195 4.46631Z" fill="#666769"/>
<path d="M14.2724 10.4557L14.2732 10.4572C14.2724 10.4557 14.5544 9.89382 14.5544 9.89382C15.6142 8.9285 16.5002 7.78113 16.5002 6.36816C16.5002 6.27453 16.4973 6.18147 16.4917 6.08903C16.3178 3.22297 13.4804 0.943848 10.0057 0.943848C6.53532 0.943848 3.70067 3.21738 3.52036 6.07844C3.51432 6.17438 3.51123 6.271 3.51123 6.36819C3.51123 9.36397 7.00032 11.44 10.0057 11.5028C10.4874 11.5128 10.9569 11.4586 11.4087 11.3755C11.4141 11.3798 12.5808 12.3312 14.6374 12.651C14.9609 12.7014 15.0191 12.1941 15.0191 12.1941L14.2724 10.4557Z" fill="#777777"/>
<path d="M15.0191 12.1943C14.9338 12.3127 14.795 12.386 14.6374 12.3615C12.8343 12.081 11.7152 11.3152 11.4631 11.1277C11.4275 11.1012 11.3828 11.0908 11.339 11.0984C10.9086 11.1735 10.4628 11.2132 10.0057 11.2132C6.53529 11.2132 3.70079 8.93968 3.52048 6.07861C3.51442 6.17458 3.51123 6.27114 3.51123 6.36836C3.51123 9.36415 6.41892 11.7927 10.0057 11.7927C10.4875 11.7927 10.9569 11.7486 11.4087 11.6654C11.4141 11.6698 12.5808 12.6211 14.6374 12.941C14.9609 12.9913 15.2062 12.63 15.0688 12.31L15.0191 12.1943Z" fill="#292D32"/>
<path d="M14.3381 9.82978C14.2973 9.86028 14.2729 9.90791 14.2729 9.95881V10.4574C15.6376 9.463 16.4999 7.99981 16.4999 6.36837C16.4999 6.271 16.4967 6.17425 16.4906 6.07812C16.3969 7.56691 15.5848 8.89666 14.3381 9.82978Z" fill="#292D32"/>
</svg>
