<svg width="20" height="19" viewBox="0 0 20 19" fill="none" xmlns="http://www.w3.org/2000/svg">
<path fill-rule="evenodd" clip-rule="evenodd" d="M9.99855 17.1942C14.6701 17.1942 18.4813 13.383 18.4813 8.71031C18.4813 4.03875 14.6701 0.227539 9.99855 0.227539C5.32586 0.227539 1.51465 4.03875 1.51465 8.71031C1.51469 13.383 5.3259 17.1942 9.99855 17.1942Z" fill="#FFF0AF"/>
<path fill-rule="evenodd" clip-rule="evenodd" d="M9.99856 0.227539C14.6834 0.227539 18.4813 4.02547 18.4813 8.71031C18.4813 13.3962 14.6834 17.1942 9.99856 17.1942C9.83247 17.1942 9.66747 17.1886 9.5036 17.1787C13.9592 16.9229 17.4925 13.2302 17.4925 8.71031C17.4925 4.19156 13.9592 0.498789 9.5036 0.241914C9.66751 0.233086 9.83247 0.227539 9.99856 0.227539Z" fill="#FFE07D"/>
<path fill-rule="evenodd" clip-rule="evenodd" d="M4.3548 10.453L6.31801 13.2267L8.465 16.2573H4.17211H0.195935C-0.00340089 16.2573 -0.0554321 16.1653 0.0619507 15.9992L2.02625 13.2266L3.98941 10.4529C4.11011 10.2835 4.23191 10.2791 4.3548 10.453ZM16.0066 10.453L17.9709 13.2267L19.9341 15.9993C20.0592 16.1753 20.0016 16.2573 19.8001 16.2573H15.8239H11.531L13.678 13.2267L15.6412 10.453C15.7652 10.2791 15.8881 10.2869 16.0066 10.453Z" fill="#80B4FB"/>
<path fill-rule="evenodd" clip-rule="evenodd" d="M4.35481 10.453L6.31801 13.2267L8.465 16.2573H7.47621L5.33031 13.2267L3.67828 10.8926L3.98942 10.453C4.11012 10.2835 4.23192 10.2791 4.35481 10.453ZM16.0066 10.453L17.9709 13.2267L19.9341 15.9993C20.0592 16.1753 20.0016 16.2573 19.8001 16.2573H18.8124C19.0128 16.2573 19.0704 16.1753 18.9453 15.9993L16.9821 13.2267L15.33 10.8926L15.6412 10.453C15.7652 10.2791 15.8881 10.2869 16.0066 10.453Z" fill="#61A2F9"/>
<path fill-rule="evenodd" clip-rule="evenodd" d="M6.87497 3.71387H9.99857V6.08453H6.87497C6.65571 6.08453 6.60259 5.98379 6.68341 5.79445L6.94138 5.18988C7.02775 4.98723 7.02665 4.81008 6.94138 4.60859L6.68341 4.00402C6.60591 3.82129 6.65021 3.71387 6.87497 3.71387Z" fill="#E27F84"/>
<path fill-rule="evenodd" clip-rule="evenodd" d="M8.71304 3.71387H9.99859V6.08453H8.71304V3.71387Z" fill="#C9646D"/>
<path d="M9.70184 4.00949C9.70184 3.84563 9.83469 3.71387 9.9986 3.71387C10.1614 3.71387 10.2942 3.84563 10.2942 4.00949V9.30332C10.2942 9.46719 10.1614 9.60008 9.9986 9.60008C9.83473 9.60008 9.70184 9.46719 9.70184 9.30332V4.00949Z" fill="#365E7D"/>
<path fill-rule="evenodd" clip-rule="evenodd" d="M10.1813 8.96849L13.5607 13.7419L16.9401 18.5154C17.0619 18.687 16.9932 18.7733 16.8072 18.7733H9.9986H3.18888C2.99286 18.7733 2.94083 18.6781 3.05599 18.5154L6.4354 13.7419L9.81587 8.96849C9.94212 8.79025 10.0529 8.78806 10.1813 8.96849Z" fill="#BED8FB"/>
<path fill-rule="evenodd" clip-rule="evenodd" d="M10.1813 8.96849L13.5607 13.7419L16.9401 18.5154C17.0619 18.687 16.9932 18.7733 16.8072 18.7733H15.8184C16.0055 18.7733 16.0741 18.687 15.9524 18.5154L12.5729 13.7419L9.5036 9.40919L9.81587 8.96849C9.94212 8.79025 10.0529 8.78806 10.1813 8.96849Z" fill="#9DC6FB"/>
</svg>
