<svg width="18" height="20" viewBox="0 0 18 20" fill="none" xmlns="http://www.w3.org/2000/svg">
<path d="M2.24882 2.00132H16.1168C16.5055 2.00132 16.7455 2.42536 16.5455 2.75862L14 7L17.3502 11.1878C17.6121 11.5151 17.379 12.0001 16.9598 12.0001L4.47082 12.0013L5.97682 18.7833C6.00543 18.9116 6.00846 19.0443 5.98573 19.1738C5.96301 19.3033 5.91498 19.427 5.84439 19.5379C5.7738 19.6488 5.68204 19.7447 5.57435 19.8201C5.46667 19.8955 5.34517 19.9489 5.21682 19.9773C4.95797 20.0332 4.68753 19.9847 4.46419 19.8424C4.24086 19.7001 4.08262 19.4755 4.02382 19.2173L0.0238199 1.21732C-0.0046761 1.08908 -0.00763613 0.956492 0.0151099 0.827112C0.0378599 0.697732 0.0858598 0.5741 0.15639 0.463273C0.22691 0.352446 0.31858 0.256596 0.42615 0.181195C0.53372 0.105793 0.65508 0.0523174 0.78332 0.0238206C0.91156 -0.00467627 1.04415 -0.00763616 1.17353 0.0151099C1.30291 0.037856 1.42654 0.0858625 1.53737 0.156389C1.6482 0.226915 1.74405 0.318579 1.81945 0.426148C1.89485 0.533718 1.94832 0.655085 1.97682 0.783321L2.24882 2.00132Z" fill="#D2A90C"/>
</svg>
