<svg width="16" height="17" viewBox="0 0 16 17" fill="none" xmlns="http://www.w3.org/2000/svg">
<path d="M8.81985 0.625H1.92933C0.932175 0.625 0.125 1.43218 0.125 2.42933V12.6007C0.125 13.5989 0.932175 14.406 1.92933 14.406H8.1308L8.33456 13.5861L6.87771 12.3389C6.41801 11.9451 6.24083 11.322 6.4377 10.7442C6.47018 10.6458 6.50956 10.5542 6.56862 10.4686C6.81176 10.0483 7.25078 9.77266 7.74985 9.74706L8.65546 9.69489L9.19391 9.66241L9.55517 9.64272L10.2245 7.8315C10.3102 7.59525 10.448 7.39838 10.6252 7.24088V2.42933C10.6252 1.43218 9.81799 0.625 8.81985 0.625ZM7.99988 7.35113C7.99988 7.54997 7.87979 7.72912 7.69571 7.8059C7.63468 7.8315 7.5707 7.84331 7.5077 7.84331C7.37973 7.84331 7.25373 7.79311 7.15924 7.69959L6.64146 7.18084L5.70927 8.04117C5.55178 8.18685 5.31848 8.21343 5.13145 8.10712L4.30951 7.63758L2.93436 9.01175C2.8379 9.10821 2.7119 9.15546 2.5859 9.15546C2.4599 9.15546 2.3339 9.10723 2.23744 9.01175C2.04549 8.8198 2.04549 8.50775 2.23744 8.3158L3.87836 6.67487C4.03586 6.51738 4.27801 6.48489 4.47095 6.59514L5.30667 7.07256L5.94453 6.48292L5.51929 6.05867C5.37853 5.9179 5.3362 5.70627 5.41298 5.52219C5.48878 5.33811 5.66891 5.21802 5.86775 5.21802H7.5077C7.77938 5.21802 7.99988 5.43852 7.99988 5.7102V7.35113Z" fill="#1877F2"/>
<path d="M13.9394 16.3747C13.843 16.3747 13.7465 16.3462 13.6628 16.2891L11.6075 14.8903L9.55213 16.2891C9.38282 16.4033 9.16036 16.4033 8.99302 16.2851C8.82567 16.168 8.74791 15.9593 8.79811 15.7615L9.43795 13.2356L7.51451 11.5927C7.36193 11.4628 7.30385 11.2521 7.36784 11.0611C7.43182 10.8712 7.60605 10.7383 7.80686 10.7265L10.2579 10.5877L11.1458 8.16613C11.2167 7.97221 11.4017 7.84326 11.6075 7.84326C11.8132 7.84326 11.9983 7.97221 12.0691 8.16613L12.957 10.5877L15.4081 10.7265C15.6089 10.7383 15.7821 10.8702 15.8471 11.0611C15.9111 11.2521 15.853 11.4628 15.7004 11.5927L13.777 13.2356L14.4168 15.7615C14.467 15.9593 14.3893 16.168 14.2219 16.2851C14.1363 16.3452 14.0379 16.3747 13.9394 16.3747Z" fill="#8AC9FE"/>
</svg>
