<svg width="139" height="165" viewBox="0 0 139 165" fill="none" xmlns="http://www.w3.org/2000/svg">
<g style="mix-blend-mode:soft-light" opacity="0.4">
<circle cx="79.4532" cy="79.4532" r="79.4532" fill="white"/>
</g>
<circle cx="79.453" cy="79.453" r="58.9012" fill="white"/>
<g clip-path="url(#clip0_1_2)">
<path d="M77.5046 14.8955C76.8182 14.299 75.8843 14 74.7029 14C74.1885 14 73.6905 14.0529 73.2087 14.1601C72.7269 14.2673 72.2956 14.4032 71.9146 14.5678L71.8953 14.5769C71.3528 14.8125 71 15.3562 71 15.9572V22.9449C71 23.1518 71.1645 23.3209 71.3691 23.3209H73.0619C73.265 23.3209 73.4311 23.1533 73.4311 22.9449V20.5829C73.6223 20.6902 73.8431 20.7778 74.0951 20.8457C74.3471 20.9137 74.6451 20.9469 74.989 20.9469C75.6368 20.9469 76.2297 20.8215 76.7693 20.5678C77.3074 20.3156 77.7358 19.929 78.056 19.4095C78.3747 18.89 78.5348 18.2421 78.5348 17.4659C78.5348 16.3499 78.1924 15.4921 77.506 14.8955H77.5046ZM75.7391 18.5729C75.496 18.8251 75.1787 18.9519 74.7889 18.9519C74.4361 18.9519 74.1218 18.8477 73.8461 18.6393C73.5689 18.4309 73.4311 18.0987 73.4311 17.6411V16.6746C73.4311 16.2608 73.7601 15.924 74.1663 15.924H74.5606C75.0943 15.924 75.4856 16.0569 75.7331 16.3242C75.9807 16.5915 76.1052 16.963 76.1052 17.4387C76.1052 17.9431 75.9837 18.3222 75.7406 18.5744L75.7391 18.5729ZM84.5754 16.6141C84.2344 17.0521 83.9928 17.5731 83.8579 18.1727L83.6963 18.0624C83.554 17.9643 83.385 17.8918 83.1879 17.845C82.9937 17.7981 82.8143 17.7725 82.6528 17.7725C82.4512 17.7725 82.2703 17.7996 82.1028 17.8525C82.1013 17.8525 82.0998 17.8525 82.0984 17.854C81.8805 17.9235 81.7367 18.1364 81.7367 18.369V22.9434C81.7367 23.1503 81.5721 23.3194 81.3676 23.3194H79.6747C79.4716 23.3194 79.3056 23.1518 79.3056 22.9434V17.0536C79.3056 16.7304 79.4331 16.4405 79.6421 16.2306C79.8482 16.0176 80.1357 15.8877 80.45 15.8877C80.6219 15.8877 80.782 15.9285 80.9258 15.995C81.3216 15.85 81.7589 15.7745 82.2347 15.7745C83.0159 15.7745 83.7037 15.9799 84.2922 16.3876L84.5724 16.6126L84.5754 16.6141ZM95.8249 15.7775C95.3965 15.7775 94.9429 15.8213 94.4671 15.9089C94.2714 15.9451 94.0861 15.9904 93.9023 16.0388C93.7378 15.9466 93.5525 15.8893 93.3524 15.8893C92.7209 15.8893 92.208 16.4118 92.208 17.0551V18.4807V25.6255C92.208 25.8324 92.3725 26.0015 92.5771 26.0015H94.1276C94.3307 26.0015 94.4967 25.8339 94.4967 25.6255V23.1321C94.9162 23.3164 95.4114 23.4085 95.9835 23.4085C96.6313 23.4085 97.2243 23.2696 97.7638 22.9932C98.3019 22.7168 98.7318 22.294 99.0505 21.7262C99.3692 21.1583 99.5293 20.4425 99.5293 19.5787C99.5293 18.4324 99.224 17.5127 98.6147 16.8195C98.0055 16.1248 97.076 15.779 95.8279 15.779L95.8249 15.7775ZM96.7825 20.9469C96.535 21.258 96.197 21.4135 95.7671 21.4135C95.4529 21.4135 95.1623 21.3169 94.8955 21.1221C94.6287 20.9288 94.4953 20.6026 94.4953 20.1465V18.4807V18.4641C94.4953 18.1107 94.7354 17.7936 95.0763 17.7287C95.232 17.6985 95.3906 17.6849 95.5522 17.6849C95.9998 17.6849 96.3793 17.848 96.6891 18.1727C96.9989 18.4989 97.1531 18.9867 97.1531 19.636C97.1531 20.1993 97.0301 20.6358 96.781 20.9469H96.7825ZM111.007 17.2409C111.265 17.7121 111.393 18.2874 111.393 18.967V22.9464C111.393 23.1533 111.228 23.3224 111.023 23.3224H109.473C109.27 23.3224 109.104 23.1548 109.104 22.9464V19.2434C109.104 18.8643 108.999 18.5638 108.79 18.3403C108.581 18.1168 108.275 18.005 107.875 18.005C107.703 18.005 107.541 18.0247 107.389 18.0639C107.153 18.1243 106.989 18.3403 106.989 18.588V22.9464C106.989 23.1533 106.824 23.3224 106.619 23.3224H105.069C104.866 23.3224 104.7 23.1548 104.7 22.9464V19.186C104.7 18.7873 104.595 18.4823 104.386 18.2678C104.176 18.0549 103.871 17.9476 103.471 17.9476C103.299 17.9476 103.137 17.9673 102.985 18.0065C102.962 18.0126 102.942 18.0186 102.921 18.0247C102.722 18.0836 102.587 18.2708 102.587 18.4823H102.586V22.9464C102.586 23.1533 102.421 23.3224 102.217 23.3224H100.666C100.463 23.3224 100.297 23.1548 100.297 22.9464V17.0536C100.297 16.4103 100.81 15.8877 101.442 15.8877C101.655 15.8877 101.851 15.9512 102.023 16.0539C102.528 15.8923 103.029 15.8047 103.529 15.8047C104.062 15.8047 104.534 15.8953 104.944 16.0735C105.353 16.2532 105.678 16.4843 105.917 16.7652C106.164 16.5024 106.498 16.2774 106.917 16.0886C107.337 15.8998 107.823 15.8047 108.376 15.8047C108.967 15.8047 109.488 15.9255 109.941 16.1686C110.393 16.4118 110.749 16.7682 111.006 17.2394L111.007 17.2409ZM118.658 17.4085C118.429 16.9132 118.074 16.5175 117.593 16.2215C117.111 15.9255 116.49 15.7775 115.727 15.7775C114.64 15.7775 113.776 16.0961 113.133 16.7319C112.49 17.3677 112.168 18.2738 112.168 19.4473C112.168 20.2824 112.334 20.9967 112.669 21.5887C113.002 22.1807 113.462 22.6323 114.049 22.9434C114.634 23.2545 115.309 23.41 116.072 23.41C116.664 23.41 117.194 23.327 117.666 23.1623C117.983 23.0506 118.248 22.9313 118.46 22.8014C118.621 22.7032 118.686 22.5024 118.613 22.3287L118.281 21.5434C118.2 21.3486 117.977 21.261 117.789 21.3516C117.653 21.4181 117.5 21.4755 117.329 21.5238C117.005 21.6159 116.648 21.6627 116.258 21.6627C115.791 21.6627 115.379 21.5751 115.021 21.3999C114.664 21.2248 114.461 20.8895 114.414 20.3957H118.251C118.618 20.3957 118.924 20.1148 118.964 19.7448L118.967 19.7191C118.991 19.4911 119.003 19.2706 119.003 19.0561C119.003 18.4536 118.889 17.9054 118.661 17.41L118.658 17.4085ZM114.411 18.9217C114.411 18.5049 114.525 18.1696 114.753 17.9174C114.981 17.6652 115.302 17.5384 115.711 17.5384C116.12 17.5384 116.461 17.6728 116.676 17.9386C116.891 18.2059 116.997 18.5336 116.997 18.9217H114.411ZM89.9845 16.2215C89.5027 15.9255 88.8816 15.7775 88.1197 15.7775C87.0331 15.7775 86.1689 16.0961 85.5256 16.7319C84.8822 17.3677 84.5605 18.2738 84.5605 19.4473C84.5605 20.2824 84.7266 20.9967 85.0616 21.5887C85.3951 22.1807 85.8546 22.6323 86.4416 22.9434C87.0272 23.2545 87.7016 23.41 88.4651 23.41C89.0565 23.41 89.5872 23.327 90.0586 23.1623C90.3758 23.0506 90.6411 22.9313 90.8531 22.8014C91.0132 22.7032 91.0784 22.5024 91.0058 22.3287L90.6738 21.5434C90.5922 21.3486 90.3699 21.261 90.1816 21.3516C90.0452 21.4181 89.8926 21.4755 89.7221 21.5238C89.3975 21.6159 89.0402 21.6627 88.6503 21.6627C88.1834 21.6627 87.7713 21.5751 87.4141 21.3999C87.0568 21.2248 86.8537 20.8895 86.8063 20.3957H90.6248C90.9939 20.3957 91.3156 20.1178 91.3556 19.7448C91.3556 19.7357 91.3571 19.7267 91.3586 19.7191C91.3823 19.4911 91.3942 19.2706 91.3942 19.0561C91.3942 18.4536 91.28 17.9054 91.0518 17.41C90.8235 16.9147 90.4677 16.519 89.9874 16.223L89.9845 16.2215ZM86.8048 18.9217C86.8048 18.5049 86.919 18.1696 87.1472 17.9174C87.3755 17.6652 87.6957 17.5384 88.1048 17.5384C88.514 17.5384 88.8549 17.6728 89.0699 17.9386C89.2848 18.2059 89.3915 18.5336 89.3915 18.9217H86.8048Z" fill="#1877F2"/>
</g>
<g clip-path="url(#clip1_1_2)">
<path d="M107.115 168.557C105.081 168.557 102.978 168.504 100.875 168.403C86.4198 167.707 72.7716 167.049 65.1031 162.179C63.6374 161.249 61.4016 159.831 59.3889 158.546C59.3199 158.514 59.2721 158.472 59.2721 158.472C56.8398 156.921 54.6943 155.556 54.6943 155.556L55.1776 154.617C55.1776 154.617 57.3071 155.456 61.46 155.647C62.0389 155.673 62.6443 155.689 63.2497 155.689C71.582 155.689 85.809 153.172 106.255 141.186C109.223 139.444 115.904 136.858 122.144 136.858C125.766 136.858 128.681 137.739 130.8 139.481C135.182 143.082 137.619 149.184 137.008 155.036C136.52 159.736 134.178 163.4 130.413 165.36C129.536 165.822 128.559 166.194 127.502 166.459C125.761 166.895 123.785 167.277 121.629 167.596L121.438 167.622H121.432C117.072 168.243 112.256 168.557 107.12 168.557H107.115Z" fill="#334058"/>
<path d="M122.138 137.384C125.266 137.384 128.235 138.064 130.46 139.89C138.256 146.295 139.037 160.267 130.168 164.887C129.334 165.328 128.4 165.684 127.375 165.939C125.766 166.337 123.822 166.73 121.554 167.065C121.554 167.065 121.544 167.065 121.538 167.065C117.64 167.633 112.797 168.026 107.12 168.026C105.15 168.026 103.073 167.978 100.901 167.872C86.1911 167.16 72.8615 166.475 65.3895 161.733C63.9238 160.804 61.688 159.386 59.6753 158.1C59.6222 158.074 59.601 158.053 59.601 158.053C57.1262 156.475 54.9808 155.105 54.9808 155.105C54.9808 155.105 57.1209 155.971 61.4384 156.173C62.0067 156.199 62.6121 156.215 63.2547 156.215C71.4648 156.215 85.83 153.778 106.531 141.638C109.414 139.944 116.074 137.379 122.149 137.379M122.138 136.322C115.792 136.322 109 138.956 105.984 140.724C85.6441 152.652 71.5179 155.153 63.2493 155.153C62.6493 155.153 62.0545 155.137 61.4862 155.111C57.4449 154.925 55.395 154.123 55.3738 154.117L54.4072 155.997C54.4072 155.997 56.5421 157.357 59.0062 158.929C59.0381 158.95 59.0805 158.977 59.1336 159.009C61.1464 160.288 63.3662 161.701 64.8266 162.625C72.6066 167.569 86.3291 168.228 100.854 168.929C102.967 169.03 105.076 169.083 107.12 169.083C112.218 169.083 117.003 168.769 121.347 168.159H121.358L121.708 168.111C123.88 167.787 125.872 167.405 127.63 166.969C128.724 166.693 129.748 166.311 130.662 165.822C134.581 163.783 137.024 159.964 137.534 155.084C138.16 149.062 135.649 142.774 131.135 139.062C128.915 137.24 125.888 136.316 122.138 136.316V136.322Z" fill="#0C0C0C"/>
<path d="M125.691 144.267C124.008 149.556 122.075 155.329 124.369 160.724C124.666 161.468 125.012 162.174 125.256 163.008C124.555 162.503 124.024 161.813 123.647 161.053C121.767 157.208 122.133 152.668 123.44 148.712C123.95 147.129 124.608 145.568 125.686 144.272L125.691 144.267Z" fill="#04223D"/>
<path d="M118.915 142.934C116.759 148.892 114.385 155.403 116.626 161.675C116.923 162.54 117.306 163.374 117.709 164.234C117.04 163.56 116.493 162.769 116.053 161.914C113.376 156.268 115.309 147.803 118.915 142.934Z" fill="#04223D"/>
<path d="M110.562 144.415C108.804 148.972 106.892 153.916 108.299 158.812C108.491 159.486 108.74 160.145 109.016 160.83C108.48 160.32 108.055 159.699 107.731 159.024C105.777 154.452 107.731 148.239 110.562 144.415Z" fill="#04223D"/>
<path d="M103.042 146.173C107.96 146.46 112.771 147.389 117.673 147.793C122.553 148.329 127.402 148.626 132.319 148.733C127.471 149.821 122.463 149.11 117.577 148.685C112.702 148.026 107.784 147.554 103.042 146.173Z" fill="#04223D"/>
<path d="M100.991 151.064C105.845 151.298 110.556 152.349 115.372 152.87C120.162 153.512 124.942 153.948 129.78 154.043C124.984 154.941 120.067 154.224 115.266 153.767C110.465 153.093 105.617 152.615 100.997 151.064H100.991Z" fill="#04223D"/>
<path d="M102.298 157.267C106.929 157.389 111.443 158.307 116.053 158.642C120.641 159.125 125.192 159.311 129.812 159.439C125.272 160.564 120.551 159.885 115.962 159.545C113.663 159.306 111.369 159.019 109.085 158.669C106.807 158.297 104.502 158.053 102.293 157.267H102.298Z" fill="#04223D"/>
<path opacity="0.3" d="M130.168 164.887L128.67 165.546C128.67 165.546 132.096 163.639 133.859 159.805C134.873 157.596 135.569 154.064 134.947 150.628C134.326 147.192 132.605 142.131 128.06 139.858C124.05 137.856 117.922 138.106 112.096 140.57C105.904 143.193 100.8 146.55 93.0257 150.065C82.925 154.632 73.3712 157.983 61.4277 156.172C69.2396 156.539 84.1942 154.723 106.515 141.637C110.885 139.072 123.907 134.511 130.455 139.885C138.251 146.289 139.031 160.262 130.163 164.882L130.168 164.887Z" fill="white"/>
<g opacity="0.25">
<path d="M121.532 167.065C116.275 167.83 109.318 168.281 100.901 167.877C86.1906 167.166 72.861 166.481 65.389 161.738C63.9233 160.809 61.6875 159.391 59.6748 158.106C60.6573 158.68 71.3528 164.272 121.538 167.065H121.532Z" fill="#04223D"/>
</g>
<path d="M71.9534 172.189C88.5539 172.189 102.011 156.941 102.011 138.132C102.011 119.323 88.5539 104.076 71.9534 104.076C55.3529 104.076 41.8955 119.323 41.8955 138.132C41.8955 156.941 55.3529 172.189 71.9534 172.189Z" fill="#1877F2"/>
<path d="M69.0271 174.021C69.0111 175.041 68.9793 176.114 68.9209 177.218C68.8996 177.633 68.8731 178.052 68.8412 178.477V178.493C68.5066 180.214 67.1259 181.493 65.2672 182.439C63.8758 182.63 61.9268 182.933 59.1919 183.968C52.8032 186.379 41.8422 176.974 46.3721 175.657C46.3721 175.657 52.389 172.89 52.4156 172.508C52.4899 171.515 52.4262 169.991 52.4262 169.991C52.4262 169.991 51.3003 168.695 50.9074 168.259C40.3181 156.454 39.4896 141.202 42.1821 130.491C44.2744 122.158 48.6185 116.747 48.6344 116.641C48.6344 116.63 68.8518 166.937 68.8518 166.937C68.8518 166.937 69.0855 170.007 69.0271 174.021Z" fill="#1877F2"/>
<path d="M103.019 143.029C102.929 145.281 102.664 147.58 102.191 149.896C102.111 150.294 102.026 150.692 101.925 151.09C101.878 151.287 101.83 151.483 101.782 151.685C101.692 152.046 101.596 152.413 101.495 152.779C101.246 153.682 100.959 154.585 100.635 155.482C100.534 155.769 100.428 156.051 100.316 156.337C100.221 156.598 100.114 156.863 100.003 157.123C99.9127 157.362 99.8118 157.596 99.7056 157.835C99.6259 158.031 99.5356 158.228 99.4454 158.424C99.3179 158.711 99.1851 158.998 99.0471 159.279C98.7603 159.879 98.4523 160.48 98.123 161.08C97.9903 161.324 97.8522 161.568 97.7088 161.813C97.5495 162.089 97.3849 162.365 97.2149 162.641C97.1831 162.694 97.1565 162.742 97.1246 162.79C96.9866 163.018 96.8432 163.246 96.6945 163.469C96.5192 163.746 96.3387 164.016 96.1475 164.287C95.9829 164.537 95.8076 164.781 95.6324 165.025C95.5899 165.084 95.5527 165.137 95.5049 165.195C95.3615 165.397 95.2075 165.604 95.0535 165.806C94.4215 166.64 93.7471 167.458 93.0249 168.265C92.6319 168.7 91.506 169.996 91.506 169.996C91.506 169.996 91.5007 170.145 91.4901 170.378C91.4795 170.825 91.4689 171.584 91.5007 172.221V172.264C91.506 172.349 91.5113 172.428 91.5167 172.508C91.5432 172.896 97.5548 175.663 97.5601 175.663C99.7799 176.31 98.277 178.897 95.4199 181.085C94.395 181.871 93.1948 182.603 91.9256 183.177C91.745 183.257 91.5645 183.336 91.3786 183.411C89.1269 184.335 86.7159 184.717 84.7404 183.974C82.0054 182.938 80.0564 182.63 78.665 182.444C76.8488 181.515 75.484 180.267 75.1229 178.594C75.1229 178.589 75.1176 178.583 75.1176 178.583C75.1229 178.578 75.1176 178.578 75.1176 178.578C75.107 178.551 75.1016 178.52 75.0963 178.493V178.482C75.0592 178.052 75.0326 177.638 75.0167 177.224C74.9583 176.114 74.9211 175.041 74.9052 174.022C74.8998 173.485 74.8945 172.97 74.8945 172.471C74.8945 172.322 74.8945 172.173 74.8998 172.03C74.9211 169.04 75.0804 166.943 75.0804 166.943C75.0804 166.943 94.7614 117.968 95.2872 116.673C95.2925 116.657 95.2978 116.646 95.2978 116.646C95.3137 116.752 99.6578 122.169 101.75 130.496C101.894 131.075 102.032 131.67 102.159 132.275C102.228 132.615 102.292 132.96 102.35 133.305C102.483 134.017 102.595 134.739 102.685 135.477C102.722 135.753 102.754 136.03 102.786 136.306C102.796 136.407 102.807 136.513 102.818 136.619C102.897 137.357 102.956 138.106 102.993 138.865V138.876C103.062 140.23 103.072 141.622 103.019 143.029Z" fill="#1877F2"/>
<path d="M71.9533 165.063C59.7443 165.063 49.8135 153.703 49.8135 139.747C49.8135 125.791 59.7443 114.426 71.9533 114.426C84.1623 114.426 94.0931 125.786 94.0931 139.747C94.0931 153.709 84.1623 165.063 71.9533 165.063Z" fill="#FFF1E6"/>
<path d="M71.9532 114.692C84.0348 114.692 93.8275 125.908 93.8275 139.747C93.8275 153.586 84.0348 164.802 71.9532 164.802C59.8716 164.802 50.0789 153.586 50.0789 139.747C50.0789 125.908 59.8716 114.692 71.9532 114.692ZM71.9532 114.161C59.6008 114.161 49.5479 125.637 49.5479 139.747C49.5479 153.857 59.6008 165.333 71.9532 165.333C84.3056 165.333 94.3586 153.857 94.3586 139.747C94.3586 125.637 84.3056 114.161 71.9532 114.161Z" fill="#04223D"/>
<g opacity="0.25">
<path d="M71.9534 162.142C60.2595 162.142 50.7111 151.637 50.111 138.414C50.0897 138.855 50.0791 139.296 50.0791 139.742C50.0791 153.576 59.8718 164.797 71.9534 164.797C84.035 164.797 93.8277 153.581 93.8277 139.742C93.8277 139.296 93.8171 138.855 93.7958 138.414C93.1957 151.632 83.642 162.142 71.9534 162.142Z" fill="#3A1A04"/>
</g>
<path d="M61.8152 137.734C61.231 137.92 60.6628 138.106 60.0999 138.281C44.9276 143.093 37.8698 144.096 35.2835 139.747C34.2267 137.978 33.9187 135.323 34.1046 131.675C34.163 130.618 34.2533 129.481 34.386 128.26C34.9277 123.194 38.9956 112.18 45.1081 105.361C46.4145 103.906 47.8112 102.636 49.2929 101.665C50.3815 100.772 51.5392 99.9175 52.766 99.0996C56.1541 96.8373 62.2294 109.848 62.2294 109.848C61.794 110.082 57.11 113.412 55.7558 114.543C56.494 117.681 56.5577 118.117 48.4113 129.641C46.8181 131.707 55.8727 132.471 59.3033 131.441C65.5167 129.577 64.582 136.821 61.8152 137.734Z" fill="#1877F2"/>
<path opacity="0.25" d="M45.108 105.367C42.6545 109.583 36.951 120.146 34.1045 131.681C34.1629 130.624 34.2532 129.487 34.386 128.266C34.9276 123.2 38.9955 112.185 45.108 105.367Z" fill="white"/>
<path d="M82.0858 137.74C106.727 145.684 111.246 144.484 109.51 128.265C108.851 122.116 103.009 107.204 94.6028 101.665C93.5141 100.778 92.3564 99.9228 91.1297 99.105C87.7415 96.8427 81.6662 109.854 81.6662 109.854C82.1017 110.087 86.7856 113.412 88.1398 114.548C87.4016 117.687 87.3379 118.122 95.479 129.641C97.0722 131.712 88.023 132.477 84.5924 131.446C78.379 129.582 79.3136 136.821 82.0804 137.74H82.0858Z" fill="#1877F2"/>
<path opacity="0.25" d="M98.8252 105.367C101.279 109.583 106.982 120.146 109.829 131.681C109.77 130.624 109.68 129.487 109.547 128.266C109.006 123.2 104.938 112.185 98.8252 105.367Z" fill="white"/>
<path d="M90.2746 98.8399C90.5773 98.8399 90.864 98.9249 91.1349 99.1055C92.3616 99.9233 93.5193 100.778 94.608 101.665C103.009 107.199 108.856 122.116 109.515 128.266C110.55 137.926 109.361 142.254 103.031 142.504C103.031 142.679 103.031 142.854 103.02 143.029C102.93 145.281 102.664 147.58 102.192 149.896C102.112 150.294 102.027 150.692 101.926 151.091C101.878 151.287 101.83 151.484 101.783 151.686C101.692 152.047 101.597 152.413 101.496 152.78C101.246 153.682 100.959 154.585 100.636 155.483C100.535 155.769 100.428 156.051 100.317 156.338C100.221 156.598 100.115 156.863 100.004 157.124C99.9133 157.363 99.8124 157.596 99.7062 157.835C99.6265 158.032 99.5362 158.228 99.4459 158.425C99.3185 158.711 99.1857 158.998 99.0477 159.28C98.7609 159.88 98.4529 160.48 98.1236 161.08C97.9908 161.324 97.8528 161.569 97.7094 161.813C97.5501 162.089 97.3854 162.365 97.2155 162.641C97.1836 162.694 97.1571 162.742 97.1252 162.79C96.9871 163.018 96.8438 163.247 96.6951 163.47C96.5198 163.746 96.3393 164.017 96.1481 164.288C95.9834 164.537 95.8082 164.781 95.6329 165.026C95.5905 165.084 95.5533 165.137 95.5055 165.196C95.3621 165.397 95.2081 165.605 95.0541 165.806C94.4221 166.64 93.7477 167.458 93.0254 168.265C92.6325 168.701 91.5066 169.996 91.5066 169.996C91.5066 169.996 91.5013 170.145 91.4907 170.379C91.4801 170.825 91.4694 171.584 91.5013 172.222V172.264C91.5597 172.259 91.6235 172.253 91.6872 172.248C92.1704 172.211 92.6749 172.184 93.1688 172.184C93.3494 172.184 93.53 172.184 93.7105 172.195H93.7902C93.8327 172.195 93.8858 172.2 93.9389 172.206C94.2256 172.238 94.6027 172.307 94.7726 172.344C94.8257 172.354 94.8629 172.36 94.8629 172.36C94.9479 172.386 95.0328 172.413 95.1125 172.445C95.1922 172.471 95.2718 172.503 95.3462 172.535C95.4524 172.577 95.5533 172.625 95.6542 172.678C95.7498 172.726 95.8454 172.779 95.941 172.832C96.0684 172.912 96.1959 172.992 96.318 173.082C96.3817 173.13 96.4455 173.178 96.5092 173.225C97.5501 174.033 98.3998 175.233 99.0795 176.555C99.1432 176.677 99.207 176.805 99.2654 176.927C99.3238 177.049 99.3875 177.176 99.4406 177.299C99.499 177.426 99.5575 177.548 99.6106 177.676C99.669 177.803 99.7221 177.93 99.7752 178.058C99.8495 178.249 99.9239 178.435 99.9982 178.626C100.03 178.706 100.057 178.78 100.089 178.86C100.173 179.099 100.258 179.338 100.338 179.571C100.471 179.97 100.593 180.363 100.705 180.734C100.763 180.936 100.816 181.127 100.869 181.319C100.901 181.441 100.933 181.558 100.959 181.669C100.986 181.775 101.013 181.882 101.039 181.982C101.066 182.083 101.092 182.184 101.113 182.28C101.241 182.816 101.087 183.342 100.747 183.714C100.46 184.043 100.035 184.261 99.5522 184.261C99.5522 184.261 92.0961 185.158 89.4514 185.158C89.4196 185.158 89.393 185.158 89.3611 185.158C88.0654 185.142 81.8467 184.893 78.0708 182.96C76.5733 182.195 75.458 181.159 75.1872 179.773C75.1394 179.545 75.1182 179.311 75.1235 179.062C75.1235 178.881 75.1235 178.844 75.1235 178.743V178.594L75.1182 178.584C75.1235 178.578 75.1182 178.578 75.1182 178.578C75.1075 178.552 75.1022 178.52 75.0969 178.493V178.483C75.0597 178.053 75.0332 177.638 75.0173 177.224C74.9588 176.114 74.9217 175.042 74.9057 174.022C74.9004 173.486 74.8951 172.97 74.8951 172.471C74.8951 172.322 74.8951 172.174 74.9004 172.03C73.9286 172.137 72.9461 172.195 71.953 172.195C70.96 172.195 69.9934 172.137 69.0322 172.03C69.0322 172.657 69.0322 173.326 69.0269 174.022C69.011 175.042 68.9791 176.114 68.9207 177.219C68.8995 177.633 68.8782 178.053 68.841 178.477C68.841 178.477 68.841 178.488 68.841 178.493C68.8357 178.525 68.8251 178.552 68.8145 178.578C68.8145 178.647 68.8145 178.701 68.8145 178.743C68.8145 178.844 68.8145 178.876 68.8145 179.062C68.8145 179.311 68.7986 179.545 68.7508 179.773C68.4799 181.165 67.3647 182.195 65.8671 182.96C62.0913 184.893 55.8726 185.142 54.5768 185.153C54.545 185.153 54.5184 185.153 54.4865 185.153C51.8419 185.153 44.3911 184.261 44.3911 184.261C43.9079 184.261 43.483 184.043 43.1909 183.714C42.8564 183.337 42.697 182.816 42.8245 182.28C43.5361 179.311 45.2514 173.937 48.5918 172.535C48.7511 172.471 48.9104 172.413 49.0751 172.365C49.0751 172.365 49.7814 172.216 50.1478 172.2C50.3337 172.19 50.5248 172.19 50.716 172.19C51.2949 172.19 51.879 172.222 52.4367 172.275C52.4844 171.292 52.4367 170.002 52.4367 170.002C52.4367 170.002 51.3108 168.706 50.9178 168.271C43.8813 160.427 41.157 151.054 40.9074 142.509C34.5559 142.275 33.361 137.947 34.3966 128.271C35.0551 122.122 40.8968 107.209 49.3034 101.67C50.3921 100.784 51.5498 99.9286 52.7765 99.1108C53.0474 98.9302 53.3341 98.8453 53.6368 98.8453C55.8567 98.8453 58.7669 103.37 60.5672 106.62C64.0828 104.984 67.9276 104.081 71.9637 104.081C75.9997 104.081 79.8393 104.99 83.3549 106.62C85.1552 103.37 88.0654 98.8453 90.2852 98.8453M90.2746 97.7778C89.4992 97.7778 87.1997 97.7778 82.8929 105.255C79.3932 103.768 75.7183 103.014 71.9477 103.014C68.1772 103.014 64.5023 103.768 61.0026 105.255C56.6957 97.7831 54.3963 97.7831 53.6209 97.7831C53.1005 97.7831 52.6119 97.9318 52.1711 98.2239C50.9497 99.0417 49.7654 99.9074 48.6608 100.81C39.8984 106.625 34.0249 121.691 33.3345 128.149C32.5857 135.164 33.0796 138.945 35.0392 141.213C36.1544 142.504 37.7476 143.252 39.8771 143.491C40.2276 150.507 42.3519 160.315 50.1212 168.972C50.3921 169.274 51.0293 170.002 51.3798 170.405C51.3798 170.602 51.3905 170.857 51.3905 171.133C51.1568 171.122 50.9284 171.117 50.7107 171.117C50.5036 171.117 50.2965 171.117 50.0947 171.128C49.8238 171.138 49.4149 171.202 48.8839 171.308C48.8467 171.313 48.8095 171.324 48.7724 171.335C48.5705 171.393 48.3687 171.467 48.1723 171.547C44.6089 173.05 42.7289 178.074 41.7836 182.025C41.5818 182.875 41.8102 183.767 42.389 184.415C42.8617 184.962 43.5627 185.291 44.3008 185.317C45.0231 185.402 51.8844 186.215 54.4706 186.215H54.5715C54.8742 186.215 62.0169 186.114 66.3398 183.905C68.3153 182.896 69.473 181.574 69.781 179.975C69.8394 179.688 69.8713 179.37 69.866 179.046C69.866 178.939 69.866 178.892 69.866 178.849V178.743V178.722C69.866 178.711 69.866 178.706 69.8713 178.695C69.8713 178.679 69.8766 178.658 69.8819 178.637C69.8819 178.637 69.8819 178.616 69.8819 178.61C69.8819 178.594 69.8819 178.578 69.8819 178.562C69.9191 178.122 69.9456 177.697 69.9616 177.267C70.0147 176.247 70.0519 175.19 70.0731 174.038C70.0731 173.756 70.0784 173.475 70.0837 173.188C70.7104 173.231 71.3317 173.252 71.9371 173.252C72.5425 173.252 73.1851 173.231 73.8224 173.188C73.8224 173.443 73.8224 173.703 73.8277 173.969V174.033C73.8436 175.073 73.8808 176.162 73.9392 177.277C73.9551 177.681 73.9817 178.106 74.0189 178.552C74.0189 178.6 74.0295 178.653 74.0348 178.701C74.0348 178.711 74.0348 178.722 74.0401 178.732V178.855C74.0401 178.897 74.0401 178.939 74.0401 179.035C74.0348 179.375 74.0614 179.683 74.1251 179.996C74.4331 181.584 75.5908 182.901 77.5663 183.91C81.7882 186.072 88.5699 186.215 89.324 186.226H89.4249C92.0111 186.226 98.8565 185.418 99.6 185.328C100.338 185.307 101.034 184.978 101.522 184.42C102.096 183.793 102.324 182.901 102.122 182.041C102.101 181.945 102.075 181.834 102.043 181.717C102.016 181.621 101.99 181.52 101.968 181.414C101.947 181.335 101.926 181.239 101.899 181.143L101.878 181.053C101.82 180.841 101.767 180.649 101.708 180.442C101.575 179.991 101.448 179.603 101.331 179.237C101.246 178.993 101.161 178.748 101.076 178.504C101.076 178.493 101.066 178.477 101.06 178.467L101.023 178.371C101.007 178.323 100.986 178.281 100.97 178.233L100.859 177.957L100.747 177.676C100.747 177.676 100.736 177.649 100.731 177.644C100.678 177.511 100.625 177.383 100.561 177.251C100.519 177.15 100.471 177.049 100.423 176.948L100.381 176.858C100.343 176.773 100.29 176.667 100.243 176.56L100.2 176.47C100.136 176.337 100.067 176.199 99.9982 176.066C99.1698 174.457 98.2086 173.22 97.1358 172.386L96.9287 172.232C96.7694 172.115 96.6154 172.02 96.4773 171.935C96.4614 171.924 96.4455 171.914 96.4295 171.908C96.318 171.85 96.2118 171.786 96.1003 171.733C95.9781 171.669 95.8454 171.606 95.7126 171.552C95.6436 171.521 95.548 171.483 95.4471 171.452C95.3515 171.414 95.2559 171.383 95.155 171.351C95.1019 171.335 95.0382 171.319 94.9851 171.313H94.9532C94.7886 171.271 94.369 171.191 94.0291 171.154C93.9282 171.144 93.838 171.138 93.7636 171.138H93.7052C93.5193 171.133 93.3335 171.128 93.1423 171.128C92.9405 171.128 92.7281 171.128 92.5156 171.138C92.5156 170.878 92.5156 170.628 92.5262 170.416C92.8767 170.012 93.5193 169.28 93.7902 168.982C94.5283 168.159 95.2293 167.309 95.8772 166.454C96.0312 166.253 96.1852 166.045 96.3286 165.844C96.3711 165.79 96.4083 165.737 96.4508 165.679L96.4667 165.652C96.642 165.403 96.8225 165.153 96.9978 164.888C97.1889 164.612 97.3748 164.335 97.566 164.038C97.6988 163.841 97.8421 163.613 97.9962 163.358C98.0227 163.316 98.0493 163.268 98.0811 163.225L98.1024 163.188C98.2723 162.917 98.4422 162.631 98.6069 162.344C98.7503 162.094 98.8936 161.839 99.0317 161.59C99.3663 160.979 99.6849 160.358 99.9823 159.742C100.115 159.476 100.253 159.173 100.391 158.86C100.482 158.669 100.572 158.462 100.657 158.255C100.758 158.026 100.864 157.782 100.959 157.522C101.076 157.246 101.188 156.97 101.283 156.704C101.39 156.423 101.501 156.131 101.607 155.833C101.937 154.93 102.234 153.99 102.489 153.061C102.59 152.684 102.691 152.312 102.781 151.94C102.829 151.728 102.877 151.532 102.924 151.34C103.015 150.99 103.1 150.602 103.201 150.103C103.641 147.947 103.917 145.722 104.029 143.486C106.148 143.247 107.725 142.493 108.835 141.208C110.795 138.94 111.283 135.159 110.534 128.149C109.844 121.686 103.971 106.62 95.2028 100.805C94.0982 99.9021 92.9139 99.0364 91.6925 98.2186C91.2517 97.9265 90.7631 97.7778 90.2427 97.7778H90.2746Z" fill="#04223D"/>
<path opacity="0.25" d="M43.9819 106.742C43.9819 106.742 50.3599 118.383 71.4695 118.5C92.1701 118.611 99.8067 106.615 99.8067 106.615L97.4807 103.423L45.7662 104.081L43.9766 106.747L43.9819 106.742Z" fill="#04223D"/>
<path d="M98.2554 64.7726C95.4355 64.7726 92.7058 63.0839 91.1392 60.3702C88.8663 56.4297 89.8116 51.6077 93.2528 49.6215C94.2406 49.0533 95.3346 48.7612 96.4976 48.7612C99.3228 48.7612 102.047 50.45 103.614 53.1637C105.887 57.1042 104.941 61.9262 101.5 63.9123C100.512 64.4806 99.4184 64.7726 98.2554 64.7726Z" fill="#1877F2"/>
<path d="M96.4978 49.2921C99.0309 49.2921 101.644 50.8056 103.157 53.429C105.287 57.1199 104.432 61.6073 101.24 63.4501C100.316 63.9865 99.2911 64.2361 98.2609 64.2361C95.7277 64.2361 93.1149 62.7226 91.6014 60.0991C89.4719 56.4083 90.3269 51.9208 93.5185 50.0781C94.4426 49.5417 95.4675 49.2921 96.4978 49.2921ZM96.4978 48.23C95.2551 48.23 94.039 48.5539 92.9875 49.1593C91.1713 50.2055 89.9392 51.9952 89.5197 54.1991C89.1108 56.3446 89.5197 58.6281 90.6774 60.6355C92.3396 63.5138 95.2445 65.3035 98.2556 65.3035C99.4983 65.3035 100.714 64.9796 101.766 64.3742C103.582 63.328 104.814 61.5383 105.234 59.3344C105.643 57.1889 105.234 54.9054 104.076 52.898C102.414 50.0196 99.5089 48.23 96.4978 48.23Z" fill="#04223D"/>
<path d="M96.9873 62.4943C96.0951 62.4943 94.5232 61.942 94.0081 58.2405C93.8116 56.8545 94.0506 55.7658 94.7091 55.0117C95.5853 54.008 96.9873 53.854 97.7414 53.854C98.1397 53.854 98.5539 53.8965 98.9044 53.9655C100.03 54.1992 102.043 55.8242 101.809 58.6973C101.56 61.7933 97.5927 62.42 97.4122 62.4412C97.4122 62.4412 97.2475 62.4943 96.982 62.4943H96.9873Z" fill="#FF8080"/>
<path d="M97.7407 54.1194C98.1656 54.1194 98.5533 54.1672 98.8507 54.2256C99.8331 54.4275 101.766 55.9516 101.548 58.6759C101.315 61.602 97.3796 62.1809 97.3796 62.1809C97.3796 62.1809 97.2256 62.2287 96.9919 62.2287C96.275 62.2287 94.7721 61.7826 94.2729 58.2033C93.8003 54.8417 96.0626 54.1194 97.746 54.1194M97.7407 53.5884C96.3547 53.5884 95.2076 54.0292 94.5066 54.8364C93.795 55.6542 93.5348 56.8119 93.7419 58.2776C94.3101 62.3243 96.2007 62.7598 96.9866 62.7598C97.2256 62.7598 97.4062 62.7226 97.4911 62.7013C97.9372 62.627 101.819 61.9048 102.079 58.7184C102.324 55.6807 100.168 53.9548 98.9622 53.7052C98.702 53.6521 98.2771 53.5884 97.7407 53.5884Z" fill="#04223D"/>
<g opacity="0.5">
<path d="M93.5133 51.671C96.705 49.8283 101.022 51.3258 103.152 55.022C103.8 56.1372 104.166 57.3321 104.278 58.5004C104.448 56.8542 104.092 55.0645 103.152 53.4288C101.022 49.738 96.705 48.2351 93.5133 50.0779C91.2882 51.363 90.1995 53.9333 90.465 56.6258C90.6828 54.5494 91.7343 52.7013 93.5133 51.671Z" fill="white"/>
</g>
<g opacity="0.25">
<path d="M98.8512 55.8187C99.6744 55.9886 101.151 57.0826 101.491 59.0209C101.512 58.9041 101.538 58.7926 101.549 58.6704C101.767 55.9514 99.839 54.422 98.8512 54.2202C97.3749 53.9175 93.6787 53.9812 94.2682 58.1978C94.2682 58.2031 94.2682 58.2084 94.2682 58.2137C94.709 55.5744 97.5873 55.5531 98.8512 55.8133V55.8187Z" fill="black"/>
</g>
<g opacity="0.25">
<path d="M101.235 62.3877C98.0432 64.2305 93.7257 62.7329 91.5961 59.0367C90.9058 57.8419 90.534 56.562 90.4491 55.3193C90.3482 56.886 90.7093 58.5588 91.5961 60.0989C93.7257 63.7897 98.0432 65.2926 101.235 63.4498C103.396 62.2019 104.48 59.7484 104.304 57.1462C104.161 59.3394 103.099 61.315 101.235 62.3877Z" fill="#04223D"/>
</g>
<path d="M45.3999 64.7722C44.2316 64.7722 43.1429 64.4854 42.1552 63.9118C38.7139 61.9257 37.7686 57.1037 40.0416 53.1632C41.6082 50.4495 44.3378 48.7607 47.1577 48.7607C48.3261 48.7607 49.4147 49.0475 50.4025 49.6211C53.8438 51.6072 54.789 56.4292 52.5161 60.3697C50.9495 63.0834 48.2198 64.7722 45.3999 64.7722Z" fill="#1877F2"/>
<path d="M47.1582 49.2916C48.1938 49.2916 49.2134 49.5465 50.1375 50.0776C53.3291 51.9203 54.1894 56.4078 52.0546 60.0986C50.5411 62.7221 47.9283 64.2356 45.3951 64.2356C44.3595 64.2356 43.3399 63.9807 42.4159 63.4496C39.2242 61.6069 38.3639 57.1194 40.4988 53.4286C42.0123 50.8051 44.6251 49.2916 47.1582 49.2916ZM47.1582 48.2295C44.1471 48.2295 41.2422 50.0192 39.58 52.8975C38.4223 54.9049 38.0081 57.1884 38.4223 59.3339C38.8418 61.5325 40.0739 63.3222 41.8901 64.3737C42.9469 64.9844 44.1577 65.303 45.4004 65.303C48.4115 65.303 51.3164 63.5134 52.9786 60.635C54.1363 58.6276 54.5506 56.3441 54.1363 54.1986C53.7168 52 52.4847 50.2103 50.6685 49.1588C49.6117 48.5481 48.4009 48.2295 47.1582 48.2295Z" fill="#04223D"/>
<path d="M46.6693 62.4938C46.3984 62.4938 46.2179 62.4354 46.1966 62.43C46.0692 62.4141 42.0915 61.7928 41.8419 58.6914C41.6083 55.8184 43.621 54.1933 44.7468 53.9597C45.1026 53.8853 45.5169 53.8481 45.9098 53.8481C46.6693 53.8481 48.0659 53.9968 48.9422 55.0059C49.6007 55.7653 49.8397 56.8539 49.6432 58.2347C49.1227 61.9362 47.5508 62.4885 46.6639 62.4885L46.6693 62.4938Z" fill="#FF8080"/>
<path d="M45.9155 54.1189C47.599 54.1189 49.856 54.8412 49.3886 58.2028C48.8894 61.7821 47.3866 62.2282 46.6696 62.2282C46.4306 62.2282 46.2819 62.1804 46.2819 62.1804C46.2819 62.1804 42.3468 61.6016 42.1131 58.6754C41.8954 55.9564 43.8231 54.427 44.8109 54.2252C45.1083 54.1614 45.496 54.1189 45.9208 54.1189M45.9155 53.5879C45.3845 53.5879 44.9596 53.6516 44.6941 53.7047C43.4833 53.9543 41.3325 55.6803 41.5768 58.7179C41.8317 61.9043 45.719 62.6265 46.1651 62.7009C46.2501 62.7221 46.4306 62.7593 46.6696 62.7593C47.4556 62.7593 49.3462 62.3238 49.9144 58.2771C50.1215 56.8114 49.8613 55.6537 49.1497 54.8359C48.4487 54.034 47.3016 53.5879 45.9155 53.5879Z" fill="#04223D"/>
<g opacity="0.5">
<path d="M50.1368 51.671C51.9158 52.696 52.9673 54.5493 53.185 56.6258C53.4506 53.9333 52.3619 51.363 50.1368 50.0778C46.9451 48.2351 42.6276 49.7326 40.4981 53.4288C39.5528 55.0645 39.197 56.8488 39.3722 58.5004C39.489 57.3321 39.8555 56.1425 40.4981 55.022C42.6276 51.3311 46.9451 49.8282 50.1368 51.671Z" fill="white"/>
</g>
<g opacity="0.25">
<path d="M44.8056 55.8187C43.9825 55.9886 42.5061 57.0826 42.1662 59.0209C42.145 58.9041 42.1184 58.7926 42.1078 58.6704C41.8901 55.9514 43.8178 54.422 44.8056 54.2202C46.2819 53.9175 49.9781 53.9812 49.3886 58.1978C49.3886 58.2031 49.3886 58.2084 49.3886 58.2137C48.9479 55.5744 46.0695 55.5531 44.8056 55.8133V55.8187Z" fill="black"/>
</g>
<g opacity="0.25">
<path d="M42.4219 62.3877C45.6135 64.2305 49.931 62.7329 52.0606 59.0367C52.7509 57.8419 53.1227 56.562 53.2077 55.3193C53.3086 56.886 52.9474 58.5588 52.0606 60.0989C49.931 63.7897 45.6135 65.2926 42.4219 63.4498C40.2605 62.2019 39.1771 59.7484 39.3523 57.1462C39.4957 59.3394 40.5578 61.315 42.4219 62.3877Z" fill="#04223D"/>
</g>
<path d="M71.7983 114.761C54.6505 114.761 47.7361 106.019 45.6756 102.578C45.6225 102.86 45.5906 103.162 45.5587 103.444C45.5428 103.603 45.5216 103.757 45.5056 103.906C45.4738 104.123 45.3145 104.299 45.102 104.352C45.0595 104.362 45.0171 104.368 44.9746 104.368C44.8046 104.368 44.64 104.283 44.5391 104.139C43.4982 102.647 42.9141 101.038 42.8079 99.4608C42.622 100.369 42.468 101.564 42.3458 103.157C42.3299 103.369 42.1918 103.55 41.99 103.619C41.9316 103.64 41.8732 103.651 41.8148 103.651C41.6714 103.651 41.528 103.592 41.4271 103.481C39.2763 101.15 37.5822 94.1024 38.0177 89.7583C37.4282 90.7726 36.929 92.0047 36.4352 93.6085C36.3661 93.8315 36.159 93.9855 35.9253 93.9855C35.9094 93.9855 35.8882 93.9855 35.8722 93.9855C35.6226 93.959 35.4208 93.7625 35.3996 93.5076C34.9429 88.7599 34.9907 82.7802 39.4516 78.6114C39.6587 78.383 39.9455 77.0289 40.2163 75.7171C40.9757 72.0953 42.2502 66.0413 45.8296 60.1678C50.248 52.9241 60.4602 46.8276 61.3152 46.3231C61.9844 45.7495 69.4511 39.5361 77.8205 39.5361H77.9055C78.1232 39.5361 78.3197 39.6742 78.3994 39.8813C78.479 40.0884 78.4206 40.3221 78.256 40.4655C77.0611 41.5276 75.7547 42.6906 74.4536 44.6024C77.1408 42.287 80.9113 39.9769 84.7296 39.9769H84.9261C85.1598 39.9822 85.3616 40.1415 85.4253 40.3593C85.489 40.5823 85.404 40.8213 85.2076 40.9487C82.4036 42.8128 81.8566 45.5371 81.7504 46.5833C86.7476 47.7251 92.3556 52.17 95.1968 55.898C98.5955 60.3589 100.077 67.2361 100.709 70.1729C100.815 70.6615 100.922 71.1607 100.975 71.32C101.028 71.3837 101.129 71.4846 101.261 71.6227C107.841 78.4627 108.399 86.3542 107.708 91.7763C107.677 92.0259 107.47 92.2224 107.22 92.2384C107.209 92.2384 107.193 92.2384 107.183 92.2384C106.944 92.2384 106.737 92.079 106.673 91.8454C106.492 91.1869 105.951 90.1141 105.101 89.2273C105.579 92.3233 104.549 97.9632 101.431 100.911C101.33 101.006 101.198 101.054 101.065 101.054C100.975 101.054 100.879 101.033 100.799 100.98C100.598 100.863 100.497 100.624 100.555 100.39C100.736 99.6626 100.847 98.6907 100.81 97.7507C96.5297 107.634 86.2537 113.268 79.9182 114.16C77.1036 114.553 74.374 114.755 71.8036 114.755L71.7983 114.761Z" fill="#1877F2"/>
<path d="M77.821 40.0621C77.821 40.0621 77.8741 40.0621 77.9006 40.0621C75.957 41.7881 74.008 43.583 72.1599 47.6403C74.6824 44.6292 79.7912 40.5029 84.7247 40.5029C84.7885 40.5029 84.8522 40.5029 84.9106 40.5029C81.156 42.9989 81.1932 47.003 81.1932 47.003C86.0418 47.9165 91.7825 52.2924 94.7724 56.2169C98.9518 61.7081 100.21 71.1184 100.508 71.5857C100.906 72.2124 108.84 78.686 107.173 91.7022C106.865 90.5817 105.728 88.6327 103.986 87.7299C105.404 89.2381 104.825 96.9491 101.049 100.523C101.384 99.1742 101.485 97.1934 100.98 95.7861C97.3533 106.423 86.7056 112.668 79.8284 113.635C76.9288 114.044 74.2523 114.224 71.7882 114.224C54.2101 114.224 47.3542 104.92 45.5964 101.346C45.1025 101.93 45.0706 103.019 44.9644 103.826C43.3341 101.49 42.803 98.7069 43.8598 96.2322C42.872 96.9225 42.1817 98.2555 41.8046 103.109C39.0537 100.125 37.3437 89.7001 39.3352 87.2095C37.8748 88.5902 36.8923 90.2524 35.9099 93.4441C35.4372 88.5212 35.6443 82.8707 39.7919 78.9887C40.7797 78.0647 41.0293 69.0154 46.2655 60.4282C50.7636 53.0571 61.6078 46.7428 61.6078 46.7428C61.6078 46.7428 69.3187 40.0515 77.8051 40.0568M77.821 39C69.3984 39 61.8945 45.1284 61.0024 45.8825C59.8925 46.5357 49.797 52.6323 45.3733 59.8812C41.7409 65.8344 40.461 71.9469 39.691 75.6005C39.4626 76.6998 39.2024 77.9372 39.0272 78.2665C34.4017 82.6371 34.4335 89.0788 34.8637 93.5503C34.9115 94.0548 35.3098 94.4531 35.8143 94.5062C35.8514 94.5062 35.8886 94.5115 35.9205 94.5115C36.3825 94.5115 36.7967 94.2088 36.9348 93.7627C37.1047 93.2051 37.2747 92.7006 37.4446 92.2439C37.6464 96.5614 39.1546 101.803 41.0293 103.837C41.2364 104.06 41.5178 104.177 41.8099 104.177C41.9267 104.177 42.0436 104.156 42.1604 104.118C42.5587 103.98 42.8402 103.619 42.872 103.2C42.8933 102.897 42.9198 102.61 42.9464 102.339C43.2385 103.056 43.6261 103.763 44.0988 104.442C44.3006 104.729 44.6298 104.899 44.9697 104.899C45.0547 104.899 45.1343 104.888 45.2193 104.867C45.6176 104.772 45.9203 104.458 46.0053 104.065C48.8517 108.085 56.1379 115.297 71.7935 115.297C74.3903 115.297 77.1412 115.095 79.9824 114.697C83.8432 114.155 88.4422 112.1 92.2711 109.195C94.6927 107.358 97.7197 104.517 99.9927 100.555C99.998 100.916 100.194 101.261 100.518 101.452C100.683 101.548 100.869 101.596 101.055 101.596C101.32 101.596 101.581 101.495 101.788 101.304C104.395 98.8343 105.691 94.3841 105.739 91.0172C105.935 91.3783 106.073 91.7129 106.148 91.9943C106.275 92.4616 106.695 92.775 107.173 92.775C107.199 92.775 107.22 92.775 107.247 92.775C107.751 92.7378 108.16 92.3501 108.229 91.8509C108.936 86.3173 108.367 78.2505 101.639 71.2618C101.575 71.1928 101.501 71.1184 101.448 71.06C101.395 70.8582 101.31 70.4599 101.225 70.0722C100.587 67.0983 99.0846 60.1361 95.6168 55.585C92.8075 51.8994 87.3376 47.5235 82.3403 46.1905C82.5421 45.0381 83.2218 42.9139 85.5001 41.4004C85.8878 41.1455 86.063 40.6675 85.9302 40.2214C85.8028 39.7753 85.3992 39.4673 84.9319 39.4567C84.8628 39.4567 84.7885 39.4567 84.7194 39.4567C82.335 39.4567 79.9771 40.317 77.8741 41.5225C78.1184 41.2995 78.3574 41.0871 78.6016 40.8746C78.9309 40.5826 79.0477 40.1152 78.8884 39.7063C78.7344 39.2921 78.3414 39.0212 77.9006 39.0212H77.8157L77.821 39Z" fill="#04223D"/>
<g opacity="0.25">
<path d="M35.9258 90.2629C35.8727 89.6894 35.8249 89.1052 35.793 88.5158C35.6921 90.1833 35.7718 91.8561 35.9258 93.4493C36.7011 90.9321 37.4765 89.3708 38.4855 88.144C38.4748 86.3172 38.7351 84.7984 39.3511 84.0283C37.8907 85.4091 36.9082 87.0713 35.9258 90.2629ZM43.8704 93.051C42.8826 93.7414 42.1923 95.0743 41.8152 99.9282C40.1477 98.1226 38.8625 93.5821 38.5545 89.7319C38.1297 93.8051 39.6485 100.767 41.8152 103.115C42.1285 99.0998 42.6543 97.496 43.3818 96.6728C43.2278 95.4514 43.3712 94.2193 43.8651 93.0563L43.8704 93.051ZM101.283 97.1189C101.416 98.2872 101.304 99.5671 101.06 100.528C104.076 97.6765 105.048 92.1801 104.597 89.3177C104.278 91.9889 103.237 95.1168 101.283 97.1189ZM100.991 92.6049C97.3639 103.242 86.7162 109.487 79.839 110.454C56.2441 113.762 47.6144 102.238 45.607 98.1651C45.1131 98.7493 45.0812 99.8379 44.975 100.645C44.2581 99.6202 43.7536 98.505 43.504 97.3738C42.9995 99.5405 43.5889 101.851 44.975 103.831C45.0865 103.024 45.1131 101.936 45.607 101.351C47.609 105.425 56.2387 116.949 79.839 113.64C86.7162 112.674 97.3692 106.428 100.991 95.7913C101.081 96.0462 101.15 96.3276 101.203 96.6144C101.411 95.3452 101.411 93.7786 100.991 92.6049ZM107.353 86.604C107.316 87.2306 107.263 87.8626 107.178 88.5211C106.87 87.4005 105.733 85.4516 103.992 84.5488C104.507 85.1011 104.756 86.4765 104.687 88.1759C106.031 89.1743 106.912 90.7409 107.178 91.7074C107.412 89.8753 107.449 88.1759 107.353 86.604Z" fill="#04223D"/>
</g>
<g opacity="0.5">
<path d="M94.7779 56.217C91.9527 52.5049 86.35 48.0334 81.1987 47.0031C81.1084 48.2671 81.5917 49.4088 81.5917 49.4088C86.6368 50.3594 92.6165 54.9106 95.7285 58.9944C96.9446 60.5929 97.9217 62.51 98.7077 64.4484C97.8368 61.6604 96.5782 58.5696 94.7779 56.2064V56.217ZM77.9062 40.0622C69.388 40.0197 61.6239 46.7482 61.6239 46.7482C61.6239 46.7482 50.7797 53.0625 46.2816 60.4336C44.5132 63.3385 43.313 66.2965 42.458 68.973C43.1962 67.1462 44.1096 65.2556 45.2461 63.3916C49.9247 55.7178 61.215 49.1486 61.215 49.1486C61.215 49.1486 67.7523 43.4822 75.5164 42.3776C76.3077 41.4961 77.1043 40.7738 77.9008 40.0622H77.9062ZM84.9161 40.5083C82.1015 40.4499 79.2126 41.7616 76.775 43.461C73.8754 45.4896 72.1654 47.6457 72.1654 47.6457C72.1654 47.6457 75.5005 44.3479 82.4361 43.0521C82.9831 42.1652 83.7744 41.2677 84.9161 40.5083Z" fill="white"/>
</g>
<path d="M71.7766 107.523C66.4289 107.523 61.1979 106.099 57.4168 103.609C48.2136 97.5599 51.2884 87.6344 51.4265 87.2149C52.5204 83.8267 54.8783 82.1804 58.6276 82.1804C61.1236 82.1804 63.9223 82.9027 66.3917 83.5453C68.4363 84.0763 70.364 84.5702 71.7713 84.5702C73.3698 84.5702 75.3613 83.986 77.4696 83.3647C79.9071 82.6478 82.4243 81.9043 84.7822 81.9043C88.3244 81.9043 90.6982 83.6621 92.0418 87.2839C92.5941 88.7709 94.9148 96.5243 86.4338 103.439C83.2528 106.03 77.905 107.517 71.7713 107.517L71.7766 107.523Z" fill="#FFF1E6"/>
<path d="M84.7826 82.1697C87.7193 82.1697 90.3056 83.3699 91.7978 87.3794C92.5413 89.3815 94.3151 96.6782 86.2695 103.237C82.8654 106.014 77.3637 107.257 71.7769 107.257C66.1902 107.257 61.1823 105.77 57.5658 103.391C49.345 97.9846 51.0232 89.3443 51.6817 87.2998C52.8872 83.5611 55.5478 82.4459 58.6332 82.4459C63.1579 82.4459 68.6118 84.8356 71.7769 84.8356C75.2501 84.8356 80.4066 82.1697 84.7826 82.1697ZM84.7826 81.6387C82.3928 81.6387 79.8543 82.3875 77.3955 83.1097C75.3085 83.7257 73.3329 84.3046 71.7716 84.3046C70.3962 84.3046 68.4791 83.8107 66.4557 83.285C63.9704 82.6424 61.1558 81.9148 58.6279 81.9148C54.7459 81.9148 52.3083 83.6248 51.1719 87.1351C51.0338 87.56 47.9006 97.6713 57.2684 103.832C61.092 106.344 66.3761 107.788 71.7716 107.788C77.9638 107.788 83.3699 106.28 86.5988 103.646C95.2232 96.6198 92.8493 88.7071 92.2864 87.1935C90.895 83.4549 88.4415 81.6387 84.7772 81.6387H84.7826Z" fill="#04223D"/>
<g opacity="0.25">
<path d="M86.2654 100.05C82.8613 102.822 77.3596 104.07 71.7781 104.07C66.1967 104.07 61.1888 102.583 57.5723 100.204C53.0318 97.2145 51.513 93.2421 51.1731 89.939C50.812 93.4864 51.4174 99.344 57.5723 103.391C61.1888 105.77 66.3189 107.257 71.7781 107.257C77.2374 107.257 82.8613 106.009 86.2654 103.237C92.2027 98.3987 92.7921 93.1572 92.3885 89.939C92.0168 92.9235 90.5086 96.5878 86.2654 100.05Z" fill="#3A1A04"/>
</g>
<path d="M75.8189 97.2573L74.4222 103.726C74.3691 103.97 74.1567 104.15 73.9018 104.15H69.6214C69.3719 104.15 69.1541 103.975 69.101 103.731L67.8955 98.0858C70.041 98.5159 72.5954 98.9567 75.8136 97.2626L75.8189 97.2573Z" fill="white" stroke="#8D9299" stroke-width="0.531058" stroke-linecap="round" stroke-linejoin="bevel"/>
<path d="M80.1846 73.2747C80.6678 70.7256 85.4155 68.1871 87.6141 69.9078C84.6933 69.4936 81.9742 71.0496 80.1846 73.2747Z" fill="#04223D"/>
<path d="M70.5136 89.4399C70.8481 89.8223 70.7844 90.1994 70.8269 90.5817C71.0712 93.2264 71.8465 95.8498 73.2166 98.1281C73.3919 98.4095 72.9724 98.6963 72.7759 98.4254C71.1508 96.1578 70.4233 93.3751 70.2799 90.6189C70.2746 90.2259 70.1843 89.8276 70.5136 89.4399Z" fill="#686360"/>
<path d="M88.1287 88.1762C86.9657 89.1587 84.0183 88.5267 84.0821 86.7583C84.5494 86.9495 84.6822 87.2628 84.9796 87.4699C85.8717 88.2187 87.0135 88.1284 88.1287 88.1762Z" fill="#686360"/>
<path d="M59.6809 61.0496C56.8185 61.8143 55.0766 63.3969 54.041 64.8785C54.28 64.2466 56.0537 59.3555 61.5608 58.0757C63.2761 57.6774 65.3419 58.697 64.4444 60.1415C63.8125 61.1611 62.3733 60.3273 59.6809 61.0496Z" fill="black"/>
<path d="M62.1551 77.2204C58.9316 77.2204 56.3135 74.3314 56.3135 70.7787C56.3135 67.2259 58.9316 64.3369 62.1551 64.3369C65.3786 64.3369 67.9968 67.2259 67.9968 70.7787C67.9968 74.3314 65.3786 77.2204 62.1551 77.2204Z" fill="white"/>
<path d="M62.155 64.597C65.2352 64.597 67.7311 67.3638 67.7311 70.7732C67.7311 74.1826 65.2352 76.9494 62.155 76.9494C59.0749 76.9494 56.5789 74.1826 56.5789 70.7732C56.5789 67.3638 59.0749 64.597 62.155 64.597ZM62.155 64.0659C58.7881 64.0659 56.0479 67.077 56.0479 70.7732C56.0479 74.4694 58.7881 77.4805 62.155 77.4805C65.5219 77.4805 68.2622 74.4694 68.2622 70.7732C68.2622 67.077 65.5219 64.0659 62.155 64.0659Z" fill="#04223D"/>
<path d="M62.9466 75.2819C64.7562 75.2819 66.2232 73.444 66.2232 71.1769C66.2232 68.9097 64.7562 67.0718 62.9466 67.0718C61.1369 67.0718 59.6699 68.9097 59.6699 71.1769C59.6699 73.444 61.1369 75.2819 62.9466 75.2819Z" fill="black"/>
<path d="M83.5616 64.342C82.5632 64.4376 81.3577 64.5703 80.593 64.6022C79.5893 64.6447 78.6387 64.4004 78.6387 63.3595C78.6387 61.8513 81.8994 62.2655 83.4925 62.3611C86.8329 62.5523 89.2598 65.9086 89.2598 65.9086C89.2598 65.9086 87.5127 63.9702 83.5616 64.3473V64.342Z" fill="black"/>
<path d="M71.7888 104.145C71.5286 103.911 71.518 103.678 71.518 103.439C71.4861 102.754 71.4649 102.005 71.4596 101.325C71.4543 100.385 71.4596 99.4452 71.5233 98.5053C71.5339 98.3566 71.6614 98.2504 71.8101 98.261C71.9428 98.2716 72.0437 98.3778 72.0544 98.5053C72.1446 99.9126 72.134 101.325 72.0862 102.732L72.0597 103.439C72.0597 103.672 72.049 103.906 71.7888 104.145Z" fill="#8D9299"/>
<path d="M68.5328 88.9511L65.8297 87.3632C62.1442 85.1965 64.1622 80.7144 68.8196 80.7144H74.2258C78.8831 80.7144 80.9012 85.1965 77.2156 87.3632L74.5125 88.9511C72.7494 89.9866 70.2906 89.9866 68.5275 88.9511H68.5328Z" fill="black"/>
<path d="M85.4157 88.3246C80.8911 95.2815 72.8721 102.483 64.5239 96.7366C63.5361 96.0409 62.6333 95.1912 62.0332 94.1397C63.8282 95.6533 65.6816 97.1296 67.9545 97.7881C75.2194 99.8752 81.1725 93.4016 84.9802 88.0166C85.1661 87.7405 85.6175 88.0273 85.4157 88.3193V88.3246Z" fill="#686360"/>
<path d="M64.6612 68.7712C65.1305 68.7712 65.5109 68.3907 65.5109 67.9215C65.5109 67.4522 65.1305 67.0718 64.6612 67.0718C64.1919 67.0718 63.8115 67.4522 63.8115 67.9215C63.8115 68.3907 64.1919 68.7712 64.6612 68.7712Z" fill="white"/>
<path opacity="0.3" d="M76.1481 83.7313C74.2947 81.9257 68.793 81.9097 66.7803 83.7313C66.7803 83.7313 68.0336 83.4126 71.3952 83.3755C74.8577 83.3383 76.1481 83.7313 76.1481 83.7313Z" fill="white"/>
<path opacity="0.25" d="M75.5587 98.4415L75.8136 97.252C72.5954 98.9513 70.041 98.5052 67.8955 98.0751L68.1292 99.185C70.1684 99.5833 72.5741 99.9232 75.5534 98.4415H75.5587Z" fill="#8D9299"/>
<path d="M61.2098 138.133C61.2098 138.133 48.8043 142.477 40.8809 142.764" stroke="#04223D" stroke-width="0.531058" stroke-linejoin="round"/>
<path opacity="0.25" d="M56.3401 133.035C53.1059 133.22 49.8134 132.541 48.4486 131.983C47.3174 131.521 46.2287 130.39 45.9473 129.684C51.619 131.946 57.3703 131.585 57.843 131.532H57.8483L58.5121 132.312C58.5121 132.312 59.5795 132.854 56.3401 133.04V133.035Z" fill="white"/>
<path d="M57.9279 131.787C53.876 132.344 49.4629 131.877 45.9473 129.678L46.0269 129.524C49.7496 131.064 53.8282 131.765 57.8377 131.266L57.9279 131.792V131.787Z" fill="#04223D"/>
<path d="M49.0062 121.006C47.5723 123.698 46.7226 126.704 46.473 129.736L45.9473 129.683C46.3774 126.624 47.4077 123.645 49.0062 121.006Z" fill="#04223D"/>
<g opacity="0.25">
<path d="M60.1 138.282C44.9277 143.093 36.5104 144.883 34.6836 138.414C37.9602 141.479 43.6585 140.666 49.6648 139.609C53.7167 138.898 59.9142 136.423 59.9142 136.423L60.1054 138.282H60.1Z" fill="#04223D"/>
</g>
<path d="M62.2415 139.216C61.275 139.179 60.3297 138.706 59.6552 137.92C59.5862 137.846 59.5172 137.761 59.4534 137.671C59.0445 137.118 58.301 135.966 57.9665 134.484C57.7275 133.47 57.7487 132.206 57.7912 131.787C57.8125 131.569 57.8762 131.367 57.9346 131.165L58.1205 130.517C58.6037 128.876 59.2623 126.63 58.8852 125.43C58.8215 125.228 58.779 125.026 58.7578 124.83C58.6675 124.134 58.8958 123.704 59.0976 123.476C59.3685 123.168 59.7668 122.998 60.2235 122.998C60.4253 122.998 60.6271 123.029 60.8236 123.098C61.8379 123.449 63.0965 125.35 62.7248 127.873C62.7035 128.037 62.6717 128.207 62.6292 128.398L63.4789 128.653C63.5267 128.664 65.003 129.036 64.9871 131.314C64.9818 131.935 65.0349 132.588 65.0986 133.279C65.1729 134.129 65.2526 135.01 65.1995 135.833C65.1411 136.784 64.9127 137.543 64.4985 138.143C64.0205 138.844 63.293 139.211 62.3955 139.211C62.3424 139.211 62.2946 139.211 62.2415 139.211V139.216Z" fill="#334058"/>
<path d="M60.2228 123.268C60.3981 123.268 60.5733 123.3 60.7432 123.353C61.6832 123.677 62.8091 125.509 62.4692 127.835C62.4373 128.08 62.3842 128.324 62.3152 128.579L63.4092 128.908C63.4092 128.908 64.7421 129.221 64.7262 131.314C64.7103 132.732 65.0289 134.373 64.9386 135.823C64.8908 136.63 64.7156 137.373 64.2854 138C63.7809 138.738 63.064 138.956 62.4001 138.956C62.3524 138.956 62.3046 138.956 62.2568 138.956C61.3221 138.919 60.4671 138.457 59.8617 137.75C59.7927 137.676 59.7289 137.596 59.6705 137.517C59.2032 136.885 58.534 135.769 58.226 134.431C58.0083 133.496 58.0083 132.28 58.0561 131.824C58.0826 131.585 58.1623 131.346 58.226 131.117C58.7093 129.434 59.5802 126.773 59.1395 125.361C59.0757 125.164 59.0385 124.978 59.0226 124.814C58.8845 123.752 59.5271 123.274 60.2228 123.274M60.2228 122.737C59.6917 122.737 59.2191 122.939 58.8952 123.305C58.6562 123.582 58.3907 124.076 58.4916 124.877C58.5128 125.074 58.5553 125.297 58.6296 125.52C58.9801 126.635 58.3057 128.929 57.8596 130.448C57.8065 130.629 57.7587 130.804 57.7109 130.963L57.6737 131.096C57.6153 131.293 57.5516 131.521 57.525 131.755C57.4666 132.318 57.4825 133.587 57.7056 134.543C58.0561 136.067 58.8155 137.251 59.2404 137.825C59.3147 137.931 59.3944 138.021 59.4687 138.106C60.175 138.935 61.1893 139.439 62.2302 139.482C62.2833 139.482 62.3364 139.482 62.3948 139.482C63.3826 139.482 64.1898 139.073 64.7209 138.297C65.1617 137.655 65.4059 136.853 65.4644 135.849C65.5175 135.005 65.4378 134.118 65.3635 133.252C65.305 132.567 65.2466 131.919 65.2519 131.314C65.2679 128.961 63.7809 128.457 63.5525 128.393L62.9418 128.207C62.9631 128.101 62.979 128 62.9896 127.899C63.3507 125.435 62.2037 123.295 60.9079 122.849C60.6795 122.774 60.4512 122.732 60.2175 122.732L60.2228 122.737Z" fill="#04223D"/>
<path d="M64.7411 131.394C63.6312 133.624 60.6785 135.35 58.2197 134.426C59.4624 134.166 60.6148 134.086 61.73 133.491C62.8452 132.965 63.7799 132.19 64.7411 131.394Z" fill="#04223D"/>
<path d="M64.8958 135.137C63.839 137.054 60.9235 138.095 59.1338 136.582C61.2368 137.219 63.1539 136.274 64.8958 135.137Z" fill="#04223D"/>
<path d="M62.3094 128.579C60.7056 129.519 59.2718 130.421 58.0557 131.818C58.5442 129.981 60.4401 128.632 62.3094 128.579Z" fill="#04223D"/>
<path opacity="0.3" d="M62.464 127.835C62.464 127.835 62.4693 126.821 62.0551 125.786C61.4497 124.267 60.1804 123.104 59.3201 124.086C59.0918 124.346 59.028 124.739 59.0174 124.808C58.8475 123.481 59.8884 123.067 60.7381 123.353C61.678 123.677 62.8039 125.509 62.464 127.835Z" fill="white"/>
<g opacity="0.25">
<path d="M64.9334 135.823C64.8856 136.63 64.7103 137.374 64.2802 138C63.7385 138.792 62.9525 138.983 62.2515 138.951C61.3169 138.914 60.4619 138.452 59.8564 137.745C59.9042 137.761 61.4762 138.632 62.9419 138.133C64.62 137.565 64.8909 135.796 64.8909 135.796L64.9334 135.823Z" fill="#04223D"/>
</g>
<path opacity="0.25" d="M87.5612 133.035C90.7953 133.22 94.0879 132.541 95.4527 131.983C96.5838 131.521 97.6725 130.39 97.954 129.684C92.2823 131.946 86.5309 131.585 86.0583 131.532H86.053L85.3891 132.312C85.3891 132.312 84.3217 132.854 87.5612 133.04V133.035Z" fill="white"/>
<g opacity="0.25">
<path d="M83.8012 138.286C98.9735 143.098 107.391 144.887 109.218 138.419C105.941 141.483 100.243 140.671 94.2365 139.614C90.1845 138.902 83.9871 136.428 83.9871 136.428L83.7959 138.286H83.8012Z" fill="#04223D"/>
</g>
<path d="M81.517 139.222C80.6142 139.222 79.8813 138.85 79.4034 138.154C78.49 136.821 78.6493 135.021 78.8033 133.279C78.867 132.589 78.9254 131.935 78.9148 131.319C78.8936 129.041 80.3699 128.664 80.4336 128.648L81.2727 128.399C80.6567 125.743 81.8941 123.507 83.073 123.109C83.2695 123.04 83.4713 123.008 83.6784 123.008C84.1776 123.008 84.6131 123.215 84.8786 123.577C85.107 123.89 85.3194 124.469 85.0167 125.435C84.6396 126.63 85.2981 128.871 85.7761 130.507L85.9673 131.16C86.0257 131.362 86.0894 131.569 86.1107 131.787C86.1531 132.206 86.1744 133.46 85.9407 134.479C85.6008 135.95 84.8627 137.103 84.4538 137.66C83.7634 138.6 82.7437 139.163 81.6657 139.211C81.6179 139.211 81.5701 139.211 81.517 139.211V139.222Z" fill="#334058"/>
<path d="M83.6787 123.268C84.4859 123.268 85.2187 123.911 84.7673 125.355C84.3265 126.768 85.1975 129.434 85.6754 131.112C85.7392 131.346 85.8188 131.579 85.8454 131.818C85.8932 132.275 85.8932 133.491 85.6807 134.426C85.3727 135.764 84.6983 136.879 84.2363 137.511C83.6202 138.345 82.6856 138.908 81.65 138.951C81.6075 138.951 81.5597 138.951 81.5119 138.951C80.8481 138.951 80.1259 138.738 79.6161 138C78.4106 136.247 79.2018 133.518 79.1753 131.314C79.154 129.222 80.4923 128.903 80.4923 128.903L81.5863 128.574C80.8534 125.908 82.1173 123.704 83.1529 123.353C83.3228 123.295 83.4981 123.268 83.6733 123.268M83.6787 122.737C83.445 122.737 83.2113 122.774 82.9883 122.854C81.7509 123.274 80.4445 125.525 80.9596 128.213L80.3436 128.398C80.1206 128.462 78.623 128.972 78.6442 131.325C78.6495 131.93 78.5911 132.573 78.5327 133.258C78.3734 135.047 78.2088 136.901 79.1753 138.308C79.7063 139.083 80.5135 139.492 81.5066 139.492C81.5597 139.492 81.6128 139.492 81.6659 139.492C82.829 139.444 83.9229 138.839 84.6611 137.835C85.0806 137.262 85.8454 136.072 86.1959 134.553C86.4189 133.597 86.4348 132.328 86.3764 131.771C86.3499 131.526 86.2808 131.298 86.2224 131.091L86.1906 130.974C86.1428 130.804 86.0897 130.629 86.0366 130.443C85.5958 128.929 84.9266 126.641 85.2771 125.52C85.6117 124.447 85.3621 123.789 85.0966 123.422C84.7779 122.992 84.2628 122.743 83.6787 122.743V122.737Z" fill="#04223D"/>
<path d="M79.1592 131.388C80.1151 132.185 81.0497 132.96 82.1703 133.486C83.2908 134.081 84.4379 134.16 85.6806 134.421C83.2218 135.339 80.2691 133.613 79.1592 131.388Z" fill="#04223D"/>
<path d="M79.0107 135.138C80.7526 136.269 82.6644 137.219 84.7727 136.582C82.9831 138.096 80.0675 137.055 79.0107 135.138Z" fill="#04223D"/>
<path d="M81.5918 128.579C83.4664 128.632 85.357 129.981 85.8456 131.819C84.6295 130.422 83.1956 129.519 81.5918 128.579Z" fill="#04223D"/>
<path opacity="0.3" d="M81.438 127.835C81.438 127.835 81.4326 126.821 81.8469 125.786C82.4523 124.267 83.7215 123.104 84.5818 124.086C84.8102 124.346 84.8739 124.739 84.8845 124.808C85.0545 123.481 84.0136 123.067 83.1639 123.353C82.2239 123.677 81.0981 125.509 81.438 127.835Z" fill="white"/>
<g opacity="0.25">
<path d="M78.9688 135.822C79.0165 136.63 79.1918 137.373 79.622 138C80.1636 138.791 80.9496 138.982 81.6506 138.95C82.5853 138.913 83.4403 138.451 84.0457 137.745C83.9979 137.761 82.4259 138.632 80.9602 138.133C79.2821 137.564 79.0112 135.796 79.0112 135.796L78.9688 135.822Z" fill="#04223D"/>
</g>
</g>
<defs>
<clipPath id="clip0_1_2">
<rect width="48" height="12" fill="white" transform="translate(71 14)"/>
</clipPath>
<clipPath id="clip1_1_2">
<rect width="104.629" height="147.22" fill="white" transform="translate(33 39)"/>
</clipPath>
</defs>
</svg>
