<svg width="1240" height="400" viewBox="0 0 1240 400" fill="none" xmlns="http://www.w3.org/2000/svg">
<path d="M0 0H1240V344H0V0Z" fill="#1570EF"/>
<g clip-path="url(#clip0_16_24)">
<path d="M275 352.49L268.81 353.64L264.68 356.64L267.2 363.52L260.9 368.57L255.62 368.45L252 374.16L245.35 376.34L243.63 381.5L243.08 389.64L234.69 398.24L228.19 396.96L221.89 398.56L217.89 393.56L212.48 394.96L206.41 397.96L193.68 396.75L184.51 397.09L179.58 389.41L174.65 389.53L169.49 387.53L165.71 390.39L160.09 389.48L159.09 392.34L155.62 394.46L153.1 398.13L145.41 396.96L134.29 397.65L120.08 396.29L108.84 397.96L95.54 397.04L84.42 398.96L71.12 397.78L68.48 399.96L61.38 398.24L55.87 395.24C54.8501 395.001 53.7885 395.003 52.7696 395.246C51.7506 395.489 50.8023 395.966 50 396.64C46.9 398.93 42.54 396.64 42.54 396.64L41.63 391.64L35.32 388.09L31.19 378.34L26.38 379.83L22.02 377.77L14.22 381.67L9.75 379.37L3.71 380.96L0 378.41L3.55 377.41L8.1 374.55L12.57 376.84L20.68 372.84L25 374.96L32.53 374.81L36.53 383.27L43.05 386.12L43.97 391.12C43.97 391.12 48 394.29 51.06 391.96C52.3294 391.183 53.7586 390.704 55.24 390.56L59.31 392.77L67.07 395.13L69.71 392.96L83.08 394.61L94.2 392.78L107.5 393.69L118.74 391.96L133 393.35L144.12 392.66L151.22 393.2L153.55 388.96L157.22 387.43L158.22 384.57L163.84 385.48L167.63 382.62L172.79 384.57L180.79 384.8L185.72 392.48L191.63 391.25L204.01 393.25L210.09 390.15L217 388.78L221 393.78L226.1 391.46L231.46 393.96L239.86 385.36L240.4 377.22L242.12 372.06L248 369.75L251.55 364.02L256.82 364.13L261.82 360.13L260.69 353.96L266.14 349.43L272.33 348.28L275.94 343.87L282.5 344.96L278 347.34L275 352.49Z" fill="#63A2F9"/>
<path d="M272.33 348.25L266.14 349.4L260.69 353.96L261.82 360.19L256.82 364.19L251.55 364.08L248 369.75L242.09 372.04L240.37 377.2L239.83 385.34L231.46 393.96L226.13 391.53L221 393.83L217 388.78L210.07 390.21L204 393.31L191.62 391.31L185.71 392.54L180.78 384.86L172.78 384.63L167.62 382.68L163.83 385.54L158.21 384.63L157.21 387.49L153.55 388.96L151.18 393.17L144.08 392.63L133 393.35L118.74 391.96L107.5 393.69L94.2 392.78L83.08 394.61L69.71 392.96L67.07 395.14L59.31 392.78L55.24 390.57C53.7595 390.711 52.3302 391.186 51.06 391.96C47.98 394.28 44.06 391.12 44.06 391.12L43.14 386.12L36.62 383.27L32.62 374.81L25 374.96L20.68 372.86L12.57 376.86L8.1 374.55L3.55 377.37L0 378.41V334.04H282.5V344.96L275.94 343.83L272.33 348.25Z" fill="#1570EF"/>
</g>
<g clip-path="url(#clip1_16_24)">
<path d="M258 352.49L264.19 353.64L268.32 356.64L265.8 363.52L272.1 368.57L277.38 368.45L281 374.16L287.65 376.34L289.37 381.5L289.92 389.64L298.31 398.24L304.81 396.96L311.11 398.56L315.11 393.56L320.52 394.96L326.59 397.96L339.32 396.75L348.49 397.09L353.42 389.41L358.35 389.53L363.51 387.53L367.29 390.39L372.91 389.48L373.91 392.34L377.38 394.46L379.9 398.13L387.59 396.96L398.71 397.65L412.92 396.29L424.16 397.96L437.46 397.04L448.58 398.96L461.88 397.78L464.52 399.96L471.62 398.24L477.13 395.24C478.15 395.001 479.211 395.003 480.23 395.246C481.249 395.489 482.198 395.966 483 396.64C486.1 398.93 490.46 396.64 490.46 396.64L491.37 391.64L497.68 388.09L501.81 378.34L506.62 379.83L510.98 377.77L518.78 381.67L523.25 379.37L529.29 380.96L533 378.41L529.45 377.41L524.9 374.55L520.43 376.84L512.32 372.84L508 374.96L500.47 374.81L496.47 383.27L489.95 386.12L489.03 391.12C489.03 391.12 485 394.29 481.94 391.96C480.671 391.183 479.241 390.704 477.76 390.56L473.69 392.77L465.93 395.13L463.29 392.96L449.92 394.61L438.8 392.78L425.5 393.69L414.26 391.96L400 393.35L388.88 392.66L381.78 393.2L379.45 388.96L375.78 387.43L374.78 384.57L369.16 385.48L365.37 382.62L360.21 384.57L352.21 384.8L347.28 392.48L341.37 391.25L328.99 393.25L322.91 390.15L316 388.78L312 393.78L306.9 391.46L301.54 393.96L293.14 385.36L292.6 377.22L290.88 372.06L285 369.75L281.45 364.02L276.18 364.13L271.18 360.13L272.31 353.96L266.86 349.43L260.67 348.28L257.06 343.87L250.5 344.96L255 347.34L258 352.49Z" fill="#63A2F9"/>
<path d="M260.67 348.25L266.86 349.4L272.31 353.96L271.18 360.19L276.18 364.19L281.45 364.08L285 369.75L290.91 372.04L292.63 377.2L293.17 385.34L301.54 393.96L306.87 391.53L312 393.83L316 388.78L322.93 390.21L329 393.31L341.38 391.31L347.29 392.54L352.22 384.86L360.22 384.63L365.38 382.68L369.17 385.54L374.79 384.63L375.79 387.49L379.45 388.96L381.82 393.17L388.92 392.63L400 393.35L414.26 391.96L425.5 393.69L438.8 392.78L449.92 394.61L463.29 392.96L465.93 395.14L473.69 392.78L477.76 390.57C479.241 390.711 480.67 391.186 481.94 391.96C485.02 394.28 488.94 391.12 488.94 391.12L489.86 386.12L496.38 383.27L500.38 374.81L508 374.96L512.32 372.86L520.43 376.86L524.9 374.55L529.45 377.37L533 378.41V334.04H250.5V344.96L257.06 343.83L260.67 348.25Z" fill="#1570EF"/>
</g>
<g clip-path="url(#clip2_16_24)">
<path d="M776 352.49L769.81 353.64L765.68 356.64L768.2 363.52L761.9 368.57L756.62 368.45L753 374.16L746.35 376.34L744.63 381.5L744.08 389.64L735.69 398.24L729.19 396.96L722.89 398.56L718.89 393.56L713.48 394.96L707.41 397.96L694.68 396.75L685.51 397.09L680.58 389.41L675.65 389.53L670.49 387.53L666.71 390.39L661.09 389.48L660.09 392.34L656.62 394.46L654.1 398.13L646.41 396.96L635.29 397.65L621.08 396.29L609.84 397.96L596.54 397.04L585.42 398.96L572.12 397.78L569.48 399.96L562.38 398.24L556.87 395.24C555.85 395.001 554.789 395.003 553.77 395.246C552.751 395.489 551.802 395.966 551 396.64C547.9 398.93 543.54 396.64 543.54 396.64L542.63 391.64L536.32 388.09L532.19 378.34L527.38 379.83L523.02 377.77L515.22 381.67L510.75 379.37L504.71 380.96L501 378.41L504.55 377.41L509.1 374.55L513.57 376.84L521.68 372.84L526 374.96L533.53 374.81L537.53 383.27L544.05 386.12L544.97 391.12C544.97 391.12 549 394.29 552.06 391.96C553.329 391.183 554.759 390.704 556.24 390.56L560.31 392.77L568.07 395.13L570.71 392.96L584.08 394.61L595.2 392.78L608.5 393.69L619.74 391.96L634 393.35L645.12 392.66L652.22 393.2L654.55 388.96L658.22 387.43L659.22 384.57L664.84 385.48L668.63 382.62L673.79 384.57L681.79 384.8L686.72 392.48L692.63 391.25L705.01 393.25L711.09 390.15L718 388.78L722 393.78L727.1 391.46L732.46 393.96L740.86 385.36L741.4 377.22L743.12 372.06L749 369.75L752.55 364.02L757.82 364.13L762.82 360.13L761.69 353.96L767.14 349.43L773.33 348.28L776.94 343.87L783.5 344.96L779 347.34L776 352.49Z" fill="#63A2F9"/>
<path d="M773.33 348.25L767.14 349.4L761.69 353.96L762.82 360.19L757.82 364.19L752.55 364.08L749 369.75L743.09 372.04L741.37 377.2L740.83 385.34L732.46 393.96L727.13 391.53L722 393.83L718 388.78L711.07 390.21L705 393.31L692.62 391.31L686.71 392.54L681.78 384.86L673.78 384.63L668.62 382.68L664.83 385.54L659.21 384.63L658.21 387.49L654.55 388.96L652.18 393.17L645.08 392.63L634 393.35L619.74 391.96L608.5 393.69L595.2 392.78L584.08 394.61L570.71 392.96L568.07 395.14L560.31 392.78L556.24 390.57C554.759 390.711 553.33 391.186 552.06 391.96C548.98 394.28 545.06 391.12 545.06 391.12L544.14 386.12L537.62 383.27L533.62 374.81L526 374.96L521.68 372.86L513.57 376.86L509.1 374.55L504.55 377.37L501 378.41V334.04H783.5V344.96L776.94 343.83L773.33 348.25Z" fill="#1570EF"/>
</g>
<g clip-path="url(#clip3_16_24)">
<path d="M759 352.49L765.19 353.64L769.32 356.64L766.8 363.52L773.1 368.57L778.38 368.45L782 374.16L788.65 376.34L790.37 381.5L790.92 389.64L799.31 398.24L805.81 396.96L812.11 398.56L816.11 393.56L821.52 394.96L827.59 397.96L840.32 396.75L849.49 397.09L854.42 389.41L859.35 389.53L864.51 387.53L868.29 390.39L873.91 389.48L874.91 392.34L878.38 394.46L880.9 398.13L888.59 396.96L899.71 397.65L913.92 396.29L925.16 397.96L938.46 397.04L949.58 398.96L962.88 397.78L965.52 399.96L972.62 398.24L978.13 395.24C979.15 395.001 980.211 395.003 981.23 395.246C982.249 395.489 983.198 395.966 984 396.64C987.1 398.93 991.46 396.64 991.46 396.64L992.37 391.64L998.68 388.09L1002.81 378.34L1007.62 379.83L1011.98 377.77L1019.78 381.67L1024.25 379.37L1030.29 380.96L1034 378.41L1030.45 377.41L1025.9 374.55L1021.43 376.84L1013.32 372.84L1009 374.96L1001.47 374.81L997.47 383.27L990.95 386.12L990.03 391.12C990.03 391.12 986 394.29 982.94 391.96C981.671 391.183 980.241 390.704 978.76 390.56L974.69 392.77L966.93 395.13L964.29 392.96L950.92 394.61L939.8 392.78L926.5 393.69L915.26 391.96L901 393.35L889.88 392.66L882.78 393.2L880.45 388.96L876.78 387.43L875.78 384.57L870.16 385.48L866.37 382.62L861.21 384.57L853.21 384.8L848.28 392.48L842.37 391.25L829.99 393.25L823.91 390.15L817 388.78L813 393.78L807.9 391.46L802.54 393.96L794.14 385.36L793.6 377.22L791.88 372.06L786 369.75L782.45 364.02L777.18 364.13L772.18 360.13L773.31 353.96L767.86 349.43L761.67 348.28L758.06 343.87L751.5 344.96L756 347.34L759 352.49Z" fill="#63A2F9"/>
<path d="M761.67 348.25L767.86 349.4L773.31 353.96L772.18 360.19L777.18 364.19L782.45 364.08L786 369.75L791.91 372.04L793.63 377.2L794.17 385.34L802.54 393.96L807.87 391.53L813 393.83L817 388.78L823.93 390.21L830 393.31L842.38 391.31L848.29 392.54L853.22 384.86L861.22 384.63L866.38 382.68L870.17 385.54L875.79 384.63L876.79 387.49L880.45 388.96L882.82 393.17L889.92 392.63L901 393.35L915.26 391.96L926.5 393.69L939.8 392.78L950.92 394.61L964.29 392.96L966.93 395.14L974.69 392.78L978.76 390.57C980.241 390.711 981.67 391.186 982.94 391.96C986.02 394.28 989.94 391.12 989.94 391.12L990.86 386.12L997.38 383.27L1001.38 374.81L1009 374.96L1013.32 372.86L1021.43 376.86L1025.9 374.55L1030.45 377.37L1034 378.41V334.04H751.5V344.96L758.06 343.83L761.67 348.25Z" fill="#1570EF"/>
</g>
<g clip-path="url(#clip4_16_24)">
<path d="M1233.68 352.472L1228.47 353.624L1224.99 356.627L1227.11 363.516L1221.8 368.572L1217.35 368.452L1214.3 374.169L1208.7 376.351L1207.25 381.518L1206.79 389.667L1199.72 398.278L1194.25 396.996L1188.94 398.598L1185.57 393.592L1181.01 394.994L1175.9 397.998L1165.17 396.786L1157.45 397.127L1153.29 389.437L1149.14 389.557L1144.79 387.555L1141.61 390.418L1136.87 389.507L1136.03 392.371L1133.11 394.493L1130.98 398.168L1124.5 396.996L1115.14 397.687L1103.16 396.326L1093.7 397.998L1082.49 397.076L1073.12 398.999L1061.92 397.817L1059.69 400L1053.71 398.278L1049.07 395.274C1048.21 395.035 1047.32 395.037 1046.46 395.281C1045.6 395.524 1044.8 396.002 1044.12 396.676C1041.51 398.969 1037.84 396.676 1037.84 396.676L1037.07 391.67L1031.76 388.116L1028.28 378.354L1024.22 379.846L1020.55 377.783L1013.98 381.688L1010.21 379.385L1005.13 380.977L1002 378.424L1004.99 377.423L1008.82 374.559L1012.59 376.852L1019.42 372.847L1023.06 374.97L1029.41 374.819L1032.78 383.29L1038.27 386.143L1039.04 391.149C1039.04 391.149 1042.44 394.323 1045.02 391.99C1046.09 391.212 1047.29 390.733 1048.54 390.589L1051.97 392.801L1058.5 395.164L1060.73 392.992L1071.99 394.644L1081.36 392.811L1092.57 393.722L1102.04 391.99L1114.05 393.382L1123.42 392.691L1129.4 393.232L1131.36 388.987L1134.45 387.455L1135.3 384.591L1140.03 385.502L1143.22 382.639L1147.57 384.591L1154.31 384.822L1158.46 392.511L1163.44 391.279L1173.87 393.282L1179 390.178L1184.82 388.806L1188.19 393.812L1192.48 391.49L1197 393.993L1204.08 385.382L1204.53 377.232L1205.98 372.066L1210.93 369.753L1213.93 364.016L1218.37 364.127L1222.58 360.122L1221.63 353.944L1226.22 349.409L1231.43 348.257L1234.47 343.842L1240 344.933L1236.21 347.316L1233.68 352.472Z" fill="#63A2F9"/>
<path d="M1231.43 348.227L1226.22 349.379L1221.63 353.944L1222.58 360.182L1218.37 364.187L1213.93 364.076L1210.93 369.753L1205.96 372.046L1204.51 377.212L1204.05 385.362L1197 393.993L1192.51 391.56L1188.19 393.862L1184.82 388.806L1178.98 390.238L1173.87 393.342L1163.44 391.339L1158.46 392.571L1154.3 384.882L1147.56 384.651L1143.22 382.699L1140.02 385.562L1135.29 384.651L1134.45 387.515L1131.36 388.987L1129.37 393.202L1123.38 392.661L1114.05 393.382L1102.04 391.99L1092.57 393.722L1081.36 392.811L1071.99 394.643L1060.73 392.991L1058.5 395.174L1051.97 392.811L1048.54 390.599C1047.29 390.74 1046.09 391.216 1045.02 391.99C1042.42 394.313 1039.12 391.149 1039.12 391.149L1038.34 386.143L1032.85 383.29L1029.48 374.819L1023.06 374.97L1019.42 372.867L1012.59 376.872L1008.82 374.559L1004.99 377.383L1002 378.424V334H1240V344.933L1234.47 343.802L1231.43 348.227Z" fill="#1570EF"/>
</g>
<defs>
<clipPath id="clip0_16_24">
<rect width="282.5" height="65.92" fill="white" transform="matrix(1 0 0 -1 0 399.96)"/>
</clipPath>
<clipPath id="clip1_16_24">
<rect width="282.5" height="65.92" fill="white" transform="matrix(-1 0 0 -1 533 399.96)"/>
</clipPath>
<clipPath id="clip2_16_24">
<rect width="282.5" height="65.92" fill="white" transform="matrix(1 0 0 -1 501 399.96)"/>
</clipPath>
<clipPath id="clip3_16_24">
<rect width="282.5" height="65.92" fill="white" transform="matrix(-1 0 0 -1 1034 399.96)"/>
</clipPath>
<clipPath id="clip4_16_24">
<rect width="238" height="66" fill="white" transform="matrix(1 0 0 -1 1002 400)"/>
</clipPath>
</defs>
</svg>
