<svg width="1692" height="1046" viewBox="0 0 1692 1046" fill="none" xmlns="http://www.w3.org/2000/svg">
<rect width="1691.65" height="968" fill="#1877F2"/>
<g clip-path="url(#clip0_5_693)">
<path d="M323.058 989.674L315.786 991.025L310.935 994.55L313.895 1002.63L306.494 1008.56L300.291 1008.42L296.039 1015.13L288.227 1017.69L286.206 1023.75L285.56 1033.32L275.704 1043.42L268.068 1041.92L260.667 1043.8L255.968 1037.92L249.612 1039.57L242.482 1043.09L227.527 1041.67L216.754 1042.07L210.963 1033.05L205.171 1033.19L199.11 1030.84L194.669 1034.2L188.067 1033.13L186.892 1036.49L182.816 1038.98L179.855 1043.29L170.821 1041.92L157.758 1042.73L141.065 1041.13L127.861 1043.09L112.236 1042.01L99.173 1044.27L83.5487 1042.88L80.4474 1045.44L72.1066 1043.42L65.6337 1039.9C64.4355 1039.61 63.1884 1039.62 61.9914 1039.9C60.7944 1040.19 59.6804 1040.75 58.7379 1041.54C55.0961 1044.23 49.9742 1041.54 49.9742 1041.54L48.9051 1035.67L41.4924 1031.5L36.6407 1020.04L30.9901 1021.79L25.8682 1019.37L16.705 1023.95L11.4539 1021.25L4.35835 1023.12L0 1020.12L4.17039 1018.95L9.51553 1015.59L14.7667 1018.28L24.294 1013.58L29.3689 1016.07L38.2149 1015.89L42.9139 1025.83L50.5733 1029.18L51.6541 1035.06C51.6541 1035.06 56.3883 1038.78 59.9831 1036.04C61.4743 1035.13 63.1534 1034.57 64.8936 1034.4L69.6749 1036.99L78.791 1039.77L81.8923 1037.22L97.5988 1039.16L110.662 1037.01L126.286 1038.07L139.491 1036.04L156.243 1037.67L169.306 1036.86L177.647 1037.5L180.384 1032.52L184.695 1030.72L185.87 1027.36L192.472 1028.43L196.925 1025.07L202.986 1027.36L212.384 1027.63L218.176 1036.65L225.119 1035.21L239.662 1037.56L246.805 1033.92L254.922 1032.31L259.621 1038.18L265.613 1035.45L271.909 1038.39L281.777 1028.29L282.412 1018.73L284.432 1012.66L291.34 1009.95L295.51 1003.22L301.701 1003.35L307.575 998.649L306.247 991.401L312.65 986.08L319.922 984.729L324.163 979.548L331.869 980.828L326.583 983.624L323.058 989.674Z" fill="#63A2F9"/>
<path d="M319.922 984.693L312.65 986.044L306.247 991.401L307.575 998.72L301.701 1003.42L295.51 1003.29L291.34 1009.95L284.397 1012.64L282.376 1018.7L281.742 1028.27L271.909 1038.39L265.648 1035.54L259.621 1038.24L254.922 1032.31L246.781 1033.99L239.65 1037.63L225.107 1035.28L218.164 1036.72L212.373 1027.7L202.975 1027.43L196.913 1025.14L192.46 1028.5L185.858 1027.43L184.684 1030.79L180.384 1032.52L177.6 1037.46L169.259 1036.83L156.243 1037.68L139.491 1036.04L126.286 1038.07L110.662 1037.01L97.5988 1039.16L81.8923 1037.22L78.791 1039.78L69.6749 1037.01L64.8936 1034.41C63.1543 1034.58 61.4753 1035.13 59.9831 1036.04C56.3649 1038.77 51.7598 1035.06 51.7598 1035.06L50.679 1029.18L43.0196 1025.83L38.3206 1015.9L29.3689 1016.07L24.294 1013.6L14.7667 1018.3L9.51553 1015.59L4.17039 1018.9L0 1020.12V968H331.869V980.829L324.163 979.501L319.922 984.693Z" fill="#1877F2"/>
</g>
<g clip-path="url(#clip1_5_693)">
<path d="M617.335 989.674L610.063 991.025L605.211 994.55L608.172 1002.63L600.771 1008.56L594.568 1008.42L590.315 1015.13L582.503 1017.69L580.483 1023.75L579.837 1033.32L569.98 1043.42L562.344 1041.92L554.943 1043.8L550.244 1037.92L543.889 1039.57L536.758 1043.09L521.804 1041.67L511.031 1042.07L505.24 1033.05L499.448 1033.19L493.386 1030.84L488.946 1034.2L482.343 1033.13L481.169 1036.49L477.092 1038.98L474.132 1043.29L465.098 1041.92L452.035 1042.73L435.341 1041.13L422.137 1043.09L406.513 1042.01L393.45 1044.27L377.825 1042.88L374.724 1045.44L366.383 1043.42L359.91 1039.9C358.712 1039.61 357.465 1039.62 356.268 1039.9C355.071 1040.19 353.957 1040.75 353.014 1041.54C349.373 1044.23 344.251 1041.54 344.251 1041.54L343.182 1035.67L335.769 1031.5L330.917 1020.04L325.267 1021.79L320.145 1019.37L310.982 1023.95L305.73 1021.25L298.635 1023.12L294.277 1020.12L298.447 1018.95L303.792 1015.59L309.043 1018.28L318.571 1013.58L323.646 1016.07L332.491 1015.89L337.19 1025.83L344.85 1029.18L345.931 1035.06C345.931 1035.06 350.665 1038.78 354.26 1036.04C355.751 1035.13 357.43 1034.57 359.17 1034.4L363.951 1036.99L373.068 1039.77L376.169 1037.22L391.875 1039.16L404.939 1037.01L420.563 1038.07L433.767 1036.04L450.519 1037.67L463.583 1036.86L471.923 1037.5L474.661 1032.52L478.972 1030.72L480.147 1027.36L486.749 1028.43L491.201 1025.07L497.263 1027.36L506.661 1027.63L512.453 1036.65L519.395 1035.21L533.939 1037.56L541.081 1033.92L549.199 1032.31L553.898 1038.18L559.889 1035.45L566.186 1038.39L576.054 1028.29L576.688 1018.73L578.709 1012.66L585.616 1009.95L589.787 1003.22L595.978 1003.35L601.852 998.649L600.524 991.401L606.927 986.08L614.198 984.729L618.439 979.548L626.146 980.828L620.859 983.624L617.335 989.674Z" fill="#63A2F9"/>
<path d="M614.198 984.693L606.927 986.044L600.524 991.401L601.852 998.72L595.978 1003.42L589.787 1003.29L585.616 1009.95L578.674 1012.64L576.653 1018.7L576.019 1028.27L566.186 1038.39L559.924 1035.54L553.898 1038.24L549.199 1032.31L541.058 1033.99L533.927 1037.63L519.384 1035.28L512.441 1036.72L506.649 1027.7L497.251 1027.43L491.189 1025.14L486.737 1028.5L480.135 1027.43L478.96 1030.79L474.661 1032.52L471.876 1037.46L463.536 1036.83L450.519 1037.68L433.767 1036.04L420.563 1038.07L404.939 1037.01L391.875 1039.16L376.169 1037.22L373.068 1039.78L363.951 1037.01L359.17 1034.41C357.431 1034.58 355.752 1035.13 354.26 1036.04C350.641 1038.77 346.036 1035.06 346.036 1035.06L344.956 1029.18L337.296 1025.83L332.597 1015.9L323.646 1016.07L318.571 1013.6L309.043 1018.3L303.792 1015.59L298.447 1018.9L294.277 1020.12V968H626.146V980.829L618.439 979.501L614.198 984.693Z" fill="#1877F2"/>
</g>
<g clip-path="url(#clip2_5_693)">
<path d="M911.612 989.674L904.34 991.025L899.488 994.55L902.449 1002.63L895.048 1008.56L888.845 1008.42L884.592 1015.13L876.78 1017.69L874.76 1023.75L874.113 1033.32L864.257 1043.42L856.621 1041.92L849.22 1043.8L844.521 1037.92L838.166 1039.57L831.035 1043.09L816.08 1041.67L805.308 1042.07L799.516 1033.05L793.725 1033.19L787.663 1030.84L783.222 1034.2L776.62 1033.13L775.446 1036.49L771.369 1038.98L768.409 1043.29L759.375 1041.92L746.312 1042.73L729.618 1041.13L716.414 1043.09L700.79 1042.01L687.726 1044.27L672.102 1042.88L669.001 1045.44L660.66 1043.42L654.187 1039.9C652.989 1039.61 651.742 1039.62 650.545 1039.9C649.348 1040.19 648.234 1040.75 647.291 1041.54C643.65 1044.23 638.528 1041.54 638.528 1041.54L637.459 1035.67L630.046 1031.5L625.194 1020.04L619.544 1021.79L614.422 1019.37L605.259 1023.95L600.007 1021.25L592.912 1023.12L588.553 1020.12L592.724 1018.95L598.069 1015.59L603.32 1018.28L612.847 1013.58L617.922 1016.07L626.768 1015.89L631.467 1025.83L639.127 1029.18L640.208 1035.06C640.208 1035.06 644.942 1038.78 648.537 1036.04C650.028 1035.13 651.707 1034.57 653.447 1034.4L658.228 1036.99L667.344 1039.77L670.446 1037.22L686.152 1039.16L699.216 1037.01L714.84 1038.07L728.044 1036.04L744.796 1037.67L757.859 1036.86L766.2 1037.5L768.937 1032.52L773.249 1030.72L774.424 1027.36L781.026 1028.43L785.478 1025.07L791.54 1027.36L800.938 1027.63L806.729 1036.65L813.672 1035.21L828.216 1037.56L835.358 1033.92L843.476 1032.31L848.175 1038.18L854.166 1035.45L860.463 1038.39L870.331 1028.29L870.965 1018.73L872.986 1012.66L879.893 1009.95L884.064 1003.22L890.255 1003.35L896.128 998.649L894.801 991.401L901.203 986.08L908.475 984.729L912.716 979.548L920.422 980.828L915.136 983.624L911.612 989.674Z" fill="#63A2F9"/>
<path d="M908.475 984.693L901.203 986.044L894.801 991.401L896.128 998.72L890.255 1003.42L884.064 1003.29L879.893 1009.95L872.95 1012.64L870.93 1018.7L870.295 1028.27L860.463 1038.39L854.201 1035.54L848.175 1038.24L843.476 1032.31L835.335 1033.99L828.204 1037.63L813.66 1035.28L806.718 1036.72L800.926 1027.7L791.528 1027.43L785.466 1025.14L781.014 1028.5L774.412 1027.43L773.237 1030.79L768.937 1032.52L766.153 1037.46L757.812 1036.83L744.796 1037.68L728.044 1036.04L714.84 1038.07L699.216 1037.01L686.152 1039.16L670.446 1037.22L667.344 1039.78L658.228 1037.01L653.447 1034.41C651.708 1034.58 650.029 1035.13 648.537 1036.04C644.918 1038.77 640.313 1035.06 640.313 1035.06L639.232 1029.18L631.573 1025.83L626.874 1015.9L617.922 1016.07L612.847 1013.6L603.32 1018.3L598.069 1015.59L592.724 1018.9L588.553 1020.12V968H920.422V980.829L912.716 979.501L908.475 984.693Z" fill="#1877F2"/>
</g>
<g clip-path="url(#clip3_5_693)">
<path d="M891.641 989.674L898.912 991.025L903.764 994.55L900.804 1002.63L908.205 1008.56L914.408 1008.42L918.66 1015.13L926.472 1017.69L928.493 1023.75L929.139 1033.32L938.995 1043.42L946.631 1041.92L954.032 1043.8L958.731 1037.92L965.087 1039.57L972.217 1043.09L987.172 1041.67L997.945 1042.07L1003.74 1033.05L1009.53 1033.19L1015.59 1030.84L1020.03 1034.2L1026.63 1033.13L1027.81 1036.49L1031.88 1038.98L1034.84 1043.29L1043.88 1041.92L1056.94 1042.73L1073.63 1041.13L1086.84 1043.09L1102.46 1042.01L1115.53 1044.27L1131.15 1042.88L1134.25 1045.44L1142.59 1043.42L1149.07 1039.9C1150.26 1039.61 1151.51 1039.62 1152.71 1039.9C1153.9 1040.19 1155.02 1040.75 1155.96 1041.54C1159.6 1044.23 1164.72 1041.54 1164.72 1041.54L1165.79 1035.67L1173.21 1031.5L1178.06 1020.04L1183.71 1021.79L1188.83 1019.37L1197.99 1023.95L1203.25 1021.25L1210.34 1023.12L1214.7 1020.12L1210.53 1018.95L1205.18 1015.59L1199.93 1018.28L1190.4 1013.58L1185.33 1016.07L1176.48 1015.89L1171.79 1025.83L1164.13 1029.18L1163.04 1035.06C1163.04 1035.06 1158.31 1038.78 1154.72 1036.04C1153.22 1035.13 1151.55 1034.57 1149.81 1034.4L1145.02 1036.99L1135.91 1039.77L1132.81 1037.22L1117.1 1039.16L1104.04 1037.01L1088.41 1038.07L1075.21 1036.04L1058.46 1037.67L1045.39 1036.86L1037.05 1037.5L1034.31 1032.52L1030 1030.72L1028.83 1027.36L1022.23 1028.43L1017.77 1025.07L1011.71 1027.36L1002.31 1027.63L996.523 1036.65L989.58 1035.21L975.037 1037.56L967.894 1033.92L959.777 1032.31L955.078 1038.18L949.086 1035.45L942.79 1038.39L932.922 1028.29L932.287 1018.73L930.267 1012.66L923.359 1009.95L919.189 1003.22L912.998 1003.35L907.124 998.649L908.452 991.401L902.049 986.08L894.777 984.729L890.536 979.548L882.83 980.828L888.116 983.624L891.641 989.674Z" fill="#63A2F9"/>
<path d="M894.777 984.693L902.049 986.044L908.452 991.401L907.124 998.72L912.998 1003.42L919.189 1003.29L923.359 1009.95L930.302 1012.64L932.323 1018.7L932.957 1028.27L942.79 1038.39L949.051 1035.54L955.078 1038.24L959.777 1032.31L967.918 1033.99L975.048 1037.63L989.592 1035.28L996.535 1036.72L1002.33 1027.7L1011.72 1027.43L1017.79 1025.14L1022.24 1028.5L1028.84 1027.43L1030.02 1030.79L1034.31 1032.52L1037.1 1037.46L1045.44 1036.83L1058.46 1037.68L1075.21 1036.04L1088.41 1038.07L1104.04 1037.01L1117.1 1039.16L1132.81 1037.22L1135.91 1039.78L1145.02 1037.01L1149.81 1034.41C1151.54 1034.58 1153.22 1035.13 1154.72 1036.04C1158.33 1038.77 1162.94 1035.06 1162.94 1035.06L1164.02 1029.18L1171.68 1025.83L1176.38 1015.9L1185.33 1016.07L1190.4 1013.6L1199.93 1018.3L1205.18 1015.59L1210.53 1018.9L1214.7 1020.12V968H882.83V980.829L890.536 979.501L894.777 984.693Z" fill="#1877F2"/>
</g>
<path d="M1190.77 989.674L1202.04 991.025L1209.56 994.55L1204.97 1002.63L1216.45 1008.56L1226.07 1008.42L1232.66 1015.13L1244.77 1017.69L1247.9 1023.75L1248.91 1033.32L1264.19 1043.42L1276.03 1041.92L1287.5 1043.8L1294.79 1037.92L1304.64 1039.57L1315.7 1043.09L1338.88 1041.67L1355.59 1042.07L1364.56 1033.05L1373.54 1033.19L1382.94 1030.84L1389.83 1034.2L1400.06 1033.13L1401.89 1036.49L1408.21 1038.98L1412.8 1043.29L1426.8 1041.92L1447.06 1042.73L1472.94 1041.13L1493.41 1043.09L1517.63 1042.01L1537.89 1044.27L1562.11 1042.88L1566.92 1045.44L1579.85 1043.42L1589.89 1039.9C1591.75 1039.61 1593.68 1039.62 1595.54 1039.9C1597.39 1040.19 1599.12 1040.75 1600.58 1041.54C1606.23 1044.23 1614.17 1041.54 1614.17 1041.54L1615.83 1035.67L1627.32 1031.5L1634.84 1020.04L1643.6 1021.79L1651.54 1019.37L1665.75 1023.95L1673.89 1021.25L1684.89 1023.12L1691.65 1020.12L1685.18 1018.95L1676.9 1015.59L1668.76 1018.28L1653.98 1013.58L1646.12 1016.07L1632.4 1015.89L1625.12 1025.83L1613.24 1029.18L1611.56 1035.06C1611.56 1035.06 1604.22 1038.78 1598.65 1036.04C1596.34 1035.13 1593.73 1034.57 1591.04 1034.4L1583.62 1036.99L1569.49 1039.77L1564.68 1037.22L1540.33 1039.16L1520.08 1037.01L1495.85 1038.07L1475.38 1036.04L1449.41 1037.67L1429.15 1036.86L1416.22 1037.5L1411.98 1032.52L1405.29 1030.72L1403.47 1027.36L1393.23 1028.43L1386.33 1025.07L1376.93 1027.36L1362.36 1027.63L1353.38 1036.65L1342.62 1035.21L1320.07 1037.56L1308.99 1033.92L1296.41 1032.31L1289.12 1038.18L1279.83 1035.45L1270.07 1038.39L1254.77 1028.29L1253.79 1018.73L1250.65 1012.66L1239.94 1009.95L1233.48 1003.22L1223.88 1003.35L1214.77 998.649L1216.83 991.401L1206.9 986.08L1195.63 984.729L1189.06 979.548L1177.11 980.828L1185.3 983.624L1190.77 989.674Z" fill="#63A2F9"/>
<path d="M1195.63 984.693L1206.9 986.044L1216.83 991.401L1214.77 998.72L1223.88 1003.42L1233.48 1003.29L1239.94 1009.95L1250.71 1012.64L1253.84 1018.7L1254.83 1028.27L1270.07 1038.39L1279.78 1035.54L1289.12 1038.24L1296.41 1032.31L1309.03 1033.99L1320.09 1037.63L1342.64 1035.28L1353.4 1036.72L1362.38 1027.7L1376.95 1027.43L1386.35 1025.14L1393.25 1028.5L1403.49 1027.43L1405.31 1030.79L1411.98 1032.52L1416.29 1037.46L1429.22 1036.83L1449.41 1037.68L1475.38 1036.04L1495.85 1038.07L1520.08 1037.01L1540.33 1039.16L1564.68 1037.22L1569.49 1039.78L1583.62 1037.01L1591.04 1034.41C1593.73 1034.58 1596.34 1035.13 1598.65 1036.04C1604.26 1038.77 1611.4 1035.06 1611.4 1035.06L1613.08 1029.18L1624.95 1025.83L1632.24 1015.9L1646.12 1016.07L1653.98 1013.6L1668.76 1018.3L1676.9 1015.59L1685.18 1018.9L1691.65 1020.12V968H1177.11V980.829L1189.06 979.501L1195.63 984.693Z" fill="#1877F2"/>
<g clip-path="url(#clip4_5_693)">
<path fill-rule="evenodd" clip-rule="evenodd" d="M631.66 465.323C636.002 495.043 662.669 509.479 690.508 512.762C690.986 512.819 691.329 513.253 691.272 513.731C691.215 514.209 690.781 514.553 690.303 514.496C661.684 511.123 634.396 496.127 629.933 465.574C629.862 465.098 630.193 464.656 630.671 464.585C631.147 464.515 631.59 464.845 631.66 465.323Z" fill="#80B5FF"/>
<path fill-rule="evenodd" clip-rule="evenodd" d="M690.489 513.321C688.925 512.177 686.945 510.762 686.725 510.595C680.764 506.068 675.825 500.859 671.477 494.748C671.123 494.252 671.24 493.562 671.736 493.208C672.231 492.855 672.922 492.972 673.275 493.467C677.49 499.395 682.279 504.448 688.062 508.839C688.399 509.095 692.85 512.271 693.702 512.981C694.053 513.271 694.162 513.544 694.181 513.61C694.298 513.961 694.229 514.237 694.134 514.437C694.025 514.663 693.755 514.991 693.232 515.158C692.683 515.331 691.464 515.409 691.158 515.454C686.539 516.139 681.324 516.5 676.577 517.815C672.05 519.067 667.944 521.189 665.31 525.44C664.99 525.958 664.308 526.117 663.79 525.797C663.272 525.476 663.113 524.794 663.433 524.277C666.379 519.524 670.928 517.088 675.987 515.687C680.706 514.382 685.873 513.986 690.489 513.321Z" fill="#80B5FF"/>
</g>
<path fill-rule="evenodd" clip-rule="evenodd" d="M1447.95 670.336C1461.96 677.025 1476.73 682.828 1488.1 693.738C1488.78 694.385 1489.85 694.367 1490.51 693.691C1491.15 693.012 1491.13 691.938 1490.46 691.284C1478.82 680.121 1463.75 674.108 1449.42 667.266C1448.57 666.857 1447.55 667.22 1447.15 668.068C1446.74 668.914 1447.11 669.928 1447.95 670.336Z" fill="#80B5FF"/>
<path fill-rule="evenodd" clip-rule="evenodd" d="M1455.89 649.21C1462.13 647.128 1468.31 646.245 1474.81 647.347C1475.73 647.505 1476.61 646.88 1476.77 645.956C1476.93 645.03 1476.3 644.15 1475.38 643.995C1468.31 642.795 1461.6 643.723 1454.82 645.985C1453.93 646.281 1453.44 647.244 1453.74 648.136C1454.04 649.025 1455.01 649.509 1455.89 649.21Z" fill="#80B5FF"/>
<path fill-rule="evenodd" clip-rule="evenodd" d="M1463.49 599.373C1468.62 593.344 1475.04 589.704 1482.9 588.524C1483.83 588.384 1484.47 587.518 1484.33 586.588C1484.19 585.662 1483.33 585.021 1482.4 585.16C1473.69 586.469 1466.58 590.493 1460.9 597.168C1460.29 597.882 1460.38 598.959 1461.09 599.566C1461.81 600.176 1462.88 600.09 1463.49 599.373Z" fill="#80B5FF"/>
<path fill-rule="evenodd" clip-rule="evenodd" d="M1397.97 558.699C1396.13 559.576 1394.37 560.619 1392.72 561.833C1391.99 562.373 1390.58 563.588 1389.87 564.857C1389.12 566.207 1389.07 567.607 1390.02 568.782C1391.28 570.342 1392.62 570.84 1393.85 570.79C1395.03 570.743 1396.21 570.137 1397.26 569.084C1399.26 567.07 1400.78 563.306 1401.25 560.979C1403.13 560.229 1405.08 559.658 1407.07 559.266C1421.87 556.341 1437.03 566.664 1444.38 584.251C1446.95 590.408 1445.16 600.117 1442.04 610.058C1437.18 625.537 1428.83 641.517 1426.54 646.267C1425.97 647.441 1425.77 648.196 1425.77 648.365C1425.75 649.188 1426.18 649.599 1426.51 649.829C1426.99 650.156 1427.45 650.243 1427.87 650.219C1428.43 650.184 1428.99 649.931 1429.45 649.362C1429.71 649.046 1429.95 648.559 1430.18 648.023C1430.33 647.649 1430.44 647.214 1430.63 646.983C1431.87 645.511 1433.19 644.122 1434.51 642.717C1438.92 637.985 1443.73 633.855 1448.81 629.854C1464.95 617.14 1481.23 603.357 1501.16 597.091C1502.06 596.81 1502.56 595.855 1502.28 594.959C1502 594.065 1501.05 593.567 1500.14 593.846C1479.82 600.234 1463.17 614.216 1446.71 627.182C1442.39 630.586 1438.25 634.083 1434.39 637.945C1438.26 629.785 1443.31 618.348 1446.33 607.579C1449.01 598.002 1450.01 588.926 1447.52 582.94C1439.47 563.674 1422.62 552.723 1406.41 555.93C1404.67 556.273 1402.96 556.738 1401.29 557.329C1400.07 542.82 1388.37 531.985 1373.7 532.085C1372.76 532.09 1372.01 532.858 1372.01 533.796C1372.02 534.736 1372.79 535.492 1373.73 535.487C1386.95 535.397 1397.39 545.446 1397.97 558.699ZM1397.13 562.994C1396.31 563.478 1395.51 564.006 1394.73 564.572C1394.32 564.877 1393.57 565.485 1393.06 566.178C1392.94 566.341 1392.81 566.62 1392.75 566.751C1393.09 567.154 1393.38 567.406 1393.71 567.391C1394.13 567.375 1394.48 567.056 1394.85 566.687C1395.77 565.763 1396.56 564.348 1397.13 562.994Z" fill="#80B5FF"/>
<g clip-path="url(#clip5_5_693)">
<path fill-rule="evenodd" clip-rule="evenodd" d="M272.429 449.846C272.351 449.379 272.291 448.917 272.253 448.456C272.195 447.764 272.231 447.066 272.211 446.374C272.202 446.08 272.166 445.315 272.181 445.204C272.309 444.245 273.084 444.098 273.31 444.072C273.42 444.056 274.545 443.93 274.788 445.178C275.086 446.704 275.182 448.241 275.076 449.746C275.322 451.026 275.743 452.3 276.298 453.454C278.508 458.043 282.719 458.489 287.282 458.447C287.984 458.436 288.566 458.987 288.603 459.684C288.64 460.387 288.118 460.995 287.419 461.058C284.869 461.305 280.344 463.35 278.779 465.479C278.452 465.925 278.262 467 278.01 468.055C277.658 469.518 277.241 470.965 276.772 471.574C276.702 471.668 275.848 472.633 275.593 472.775C274.98 473.11 274.49 472.916 274.211 472.738C273.933 472.559 273.618 472.208 273.492 471.626C273.36 471.018 273.471 469.769 273.451 469.502C273.376 468.532 273.182 466.628 272.786 464.992C272.573 464.111 272.345 463.298 271.969 462.894C270.575 461.399 268.346 461.62 266.469 461.866C266.253 461.892 266.038 461.924 265.823 461.95C265.059 462.175 264.247 462.343 263.39 462.443C262.095 462.595 261.882 461.404 261.871 461.326C261.846 461.153 261.757 460.261 262.733 459.905C262.839 459.868 263.625 459.695 263.927 459.627C264.349 459.532 264.775 459.459 265.203 459.391C269.624 458.017 272.025 454.157 272.429 449.846ZM273.946 454.613C275.615 458.064 278.148 459.732 281.15 460.487H281.149C279.275 461.467 277.57 462.695 276.666 463.927C276.323 464.394 276.009 465.333 275.725 466.387C275.571 465.406 275.364 464.362 275.089 463.471C274.777 462.453 274.357 461.609 273.888 461.106C272.983 460.135 271.847 459.595 270.626 459.328C272.088 458.032 273.197 456.417 273.946 454.613Z" fill="#80B5FF"/>
</g>
<g clip-path="url(#clip6_5_693)">
<path fill-rule="evenodd" clip-rule="evenodd" d="M632.195 608.009C632.154 607.767 632.123 607.527 632.103 607.287C632.073 606.927 632.092 606.564 632.081 606.204C632.077 606.051 632.058 605.653 632.066 605.596C632.132 605.097 632.535 605.02 632.653 605.007C632.71 604.999 633.295 604.933 633.422 605.582C633.576 606.376 633.626 607.175 633.571 607.958C633.699 608.623 633.918 609.286 634.207 609.886C635.356 612.272 637.546 612.504 639.918 612.482C640.283 612.476 640.586 612.763 640.605 613.125C640.624 613.491 640.353 613.807 639.99 613.84C638.663 613.968 636.31 615.032 635.497 616.139C635.327 616.371 635.228 616.93 635.097 617.478C634.914 618.239 634.697 618.991 634.453 619.308C634.417 619.357 633.972 619.859 633.84 619.932C633.521 620.107 633.266 620.006 633.122 619.913C632.977 619.821 632.813 619.638 632.747 619.335C632.679 619.019 632.737 618.37 632.726 618.231C632.687 617.726 632.586 616.736 632.381 615.885C632.27 615.427 632.151 615.004 631.955 614.794C631.231 614.017 630.072 614.132 629.095 614.26C628.983 614.274 628.871 614.29 628.76 614.304C628.362 614.421 627.94 614.508 627.494 614.56C626.821 614.639 626.71 614.02 626.704 613.979C626.692 613.889 626.645 613.425 627.153 613.24C627.208 613.221 627.617 613.131 627.774 613.095C627.993 613.046 628.215 613.008 628.437 612.973C630.736 612.258 631.985 610.251 632.195 608.009ZM632.984 610.488C633.852 612.283 635.169 613.15 636.73 613.543H636.729C635.755 614.053 634.868 614.691 634.398 615.332C634.22 615.574 634.056 616.063 633.909 616.611C633.829 616.101 633.721 615.558 633.578 615.094C633.416 614.565 633.197 614.126 632.954 613.865C632.483 613.36 631.892 613.079 631.257 612.94C632.017 612.266 632.594 611.426 632.984 610.488Z" fill="#80B5FF"/>
</g>
<path fill-rule="evenodd" clip-rule="evenodd" d="M1071.26 610.788C1071.19 610.321 1071.13 609.859 1071.09 609.398C1071.03 608.706 1071.07 608.008 1071.05 607.316C1071.04 607.022 1071 606.256 1071.02 606.146C1071.14 605.187 1071.92 605.04 1072.15 605.013C1072.25 604.998 1073.38 604.872 1073.62 606.12C1073.92 607.646 1074.02 609.183 1073.91 610.688C1074.16 611.968 1074.58 613.242 1075.13 614.396C1077.34 618.985 1081.55 619.43 1086.12 619.389C1086.82 619.378 1087.4 619.929 1087.44 620.626C1087.47 621.329 1086.95 621.937 1086.25 622C1083.7 622.247 1079.18 624.292 1077.61 626.421C1077.29 626.867 1077.1 627.942 1076.84 628.996C1076.49 630.46 1076.08 631.907 1075.61 632.515C1075.54 632.61 1074.68 633.575 1074.43 633.716C1073.82 634.052 1073.32 633.858 1073.05 633.68C1072.77 633.501 1072.45 633.15 1072.33 632.568C1072.2 631.959 1072.31 630.711 1072.29 630.444C1072.21 629.474 1072.02 627.57 1071.62 625.934C1071.41 625.053 1071.18 624.24 1070.8 623.836C1069.41 622.341 1067.18 622.561 1065.3 622.808C1065.09 622.834 1064.87 622.866 1064.66 622.892C1063.89 623.117 1063.08 623.285 1062.22 623.385C1060.93 623.537 1060.72 622.346 1060.71 622.268C1060.68 622.095 1060.59 621.203 1061.57 620.846C1061.67 620.81 1062.46 620.637 1062.76 620.569C1063.18 620.474 1063.61 620.401 1064.04 620.333C1068.46 618.959 1070.86 615.099 1071.26 610.788ZM1072.78 615.555C1074.45 619.006 1076.98 620.673 1079.98 621.429H1079.98C1078.11 622.409 1076.4 623.637 1075.5 624.869C1075.16 625.336 1074.84 626.274 1074.56 627.329C1074.41 626.348 1074.2 625.304 1073.92 624.413C1073.61 623.395 1073.19 622.551 1072.72 622.047C1071.82 621.077 1070.68 620.537 1069.46 620.27C1070.92 618.974 1072.03 617.359 1072.78 615.555Z" fill="#80B5FF"/>
<g clip-path="url(#clip7_5_693)">
<path fill-rule="evenodd" clip-rule="evenodd" d="M1595.21 170.253C1595.13 169.787 1595.07 169.325 1595.03 168.864C1594.97 168.171 1595.01 167.474 1594.99 166.782C1594.98 166.488 1594.94 165.722 1594.96 165.612C1595.09 164.652 1595.86 164.506 1596.09 164.479C1596.2 164.464 1597.32 164.338 1597.57 165.586C1597.86 167.112 1597.96 168.649 1597.85 170.154C1598.1 171.433 1598.52 172.708 1599.07 173.862C1601.28 178.451 1605.5 178.896 1610.06 178.854C1610.76 178.844 1611.34 179.395 1611.38 180.092C1611.42 180.795 1610.89 181.403 1610.2 181.466C1607.65 181.713 1603.12 183.758 1601.56 185.887C1601.23 186.333 1601.04 187.408 1600.79 188.462C1600.44 189.925 1600.02 191.373 1599.55 191.981C1599.48 192.076 1598.62 193.041 1598.37 193.182C1597.76 193.518 1597.27 193.324 1596.99 193.145C1596.71 192.967 1596.39 192.616 1596.27 192.034C1596.14 191.425 1596.25 190.177 1596.23 189.91C1596.15 188.939 1595.96 187.036 1595.56 185.399C1595.35 184.518 1595.12 183.705 1594.75 183.302C1593.35 181.807 1591.12 182.027 1589.25 182.274C1589.03 182.3 1588.81 182.331 1588.6 182.358C1587.84 182.583 1587.02 182.751 1586.17 182.851C1584.87 183.003 1584.66 181.812 1584.65 181.734C1584.62 181.56 1584.53 180.669 1585.51 180.312C1585.62 180.276 1586.4 180.103 1586.7 180.034C1587.13 179.94 1587.55 179.867 1587.98 179.798C1592.4 178.424 1594.8 174.564 1595.21 170.253ZM1596.72 175.021C1598.39 178.472 1600.92 180.139 1603.93 180.894H1603.93C1602.05 181.875 1600.35 183.102 1599.44 184.335C1599.1 184.802 1598.79 185.74 1598.5 186.794C1598.35 185.814 1598.14 184.77 1597.87 183.879C1597.55 182.861 1597.13 182.017 1596.67 181.513C1595.76 180.543 1594.62 180.003 1593.4 179.735C1594.86 178.44 1595.97 176.825 1596.72 175.021Z" fill="#80B5FF"/>
</g>
<g clip-path="url(#clip8_5_693)">
<path fill-rule="evenodd" clip-rule="evenodd" d="M394.65 150.317C394.603 150.037 394.567 149.76 394.544 149.483C394.51 149.068 394.531 148.649 394.519 148.234C394.513 148.058 394.492 147.598 394.501 147.532C394.578 146.957 395.043 146.868 395.179 146.853C395.244 146.843 395.92 146.768 396.065 147.517C396.244 148.432 396.301 149.354 396.238 150.257C396.386 151.025 396.638 151.79 396.971 152.482C398.297 155.235 400.824 155.503 403.562 155.478C403.983 155.471 404.332 155.802 404.354 156.22C404.376 156.642 404.063 157.007 403.644 157.045C402.113 157.193 399.399 158.42 398.46 159.697C398.264 159.965 398.149 160.61 397.998 161.242C397.787 162.12 397.537 162.989 397.256 163.354C397.213 163.41 396.701 163.989 396.548 164.074C396.18 164.276 395.886 164.159 395.719 164.052C395.552 163.945 395.363 163.735 395.287 163.385C395.208 163.02 395.275 162.271 395.263 162.111C395.218 161.529 395.102 160.386 394.864 159.405C394.736 158.876 394.6 158.388 394.374 158.146C393.537 157.249 392.2 157.381 391.074 157.529C390.944 157.545 390.815 157.564 390.686 157.58C390.228 157.715 389.741 157.816 389.226 157.875C388.449 157.967 388.322 157.252 388.315 157.205C388.3 157.101 388.246 156.566 388.832 156.352C388.896 156.33 389.367 156.227 389.549 156.186C389.802 156.129 390.058 156.085 390.314 156.044C392.967 155.22 394.407 152.904 394.65 150.317ZM395.56 153.177C396.561 155.248 398.081 156.249 399.882 156.702H399.882C398.757 157.29 397.734 158.027 397.192 158.766C396.986 159.046 396.797 159.609 396.627 160.242C396.535 159.653 396.41 159.027 396.246 158.492C396.059 157.882 395.807 157.375 395.525 157.073C394.982 156.491 394.301 156.167 393.568 156.006C394.445 155.229 395.11 154.26 395.56 153.177Z" fill="#80B5FF"/>
</g>
<defs>
<clipPath id="clip0_5_693">
<rect width="331.869" height="77.44" fill="white" transform="matrix(1 0 0 -1 0 1045.44)"/>
</clipPath>
<clipPath id="clip1_5_693">
<rect width="331.869" height="77.44" fill="white" transform="matrix(1 0 0 -1 294.277 1045.44)"/>
</clipPath>
<clipPath id="clip2_5_693">
<rect width="331.869" height="77.44" fill="white" transform="matrix(1 0 0 -1 588.553 1045.44)"/>
</clipPath>
<clipPath id="clip3_5_693">
<rect width="331.869" height="77.44" fill="white" transform="matrix(-1 0 0 -1 1214.7 1045.44)"/>
</clipPath>
<clipPath id="clip4_5_693">
<rect width="79.8835" height="79.8835" fill="white" transform="matrix(-1 0 0 1 694.281 448.757)"/>
</clipPath>
<clipPath id="clip5_5_693">
<rect width="29.3689" height="29.3689" fill="white" transform="translate(260.796 444.058)"/>
</clipPath>
<clipPath id="clip6_5_693">
<rect width="15.2718" height="15.2718" fill="white" transform="translate(626.146 605)"/>
</clipPath>
<clipPath id="clip7_5_693">
<rect width="29.3689" height="29.3689" fill="white" transform="translate(1583.57 164.466)"/>
</clipPath>
<clipPath id="clip8_5_693">
<rect width="17.6214" height="17.6214" fill="white" transform="translate(387.67 146.845)"/>
</clipPath>
</defs>
</svg>
