<svg width="1240" height="66" viewBox="0 0 1240 66" fill="none" xmlns="http://www.w3.org/2000/svg">
<g clip-path="url(#clip0_334_9473)">
<path d="M275 18.49L268.81 19.64L264.68 22.64L267.2 29.52L260.9 34.57L255.62 34.45L252 40.16L245.35 42.34L243.63 47.5L243.08 55.64L234.69 64.24L228.19 62.96L221.89 64.56L217.89 59.56L212.48 60.96L206.41 63.96L193.68 62.75L184.51 63.09L179.58 55.41L174.65 55.53L169.49 53.53L165.71 56.39L160.09 55.48L159.09 58.34L155.62 60.46L153.1 64.13L145.41 62.96L134.29 63.65L120.08 62.29L108.84 63.96L95.54 63.04L84.42 64.96L71.12 63.78L68.48 65.96L61.38 64.24L55.87 61.24C54.8501 61.0011 53.7885 61.0033 52.7696 61.2463C51.7506 61.4893 50.8023 61.9665 50 62.64C46.9 64.93 42.54 62.64 42.54 62.64L41.63 57.64L35.32 54.09L31.19 44.34L26.38 45.83L22.02 43.77L14.22 47.67L9.75 45.37L3.71 46.96L0 44.41L3.55 43.41L8.1 40.55L12.57 42.84L20.68 38.84L25 40.96L32.53 40.81L36.53 49.27L43.05 52.12L43.97 57.12C43.97 57.12 48 60.29 51.06 57.96C52.3294 57.1829 53.7586 56.7042 55.24 56.56L59.31 58.77L67.07 61.13L69.71 58.96L83.08 60.61L94.2 58.78L107.5 59.69L118.74 57.96L133 59.35L144.12 58.66L151.22 59.2L153.55 54.96L157.22 53.43L158.22 50.57L163.84 51.48L167.63 48.62L172.79 50.57L180.79 50.8L185.72 58.48L191.63 57.25L204.01 59.25L210.09 56.15L217 54.78L221 59.78L226.1 57.46L231.46 59.96L239.86 51.36L240.4 43.22L242.12 38.06L248 35.75L251.55 30.02L256.82 30.13L261.82 26.13L260.69 19.96L266.14 15.43L272.33 14.28L275.94 9.86996L282.5 10.96L278 13.34L275 18.49Z" fill="#63A2F9"/>
<path d="M272.33 14.2501L266.14 15.4001L260.69 19.9601L261.82 26.1901L256.82 30.1901L251.55 30.0801L248 35.7501L242.09 38.0401L240.37 43.2001L239.83 51.3401L231.46 59.9601L226.13 57.5301L221 59.8301L217 54.7801L210.07 56.2101L204 59.3101L191.62 57.3101L185.71 58.5401L180.78 50.8601L172.78 50.6301L167.62 48.6801L163.83 51.5401L158.21 50.6301L157.21 53.4901L153.55 54.9601L151.18 59.1701L144.08 58.6301L133 59.3501L118.74 57.9601L107.5 59.6901L94.2 58.7801L83.08 60.6101L69.71 58.9601L67.07 61.1401L59.31 58.7801L55.24 56.5701C53.7595 56.7113 52.3302 57.1866 51.06 57.9601C47.98 60.2801 44.06 57.1201 44.06 57.1201L43.14 52.1201L36.62 49.2701L32.62 40.8101L25 40.9601L20.68 38.8601L12.57 42.8601L8.1 40.5501L3.55 43.3701L0 44.4101V0.0401382H282.5V10.9601L275.94 9.83014L272.33 14.2501Z" fill="#1570EF"/>
</g>
<g clip-path="url(#clip1_334_9473)">
<path d="M258 18.49L264.19 19.64L268.32 22.64L265.8 29.52L272.1 34.57L277.38 34.45L281 40.16L287.65 42.34L289.37 47.5L289.92 55.64L298.31 64.24L304.81 62.96L311.11 64.56L315.11 59.56L320.52 60.96L326.59 63.96L339.32 62.75L348.49 63.09L353.42 55.41L358.35 55.53L363.51 53.53L367.29 56.39L372.91 55.48L373.91 58.34L377.38 60.46L379.9 64.13L387.59 62.96L398.71 63.65L412.92 62.29L424.16 63.96L437.46 63.04L448.58 64.96L461.88 63.78L464.52 65.96L471.62 64.24L477.13 61.24C478.15 61.0011 479.211 61.0033 480.23 61.2463C481.249 61.4893 482.198 61.9665 483 62.64C486.1 64.93 490.46 62.64 490.46 62.64L491.37 57.64L497.68 54.09L501.81 44.34L506.62 45.83L510.98 43.77L518.78 47.67L523.25 45.37L529.29 46.96L533 44.41L529.45 43.41L524.9 40.55L520.43 42.84L512.32 38.84L508 40.96L500.47 40.81L496.47 49.27L489.95 52.12L489.03 57.12C489.03 57.12 485 60.29 481.94 57.96C480.671 57.1829 479.241 56.7042 477.76 56.56L473.69 58.77L465.93 61.13L463.29 58.96L449.92 60.61L438.8 58.78L425.5 59.69L414.26 57.96L400 59.35L388.88 58.66L381.78 59.2L379.45 54.96L375.78 53.43L374.78 50.57L369.16 51.48L365.37 48.62L360.21 50.57L352.21 50.8L347.28 58.48L341.37 57.25L328.99 59.25L322.91 56.15L316 54.78L312 59.78L306.9 57.46L301.54 59.96L293.14 51.36L292.6 43.22L290.88 38.06L285 35.75L281.45 30.02L276.18 30.13L271.18 26.13L272.31 19.96L266.86 15.43L260.67 14.28L257.06 9.86996L250.5 10.96L255 13.34L258 18.49Z" fill="#63A2F9"/>
<path d="M260.67 14.2501L266.86 15.4001L272.31 19.9601L271.18 26.1901L276.18 30.1901L281.45 30.0801L285 35.7501L290.91 38.0401L292.63 43.2001L293.17 51.3401L301.54 59.9601L306.87 57.5301L312 59.8301L316 54.7801L322.93 56.2101L329 59.3101L341.38 57.3101L347.29 58.5401L352.22 50.8601L360.22 50.6301L365.38 48.6801L369.17 51.5401L374.79 50.6301L375.79 53.4901L379.45 54.9601L381.82 59.1701L388.92 58.6301L400 59.3501L414.26 57.9601L425.5 59.6901L438.8 58.7801L449.92 60.6101L463.29 58.9601L465.93 61.1401L473.69 58.7801L477.76 56.5701C479.241 56.7113 480.67 57.1866 481.94 57.9601C485.02 60.2801 488.94 57.1201 488.94 57.1201L489.86 52.1201L496.38 49.2701L500.38 40.8101L508 40.9601L512.32 38.8601L520.43 42.8601L524.9 40.5501L529.45 43.3701L533 44.4101V0.0401382H250.5V10.9601L257.06 9.83014L260.67 14.2501Z" fill="#1570EF"/>
</g>
<g clip-path="url(#clip2_334_9473)">
<path d="M776 18.49L769.81 19.64L765.68 22.64L768.2 29.52L761.9 34.57L756.62 34.45L753 40.16L746.35 42.34L744.63 47.5L744.08 55.64L735.69 64.24L729.19 62.96L722.89 64.56L718.89 59.56L713.48 60.96L707.41 63.96L694.68 62.75L685.51 63.09L680.58 55.41L675.65 55.53L670.49 53.53L666.71 56.39L661.09 55.48L660.09 58.34L656.62 60.46L654.1 64.13L646.41 62.96L635.29 63.65L621.08 62.29L609.84 63.96L596.54 63.04L585.42 64.96L572.12 63.78L569.48 65.96L562.38 64.24L556.87 61.24C555.85 61.0011 554.789 61.0033 553.77 61.2463C552.751 61.4893 551.802 61.9665 551 62.64C547.9 64.93 543.54 62.64 543.54 62.64L542.63 57.64L536.32 54.09L532.19 44.34L527.38 45.83L523.02 43.77L515.22 47.67L510.75 45.37L504.71 46.96L501 44.41L504.55 43.41L509.1 40.55L513.57 42.84L521.68 38.84L526 40.96L533.53 40.81L537.53 49.27L544.05 52.12L544.97 57.12C544.97 57.12 549 60.29 552.06 57.96C553.329 57.1829 554.759 56.7042 556.24 56.56L560.31 58.77L568.07 61.13L570.71 58.96L584.08 60.61L595.2 58.78L608.5 59.69L619.74 57.96L634 59.35L645.12 58.66L652.22 59.2L654.55 54.96L658.22 53.43L659.22 50.57L664.84 51.48L668.63 48.62L673.79 50.57L681.79 50.8L686.72 58.48L692.63 57.25L705.01 59.25L711.09 56.15L718 54.78L722 59.78L727.1 57.46L732.46 59.96L740.86 51.36L741.4 43.22L743.12 38.06L749 35.75L752.55 30.02L757.82 30.13L762.82 26.13L761.69 19.96L767.14 15.43L773.33 14.28L776.94 9.86996L783.5 10.96L779 13.34L776 18.49Z" fill="#63A2F9"/>
<path d="M773.33 14.2501L767.14 15.4001L761.69 19.9601L762.82 26.1901L757.82 30.1901L752.55 30.0801L749 35.7501L743.09 38.0401L741.37 43.2001L740.83 51.3401L732.46 59.9601L727.13 57.5301L722 59.8301L718 54.7801L711.07 56.2101L705 59.3101L692.62 57.3101L686.71 58.5401L681.78 50.8601L673.78 50.6301L668.62 48.6801L664.83 51.5401L659.21 50.6301L658.21 53.4901L654.55 54.9601L652.18 59.1701L645.08 58.6301L634 59.3501L619.74 57.9601L608.5 59.6901L595.2 58.7801L584.08 60.6101L570.71 58.9601L568.07 61.1401L560.31 58.7801L556.24 56.5701C554.759 56.7113 553.33 57.1866 552.06 57.9601C548.98 60.2801 545.06 57.1201 545.06 57.1201L544.14 52.1201L537.62 49.2701L533.62 40.8101L526 40.9601L521.68 38.8601L513.57 42.8601L509.1 40.5501L504.55 43.3701L501 44.4101V0.0401382H783.5V10.9601L776.94 9.83014L773.33 14.2501Z" fill="#1570EF"/>
</g>
<g clip-path="url(#clip3_334_9473)">
<path d="M759 18.49L765.19 19.64L769.32 22.64L766.8 29.52L773.1 34.57L778.38 34.45L782 40.16L788.65 42.34L790.37 47.5L790.92 55.64L799.31 64.24L805.81 62.96L812.11 64.56L816.11 59.56L821.52 60.96L827.59 63.96L840.32 62.75L849.49 63.09L854.42 55.41L859.35 55.53L864.51 53.53L868.29 56.39L873.91 55.48L874.91 58.34L878.38 60.46L880.9 64.13L888.59 62.96L899.71 63.65L913.92 62.29L925.16 63.96L938.46 63.04L949.58 64.96L962.88 63.78L965.52 65.96L972.62 64.24L978.13 61.24C979.15 61.0011 980.211 61.0033 981.23 61.2463C982.249 61.4893 983.198 61.9665 984 62.64C987.1 64.93 991.46 62.64 991.46 62.64L992.37 57.64L998.68 54.09L1002.81 44.34L1007.62 45.83L1011.98 43.77L1019.78 47.67L1024.25 45.37L1030.29 46.96L1034 44.41L1030.45 43.41L1025.9 40.55L1021.43 42.84L1013.32 38.84L1009 40.96L1001.47 40.81L997.47 49.27L990.95 52.12L990.03 57.12C990.03 57.12 986 60.29 982.94 57.96C981.671 57.1829 980.241 56.7042 978.76 56.56L974.69 58.77L966.93 61.13L964.29 58.96L950.92 60.61L939.8 58.78L926.5 59.69L915.26 57.96L901 59.35L889.88 58.66L882.78 59.2L880.45 54.96L876.78 53.43L875.78 50.57L870.16 51.48L866.37 48.62L861.21 50.57L853.21 50.8L848.28 58.48L842.37 57.25L829.99 59.25L823.91 56.15L817 54.78L813 59.78L807.9 57.46L802.54 59.96L794.14 51.36L793.6 43.22L791.88 38.06L786 35.75L782.45 30.02L777.18 30.13L772.18 26.13L773.31 19.96L767.86 15.43L761.67 14.28L758.06 9.86996L751.5 10.96L756 13.34L759 18.49Z" fill="#63A2F9"/>
<path d="M761.67 14.2501L767.86 15.4001L773.31 19.9601L772.18 26.1901L777.18 30.1901L782.45 30.0801L786 35.7501L791.91 38.0401L793.63 43.2001L794.17 51.3401L802.54 59.9601L807.87 57.5301L813 59.8301L817 54.7801L823.93 56.2101L830 59.3101L842.38 57.3101L848.29 58.5401L853.22 50.8601L861.22 50.6301L866.38 48.6801L870.17 51.5401L875.79 50.6301L876.79 53.4901L880.45 54.9601L882.82 59.1701L889.92 58.6301L901 59.3501L915.26 57.9601L926.5 59.6901L939.8 58.7801L950.92 60.6101L964.29 58.9601L966.93 61.1401L974.69 58.7801L978.76 56.5701C980.241 56.7113 981.67 57.1866 982.94 57.9601C986.02 60.2801 989.94 57.1201 989.94 57.1201L990.86 52.1201L997.38 49.2701L1001.38 40.8101L1009 40.9601L1013.32 38.8601L1021.43 42.8601L1025.9 40.5501L1030.45 43.3701L1034 44.4101V0.0401382H751.5V10.9601L758.06 9.83014L761.67 14.2501Z" fill="#1570EF"/>
</g>
<g clip-path="url(#clip4_334_9473)">
<path d="M1233.68 18.4724L1228.47 19.6238L1224.99 22.6274L1227.11 29.5158L1221.8 34.5719L1217.35 34.4518L1214.3 40.1687L1208.7 42.3513L1207.25 47.5176L1206.79 55.6675L1199.72 64.2779L1194.25 62.9964L1188.94 64.5983L1185.57 59.5922L1181.01 60.9939L1175.9 63.9976L1165.17 62.7861L1157.45 63.1265L1153.29 55.4372L1149.14 55.5573L1144.79 53.5549L1141.61 56.4184L1136.87 55.5073L1136.03 58.3708L1133.11 60.4933L1130.98 64.1678L1124.5 62.9964L1115.14 63.6872L1103.16 62.3255L1093.7 63.9976L1082.49 63.0765L1073.12 64.9988L1061.92 63.8174L1059.69 66L1053.71 64.2779L1049.07 61.2743C1048.21 61.0351 1047.32 61.0373 1046.46 61.2806C1045.6 61.5239 1044.8 62.0017 1044.12 62.676C1041.51 64.9688 1037.84 62.676 1037.84 62.676L1037.07 57.6699L1031.76 54.1156L1028.28 44.3538L1024.22 45.8456L1020.55 43.7831L1013.98 47.6878L1010.21 45.385L1005.13 46.9769L1002 44.4238L1004.99 43.4226L1008.82 40.5592L1012.59 42.8519L1019.42 38.8471L1023.06 40.9697L1029.41 40.8195L1032.78 49.2897L1038.27 52.1432L1039.04 57.1493C1039.04 57.1493 1042.44 60.3231 1045.02 57.9903C1046.09 57.2123 1047.29 56.733 1048.54 56.5886L1051.97 58.8013L1058.5 61.1641L1060.73 58.9915L1071.99 60.6435L1081.36 58.8113L1092.57 59.7224L1102.04 57.9903L1114.05 59.382L1123.42 58.6911L1129.4 59.2318L1131.36 54.9866L1134.45 53.4548L1135.3 50.5913L1140.03 51.5024L1143.22 48.639L1147.57 50.5913L1154.31 50.8216L1158.46 58.5109L1163.44 57.2794L1173.87 59.2819L1179 56.1781L1184.82 54.8064L1188.19 59.8125L1192.48 57.4897L1197 59.9927L1204.08 51.3823L1204.53 43.2324L1205.98 38.0661L1210.93 35.7533L1213.93 30.0164L1218.37 30.1265L1222.58 26.1217L1221.63 19.9442L1226.22 15.4087L1231.43 14.2573L1234.47 9.84193L1240 10.9332L1236.21 13.3161L1233.68 18.4724Z" fill="#63A2F9"/>
<path d="M1231.43 14.2274L1226.22 15.3788L1221.63 19.9443L1222.58 26.1819L1218.37 30.1868L1213.93 30.0766L1210.93 35.7535L1205.96 38.0463L1204.51 43.2125L1204.05 51.3624L1197 59.9929L1192.51 57.5599L1188.19 59.8627L1184.82 54.8066L1178.98 56.2383L1173.87 59.3421L1163.44 57.3397L1158.46 58.5712L1154.3 50.8818L1147.56 50.6516L1143.22 48.6992L1140.02 51.5627L1135.29 50.6516L1134.45 53.515L1131.36 54.9868L1129.37 59.2019L1123.38 58.6613L1114.05 59.3821L1102.04 57.9905L1092.57 59.7226L1081.36 58.8115L1071.99 60.6437L1060.73 58.9917L1058.5 61.1743L1051.97 58.8115L1048.54 56.5988C1047.29 56.7401 1046.09 57.2159 1045.02 57.9905C1042.42 60.3133 1039.12 57.1494 1039.12 57.1494L1038.34 52.1434L1032.85 49.2899L1029.48 40.8196L1023.06 40.9698L1019.42 38.8673L1012.59 42.8721L1008.82 40.5593L1004.99 43.3827L1002 44.424V0.000164032H1240V10.9334L1234.47 9.80204L1231.43 14.2274Z" fill="#1570EF"/>
</g>
<defs>
<clipPath id="clip0_334_9473">
<rect width="282.5" height="65.92" fill="white" transform="matrix(1 0 0 -1 0 65.96)"/>
</clipPath>
<clipPath id="clip1_334_9473">
<rect width="282.5" height="65.92" fill="white" transform="matrix(-1 0 0 -1 533 65.96)"/>
</clipPath>
<clipPath id="clip2_334_9473">
<rect width="282.5" height="65.92" fill="white" transform="matrix(1 0 0 -1 501 65.96)"/>
</clipPath>
<clipPath id="clip3_334_9473">
<rect width="282.5" height="65.92" fill="white" transform="matrix(-1 0 0 -1 1034 65.96)"/>
</clipPath>
<clipPath id="clip4_334_9473">
<rect width="238" height="66" fill="white" transform="matrix(1 0 0 -1 1002 66)"/>
</clipPath>
</defs>
</svg>
