<svg width="1440" height="66" viewBox="0 0 1440 66" fill="none" xmlns="http://www.w3.org/2000/svg">
<g clip-path="url(#clip0_334_9275)">
<path d="M275 18.45L268.81 19.6L264.68 22.6L267.2 29.48L260.9 34.53L255.62 34.41L252 40.12L245.35 42.3L243.63 47.46L243.08 55.6L234.69 64.2L228.19 62.92L221.89 64.52L217.89 59.52L212.48 60.92L206.41 63.92L193.68 62.71L184.51 63.05L179.58 55.37L174.65 55.49L169.49 53.49L165.71 56.35L160.09 55.44L159.09 58.3L155.62 60.42L153.1 64.09L145.41 62.92L134.29 63.61L120.08 62.25L108.84 63.92L95.54 63L84.42 64.92L71.12 63.74L68.48 65.92L61.38 64.2L55.87 61.2C54.8501 60.9612 53.7885 60.9634 52.7696 61.2064C51.7506 61.4494 50.8023 61.9266 50 62.6C46.9 64.89 42.54 62.6 42.54 62.6L41.63 57.6L35.32 54.05L31.19 44.3L26.38 45.79L22.02 43.73L14.22 47.63L9.75 45.33L3.71 46.92L0 44.37L3.55 43.37L8.1 40.51L12.57 42.8L20.68 38.8L25 40.92L32.53 40.77L36.53 49.23L43.05 52.08L43.97 57.08C43.97 57.08 48 60.25 51.06 57.92C52.3294 57.1429 53.7586 56.6642 55.24 56.52L59.31 58.73L67.07 61.09L69.71 58.92L83.08 60.57L94.2 58.74L107.5 59.65L118.74 57.92L133 59.31L144.12 58.62L151.22 59.16L153.55 54.92L157.22 53.39L158.22 50.53L163.84 51.44L167.63 48.58L172.79 50.53L180.79 50.76L185.72 58.44L191.63 57.21L204.01 59.21L210.09 56.11L217 54.74L221 59.74L226.1 57.42L231.46 59.92L239.86 51.32L240.4 43.18L242.12 38.02L248 35.71L251.55 29.98L256.82 30.09L261.82 26.09L260.69 19.92L266.14 15.39L272.33 14.24L275.94 9.83004L282.5 10.92L278 13.3L275 18.45Z" fill="#63A2F9"/>
<path d="M272.33 14.2101L266.14 15.3601L260.69 19.9201L261.82 26.1501L256.82 30.1501L251.55 30.0401L248 35.7101L242.09 38.0001L240.37 43.1601L239.83 51.3001L231.46 59.9201L226.13 57.4901L221 59.7901L217 54.7401L210.07 56.1701L204 59.2701L191.62 57.2701L185.71 58.5001L180.78 50.8201L172.78 50.5901L167.62 48.6401L163.83 51.5001L158.21 50.5901L157.21 53.4501L153.55 54.9201L151.18 59.1301L144.08 58.5901L133 59.3101L118.74 57.9201L107.5 59.6501L94.2 58.7401L83.08 60.5701L69.71 58.9201L67.07 61.1001L59.31 58.7401L55.24 56.5301C53.7595 56.6713 52.3302 57.1465 51.06 57.9201C47.98 60.2401 44.06 57.0801 44.06 57.0801L43.14 52.0801L36.62 49.2301L32.62 40.7701L25 40.9201L20.68 38.8201L12.57 42.8201L8.1 40.5101L3.55 43.3301L0 44.3701V9.91821e-05H282.5V10.9201L275.94 9.7901L272.33 14.2101Z" fill="#1877F2"/>
</g>
<g clip-path="url(#clip1_334_9275)">
<path d="M525.5 18.45L519.31 19.6L515.18 22.6L517.7 29.48L511.4 34.53L506.12 34.41L502.5 40.12L495.85 42.3L494.13 47.46L493.58 55.6L485.19 64.2L478.69 62.92L472.39 64.52L468.39 59.52L462.98 60.92L456.91 63.92L444.18 62.71L435.01 63.05L430.08 55.37L425.15 55.49L419.99 53.49L416.21 56.35L410.59 55.44L409.59 58.3L406.12 60.42L403.6 64.09L395.91 62.92L384.79 63.61L370.58 62.25L359.34 63.92L346.04 63L334.92 64.92L321.62 63.74L318.98 65.92L311.88 64.2L306.37 61.2C305.35 60.9612 304.289 60.9634 303.27 61.2064C302.251 61.4494 301.302 61.9266 300.5 62.6C297.4 64.89 293.04 62.6 293.04 62.6L292.13 57.6L285.82 54.05L281.69 44.3L276.88 45.79L272.52 43.73L264.72 47.63L260.25 45.33L254.21 46.92L250.5 44.37L254.05 43.37L258.6 40.51L263.07 42.8L271.18 38.8L275.5 40.92L283.03 40.77L287.03 49.23L293.55 52.08L294.47 57.08C294.47 57.08 298.5 60.25 301.56 57.92C302.829 57.1429 304.259 56.6642 305.74 56.52L309.81 58.73L317.57 61.09L320.21 58.92L333.58 60.57L344.7 58.74L358 59.65L369.24 57.92L383.5 59.31L394.62 58.62L401.72 59.16L404.05 54.92L407.72 53.39L408.72 50.53L414.34 51.44L418.13 48.58L423.29 50.53L431.29 50.76L436.22 58.44L442.13 57.21L454.51 59.21L460.59 56.11L467.5 54.74L471.5 59.74L476.6 57.42L481.96 59.92L490.36 51.32L490.9 43.18L492.62 38.02L498.5 35.71L502.05 29.98L507.32 30.09L512.32 26.09L511.19 19.92L516.64 15.39L522.83 14.24L526.44 9.83004L533 10.92L528.5 13.3L525.5 18.45Z" fill="#63A2F9"/>
<path d="M522.83 14.2101L516.64 15.3601L511.19 19.9201L512.32 26.1501L507.32 30.1501L502.05 30.0401L498.5 35.7101L492.59 38.0001L490.87 43.1601L490.33 51.3001L481.96 59.9201L476.63 57.4901L471.5 59.7901L467.5 54.7401L460.57 56.1701L454.5 59.2701L442.12 57.2701L436.21 58.5001L431.28 50.8201L423.28 50.5901L418.12 48.6401L414.33 51.5001L408.71 50.5901L407.71 53.4501L404.05 54.9201L401.68 59.1301L394.58 58.5901L383.5 59.3101L369.24 57.9201L358 59.6501L344.7 58.7401L333.58 60.5701L320.21 58.9201L317.57 61.1001L309.81 58.7401L305.74 56.5301C304.259 56.6713 302.83 57.1465 301.56 57.9201C298.48 60.2401 294.56 57.0801 294.56 57.0801L293.64 52.0801L287.12 49.2301L283.12 40.7701L275.5 40.9201L271.18 38.8201L263.07 42.8201L258.6 40.5101L254.05 43.3301L250.5 44.3701V9.91821e-05H533V10.9201L526.44 9.7901L522.83 14.2101Z" fill="#1877F2"/>
</g>
<g clip-path="url(#clip2_334_9275)">
<path d="M776 18.45L769.81 19.6L765.68 22.6L768.2 29.48L761.9 34.53L756.62 34.41L753 40.12L746.35 42.3L744.63 47.46L744.08 55.6L735.69 64.2L729.19 62.92L722.89 64.52L718.89 59.52L713.48 60.92L707.41 63.92L694.68 62.71L685.51 63.05L680.58 55.37L675.65 55.49L670.49 53.49L666.71 56.35L661.09 55.44L660.09 58.3L656.62 60.42L654.1 64.09L646.41 62.92L635.29 63.61L621.08 62.25L609.84 63.92L596.54 63L585.42 64.92L572.12 63.74L569.48 65.92L562.38 64.2L556.87 61.2C555.85 60.9612 554.789 60.9634 553.77 61.2064C552.751 61.4494 551.802 61.9266 551 62.6C547.9 64.89 543.54 62.6 543.54 62.6L542.63 57.6L536.32 54.05L532.19 44.3L527.38 45.79L523.02 43.73L515.22 47.63L510.75 45.33L504.71 46.92L501 44.37L504.55 43.37L509.1 40.51L513.57 42.8L521.68 38.8L526 40.92L533.53 40.77L537.53 49.23L544.05 52.08L544.97 57.08C544.97 57.08 549 60.25 552.06 57.92C553.329 57.1429 554.759 56.6642 556.24 56.52L560.31 58.73L568.07 61.09L570.71 58.92L584.08 60.57L595.2 58.74L608.5 59.65L619.74 57.92L634 59.31L645.12 58.62L652.22 59.16L654.55 54.92L658.22 53.39L659.22 50.53L664.84 51.44L668.63 48.58L673.79 50.53L681.79 50.76L686.72 58.44L692.63 57.21L705.01 59.21L711.09 56.11L718 54.74L722 59.74L727.1 57.42L732.46 59.92L740.86 51.32L741.4 43.18L743.12 38.02L749 35.71L752.55 29.98L757.82 30.09L762.82 26.09L761.69 19.92L767.14 15.39L773.33 14.24L776.94 9.83004L783.5 10.92L779 13.3L776 18.45Z" fill="#63A2F9"/>
<path d="M773.33 14.2101L767.14 15.3601L761.69 19.9201L762.82 26.1501L757.82 30.1501L752.55 30.0401L749 35.7101L743.09 38.0001L741.37 43.1601L740.83 51.3001L732.46 59.9201L727.13 57.4901L722 59.7901L718 54.7401L711.07 56.1701L705 59.2701L692.62 57.2701L686.71 58.5001L681.78 50.8201L673.78 50.5901L668.62 48.6401L664.83 51.5001L659.21 50.5901L658.21 53.4501L654.55 54.9201L652.18 59.1301L645.08 58.5901L634 59.3101L619.74 57.9201L608.5 59.6501L595.2 58.7401L584.08 60.5701L570.71 58.9201L568.07 61.1001L560.31 58.7401L556.24 56.5301C554.759 56.6713 553.33 57.1465 552.06 57.9201C548.98 60.2401 545.06 57.0801 545.06 57.0801L544.14 52.0801L537.62 49.2301L533.62 40.7701L526 40.9201L521.68 38.8201L513.57 42.8201L509.1 40.5101L504.55 43.3301L501 44.3701V9.91821e-05H783.5V10.9201L776.94 9.7901L773.33 14.2101Z" fill="#1877F2"/>
</g>
<g clip-path="url(#clip3_334_9275)">
<path d="M759 18.45L765.19 19.6L769.32 22.6L766.8 29.48L773.1 34.53L778.38 34.41L782 40.12L788.65 42.3L790.37 47.46L790.92 55.6L799.31 64.2L805.81 62.92L812.11 64.52L816.11 59.52L821.52 60.92L827.59 63.92L840.32 62.71L849.49 63.05L854.42 55.37L859.35 55.49L864.51 53.49L868.29 56.35L873.91 55.44L874.91 58.3L878.38 60.42L880.9 64.09L888.59 62.92L899.71 63.61L913.92 62.25L925.16 63.92L938.46 63L949.58 64.92L962.88 63.74L965.52 65.92L972.62 64.2L978.13 61.2C979.15 60.9612 980.211 60.9634 981.23 61.2064C982.249 61.4494 983.198 61.9266 984 62.6C987.1 64.89 991.46 62.6 991.46 62.6L992.37 57.6L998.68 54.05L1002.81 44.3L1007.62 45.79L1011.98 43.73L1019.78 47.63L1024.25 45.33L1030.29 46.92L1034 44.37L1030.45 43.37L1025.9 40.51L1021.43 42.8L1013.32 38.8L1009 40.92L1001.47 40.77L997.47 49.23L990.95 52.08L990.03 57.08C990.03 57.08 986 60.25 982.94 57.92C981.671 57.1429 980.241 56.6642 978.76 56.52L974.69 58.73L966.93 61.09L964.29 58.92L950.92 60.57L939.8 58.74L926.5 59.65L915.26 57.92L901 59.31L889.88 58.62L882.78 59.16L880.45 54.92L876.78 53.39L875.78 50.53L870.16 51.44L866.37 48.58L861.21 50.53L853.21 50.76L848.28 58.44L842.37 57.21L829.99 59.21L823.91 56.11L817 54.74L813 59.74L807.9 57.42L802.54 59.92L794.14 51.32L793.6 43.18L791.88 38.02L786 35.71L782.45 29.98L777.18 30.09L772.18 26.09L773.31 19.92L767.86 15.39L761.67 14.24L758.06 9.83004L751.5 10.92L756 13.3L759 18.45Z" fill="#63A2F9"/>
<path d="M761.67 14.2101L767.86 15.3601L773.31 19.9201L772.18 26.1501L777.18 30.1501L782.45 30.0401L786 35.7101L791.91 38.0001L793.63 43.1601L794.17 51.3001L802.54 59.9201L807.87 57.4901L813 59.7901L817 54.7401L823.93 56.1701L830 59.2701L842.38 57.2701L848.29 58.5001L853.22 50.8201L861.22 50.5901L866.38 48.6401L870.17 51.5001L875.79 50.5901L876.79 53.4501L880.45 54.9201L882.82 59.1301L889.92 58.5901L901 59.3101L915.26 57.9201L926.5 59.6501L939.8 58.7401L950.92 60.5701L964.29 58.9201L966.93 61.1001L974.69 58.7401L978.76 56.5301C980.241 56.6713 981.67 57.1465 982.94 57.9201C986.02 60.2401 989.94 57.0801 989.94 57.0801L990.86 52.0801L997.38 49.2301L1001.38 40.7701L1009 40.9201L1013.32 38.8201L1021.43 42.8201L1025.9 40.5101L1030.45 43.3301L1034 44.3701V9.91821e-05H751.5V10.9201L758.06 9.7901L761.67 14.2101Z" fill="#1877F2"/>
</g>
<g clip-path="url(#clip4_334_9275)">
<path d="M1009.5 18.45L1015.69 19.6L1019.82 22.6L1017.3 29.48L1023.6 34.53L1028.88 34.41L1032.5 40.12L1039.15 42.3L1040.87 47.46L1041.42 55.6L1049.81 64.2L1056.31 62.92L1062.61 64.52L1066.61 59.52L1072.02 60.92L1078.09 63.92L1090.82 62.71L1099.99 63.05L1104.92 55.37L1109.85 55.49L1115.01 53.49L1118.79 56.35L1124.41 55.44L1125.41 58.3L1128.88 60.42L1131.4 64.09L1139.09 62.92L1150.21 63.61L1164.42 62.25L1175.66 63.92L1188.96 63L1200.08 64.92L1213.38 63.74L1216.02 65.92L1223.12 64.2L1228.63 61.2C1229.65 60.9612 1230.71 60.9634 1231.73 61.2064C1232.75 61.4494 1233.7 61.9266 1234.5 62.6C1237.6 64.89 1241.96 62.6 1241.96 62.6L1242.87 57.6L1249.18 54.05L1253.31 44.3L1258.12 45.79L1262.48 43.73L1270.28 47.63L1274.75 45.33L1280.79 46.92L1284.5 44.37L1280.95 43.37L1276.4 40.51L1271.93 42.8L1263.82 38.8L1259.5 40.92L1251.97 40.77L1247.97 49.23L1241.45 52.08L1240.53 57.08C1240.53 57.08 1236.5 60.25 1233.44 57.92C1232.17 57.1429 1230.74 56.6642 1229.26 56.52L1225.19 58.73L1217.43 61.09L1214.79 58.92L1201.42 60.57L1190.3 58.74L1177 59.65L1165.76 57.92L1151.5 59.31L1140.38 58.62L1133.28 59.16L1130.95 54.92L1127.28 53.39L1126.28 50.53L1120.66 51.44L1116.87 48.58L1111.71 50.53L1103.71 50.76L1098.78 58.44L1092.87 57.21L1080.49 59.21L1074.41 56.11L1067.5 54.74L1063.5 59.74L1058.4 57.42L1053.04 59.92L1044.64 51.32L1044.1 43.18L1042.38 38.02L1036.5 35.71L1032.95 29.98L1027.68 30.09L1022.68 26.09L1023.81 19.92L1018.36 15.39L1012.17 14.24L1008.56 9.83004L1002 10.92L1006.5 13.3L1009.5 18.45Z" fill="#63A2F9"/>
<path d="M1012.17 14.2101L1018.36 15.3601L1023.81 19.9201L1022.68 26.1501L1027.68 30.1501L1032.95 30.0401L1036.5 35.7101L1042.41 38.0001L1044.13 43.1601L1044.67 51.3001L1053.04 59.9201L1058.37 57.4901L1063.5 59.7901L1067.5 54.7401L1074.43 56.1701L1080.5 59.2701L1092.88 57.2701L1098.79 58.5001L1103.72 50.8201L1111.72 50.5901L1116.88 48.6401L1120.67 51.5001L1126.29 50.5901L1127.29 53.4501L1130.95 54.9201L1133.32 59.1301L1140.42 58.5901L1151.5 59.3101L1165.76 57.9201L1177 59.6501L1190.3 58.7401L1201.42 60.5701L1214.79 58.9201L1217.43 61.1001L1225.19 58.7401L1229.26 56.5301C1230.74 56.6713 1232.17 57.1465 1233.44 57.9201C1236.52 60.2401 1240.44 57.0801 1240.44 57.0801L1241.36 52.0801L1247.88 49.2301L1251.88 40.7701L1259.5 40.9201L1263.82 38.8201L1271.93 42.8201L1276.4 40.5101L1280.95 43.3301L1284.5 44.3701V9.91821e-05H1002V10.9201L1008.56 9.7901L1012.17 14.2101Z" fill="#1877F2"/>
</g>
<g clip-path="url(#clip5_334_9275)">
<path d="M1260 18.45L1266.19 19.6L1270.32 22.6L1267.8 29.48L1274.1 34.53L1279.38 34.41L1283 40.12L1289.65 42.3L1291.37 47.46L1291.92 55.6L1300.31 64.2L1306.81 62.92L1313.11 64.52L1317.11 59.52L1322.52 60.92L1328.59 63.92L1341.32 62.71L1350.49 63.05L1355.42 55.37L1360.35 55.49L1365.51 53.49L1369.29 56.35L1374.91 55.44L1375.91 58.3L1379.38 60.42L1381.9 64.09L1389.59 62.92L1400.71 63.61L1414.92 62.25L1426.16 63.92L1439.46 63L1450.58 64.92L1463.88 63.74L1466.52 65.92L1473.62 64.2L1479.13 61.2C1480.15 60.9612 1481.21 60.9634 1482.23 61.2064C1483.25 61.4494 1484.2 61.9266 1485 62.6C1488.1 64.89 1492.46 62.6 1492.46 62.6L1493.37 57.6L1499.68 54.05L1503.81 44.3L1508.62 45.79L1512.98 43.73L1520.78 47.63L1525.25 45.33L1531.29 46.92L1535 44.37L1531.45 43.37L1526.9 40.51L1522.43 42.8L1514.32 38.8L1510 40.92L1502.47 40.77L1498.47 49.23L1491.95 52.08L1491.03 57.08C1491.03 57.08 1487 60.25 1483.94 57.92C1482.67 57.1429 1481.24 56.6642 1479.76 56.52L1475.69 58.73L1467.93 61.09L1465.29 58.92L1451.92 60.57L1440.8 58.74L1427.5 59.65L1416.26 57.92L1402 59.31L1390.88 58.62L1383.78 59.16L1381.45 54.92L1377.78 53.39L1376.78 50.53L1371.16 51.44L1367.37 48.58L1362.21 50.53L1354.21 50.76L1349.28 58.44L1343.37 57.21L1330.99 59.21L1324.91 56.11L1318 54.74L1314 59.74L1308.9 57.42L1303.54 59.92L1295.14 51.32L1294.6 43.18L1292.88 38.02L1287 35.71L1283.45 29.98L1278.18 30.09L1273.18 26.09L1274.31 19.92L1268.86 15.39L1262.67 14.24L1259.06 9.83004L1252.5 10.92L1257 13.3L1260 18.45Z" fill="#63A2F9"/>
<path d="M1262.67 14.2101L1268.86 15.3601L1274.31 19.9201L1273.18 26.1501L1278.18 30.1501L1283.45 30.0401L1287 35.7101L1292.91 38.0001L1294.63 43.1601L1295.17 51.3001L1303.54 59.9201L1308.87 57.4901L1314 59.7901L1318 54.7401L1324.93 56.1701L1331 59.2701L1343.38 57.2701L1349.29 58.5001L1354.22 50.8201L1362.22 50.5901L1367.38 48.6401L1371.17 51.5001L1376.79 50.5901L1377.79 53.4501L1381.45 54.9201L1383.82 59.1301L1390.92 58.5901L1402 59.3101L1416.26 57.9201L1427.5 59.6501L1440.8 58.7401L1451.92 60.5701L1465.29 58.9201L1467.93 61.1001L1475.69 58.7401L1479.76 56.5301C1481.24 56.6713 1482.67 57.1465 1483.94 57.9201C1487.02 60.2401 1490.94 57.0801 1490.94 57.0801L1491.86 52.0801L1498.38 49.2301L1502.38 40.7701L1510 40.9201L1514.32 38.8201L1522.43 42.8201L1526.9 40.5101L1531.45 43.3301L1535 44.3701V9.91821e-05H1252.5V10.9201L1259.06 9.7901L1262.67 14.2101Z" fill="#1877F2"/>
</g>
<defs>
<clipPath id="clip0_334_9275">
<rect width="282.5" height="65.92" fill="white" transform="matrix(1 0 0 -1 0 65.92)"/>
</clipPath>
<clipPath id="clip1_334_9275">
<rect width="282.5" height="65.92" fill="white" transform="matrix(1 0 0 -1 250.5 65.92)"/>
</clipPath>
<clipPath id="clip2_334_9275">
<rect width="282.5" height="65.92" fill="white" transform="matrix(1 0 0 -1 501 65.92)"/>
</clipPath>
<clipPath id="clip3_334_9275">
<rect width="282.5" height="65.92" fill="white" transform="matrix(-1 0 0 -1 1034 65.92)"/>
</clipPath>
<clipPath id="clip4_334_9275">
<rect width="282.5" height="65.92" fill="white" transform="matrix(-1 0 0 -1 1284.5 65.92)"/>
</clipPath>
<clipPath id="clip5_334_9275">
<rect width="282.5" height="65.92" fill="white" transform="matrix(-1 0 0 -1 1535 65.92)"/>
</clipPath>
</defs>
</svg>
