<svg width="361" height="505" viewBox="0 0 361 505" fill="none" xmlns="http://www.w3.org/2000/svg">
<g clip-path="url(#clip0_157_196)">
<path fill-rule="evenodd" clip-rule="evenodd" d="M45.9416 2.95596C45.9014 2.71756 45.8712 2.48188 45.8516 2.24616C45.8221 1.89259 45.8404 1.53632 45.8299 1.18274C45.8254 1.03274 45.8074 0.641678 45.8146 0.585428C45.8803 0.0952492 46.2759 0.0202401 46.3916 0.00684726C46.4476 -0.00118846 47.0224 -0.0654454 47.1464 0.572055C47.2986 1.35152 47.3473 2.13633 47.2935 2.90508C47.4191 3.55865 47.6339 4.20953 47.9176 4.79882C49.0463 7.14257 51.1972 7.37025 53.5276 7.34882C53.886 7.34346 54.1836 7.62471 54.2023 7.98096C54.2211 8.33989 53.9543 8.6506 53.5975 8.68274C52.2949 8.80864 49.9838 9.85329 49.1848 10.9408C49.0177 11.1685 48.9204 11.7176 48.7919 12.256C48.6124 13.0033 48.3989 13.7426 48.1597 14.0533C48.1238 14.1015 47.6875 14.5944 47.5573 14.6667C47.2445 14.8381 46.994 14.739 46.8518 14.6479C46.7096 14.5569 46.5486 14.3774 46.4843 14.0801C46.4171 13.7694 46.4738 13.1318 46.4634 12.9952C46.4254 12.4997 46.3263 11.5274 46.124 10.6917C46.015 10.2417 45.8988 9.82649 45.7064 9.62024C44.9945 8.85685 43.8561 8.96936 42.8974 9.09525C42.7873 9.10865 42.6772 9.12473 42.5674 9.13812C42.1771 9.2533 41.7628 9.339 41.3248 9.38989C40.6635 9.46757 40.5547 8.85953 40.5488 8.81935C40.5365 8.73096 40.4907 8.27561 40.9892 8.09347C41.0436 8.07472 41.4448 7.98632 41.5994 7.9515C41.8147 7.90328 42.0325 7.8658 42.2511 7.83098C44.5088 7.12919 45.7351 5.15774 45.9416 2.95596ZM46.7165 5.3908C47.5688 7.1533 48.8623 8.00507 50.3955 8.39079H50.3953C49.438 8.89168 48.5671 9.51848 48.1056 10.1479C47.9304 10.3863 47.7697 10.8658 47.6248 11.4042C47.5463 10.9033 47.4403 10.3702 47.3002 9.91488C47.1408 9.39524 46.9262 8.96402 46.6868 8.70687C46.2245 8.21134 45.6443 7.93544 45.0204 7.79883C45.7672 7.13723 46.3335 6.31223 46.7165 5.3908Z" fill="#80B5FF"/>
</g>
<g clip-path="url(#clip1_157_196)">
<path fill-rule="evenodd" clip-rule="evenodd" d="M6.73382 335.35C6.68829 335.08 6.65398 334.813 6.63182 334.546C6.59843 334.145 6.61908 333.741 6.60724 333.34C6.60208 333.17 6.58173 332.727 6.58993 332.664C6.66431 332.108 7.11268 332.023 7.24382 332.008C7.30727 331.999 7.95873 331.926 8.09928 332.648C8.27171 333.532 8.32697 334.421 8.26595 335.292C8.40832 336.033 8.65179 336.771 8.97327 337.439C10.2525 340.095 12.6902 340.353 15.3313 340.329C15.7374 340.323 16.0747 340.641 16.096 341.045C16.1172 341.452 15.8149 341.804 15.4105 341.84C13.9342 341.983 11.315 343.167 10.4095 344.4C10.22 344.658 10.1098 345.28 9.96412 345.89C9.76073 346.737 9.51879 347.575 9.2477 347.927C9.20702 347.982 8.7125 348.54 8.56496 348.622C8.21039 348.817 7.92656 348.704 7.76536 348.601C7.60417 348.498 7.42172 348.294 7.34886 347.957C7.27266 347.605 7.33702 346.883 7.32518 346.728C7.28207 346.166 7.16976 345.064 6.94056 344.117C6.81701 343.607 6.68525 343.137 6.46729 342.903C5.6604 342.038 4.37022 342.165 3.28374 342.308C3.15897 342.323 3.0342 342.341 2.90974 342.357C2.46743 342.487 1.9978 342.584 1.50146 342.642C0.75194 342.73 0.628699 342.041 0.62202 341.995C0.608056 341.895 0.556139 341.379 1.12109 341.173C1.18271 341.151 1.63747 341.051 1.81263 341.012C2.0567 340.957 2.3035 340.915 2.55121 340.875C5.11001 340.08 6.49977 337.845 6.73382 335.35ZM7.61206 338.11C8.57802 340.107 10.044 341.072 11.7816 341.51H11.7813C10.6963 342.077 9.70942 342.788 9.18637 343.501C8.98783 343.771 8.8057 344.315 8.64147 344.925C8.55252 344.357 8.43231 343.753 8.27354 343.237C8.09292 342.648 7.84975 342.159 7.57835 341.868C7.05439 341.306 6.39685 340.994 5.68983 340.839C6.53619 340.089 7.17795 339.154 7.61206 338.11Z" fill="#80B5FF"/>
</g>
<path fill-rule="evenodd" clip-rule="evenodd" d="M318.312 492.637C325.328 495.988 332.73 498.895 338.425 504.361C338.765 504.685 339.303 504.676 339.631 504.338C339.955 503.997 339.946 503.459 339.607 503.132C333.779 497.539 326.226 494.527 319.046 491.099C318.623 490.895 318.112 491.076 317.91 491.501C317.705 491.925 317.888 492.433 318.312 492.637Z" fill="#80B5FF"/>
<path fill-rule="evenodd" clip-rule="evenodd" d="M322.291 482.053C325.413 481.01 328.51 480.568 331.765 481.12C332.23 481.199 332.669 480.886 332.75 480.423C332.827 479.959 332.513 479.519 332.051 479.441C328.511 478.84 325.147 479.305 321.753 480.438C321.305 480.586 321.063 481.068 321.213 481.515C321.361 481.961 321.846 482.203 322.291 482.053Z" fill="#80B5FF"/>
<path fill-rule="evenodd" clip-rule="evenodd" d="M326.096 457.086C328.668 454.066 331.883 452.242 335.823 451.651C336.287 451.581 336.609 451.147 336.537 450.681C336.469 450.217 336.034 449.896 335.57 449.966C331.209 450.621 327.646 452.637 324.799 455.981C324.493 456.339 324.539 456.878 324.895 457.182C325.255 457.488 325.794 457.445 326.096 457.086Z" fill="#80B5FF"/>
<path fill-rule="evenodd" clip-rule="evenodd" d="M293.273 436.709C292.351 437.148 291.467 437.671 290.642 438.279C290.274 438.55 289.568 439.158 289.216 439.794C288.838 440.47 288.811 441.172 289.287 441.76C289.919 442.542 290.591 442.791 291.207 442.766C291.801 442.743 292.392 442.439 292.916 441.912C293.918 440.903 294.681 439.017 294.916 437.851C295.857 437.476 296.833 437.19 297.829 436.993C305.245 435.528 312.842 440.699 316.522 449.51C317.809 452.595 316.914 457.459 315.35 462.439C312.915 470.194 308.733 478.199 307.584 480.579C307.302 481.167 307.2 481.545 307.199 481.63C307.19 482.042 307.407 482.248 307.572 482.363C307.813 482.527 308.043 482.571 308.25 482.559C308.531 482.541 308.812 482.415 309.044 482.129C309.171 481.971 309.295 481.727 309.408 481.459C309.485 481.272 309.538 481.053 309.634 480.938C310.256 480.2 310.919 479.505 311.578 478.8C313.787 476.43 316.197 474.361 318.743 472.357C326.83 465.987 334.986 459.082 344.971 455.943C345.419 455.802 345.671 455.324 345.528 454.875C345.389 454.427 344.911 454.177 344.46 454.317C334.275 457.517 325.937 464.522 317.689 471.018C315.524 472.723 313.454 474.475 311.518 476.41C313.459 472.322 315.986 466.592 317.497 461.197C318.841 456.399 319.345 451.852 318.093 448.854C314.062 439.201 305.62 433.715 297.499 435.322C296.63 435.494 295.771 435.727 294.936 436.022C294.322 428.754 288.464 423.326 281.115 423.376C280.643 423.378 280.265 423.763 280.268 424.233C280.273 424.704 280.656 425.083 281.128 425.08C287.751 425.035 292.982 430.069 293.273 436.709ZM292.85 438.861C292.439 439.103 292.04 439.368 291.651 439.651C291.445 439.804 291.069 440.109 290.813 440.456C290.754 440.538 290.687 440.677 290.658 440.743C290.825 440.945 290.97 441.071 291.138 441.064C291.347 441.056 291.523 440.896 291.707 440.711C292.168 440.248 292.568 439.539 292.85 438.861Z" fill="#80B5FF"/>
<g clip-path="url(#clip2_157_196)">
<path fill-rule="evenodd" clip-rule="evenodd" d="M233.149 468.562C233.115 468.355 233.088 468.151 233.071 467.947C233.046 467.64 233.062 467.331 233.053 467.025C233.049 466.895 233.033 466.556 233.039 466.507C233.096 466.083 233.439 466.018 233.539 466.006C233.588 465.999 234.086 465.943 234.194 466.496C234.325 467.171 234.368 467.851 234.321 468.518C234.43 469.084 234.616 469.648 234.862 470.159C235.84 472.19 237.704 472.388 239.724 472.369C240.035 472.364 240.292 472.608 240.309 472.917C240.325 473.228 240.094 473.497 239.785 473.525C238.656 473.634 236.653 474.54 235.96 475.482C235.815 475.679 235.731 476.155 235.62 476.622C235.464 477.27 235.279 477.91 235.072 478.18C235.041 478.221 234.662 478.648 234.55 478.711C234.279 478.86 234.061 478.774 233.938 478.695C233.815 478.616 233.675 478.46 233.62 478.203C233.561 477.933 233.611 477.381 233.602 477.263C233.569 476.833 233.483 475.99 233.307 475.266C233.213 474.876 233.112 474.516 232.946 474.338C232.329 473.676 231.342 473.773 230.511 473.883C230.416 473.894 230.32 473.908 230.225 473.92C229.887 474.02 229.528 474.094 229.148 474.138C228.575 474.205 228.481 473.678 228.476 473.643C228.465 473.567 228.425 473.172 228.857 473.014C228.904 472.998 229.252 472.921 229.386 472.891C229.573 472.849 229.761 472.817 229.951 472.787C231.908 472.179 232.97 470.47 233.149 468.562ZM233.821 470.672C234.56 472.2 235.681 472.938 237.009 473.272H237.009C236.18 473.706 235.425 474.249 235.025 474.795C234.873 475.001 234.734 475.417 234.608 475.884C234.54 475.449 234.448 474.988 234.327 474.593C234.189 474.143 234.003 473.769 233.795 473.546C233.395 473.116 232.892 472.877 232.351 472.759C232.998 472.186 233.489 471.471 233.821 470.672Z" fill="#80B5FF"/>
</g>
<path fill-rule="evenodd" clip-rule="evenodd" d="M172.834 244.599C174.301 254.644 183.315 259.524 192.724 260.633C192.885 260.652 193.002 260.799 192.982 260.961C192.963 261.122 192.816 261.238 192.655 261.219C182.982 260.079 173.759 255.011 172.25 244.684C172.226 244.523 172.338 244.374 172.5 244.35C172.66 244.326 172.81 244.438 172.834 244.599Z" fill="#80B5FF"/>
<path fill-rule="evenodd" clip-rule="evenodd" d="M192.718 260.822C192.189 260.435 191.52 259.957 191.446 259.901C189.431 258.371 187.761 256.61 186.292 254.545C186.172 254.377 186.212 254.144 186.379 254.024C186.547 253.905 186.78 253.944 186.9 254.112C188.324 256.115 189.943 257.823 191.897 259.307C192.011 259.394 193.516 260.467 193.804 260.707C193.922 260.805 193.959 260.897 193.966 260.92C194.005 261.038 193.982 261.132 193.95 261.199C193.913 261.276 193.822 261.387 193.645 261.443C193.459 261.501 193.047 261.528 192.944 261.543C191.383 261.774 189.62 261.897 188.016 262.341C186.485 262.764 185.097 263.481 184.207 264.918C184.099 265.093 183.869 265.147 183.693 265.039C183.518 264.931 183.465 264.7 183.573 264.525C184.569 262.919 186.106 262.095 187.816 261.622C189.411 261.181 191.158 261.047 192.718 260.822Z" fill="#80B5FF"/>
<defs>
<clipPath id="clip0_157_196">
<rect width="15" height="15" fill="white" transform="translate(40)"/>
</clipPath>
<clipPath id="clip1_157_196">
<rect width="17" height="17" fill="white" transform="translate(0 332)"/>
</clipPath>
<clipPath id="clip2_157_196">
<rect width="13" height="13" fill="white" transform="translate(228 466)"/>
</clipPath>
</defs>
</svg>
