<svg width="1151" height="467" viewBox="0 0 1151 467" fill="none" xmlns="http://www.w3.org/2000/svg">
<path fill-rule="evenodd" clip-rule="evenodd" d="M315.694 271.102C319.39 296.401 342.09 308.689 365.787 311.483C366.194 311.532 366.487 311.901 366.438 312.308C366.389 312.715 366.02 313.008 365.613 312.959C341.252 310.088 318.023 297.323 314.224 271.315C314.164 270.91 314.445 270.533 314.852 270.473C315.257 270.413 315.634 270.695 315.694 271.102Z" fill="#80B5FF"/>
<path fill-rule="evenodd" clip-rule="evenodd" d="M365.772 311.959C364.44 310.985 362.755 309.781 362.568 309.639C357.494 305.786 353.289 301.351 349.588 296.149C349.287 295.727 349.386 295.14 349.808 294.839C350.23 294.538 350.818 294.637 351.119 295.059C354.707 300.105 358.783 304.406 363.705 308.144C363.992 308.362 367.782 311.066 368.507 311.67C368.806 311.917 368.898 312.149 368.915 312.206C369.014 312.504 368.955 312.739 368.874 312.91C368.782 313.102 368.552 313.381 368.106 313.524C367.64 313.67 366.601 313.737 366.341 313.775C362.409 314.358 357.97 314.666 353.929 315.784C350.076 316.851 346.58 318.657 344.338 322.276C344.066 322.717 343.485 322.852 343.044 322.579C342.603 322.307 342.468 321.726 342.741 321.285C345.248 317.24 349.121 315.166 353.427 313.974C357.444 312.862 361.843 312.526 365.772 311.959Z" fill="#80B5FF"/>
<path fill-rule="evenodd" clip-rule="evenodd" d="M1010.55 445.617C1022.48 451.31 1035.05 456.25 1044.73 465.537C1045.31 466.088 1046.22 466.073 1046.78 465.497C1047.33 464.919 1047.31 464.005 1046.74 463.449C1036.83 453.946 1024 448.827 1011.8 443.003C1011.08 442.656 1010.21 442.964 1009.87 443.686C1009.52 444.406 1009.83 445.269 1010.55 445.617Z" fill="#80B5FF"/>
<path fill-rule="evenodd" clip-rule="evenodd" d="M1017.31 427.633C1022.62 425.861 1027.88 425.109 1033.41 426.047C1034.2 426.182 1034.95 425.65 1035.09 424.864C1035.22 424.075 1034.68 423.326 1033.9 423.194C1027.88 422.173 1022.17 422.962 1016.4 424.888C1015.64 425.14 1015.23 425.96 1015.48 426.719C1015.73 427.476 1016.56 427.888 1017.31 427.633Z" fill="#80B5FF"/>
<path fill-rule="evenodd" clip-rule="evenodd" d="M1023.78 385.21C1028.15 380.078 1033.61 376.979 1040.31 375.974C1041.1 375.856 1041.64 375.118 1041.52 374.327C1041.4 373.538 1040.67 372.993 1039.88 373.111C1032.47 374.226 1026.41 377.651 1021.58 383.333C1021.06 383.94 1021.13 384.857 1021.74 385.374C1022.35 385.893 1023.27 385.82 1023.78 385.21Z" fill="#80B5FF"/>
<path fill-rule="evenodd" clip-rule="evenodd" d="M968.009 350.587C966.443 351.333 964.941 352.221 963.538 353.254C962.914 353.714 961.714 354.749 961.115 355.829C960.473 356.978 960.428 358.169 961.236 359.17C962.309 360.498 963.452 360.922 964.499 360.879C965.507 360.839 966.512 360.323 967.403 359.426C969.104 357.712 970.4 354.509 970.8 352.528C972.399 351.889 974.058 351.403 975.749 351.069C988.351 348.58 1001.26 357.367 1007.51 372.338C1009.7 377.579 1008.18 385.844 1005.52 394.306C1001.38 407.482 994.278 421.084 992.326 425.128C991.846 426.127 991.672 426.77 991.671 426.914C991.655 427.615 992.025 427.964 992.305 428.16C992.714 428.438 993.105 428.512 993.457 428.492C993.934 428.462 994.411 428.247 994.806 427.762C995.022 427.494 995.233 427.079 995.425 426.623C995.554 426.305 995.645 425.934 995.809 425.738C996.865 424.484 997.992 423.303 999.112 422.106C1002.87 418.078 1006.96 414.563 1011.29 411.157C1025.03 400.334 1038.88 388.601 1055.85 383.267C1056.61 383.028 1057.04 382.216 1056.8 381.453C1056.56 380.692 1055.75 380.268 1054.98 380.505C1037.68 385.943 1023.51 397.845 1009.49 408.882C1005.82 411.78 1002.3 414.756 999.01 418.044C1002.31 411.098 1006.6 401.362 1009.17 392.195C1011.45 384.043 1012.31 376.317 1010.18 371.222C1003.33 354.822 988.989 345.5 975.189 348.229C973.712 348.522 972.253 348.917 970.835 349.42C969.791 337.07 959.838 327.847 947.35 327.932C946.549 327.936 945.907 328.59 945.911 329.388C945.92 330.188 946.571 330.832 947.372 330.827C958.625 330.751 967.513 339.305 968.009 350.587ZM967.29 354.242C966.591 354.655 965.914 355.104 965.254 355.586C964.902 355.846 964.264 356.363 963.829 356.953C963.728 357.092 963.615 357.33 963.566 357.441C963.85 357.784 964.096 357.998 964.381 357.986C964.736 357.972 965.036 357.7 965.348 357.387C966.132 356.6 966.811 355.395 967.29 354.242Z" fill="#80B5FF"/>
<path fill-rule="evenodd" clip-rule="evenodd" d="M9.90268 257.927C9.83572 257.529 9.78527 257.136 9.75268 256.744C9.70357 256.154 9.73393 255.561 9.71652 254.971C9.70893 254.721 9.67902 254.069 9.69107 253.976C9.80045 253.159 10.4598 253.034 10.6527 253.011C10.746 252.998 11.704 252.891 11.9107 253.953C12.1643 255.253 12.2455 256.561 12.1558 257.842C12.3652 258.931 12.7232 260.016 13.196 260.998C15.0772 264.904 18.662 265.284 22.546 265.248C23.1433 265.239 23.6393 265.708 23.6706 266.302C23.7018 266.9 23.2572 267.418 22.6625 267.471C20.4915 267.681 16.6397 269.422 15.308 271.235C15.0295 271.614 14.8674 272.529 14.6531 273.427C14.354 274.672 13.9982 275.904 13.5996 276.422C13.5397 276.503 12.8125 277.324 12.5955 277.445C12.0741 277.73 11.6567 277.565 11.4196 277.413C11.1826 277.261 10.9143 276.962 10.8071 276.467C10.6951 275.949 10.7897 274.886 10.7723 274.659C10.7089 273.833 10.5438 272.212 10.2067 270.819C10.025 270.069 9.83126 269.378 9.51072 269.034C8.32411 267.761 6.42679 267.949 4.82902 268.159C4.64554 268.181 4.46206 268.208 4.27903 268.23C3.62858 268.422 2.93794 268.565 2.20803 268.65C1.10579 268.779 0.924557 267.766 0.914735 267.699C0.8942 267.552 0.817852 266.793 1.64866 266.489C1.73928 266.458 2.40804 266.311 2.66563 266.253C3.02456 266.172 3.38749 266.11 3.75178 266.052C7.51473 264.882 9.55848 261.596 9.90268 257.927ZM11.1942 261.985C12.6147 264.922 14.7705 266.342 17.3259 266.985H17.3255C15.7299 267.819 14.2786 268.864 13.5094 269.913C13.2174 270.311 12.9496 271.11 12.708 272.007C12.5772 271.172 12.4005 270.284 12.167 269.525C11.9014 268.659 11.5437 267.94 11.1446 267.511C10.3741 266.686 9.40713 266.226 8.3674 265.998C9.61204 264.895 10.5558 263.52 11.1942 261.985Z" fill="#80B5FF"/>
<g clip-path="url(#clip0_156_171)">
<path fill-rule="evenodd" clip-rule="evenodd" d="M316.149 392.562C316.115 392.355 316.088 392.151 316.071 391.947C316.046 391.64 316.062 391.331 316.053 391.025C316.049 390.895 316.033 390.556 316.039 390.507C316.096 390.083 316.439 390.018 316.539 390.006C316.588 389.999 317.086 389.943 317.194 390.496C317.325 391.171 317.368 391.851 317.321 392.518C317.43 393.084 317.616 393.648 317.862 394.159C318.84 396.19 320.704 396.388 322.724 396.369C323.035 396.364 323.292 396.608 323.309 396.917C323.325 397.228 323.094 397.497 322.785 397.525C321.656 397.634 319.653 398.539 318.96 399.482C318.815 399.679 318.731 400.155 318.62 400.622C318.464 401.269 318.279 401.91 318.072 402.179C318.041 402.221 317.662 402.648 317.55 402.711C317.279 402.86 317.061 402.774 316.938 402.695C316.815 402.616 316.675 402.46 316.62 402.203C316.561 401.933 316.611 401.381 316.602 401.263C316.569 400.833 316.483 399.99 316.307 399.266C316.213 398.876 316.112 398.516 315.946 398.338C315.329 397.676 314.342 397.773 313.511 397.883C313.416 397.894 313.32 397.908 313.225 397.92C312.887 398.019 312.528 398.094 312.148 398.138C311.575 398.205 311.481 397.678 311.476 397.643C311.465 397.567 311.425 397.172 311.857 397.014C311.904 396.998 312.252 396.921 312.386 396.891C312.573 396.849 312.761 396.817 312.951 396.787C314.908 396.179 315.97 394.47 316.149 392.562ZM316.821 394.672C317.56 396.199 318.681 396.938 320.009 397.272H320.009C319.18 397.706 318.425 398.249 318.025 398.795C317.873 399.001 317.734 399.417 317.608 399.884C317.54 399.449 317.448 398.988 317.327 398.593C317.189 398.143 317.003 397.769 316.795 397.546C316.395 397.116 315.892 396.877 315.351 396.759C315.998 396.186 316.489 395.471 316.821 394.672Z" fill="#80B5FF"/>
</g>
<path fill-rule="evenodd" clip-rule="evenodd" d="M689.903 394.927C689.836 394.529 689.785 394.136 689.753 393.744C689.704 393.154 689.734 392.561 689.717 391.971C689.709 391.721 689.679 391.069 689.691 390.976C689.8 390.159 690.46 390.034 690.653 390.011C690.746 389.998 691.704 389.891 691.911 390.953C692.164 392.253 692.246 393.561 692.156 394.842C692.365 395.931 692.723 397.016 693.196 397.998C695.077 401.904 698.662 402.284 702.546 402.248C703.143 402.239 703.639 402.708 703.671 403.302C703.702 403.9 703.257 404.418 702.663 404.471C700.492 404.681 696.64 406.422 695.308 408.235C695.029 408.614 694.867 409.529 694.653 410.427C694.354 411.672 693.998 412.904 693.6 413.422C693.54 413.503 692.812 414.324 692.596 414.445C692.074 414.73 691.657 414.565 691.42 414.413C691.183 414.261 690.914 413.962 690.807 413.467C690.695 412.949 690.79 411.886 690.772 411.659C690.709 410.833 690.544 409.212 690.207 407.819C690.025 407.069 689.831 406.378 689.511 406.034C688.324 404.761 686.427 404.949 684.829 405.159C684.646 405.181 684.462 405.208 684.279 405.23C683.629 405.422 682.938 405.565 682.208 405.65C681.106 405.779 680.925 404.766 680.915 404.699C680.894 404.552 680.818 403.793 681.649 403.489C681.739 403.458 682.408 403.311 682.666 403.253C683.025 403.172 683.387 403.11 683.752 403.052C687.515 401.882 689.558 398.596 689.903 394.927ZM691.194 398.985C692.615 401.922 694.771 403.342 697.326 403.985H697.325C695.73 404.819 694.279 405.864 693.509 406.913C693.217 407.311 692.95 408.11 692.708 409.007C692.577 408.172 692.4 407.284 692.167 406.525C691.901 405.659 691.544 404.94 691.145 404.511C690.374 403.686 689.407 403.226 688.367 402.998C689.612 401.895 690.556 400.52 691.194 398.985Z" fill="#80B5FF"/>
<path fill-rule="evenodd" clip-rule="evenodd" d="M1135.9 19.9266C1135.84 19.5293 1135.79 19.1365 1135.75 18.7436C1135.7 18.1543 1135.73 17.5605 1135.72 16.9713C1135.71 16.7213 1135.68 16.0695 1135.69 15.9757C1135.8 15.1588 1136.46 15.0338 1136.65 15.0114C1136.75 14.998 1137.7 14.8909 1137.91 15.9534C1138.16 17.2526 1138.25 18.5606 1138.16 19.8418C1138.37 20.9311 1138.72 22.0159 1139.2 22.998C1141.08 26.9043 1144.66 27.2838 1148.55 27.2481C1149.14 27.2391 1149.64 27.7079 1149.67 28.3016C1149.7 28.8998 1149.26 29.4177 1148.66 29.4713C1146.49 29.6811 1142.64 31.4222 1141.31 33.2347C1141.03 33.6141 1140.87 34.5293 1140.65 35.4267C1140.35 36.6722 1140 37.9043 1139.6 38.4222C1139.54 38.5025 1138.81 39.324 1138.6 39.4445C1138.07 39.7302 1137.66 39.565 1137.42 39.4132C1137.18 39.2614 1136.91 38.9623 1136.81 38.4668C1136.7 37.9489 1136.79 36.8864 1136.77 36.6587C1136.71 35.8329 1136.54 34.2123 1136.21 32.8195C1136.03 32.0695 1135.83 31.3775 1135.51 31.0338C1134.32 29.7614 1132.43 29.949 1130.83 30.1588C1130.65 30.1811 1130.46 30.2079 1130.28 30.2302C1129.63 30.4222 1128.94 30.565 1128.21 30.6498C1127.11 30.7793 1126.92 29.7659 1126.91 29.6989C1126.89 29.5516 1126.82 28.7927 1127.65 28.4891C1127.74 28.4579 1128.41 28.3106 1128.67 28.2525C1129.02 28.1722 1129.39 28.1097 1129.75 28.0516C1133.51 26.882 1135.56 23.5963 1135.9 19.9266ZM1137.19 23.9847C1138.61 26.9222 1140.77 28.3418 1143.33 28.9847H1143.33C1141.73 29.8195 1140.28 30.8642 1139.51 31.9133C1139.22 32.3106 1138.95 33.1097 1138.71 34.007C1138.58 33.1722 1138.4 32.2837 1138.17 31.5248C1137.9 30.6587 1137.54 29.94 1137.14 29.5115C1136.37 28.6856 1135.41 28.2258 1134.37 27.9981C1135.61 26.8954 1136.56 25.5204 1137.19 23.9847Z" fill="#80B5FF"/>
<g clip-path="url(#clip1_156_171)">
<path fill-rule="evenodd" clip-rule="evenodd" d="M113.942 2.95596C113.901 2.71756 113.871 2.48188 113.852 2.24616C113.822 1.89259 113.84 1.53632 113.83 1.18274C113.825 1.03274 113.807 0.641678 113.815 0.585428C113.88 0.0952492 114.276 0.0202401 114.392 0.00684726C114.448 -0.00118846 115.022 -0.0654454 115.146 0.572055C115.299 1.35152 115.347 2.13633 115.293 2.90508C115.419 3.55865 115.634 4.20953 115.918 4.79882C117.046 7.14257 119.197 7.37025 121.528 7.34882C121.886 7.34346 122.184 7.62471 122.202 7.98096C122.221 8.33989 121.954 8.6506 121.598 8.68274C120.295 8.80864 117.984 9.85329 117.185 10.9408C117.018 11.1685 116.92 11.7176 116.792 12.256C116.612 13.0033 116.399 13.7426 116.16 14.0533C116.124 14.1015 115.687 14.5944 115.557 14.6667C115.244 14.8381 114.994 14.739 114.852 14.6479C114.71 14.5569 114.549 14.3774 114.484 14.0801C114.417 13.7694 114.474 13.1318 114.463 12.9952C114.425 12.4997 114.326 11.5274 114.124 10.6917C114.015 10.2417 113.899 9.82649 113.706 9.62024C112.994 8.85685 111.856 8.96936 110.897 9.09525C110.787 9.10865 110.677 9.12473 110.567 9.13812C110.177 9.2533 109.763 9.339 109.325 9.38989C108.663 9.46757 108.555 8.85953 108.549 8.81935C108.537 8.73096 108.491 8.27561 108.989 8.09347C109.044 8.07472 109.445 7.98632 109.599 7.9515C109.815 7.90328 110.032 7.8658 110.251 7.83098C112.509 7.12919 113.735 5.15774 113.942 2.95596ZM114.717 5.3908C115.569 7.1533 116.862 8.00507 118.396 8.39079H118.395C117.438 8.89168 116.567 9.51848 116.106 10.1479C115.93 10.3863 115.77 10.8658 115.625 11.4042C115.546 10.9033 115.44 10.3702 115.3 9.91488C115.141 9.39524 114.926 8.96402 114.687 8.70687C114.224 8.21134 113.644 7.93544 113.02 7.79883C113.767 7.13723 114.333 6.31223 114.717 5.3908Z" fill="#80B5FF"/>
</g>
<defs>
<clipPath id="clip0_156_171">
<rect width="13" height="13" fill="white" transform="translate(311 390)"/>
</clipPath>
<clipPath id="clip1_156_171">
<rect width="15" height="15" fill="white" transform="translate(108)"/>
</clipPath>
</defs>
</svg>
