<svg width="26" height="26" viewBox="0 0 26 26" fill="none" xmlns="http://www.w3.org/2000/svg">
<circle cx="13" cy="13" r="12" fill="white" stroke="#ECECEC"/>
<g clip-path="url(#clip0_525_2668)">
<path d="M19.2034 16.4301C18.9538 17.0066 18.6585 17.5372 18.3163 18.0251C17.8498 18.6901 17.4679 19.1505 17.1735 19.4061C16.7172 19.8258 16.2284 20.0407 15.7049 20.0529C15.329 20.0529 14.8758 19.9459 14.3482 19.729C13.8189 19.5131 13.3325 19.4061 12.8877 19.4061C12.4213 19.4061 11.921 19.5131 11.3859 19.729C10.8499 19.9459 10.4182 20.059 10.0881 20.0702C9.5861 20.0916 9.08572 19.8706 8.58626 19.4061C8.26747 19.1281 7.86873 18.6514 7.39106 17.9762C6.87856 17.2551 6.45721 16.4189 6.12712 15.4656C5.77361 14.4359 5.59639 13.4388 5.59639 12.4735C5.59639 11.3677 5.83533 10.414 6.31391 9.61481C6.69004 8.97286 7.19042 8.46646 7.81669 8.09472C8.44296 7.72297 9.11964 7.53353 9.84836 7.52141C10.2471 7.52141 10.77 7.64475 11.4198 7.88715C12.0677 8.13036 12.4838 8.2537 12.6662 8.2537C12.8026 8.2537 13.2648 8.10948 14.0483 7.82197C14.7892 7.55533 15.4146 7.44492 15.9269 7.48841C17.3151 7.60045 18.358 8.14768 19.0516 9.13357C17.8101 9.88583 17.1959 10.9395 17.2081 12.2911C17.2193 13.3439 17.6013 14.22 18.3519 14.9156C18.6921 15.2385 19.072 15.488 19.4946 15.6652C19.403 15.9311 19.3062 16.1857 19.2034 16.4301ZM16.0196 3.90171C16.0196 4.72689 15.7181 5.49737 15.1172 6.21051C14.392 7.0583 13.5149 7.5482 12.5637 7.47089C12.5516 7.3719 12.5446 7.2677 12.5446 7.15822C12.5446 6.36604 12.8895 5.51825 13.5019 4.82507C13.8076 4.4741 14.1965 4.18227 14.668 3.94947C15.1386 3.72015 15.5837 3.59333 16.0023 3.57161C16.0145 3.68193 16.0196 3.79225 16.0196 3.90169V3.90171Z" fill="#292D32"/>
</g>
<defs>
<clipPath id="clip0_525_2668">
<rect width="18" height="18" fill="white" transform="translate(3.57143 3.57143)"/>
</clipPath>
</defs>
</svg>
