<svg width="29" height="28" viewBox="0 0 29 28" fill="none" xmlns="http://www.w3.org/2000/svg">
<circle cx="14.7027" cy="14" r="14" fill="#EDF0F4"/>
<path d="M18.036 8.33333H11.3694C9.36937 8.33333 8.03603 9.33333 8.03603 11.6667V16.3333C8.03603 18.6667 9.36937 19.6667 11.3694 19.6667H18.036C20.036 19.6667 21.3694 18.6667 21.3694 16.3333V11.6667C21.3694 9.33333 20.036 8.33333 18.036 8.33333ZM18.3494 12.3933L16.2627 14.06C15.8227 14.4133 15.2627 14.5867 14.7027 14.5867C14.1427 14.5867 13.576 14.4133 13.1427 14.06L11.056 12.3933C10.8427 12.22 10.8094 11.9 10.976 11.6867C11.1494 11.4733 11.4627 11.4333 11.676 11.6067L13.7627 13.2733C14.2694 13.68 15.1294 13.68 15.636 13.2733L17.7227 11.6067C17.936 11.4333 18.256 11.4667 18.4227 11.6867C18.596 11.9 18.5627 12.22 18.3494 12.3933Z" fill="#1877F2"/>
</svg>
