<svg width="25" height="24" viewBox="0 0 25 24" fill="none" xmlns="http://www.w3.org/2000/svg">
<g clip-path="url(#clip0_525_3430)">
<path d="M24.6667 12C24.6667 5.37258 19.2941 0 12.6667 0C6.03924 0 0.666656 5.37258 0.666656 12C0.666656 17.9895 5.05486 22.954 10.7917 23.8542V15.4688H7.74478V12H10.7917V9.35625C10.7917 6.34875 12.5832 4.6875 15.3242 4.6875C16.6367 4.6875 18.0104 4.92188 18.0104 4.92188V7.875H16.4973C15.0067 7.875 14.5417 8.80008 14.5417 9.75V12H17.8698L17.3377 15.4688H14.5417V23.8542C20.2785 22.954 24.6667 17.9895 24.6667 12Z" fill="#1877F2"/>
<path d="M17.3377 15.4688L17.8698 12H14.5417V9.75C14.5417 8.80102 15.0067 7.875 16.4973 7.875H18.0104V4.92188C18.0104 4.92188 16.6372 4.6875 15.3242 4.6875C12.5832 4.6875 10.7917 6.34875 10.7917 9.35625V12H7.74478V15.4688H10.7917V23.8542C12.0341 24.0486 13.2992 24.0486 14.5417 23.8542V15.4688H17.3377Z" fill="white"/>
</g>
<defs>
<clipPath id="clip0_525_3430">
<rect width="24" height="24" fill="white" transform="translate(0.666656)"/>
</clipPath>
</defs>
</svg>
