<svg width="37" height="37" viewBox="0 0 37 37" fill="none" xmlns="http://www.w3.org/2000/svg">
<path d="M18.4288 0.000349913C14.839 0.0450791 11.3425 1.15052 8.37943 3.17754C5.41632 5.20455 3.11888 8.06266 1.77606 11.3922C0.433245 14.7218 0.10509 18.3741 0.83286 21.8898C1.56063 25.4054 3.31177 28.6273 5.86608 31.15C8.42039 33.6728 11.6637 35.3839 15.188 36.0679C18.7124 36.7519 22.3603 36.3782 25.6728 34.994C28.9853 33.6098 31.8144 31.2769 33.8044 28.2887C35.7943 25.3005 36.856 21.7905 36.8561 18.2003C36.8256 13.3432 34.8671 8.69714 31.4113 5.28404C27.9556 1.87094 23.2857 -0.0296537 18.4288 0.000349913Z" fill="#00EDBE"/>
<path d="M25.7116 11.2179C25.6622 10.3278 25.8842 9.44335 26.3494 8.67676H11.495C11.3619 8.6763 11.23 8.70148 11.1068 8.75088C10.9836 8.80028 10.8716 8.87292 10.7771 8.96466C10.6826 9.05641 10.6076 9.16545 10.5562 9.28557C10.5048 9.40569 10.4781 9.53454 10.4776 9.66475V12.7704C10.4781 12.9006 10.5048 13.0295 10.5562 13.1496C10.6076 13.2697 10.6826 13.3788 10.7771 13.4705C10.8716 13.5623 10.9836 13.6349 11.1068 13.6843C11.23 13.7337 11.3619 13.7589 11.495 13.7584H26.3494C25.8842 12.9918 25.6622 12.1074 25.7116 11.2173" fill="#141BEB"/>
<path d="M8.16183 17.8507C8.21029 18.7409 7.98746 19.6251 7.52158 20.3912H22.376C22.5091 20.3917 22.641 20.3665 22.7642 20.3171C22.8874 20.2677 22.9994 20.1951 23.0938 20.1033C23.1883 20.0116 23.2634 19.9025 23.3148 19.7824C23.3662 19.6623 23.3929 19.5335 23.3933 19.4032V16.2976C23.3929 16.1673 23.3662 16.0385 23.3148 15.9184C23.2634 15.7983 23.1883 15.6892 23.0938 15.5975C22.9994 15.5057 22.8874 15.4331 22.7642 15.3837C22.641 15.3343 22.5091 15.3091 22.376 15.3096H7.52158C7.98673 16.0762 8.20872 16.9606 8.15941 17.8507" fill="#141BEB"/>
<path d="M25.7116 24.4822C25.6622 23.592 25.8842 22.7076 26.3494 21.941H11.495C11.3619 21.9406 11.23 21.9658 11.1068 22.0152C10.9836 22.0646 10.8716 22.1372 10.7771 22.2289C10.6826 22.3207 10.6076 22.4297 10.5562 22.5499C10.5048 22.67 10.4781 22.7988 10.4776 22.929V26.0347C10.4781 26.1649 10.5048 26.2938 10.5562 26.4139C10.6076 26.534 10.6826 26.6431 10.7771 26.7348C10.8716 26.8265 10.9836 26.8992 11.1068 26.9486C11.23 26.998 11.3619 27.0232 11.495 27.0227H26.3494C25.8842 26.2561 25.6622 25.3717 25.7116 24.4816" fill="#141BEB"/>
</svg>
