<svg width="158" height="40" viewBox="0 0 158 40" fill="none" xmlns="http://www.w3.org/2000/svg">
<path d="M21.4108 3.19784C19.1517 1.23427 16.0776 0.25 12.1888 0.25C10.4956 0.25 8.85612 0.423987 7.27031 0.776932C5.68451 1.12988 4.2646 1.57727 3.01059 2.11912L2.94716 2.14894C1.1613 2.92443 0 4.71401 0 6.69249V29.6936C0 30.3746 0.541614 30.9314 1.21497 30.9314H6.78725C7.45573 30.9314 8.00222 30.3796 8.00222 29.6936V21.9188C8.63167 22.2718 9.3587 22.5601 10.1882 22.7838C11.0177 23.0075 11.9985 23.1169 13.1305 23.1169C15.2628 23.1169 17.2145 22.7043 18.9906 21.8691C20.7619 21.039 22.172 19.7664 23.226 18.0563C24.275 16.3463 24.802 14.2137 24.802 11.6586C24.802 7.98496 23.6749 5.1614 21.4157 3.19784H21.4108ZM15.5995 15.3024C14.7992 16.1325 13.755 16.5501 12.4718 16.5501C11.3105 16.5501 10.276 16.2071 9.36846 15.5211C8.45601 14.8351 8.00222 13.7414 8.00222 12.2352V9.05374C8.00222 7.69167 9.08545 6.58312 10.4224 6.58312H11.7203C13.4769 6.58312 14.7651 7.02058 15.5799 7.90045C16.3948 8.78033 16.8047 10.0032 16.8047 11.5691C16.8047 13.2294 16.4046 14.4772 15.6043 15.3073L15.5995 15.3024ZM44.6856 8.8549C43.5633 10.2965 42.768 12.0115 42.324 13.985L41.7921 13.6221C41.3237 13.299 40.7674 13.0604 40.1185 12.9063C39.4793 12.7522 38.8889 12.6677 38.357 12.6677C37.6934 12.6677 37.0981 12.7572 36.5467 12.9312C36.5419 12.9312 36.537 12.9312 36.5321 12.9361C35.8148 13.1648 35.3415 13.8657 35.3415 14.6313V29.6886C35.3415 30.3696 34.7999 30.9264 34.1266 30.9264H28.5543C27.8858 30.9264 27.3393 30.3746 27.3393 29.6886V10.3015C27.3393 9.23767 27.7589 8.28323 28.4469 7.59225C29.1252 6.89133 30.0718 6.46382 31.1062 6.46382C31.6722 6.46382 32.1992 6.59804 32.6725 6.81676C33.9753 6.33954 35.4147 6.09099 36.981 6.09099C39.5525 6.09099 41.8165 6.76705 43.7536 8.10924L44.6758 8.84993L44.6856 8.8549ZM81.7154 6.10093C80.3052 6.10093 78.8121 6.24509 77.2458 6.53341C76.6018 6.65272 75.9918 6.80185 75.3868 6.96092C74.8452 6.65769 74.2353 6.46879 73.5765 6.46879C71.4979 6.46879 69.8096 8.18877 69.8096 10.3064V14.9991V38.5172C69.8096 39.1982 70.3513 39.755 71.0246 39.755H76.1285C76.797 39.755 77.3434 39.2032 77.3434 38.5172V30.31C78.7243 30.9164 80.354 31.2197 82.2375 31.2197C84.3698 31.2197 86.3215 30.7623 88.0976 29.8526C89.8689 28.9429 91.2839 27.551 92.333 25.6819C93.382 23.8128 93.909 21.4565 93.909 18.6131C93.909 14.84 92.9039 11.8127 90.8984 9.53096C88.893 7.24427 85.8336 6.1059 81.7252 6.1059L81.7154 6.10093ZM84.8675 23.1169C84.0526 24.1409 82.9401 24.6529 81.5251 24.6529C80.4907 24.6529 79.5343 24.3348 78.656 23.6935C77.7777 23.0572 77.3386 21.9835 77.3386 20.4822V14.9991V14.9444C77.3386 13.7812 78.129 12.7373 79.2513 12.5235C79.7636 12.4241 80.2857 12.3794 80.8176 12.3794C82.2912 12.3794 83.5403 12.9162 84.5601 13.985C85.5799 15.0588 86.0873 16.6644 86.0873 18.802C86.0873 20.6562 85.6823 22.0928 84.8626 23.1169H84.8675ZM131.69 10.9179C132.539 12.4689 132.959 14.3628 132.959 16.5998V29.6985C132.959 30.3796 132.417 30.9363 131.744 30.9363H126.64C125.972 30.9363 125.425 30.3845 125.425 29.6985V17.5095C125.425 16.2618 125.079 15.2725 124.391 14.5368C123.703 13.8011 122.698 13.4332 121.38 13.4332C120.814 13.4332 120.282 13.4979 119.78 13.6271C119.004 13.826 118.462 14.5368 118.462 15.3521V29.6985C118.462 30.3796 117.921 30.9363 117.247 30.9363H112.143C111.475 30.9363 110.928 30.3845 110.928 29.6985V17.3206C110.928 16.0082 110.582 15.0041 109.894 14.2982C109.206 13.5973 108.201 13.2443 106.883 13.2443C106.317 13.2443 105.785 13.309 105.283 13.4382C105.21 13.4581 105.141 13.478 105.073 13.4979C104.419 13.6917 103.975 14.3081 103.975 15.0041H103.97V29.6985C103.97 30.3796 103.429 30.9363 102.755 30.9363H97.6515C96.983 30.9363 96.4366 30.3845 96.4366 29.6985V10.3015C96.4366 8.1838 98.1248 6.46382 100.203 6.46382C100.906 6.46382 101.55 6.6726 102.116 7.01063C103.78 6.47873 105.429 6.19041 107.074 6.19041C108.83 6.19041 110.382 6.48867 111.733 7.07526C113.08 7.66681 114.149 8.42739 114.934 9.352C115.749 8.48704 116.847 7.74635 118.228 7.12497C119.609 6.50359 121.209 6.19041 123.029 6.19041C124.976 6.19041 126.689 6.5881 128.182 7.38843C129.67 8.18877 130.841 9.36194 131.685 10.9129L131.69 10.9179ZM156.873 11.4697C156.121 9.83916 154.95 8.53675 153.369 7.56242C151.784 6.5881 149.739 6.10093 147.226 6.10093C143.65 6.10093 140.805 7.14982 138.687 9.24264C136.57 11.3355 135.511 14.3181 135.511 18.1806C135.511 20.9296 136.057 23.2809 137.16 25.2296C138.258 27.1782 139.771 28.6646 141.703 29.6886C143.63 30.7126 145.85 31.2246 148.363 31.2246C150.31 31.2246 152.057 30.9512 153.609 30.4094C154.653 30.0415 155.526 29.6488 156.224 29.2213C156.751 28.8982 156.966 28.237 156.726 27.6654L155.633 25.0804C155.365 24.4392 154.633 24.1508 154.014 24.4491C153.565 24.6678 153.062 24.8567 152.501 25.0158C151.432 25.319 150.256 25.4731 148.973 25.4731C147.436 25.4731 146.08 25.1848 144.904 24.6082C143.728 24.0315 143.059 22.928 142.903 21.3024H155.536C156.741 21.3024 157.751 20.3778 157.883 19.1599L157.893 19.0754C157.971 18.3248 158.01 17.599 158.01 16.8931C158.01 14.9096 157.634 13.1051 156.883 11.4746L156.873 11.4697ZM142.893 16.4507C142.893 15.0787 143.269 13.9751 144.021 13.1449C144.772 12.3148 145.826 11.8972 147.173 11.8972C148.519 11.8972 149.642 12.3396 150.349 13.2145C151.057 14.0944 151.408 15.1731 151.408 16.4507H142.893ZM62.4905 7.56242C60.9047 6.5881 58.8603 6.10093 56.3522 6.10093C52.7756 6.10093 49.9309 7.14982 47.8133 9.24264C45.6956 11.3355 44.6368 14.3181 44.6368 18.1806C44.6368 20.9296 45.1833 23.2809 46.286 25.2296C47.3839 27.1782 48.8965 28.6646 50.8288 29.6886C52.7561 30.7126 54.9762 31.2246 57.4891 31.2246C59.436 31.2246 61.1829 30.9512 62.7345 30.4094C63.7787 30.0415 64.6521 29.6488 65.3499 29.2213C65.8768 28.8982 66.0915 28.237 65.8524 27.6654L64.7595 25.0804C64.4911 24.4392 63.7592 24.1508 63.1395 24.4491C62.6906 24.6678 62.188 24.8567 61.6269 25.0158C60.5583 25.319 59.3824 25.4731 58.0991 25.4731C56.5621 25.4731 55.2056 25.1848 54.0296 24.6082C52.8537 24.0315 52.1852 22.928 52.0291 21.3024H64.5984C65.8134 21.3024 66.8722 20.3877 67.004 19.1599C67.004 19.1301 67.0089 19.1002 67.0137 19.0754C67.0918 18.3248 67.1309 17.599 67.1309 16.8931C67.1309 14.9096 66.7551 13.1051 66.0037 11.4746C65.2523 9.84414 64.0812 8.54172 62.5003 7.56739L62.4905 7.56242ZM52.0242 16.4507C52.0242 15.0787 52.3999 13.9751 53.1514 13.1449C53.9028 12.3148 54.9567 11.8972 56.3034 11.8972C57.6502 11.8972 58.7724 12.3396 59.4799 13.2145C60.1875 14.0944 60.5388 15.1731 60.5388 16.4507H52.0242Z" fill="white"/>
</svg>
