<svg width="96" height="24" viewBox="0 0 96 24" fill="none" xmlns="http://www.w3.org/2000/svg">
<g clip-path="url(#clip0_335_11372)">
<path d="M13.0091 1.79109C11.6365 0.598037 9.76869 0 7.40582 0C6.37707 0 5.38093 0.105714 4.41741 0.320161C3.45388 0.534609 2.59115 0.806443 1.82922 1.13567L1.79068 1.15379C0.705599 1.62497 0 2.71231 0 3.91442V17.8898C0 18.3035 0.329082 18.6418 0.738211 18.6418H4.1239C4.53006 18.6418 4.86211 18.3066 4.86211 17.8898V13.1659C5.24456 13.3803 5.6863 13.5555 6.1903 13.6914C6.6943 13.8273 7.2902 13.8938 7.97801 13.8938C9.27359 13.8938 10.4595 13.6431 11.5386 13.1357C12.6148 12.6313 13.4716 11.858 14.112 10.819C14.7494 9.78001 15.0696 8.48427 15.0696 6.93179C15.0696 4.69972 14.3847 2.98414 13.0121 1.79109H13.0091ZM9.47815 9.14573C8.99194 9.65014 8.35749 9.90385 7.57778 9.90385C6.87218 9.90385 6.24366 9.69544 5.69223 9.27863C5.13783 8.86182 4.86211 8.19733 4.86211 7.28215V5.34911C4.86211 4.52152 5.52027 3.84797 6.3326 3.84797H7.12121C8.18851 3.84797 8.97119 4.11377 9.46629 4.64838C9.9614 5.18299 10.2104 5.926 10.2104 6.87742C10.2104 7.88623 9.96733 8.64435 9.48111 9.14875L9.47815 9.14573ZM27.1507 5.22829C26.4689 6.1042 25.9856 7.14624 25.7158 8.34533L25.3927 8.12484C25.1081 7.92852 24.7701 7.78354 24.3758 7.68991C23.9874 7.59627 23.6287 7.54493 23.3055 7.54493C22.9023 7.54493 22.5406 7.5993 22.2056 7.70501C22.2026 7.70501 22.1997 7.70501 22.1967 7.70803C21.7609 7.84697 21.4733 8.27284 21.4733 8.73798V17.8867C21.4733 18.3005 21.1443 18.6388 20.7351 18.6388H17.3494C16.9433 18.6388 16.6112 18.3035 16.6112 17.8867V6.10722C16.6112 5.46086 16.8662 4.88095 17.2842 4.46111C17.6963 4.03524 18.2715 3.77548 18.9 3.77548C19.2439 3.77548 19.5641 3.85703 19.8516 3.98993C20.6432 3.69997 21.5178 3.54896 22.4695 3.54896C24.0319 3.54896 25.4075 3.95973 26.5845 4.77523L27.1448 5.22527L27.1507 5.22829ZM49.6499 3.555C48.7931 3.555 47.8859 3.64259 46.9342 3.81777C46.5428 3.89026 46.1723 3.98087 45.8046 4.07752C45.4756 3.89328 45.105 3.7785 44.7047 3.7785C43.4418 3.7785 42.416 4.82356 42.416 6.11024V8.96149V23.2509C42.416 23.6647 42.7451 24.003 43.1542 24.003H46.2553C46.6614 24.003 46.9935 23.6678 46.9935 23.2509V18.2643C47.8325 18.6328 48.8227 18.817 49.9671 18.817C51.2626 18.817 52.4485 18.5391 53.5277 17.9864C54.6039 17.4337 55.4636 16.588 56.101 15.4523C56.7385 14.3166 57.0586 12.885 57.0586 11.1573C57.0586 8.86484 56.4479 7.02542 55.2294 5.63906C54.0109 4.24969 52.1521 3.55802 49.6558 3.55802L49.6499 3.555ZM51.565 13.8938C51.0699 14.516 50.394 14.8271 49.5342 14.8271C48.9057 14.8271 48.3246 14.6338 47.791 14.2441C47.2573 13.8575 46.9905 13.2051 46.9905 12.293V8.96149V8.92827C46.9905 8.22149 47.4708 7.58721 48.1527 7.45734C48.464 7.39693 48.7812 7.36975 49.1044 7.36975C49.9997 7.36975 50.7587 7.69595 51.3783 8.34533C51.9979 8.99773 52.3062 9.97332 52.3062 11.2721C52.3062 12.3987 52.0602 13.2716 51.5621 13.8938H51.565ZM80.0143 6.48175C80.5302 7.42411 80.7851 8.57488 80.7851 9.93405V17.8928C80.7851 18.3066 80.4561 18.6449 80.0469 18.6449H76.9459C76.5397 18.6449 76.2076 18.3096 76.2076 17.8928V10.4868C76.2076 9.72867 75.9972 9.12761 75.5791 8.68059C75.1611 8.23358 74.5504 8.01007 73.7499 8.01007C73.406 8.01007 73.0829 8.04933 72.7775 8.12786C72.3061 8.24868 71.977 8.68059 71.977 9.17594V17.8928C71.977 18.3066 71.6479 18.6449 71.2388 18.6449H68.1377C67.7316 18.6449 67.3995 18.3096 67.3995 17.8928V10.372C67.3995 9.57463 67.189 8.96451 66.771 8.53561C66.353 8.10974 65.7423 7.89529 64.9418 7.89529C64.5979 7.89529 64.2747 7.93456 63.9694 8.01309C63.9249 8.02517 63.8834 8.03725 63.8419 8.04933C63.4446 8.16713 63.1748 8.54166 63.1748 8.96451H63.1719V17.8928C63.1719 18.3066 62.8428 18.6449 62.4336 18.6449H59.3326C58.9264 18.6449 58.5944 18.3096 58.5944 17.8928V6.10722C58.5944 4.82054 59.6201 3.77548 60.8831 3.77548C61.31 3.77548 61.7014 3.90234 62.0453 4.10773C63.0562 3.78455 64.0583 3.60936 65.0574 3.60936C66.1247 3.60936 67.0675 3.79059 67.8887 4.14699C68.707 4.50642 69.3562 4.96854 69.8335 5.53033C70.3286 5.00478 70.9957 4.55474 71.8347 4.1772C72.6737 3.79965 73.6461 3.60936 74.752 3.60936C75.9349 3.60936 76.9755 3.85099 77.8827 4.33728C78.7869 4.82356 79.4985 5.53637 80.0114 6.47873L80.0143 6.48175ZM95.3151 6.81701C94.8586 5.82633 94.1471 5.03499 93.1865 4.44299C92.223 3.85099 90.9808 3.555 89.4539 3.555C87.2808 3.555 85.5524 4.1923 84.2657 5.46388C82.979 6.73546 82.3357 8.5477 82.3357 10.8945C82.3357 12.5648 82.6677 13.9935 83.3378 15.1774C84.0048 16.3614 84.9239 17.2645 86.0979 17.8867C87.269 18.5089 88.6179 18.82 90.1447 18.82C91.3276 18.82 92.389 18.6539 93.3318 18.3247C93.9662 18.1012 94.4969 17.8626 94.9208 17.6028C95.241 17.4065 95.3715 17.0048 95.2262 16.6574L94.5621 15.0868C94.3991 14.6972 93.9544 14.522 93.5778 14.7032C93.3051 14.8361 92.9997 14.9509 92.6588 15.0476C92.0095 15.2318 91.295 15.3254 90.5153 15.3254C89.5814 15.3254 88.7572 15.1503 88.0427 14.7999C87.3282 14.4495 86.9221 13.779 86.8272 12.7913H94.5028C95.2351 12.7913 95.8488 12.2295 95.9288 11.4896L95.9348 11.4382C95.9822 10.9821 96.0059 10.5412 96.0059 10.1123C96.0059 8.90712 95.7776 7.81072 95.3211 6.82003L95.3151 6.81701ZM86.8213 9.84344C86.8213 9.00982 87.0496 8.33929 87.5061 7.83489C87.9627 7.33048 88.6031 7.07677 89.4213 7.07677C90.2396 7.07677 90.9215 7.34558 91.3513 7.87717C91.7812 8.41178 91.9947 9.0672 91.9947 9.84344H86.8213ZM37.9689 4.44299C37.0054 3.85099 35.7632 3.555 34.2393 3.555C32.0662 3.555 30.3378 4.1923 29.0511 5.46388C27.7644 6.73546 27.1211 8.5477 27.1211 10.8945C27.1211 12.5648 27.4531 13.9935 28.1232 15.1774C28.7902 16.3614 29.7093 17.2645 30.8833 17.8867C32.0544 18.5089 33.4033 18.82 34.9301 18.82C36.113 18.82 37.1744 18.6539 38.1172 18.3247C38.7516 18.1012 39.2823 17.8626 39.7062 17.6028C40.0264 17.4065 40.1569 17.0048 40.0116 16.6574L39.3475 15.0868C39.1845 14.6972 38.7397 14.522 38.3632 14.7032C38.0905 14.8361 37.7851 14.9509 37.4442 15.0476C36.7949 15.2318 36.0804 15.3254 35.3007 15.3254C34.3668 15.3254 33.5426 15.1503 32.8281 14.7999C32.1136 14.4495 31.7075 13.779 31.6126 12.7913H39.2497C39.9879 12.7913 40.6312 12.2356 40.7113 11.4896C40.7113 11.4714 40.7142 11.4533 40.7172 11.4382C40.7646 10.9821 40.7884 10.5412 40.7884 10.1123C40.7884 8.90712 40.5601 7.81072 40.1035 6.82003C39.647 5.82935 38.9354 5.03801 37.9749 4.44601L37.9689 4.44299ZM31.6096 9.84344C31.6096 9.00982 31.8379 8.33929 32.2945 7.83489C32.7511 7.33048 33.3914 7.07677 34.2097 7.07677C35.0279 7.07677 35.7098 7.34558 36.1397 7.87717C36.5696 8.41178 36.7831 9.0672 36.7831 9.84344H31.6096Z" fill="#1877F2"/>
</g>
<defs>
<clipPath id="clip0_335_11372">
<rect width="96" height="24" fill="white"/>
</clipPath>
</defs>
</svg>
