<svg width="250" height="250" viewBox="0 0 250 250" fill="none" xmlns="http://www.w3.org/2000/svg">
<rect width="250" height="250" rx="25" fill="#1877F2"/>
<path d="M73.2415 109.649C71.2112 107.885 68.4486 107 64.9538 107C63.4322 107 61.9588 107.156 60.5337 107.474C59.1085 107.791 57.8325 108.193 56.7056 108.68L56.6486 108.707C55.0436 109.403 54 111.012 54 112.79V133.46C54 134.072 54.4867 134.573 55.0919 134.573H60.0996C60.7003 134.573 61.1914 134.077 61.1914 133.46V126.473C61.7571 126.791 62.4105 127.05 63.1559 127.251C63.9014 127.452 64.7828 127.55 65.8001 127.55C67.7163 127.55 69.4703 127.179 71.0665 126.429C72.6582 125.683 73.9255 124.539 74.8727 123.002C75.8155 121.465 76.289 119.549 76.289 117.253C76.289 113.951 75.2761 111.414 73.2458 109.649H73.2415ZM68.0189 120.527C67.2998 121.273 66.3614 121.649 65.2081 121.649C64.1645 121.649 63.2348 121.34 62.4192 120.724C61.5992 120.107 61.1914 119.124 61.1914 117.771V114.912C61.1914 113.688 62.1649 112.691 63.3664 112.691H64.5328C66.1114 112.691 67.2691 113.085 68.0014 113.875C68.7337 114.666 69.102 115.765 69.102 117.172C69.102 118.664 68.7424 119.786 68.0233 120.532L68.0189 120.527ZM94.158 114.733C93.1494 116.029 92.4347 117.57 92.0356 119.343L91.5577 119.017C91.1367 118.727 90.6368 118.512 90.0536 118.374C89.4792 118.235 88.9486 118.16 88.4706 118.16C87.8743 118.16 87.3393 118.24 86.8438 118.396C86.8394 118.396 86.835 118.396 86.8306 118.401C86.186 118.606 85.7607 119.236 85.7607 119.924V133.456C85.7607 134.068 85.2739 134.568 84.6688 134.568H79.6611C79.0604 134.568 78.5693 134.072 78.5693 133.456V116.033C78.5693 115.077 78.9464 114.219 79.5646 113.598C80.1742 112.968 81.0249 112.584 81.9545 112.584C82.4631 112.584 82.9367 112.705 83.3621 112.901C84.5329 112.473 85.8265 112.249 87.234 112.249C89.5449 112.249 91.5796 112.857 93.3204 114.063L94.1492 114.729L94.158 114.733ZM127.436 112.258C126.169 112.258 124.827 112.388 123.419 112.647C122.84 112.754 122.292 112.888 121.749 113.031C121.262 112.758 120.714 112.589 120.122 112.589C118.254 112.589 116.736 114.134 116.736 116.038V120.255V141.39C116.736 142.002 117.223 142.502 117.828 142.502H122.415C123.016 142.502 123.507 142.006 123.507 141.39V134.014C124.748 134.559 126.212 134.832 127.905 134.832C129.821 134.832 131.575 134.421 133.171 133.603C134.763 132.786 136.035 131.535 136.978 129.855C137.92 128.175 138.394 126.058 138.394 123.503C138.394 120.112 137.491 117.391 135.688 115.341C133.886 113.286 131.137 112.263 127.445 112.263L127.436 112.258ZM130.269 127.55C129.536 128.47 128.537 128.93 127.265 128.93C126.335 128.93 125.476 128.644 124.686 128.068C123.897 127.496 123.503 126.531 123.503 125.182V120.255V120.206C123.503 119.16 124.213 118.222 125.221 118.03C125.682 117.941 126.151 117.9 126.629 117.9C127.953 117.9 129.076 118.383 129.992 119.343C130.909 120.308 131.365 121.751 131.365 123.672C131.365 125.339 131.001 126.63 130.264 127.55H130.269ZM172.347 116.587C173.11 117.981 173.487 119.683 173.487 121.693V133.465C173.487 134.077 173.001 134.577 172.395 134.577H167.809C167.208 134.577 166.717 134.081 166.717 133.465V122.511C166.717 121.389 166.406 120.5 165.787 119.839C165.169 119.178 164.266 118.847 163.082 118.847C162.573 118.847 162.095 118.906 161.643 119.022C160.946 119.2 160.459 119.839 160.459 120.572V133.465C160.459 134.077 159.973 134.577 159.368 134.577H154.781C154.18 134.577 153.689 134.081 153.689 133.465V122.341C153.689 121.162 153.378 120.259 152.759 119.625C152.141 118.995 151.238 118.678 150.054 118.678C149.545 118.678 149.067 118.736 148.616 118.852C148.55 118.87 148.488 118.888 148.427 118.906C147.839 119.08 147.44 119.634 147.44 120.259H147.436V133.465C147.436 134.077 146.949 134.577 146.344 134.577H141.757C141.157 134.577 140.665 134.081 140.665 133.465V116.033C140.665 114.13 142.183 112.584 144.051 112.584C144.682 112.584 145.261 112.772 145.77 113.076C147.265 112.598 148.747 112.339 150.225 112.339C151.803 112.339 153.198 112.607 154.413 113.134C155.623 113.665 156.583 114.349 157.289 115.18C158.021 114.402 159.008 113.737 160.249 113.178C161.49 112.62 162.928 112.339 164.564 112.339C166.313 112.339 167.853 112.696 169.194 113.415C170.532 114.134 171.584 115.189 172.343 116.583L172.347 116.587ZM194.978 117.083C194.303 115.618 193.251 114.447 191.83 113.572C190.405 112.696 188.567 112.258 186.309 112.258C183.095 112.258 180.538 113.201 178.635 115.081C176.732 116.962 175.781 119.643 175.781 123.114C175.781 125.584 176.272 127.697 177.263 129.449C178.249 131.2 179.609 132.536 181.345 133.456C183.077 134.376 185.073 134.836 187.331 134.836C189.08 134.836 190.65 134.591 192.045 134.104C192.983 133.773 193.768 133.42 194.395 133.036C194.869 132.746 195.062 132.151 194.847 131.638L193.865 129.315C193.623 128.738 192.966 128.479 192.409 128.747C192.005 128.944 191.554 129.114 191.049 129.256C190.089 129.529 189.032 129.667 187.879 129.667C186.498 129.667 185.279 129.408 184.222 128.89C183.165 128.372 182.564 127.38 182.424 125.919H193.777C194.86 125.919 195.768 125.088 195.886 123.994L195.895 123.918C195.965 123.243 196 122.591 196 121.957C196 120.174 195.662 118.553 194.987 117.087L194.978 117.083ZM182.415 121.559C182.415 120.326 182.753 119.334 183.428 118.588C184.103 117.842 185.051 117.467 186.261 117.467C187.471 117.467 188.48 117.865 189.116 118.651C189.751 119.442 190.067 120.411 190.067 121.559H182.415ZM110.159 113.572C108.734 112.696 106.896 112.258 104.643 112.258C101.428 112.258 98.8719 113.201 96.9688 115.081C95.0657 116.962 94.1141 119.643 94.1141 123.114C94.1141 125.584 94.6053 127.697 95.5963 129.449C96.5829 131.2 97.9423 132.536 99.6787 133.456C101.411 134.376 103.406 134.836 105.664 134.836C107.414 134.836 108.984 134.591 110.378 134.104C111.317 133.773 112.101 133.42 112.729 133.036C113.202 132.746 113.395 132.151 113.18 131.638L112.198 129.315C111.957 128.738 111.299 128.479 110.742 128.747C110.339 128.944 109.887 129.114 109.383 129.256C108.422 129.529 107.366 129.667 106.212 129.667C104.831 129.667 103.612 129.408 102.555 128.89C101.499 128.372 100.898 127.38 100.757 125.919H112.053C113.145 125.919 114.097 125.097 114.215 123.994C114.215 123.967 114.219 123.94 114.224 123.918C114.294 123.243 114.329 122.591 114.329 121.957C114.329 120.174 113.991 118.553 113.316 117.087C112.641 115.622 111.588 114.452 110.168 113.576L110.159 113.572ZM100.753 121.559C100.753 120.326 101.091 119.334 101.766 118.588C102.441 117.842 103.388 117.467 104.599 117.467C105.809 117.467 106.818 117.865 107.453 118.651C108.089 119.442 108.405 120.411 108.405 121.559H100.753Z" fill="white"/>
</svg>
