<svg width="20" height="20" viewBox="0 0 20 20" fill="none" xmlns="http://www.w3.org/2000/svg">
<path d="M1.8142 12.6075L1.81419 12.6075L1.81012 12.61C1.65737 12.7038 1.52496 12.8272 1.4207 12.9729C1.31644 13.1187 1.24243 13.2839 1.20306 13.4587C1.16368 13.6335 1.15973 13.8145 1.19144 13.9909C1.22315 14.1673 1.28988 14.3355 1.38769 14.4857L1.38767 14.4857L1.39064 14.4902C2.38078 15.9754 3.99595 17.167 5.83333 17.167C6.4016 17.167 6.89851 17.4822 7.581 17.9209C8.21582 18.329 9.00293 18.8337 10 18.8337C11.0045 18.8337 11.7897 18.3293 12.4232 17.9204C13.1029 17.4818 13.5959 17.167 14.1667 17.167C16.004 17.167 17.6192 15.9754 18.6094 14.4902L18.6094 14.4902L18.6123 14.4857C18.7101 14.3355 18.7768 14.1673 18.8086 13.9909C18.8403 13.8145 18.8363 13.6335 18.7969 13.4587L18.3092 13.5686L18.7969 13.4587C18.7576 13.2839 18.6836 13.1187 18.5793 12.9729C18.475 12.8272 18.3426 12.7038 18.1899 12.61L18.1899 12.61L18.1858 12.6075C16.9709 11.8778 16.204 11.0726 15.8148 10.327L17.05 9.40032C17.3329 9.18815 17.5199 8.87229 17.5699 8.52222C17.6199 8.17215 17.5288 7.81655 17.3167 7.53366C17.1045 7.25076 16.7886 7.06373 16.4386 7.01373C16.1088 6.96662 15.7742 7.04471 15.5 7.23126V6.66699C15.5 5.2083 14.9205 3.80935 13.8891 2.7779C12.8576 1.74645 11.4587 1.16699 10 1.16699C8.54131 1.16699 7.14236 1.74645 6.11091 2.7779C5.07946 3.80935 4.5 5.2083 4.5 6.66699V7.23126C4.37244 7.14448 4.23066 7.08041 4.08091 7.04204C3.91129 6.99858 3.73477 6.98896 3.56144 7.01373C3.3881 7.03849 3.22134 7.09715 3.07067 7.18636C2.92001 7.27557 2.78839 7.39358 2.68333 7.53366C2.57827 7.67373 2.50184 7.83313 2.45838 8.00275C2.41492 8.17237 2.4053 8.34888 2.43007 8.52222C2.45483 8.69556 2.51349 8.86232 2.6027 9.01298C2.69191 9.16365 2.80992 9.29527 2.95 9.40032L4.18517 10.327C3.79595 11.0726 3.02908 11.8778 1.8142 12.6075Z" fill="#FED402" stroke="#292D32"/>
</svg>
