<svg width="20" height="20" viewBox="0 0 20 20" fill="none" xmlns="http://www.w3.org/2000/svg">
<path d="M10 20C15.5228 20 20 15.5228 20 10C20 4.47715 15.5228 0 10 0C4.47715 0 0 4.47715 0 10C0 15.5228 4.47715 20 10 20Z" fill="url(#paint0_linear_682_5441)"/>
<path fill-rule="evenodd" clip-rule="evenodd" d="M4.5266 9.89299C7.4418 8.62288 9.38573 7.78555 10.3584 7.381C13.1355 6.2259 13.7125 6.02525 14.0887 6.01863C14.1714 6.01717 14.3563 6.03767 14.4762 6.13489C14.5773 6.21698 14.6052 6.32787 14.6185 6.4057C14.6318 6.48353 14.6484 6.66083 14.6352 6.79937C14.4847 8.3806 13.8335 12.2178 13.5023 13.9888C13.3621 14.7382 13.0861 14.9895 12.8188 15.0141C12.2381 15.0675 11.7972 14.6303 11.2347 14.2616C10.3546 13.6847 9.85735 13.3255 9.00303 12.7625C8.01572 12.1119 8.65575 11.7543 9.21842 11.1699C9.36567 11.017 11.9243 8.68968 11.9739 8.47856C11.98 8.45215 11.9858 8.35373 11.9273 8.30176C11.8689 8.24979 11.7826 8.26756 11.7203 8.2817C11.632 8.30173 10.226 9.23106 7.50222 11.0697C7.10313 11.3437 6.74164 11.4772 6.41776 11.4702C6.06071 11.4625 5.37388 11.2684 4.8633 11.1024C4.23705 10.8988 3.73932 10.7912 3.78266 10.4455C3.80524 10.2654 4.05321 10.0812 4.5266 9.89299Z" fill="white"/>
<defs>
<linearGradient id="paint0_linear_682_5441" x1="10" y1="0" x2="10" y2="19.8517" gradientUnits="userSpaceOnUse">
<stop stop-color="#2AABEE"/>
<stop offset="1" stop-color="#229ED9"/>
</linearGradient>
</defs>
</svg>
