<svg width="20" height="20" viewBox="0 0 20 20" fill="none" xmlns="http://www.w3.org/2000/svg">
<path d="M14.3137 7.21842C15.5998 8.14106 17.1754 8.68393 18.8771 8.68393V5.3977C18.5551 5.39777 18.2338 5.36407 17.9188 5.29708V7.8838C16.2172 7.8838 14.6418 7.34094 13.3554 6.41836V13.1246C13.3554 16.4794 10.6455 19.1988 7.30278 19.1988C6.05555 19.1988 4.8963 18.8204 3.93331 18.1714C5.0324 19.2992 6.56517 19.9988 8.26091 19.9988C11.6038 19.9988 14.3139 17.2794 14.3139 13.9245V7.21842H14.3137V7.21842ZM15.4959 3.90302C14.8387 3.18238 14.4071 2.25109 14.3137 1.22151V0.798828H13.4056C13.6342 2.10743 14.4139 3.22542 15.4959 3.90302ZM6.04755 15.597C5.68032 15.1138 5.48187 14.5227 5.48276 13.9149C5.48276 12.3805 6.72227 11.1365 8.25148 11.1365C8.53647 11.1364 8.81976 11.1802 9.09135 11.2667V7.907C8.77396 7.86335 8.45362 7.84482 8.13342 7.85161V10.4666C7.86162 10.3801 7.5782 10.3362 7.29314 10.3365C5.76393 10.3365 4.52449 11.5804 4.52449 13.115C4.52449 14.2 5.14404 15.1394 6.04755 15.597Z" fill="#FF004F"/>
<path d="M13.3554 6.41829C14.6419 7.34087 16.2172 7.88373 17.9188 7.88373V5.29701C16.969 5.09398 16.1281 4.59586 15.4959 3.90302C14.4138 3.22535 13.6342 2.10736 13.4056 0.798828H11.0201V13.9244C11.0147 15.4545 9.77728 16.6935 8.25135 16.6935C7.35214 16.6935 6.55329 16.2634 6.04735 15.597C5.14391 15.1394 4.52436 14.2 4.52436 13.115C4.52436 11.5806 5.7638 10.3365 7.29301 10.3365C7.586 10.3365 7.8684 10.3823 8.13329 10.4667V7.85168C4.84934 7.91977 2.20825 10.6126 2.20825 13.9244C2.20825 15.5777 2.86594 17.0764 3.93339 18.1715C4.89638 18.8204 6.05562 19.1989 7.30285 19.1989C10.6456 19.1989 13.3555 16.4793 13.3555 13.1246V6.41829H13.3554Z" fill="black"/>
<path d="M17.9188 5.29817V4.59874C17.0623 4.60004 16.2226 4.35933 15.496 3.90411C16.1392 4.61089 16.9863 5.09822 17.9188 5.29817ZM13.4056 0.799986C13.3838 0.674926 13.367 0.549043 13.3554 0.422678V0H10.0617V13.1257C10.0564 14.6556 8.8191 15.8946 7.29303 15.8946C6.845 15.8946 6.42199 15.7879 6.04737 15.5983C6.55331 16.2645 7.35216 16.6946 8.25137 16.6946C9.77717 16.6946 11.0148 15.4558 11.0201 13.9256V0.799986H13.4056ZM8.13345 7.85284V7.10824C7.85823 7.07049 7.58076 7.05155 7.30294 7.05169C3.95993 7.05162 1.25 9.77116 1.25 13.1257C1.25 15.2288 2.31505 17.0822 3.93347 18.1725C2.86603 17.0775 2.20834 15.5787 2.20834 13.9255C2.20834 10.6138 4.84936 7.92093 8.13345 7.85284Z" fill="#00F2EA"/>
</svg>
