<svg width="74" height="74" viewBox="0 0 74 74" fill="none" xmlns="http://www.w3.org/2000/svg">
<rect width="74" height="74" rx="37" fill="#F7F8F9"/>
<g clip-path="url(#clip0_335_13098)">
<path d="M40.9509 43.8827H35.6342C34.8575 43.8827 34.2279 44.5123 34.2279 45.2889V58.6562C34.2279 59.4327 34.8575 60.0624 35.6342 60.0624H41.8885C42.6651 60.0624 43.2948 59.4327 43.2948 58.6562L42.3572 45.2889C42.3572 44.5123 41.7275 43.8827 40.9509 43.8827Z" fill="#5F77AF"/>
<path d="M49.0801 37.922H43.7633C42.9867 37.922 42.3571 38.5516 42.3571 39.3282V58.6561C42.3571 59.4327 42.9867 60.0624 43.7633 60.0624H50.0177C50.7943 60.0624 51.4239 59.4327 51.4239 58.6561L50.4863 39.3282C50.4863 38.5516 49.8568 37.922 49.0801 37.922Z" fill="#FFDA2D"/>
<path d="M50.4864 39.3282C50.4864 38.5516 49.8568 37.922 49.0801 37.922H46.4218V60.0624H50.0177C50.7943 60.0624 51.424 59.4327 51.424 58.6561L50.4864 39.3282Z" fill="#FEBF01"/>
<path d="M57.2094 33.1536H51.8926C51.116 33.1536 50.4864 33.7832 50.4864 34.5598V58.6563C50.4864 59.4328 51.116 60.0625 51.8926 60.0625H57.2094C57.986 60.0625 58.6157 59.4328 58.6157 58.6563V34.5598C58.6157 33.7832 57.9861 33.1536 57.2094 33.1536Z" fill="#A6D12D"/>
<path d="M59.5938 61H33.2498C32.4732 61 31.8436 60.3704 31.8436 59.5938C31.8436 58.8171 32.4732 58.1875 33.2498 58.1875H59.5938C60.3704 58.1875 61 58.8171 61 59.5938C61 60.3704 60.3704 61 59.5938 61Z" fill="#DFF8FF"/>
<path d="M59.5937 58.1875H46.4218V61H59.5937C60.3703 61 61 60.3704 61 59.5938C61 58.8171 60.3703 58.1875 59.5937 58.1875Z" fill="#D8EAEF"/>
<path d="M53.6333 30.3409C52.8567 30.3409 52.2271 29.7113 52.2271 28.9347V24.2496H43.433C42.6564 24.2496 42.0268 23.62 42.0268 22.8434C42.0268 22.0668 42.6564 21.4371 43.433 21.4371H53.6333C54.4099 21.4371 55.0396 22.0668 55.0396 22.8434V28.9347C55.0396 29.7113 54.4099 30.3409 53.6333 30.3409Z" fill="#4BB6FF"/>
<path d="M30.0091 55.0394H22.8435C22.0669 55.0394 21.4373 54.4098 21.4373 53.6332V40.6201C21.4373 39.8435 22.0669 39.2139 22.8435 39.2139C23.6201 39.2139 24.2498 39.8435 24.2498 40.6201V52.2269H30.0091C30.7857 52.2269 31.4153 52.8566 31.4153 53.6332C31.4153 54.4098 30.7857 55.0394 30.0091 55.0394Z" fill="#4BB6FF"/>
<path d="M23.2941 26.1068L14.4062 24.7006C13.6296 24.7006 13 25.3302 13 26.1068C13 31.783 17.6179 36.4008 23.2941 36.4008C26.0399 36.4008 28.6239 35.329 30.5702 33.3828L23.2941 26.1068Z" fill="#5F77AF"/>
<path d="M23.2942 26.1068V36.4008C26.0399 36.4008 28.624 35.329 30.5702 33.3828L23.2942 26.1068Z" fill="#455DA0"/>
<path d="M23.2941 15.8127C17.6179 15.8127 13 20.4307 13 26.1069H23.2941V15.8127Z" fill="#FFDA2D"/>
<path d="M28.9197 13V23.2939L36.1957 30.5701C38.1419 28.6238 39.2136 26.0399 39.2136 23.294C39.2137 17.6178 34.5959 13 28.9197 13Z" fill="#A6D12D"/>
</g>
<defs>
<clipPath id="clip0_335_13098">
<rect width="48" height="48" fill="white" transform="translate(13 13)"/>
</clipPath>
</defs>
</svg>
