<svg width="74" height="74" viewBox="0 0 74 74" fill="none" xmlns="http://www.w3.org/2000/svg">
<rect width="74" height="74" rx="37" fill="#F7F8F9"/>
<g clip-path="url(#clip0_334_9363)">
<path d="M21.7491 46.8181C21.4739 46.5256 21.4878 46.0654 21.7803 45.79L31.9046 36.2629C32.197 35.9875 32.6573 36.0016 32.9326 36.2941C33.2079 36.5866 33.1939 37.0469 32.9014 37.3221L22.7771 46.8494C22.4852 47.1241 22.025 47.1112 21.7491 46.8181Z" fill="#5A557C"/>
<path d="M41.655 33.6093C41.3905 33.307 41.4211 32.8476 41.7234 32.5831L49.3696 25.8922C49.6719 25.6276 50.1314 25.6583 50.3959 25.9605C50.6605 26.2628 50.6298 26.7222 50.3276 26.9867L42.6813 33.6776C42.3796 33.9416 41.92 33.9122 41.655 33.6093Z" fill="#5A557C"/>
<path d="M31.7916 34.8182H21.1174C20.7158 34.8182 20.3901 34.4926 20.3901 34.0908C20.3901 33.6891 20.7157 33.3635 21.1174 33.3635H31.7916C32.1932 33.3635 32.5189 33.6891 32.5189 34.0908C32.5189 34.4926 32.1933 34.8182 31.7916 34.8182Z" fill="#5A557C"/>
<path d="M33.0675 30.8234L26.1991 23.955C25.9151 23.671 25.9151 23.2105 26.1991 22.9265C26.4831 22.6425 26.9436 22.6425 27.2277 22.9265L34.0961 29.7949C34.3801 30.0789 34.3801 30.5394 34.0961 30.8234C33.812 31.1074 33.3515 31.1074 33.0675 30.8234Z" fill="#5A557C"/>
<path d="M33.7273 21.0485V16.5879C33.7273 14.6068 32.1205 13 30.1394 13H23.0282C17.7757 13 17 14.6068 17 16.5879V21.0485C17 23.0297 18.1358 24.6364 23.0283 24.6364H30.1395C32.1205 24.6363 33.7273 23.0296 33.7273 21.0485Z" fill="#90DAFD"/>
<path d="M19.4404 21.0485V16.5879C19.4404 14.6068 21.0472 13 23.0282 13H18.4061C16.425 13 14.8182 14.6068 14.8182 16.5879V21.0485C14.8182 23.0297 16.425 24.6364 18.4061 24.6364H23.0283C21.0472 24.6363 19.4404 23.0296 19.4404 21.0485Z" fill="#71C8FA"/>
<path d="M25 48.6364C25 46.7181 23.7565 45.0779 22.0201 44.4978C18.4061 44.4978 17.4606 46.7102 17.4606 48.6364C17.4606 50.5624 18.503 52.7748 22.0197 52.7748C23.7511 52.1961 25 50.5624 25 48.6364Z" fill="#E080A1"/>
<path d="M19.0393 48.6363C19.0393 46.7101 20.2883 45.0762 22.0201 44.4977C21.5857 44.3526 21.1209 44.2727 20.6363 44.2727C18.2266 44.2727 16.2727 46.2266 16.2727 48.6363C16.2727 51.046 18.2266 53 20.6363 53C21.12 53 21.5848 52.9201 22.0196 52.7748C20.2881 52.196 19.0393 50.5623 19.0393 48.6363Z" fill="#DB507D"/>
<path d="M22.8181 34.091C22.8181 32.8655 22.0603 31.8179 20.9879 31.3894C18.5436 31.3894 18.0505 32.8656 18.0505 34.091C18.0505 35.3164 18.8424 36.7927 20.9879 36.7927C22.0603 36.3641 22.8181 35.3164 22.8181 34.091Z" fill="#85EC93"/>
<path d="M19.1576 34.0909C19.1576 32.8654 19.9155 31.8178 20.9879 31.3893C19.0855 30.6291 17 32.0298 17 34.0909C17 36.1489 19.0821 37.5541 20.9879 36.7926C19.9155 36.3639 19.1576 35.3163 19.1576 34.0909Z" fill="#7CDA79"/>
<path d="M59.1818 23.1818C59.1818 20.5944 57.4928 18.403 55.1576 17.6467C50.9151 17.6467 49.3879 20.5944 49.3879 23.1818C49.3879 25.7673 51.0122 28.717 55.1572 28.717C57.4927 27.9609 59.1818 25.7693 59.1818 23.1818Z" fill="#F6E588"/>
<path d="M51.1334 23.1819C51.1334 20.5945 52.8224 18.4031 55.1576 17.6468C54.5924 17.4638 53.9898 17.3636 53.3637 17.3636C50.1501 17.3636 47.5455 19.9682 47.5455 23.1819C47.5455 27.1331 51.4038 29.9322 55.1572 28.7171C52.8202 27.9606 51.1334 25.7673 51.1334 23.1819Z" fill="#F1D35E"/>
<path d="M41.2685 38.7155C42.4507 37.5313 43.1818 35.8966 43.1818 34.091C43.1818 30.4757 40.2516 27.5455 36.6363 27.5455C33.021 27.5455 30.0909 30.4757 30.0909 34.091C30.0909 35.7852 30.7346 37.33 31.7916 38.493L41.2685 38.7155Z" fill="#D9D9FB"/>
<path d="M36.6363 40.6364C38.4459 40.6364 40.0838 39.9022 41.2685 38.7155V36.9167C41.2685 34.3036 39.1426 32.1779 36.5296 32.1779C35.2805 32.1779 34.1017 32.6597 33.2104 33.5349C31.7083 35.0095 31.8019 36.7974 31.7917 36.8442C31.7917 36.8442 31.7917 37.4849 31.7916 38.4931C32.9881 39.8094 34.7143 40.6364 36.6363 40.6364Z" fill="#BCC6FA"/>
<path d="M54.0909 50.9656V45.4461C54.0909 44.0604 52.967 42.9374 51.5823 42.9374C50.1966 42.9374 49.0737 44.0604 49.0737 45.4461C49.0737 44.0604 47.9498 42.9374 46.5651 42.9374C45.1794 42.9374 44.0565 44.0604 44.0565 45.4461C44.0565 44.0604 42.9326 42.9374 41.5479 42.9374C40.1622 42.9374 39.0383 44.0604 39.0383 45.4461C39.0383 44.5202 39.0383 37.9021 39.0383 36.9166C39.0383 36.1534 38.697 35.4689 38.1578 35.0083C35.7636 34.4081 35.2503 36.1222 35.2304 36.8662C35.2304 38.0735 35.2292 49.7553 35.2291 50.9655C35.2291 55.5641 38.8183 60.6256 46.7802 60.6256C50.9985 59.4387 54.0909 55.5634 54.0909 50.9656Z" fill="#F5DBCD"/>
<path d="M36.9757 50.9655C36.9758 49.7552 36.977 38.0734 36.977 36.8662C36.9969 36.1222 37.4512 35.4583 38.1577 35.0084C37.7201 34.6345 37.1522 34.4081 36.5296 34.4081C35.1614 34.4081 34.0491 35.5038 34.022 36.8663C34.022 38.0736 34.0212 49.7554 34.0211 50.9656C34.0211 56.5086 38.5177 61.0001 44.0565 61.0001C45.0005 61.0001 45.9139 60.8695 46.7801 60.6257C41.1256 59.4389 36.9757 55.5642 36.9757 50.9655Z" fill="#F0C9BC"/>
<path d="M17.7272 17.3637C17.7272 17.7653 18.0528 18.0909 18.4545 18.0909H19.4404C20.6243 17.8727 20.8425 16.6364 19.4404 16.6364H18.4545C18.0528 16.6364 17.7272 16.9619 17.7272 17.3637Z" fill="#F1D35E"/>
<path d="M18.4545 19.5454C18.0529 19.5454 17.7272 19.871 17.7272 20.2727C17.7272 20.6743 18.0528 20.9999 18.4545 20.9999H19.4404C20.631 20.5151 20.631 20.0303 19.4404 19.5454H18.4545Z" fill="#F1D35E"/>
<path d="M24.2727 18.0909C24.6743 18.0909 25 17.7653 25 17.3637C25 16.962 24.6744 16.6364 24.2727 16.6364H19.4404V18.0909H24.2727Z" fill="#F6E588"/>
<path d="M30.0909 19.5454H19.4404V20.9999H30.0909C30.4925 20.9999 30.8182 20.6743 30.8182 20.2727C30.8182 19.871 30.4925 19.5454 30.0909 19.5454Z" fill="#F6E588"/>
</g>
<defs>
<clipPath id="clip0_334_9363">
<rect width="48" height="48" fill="white" transform="translate(13 13)"/>
</clipPath>
</defs>
</svg>
