<svg width="74" height="74" viewBox="0 0 74 74" fill="none" xmlns="http://www.w3.org/2000/svg">
<rect width="74" height="74" rx="37" fill="#F7F8F9"/>
<g clip-path="url(#clip0_334_9421)">
<path d="M49.8583 56.0086C47.9414 66.1538 43.8376 57.6897 43.8376 57.6897L36.6262 42.9162L51.0593 38.9552L57.17 54.1993C57.3729 54.7794 57.5306 55.3743 57.6417 55.9786C58.0835 58.4324 57.7452 61.9228 49.8583 56.0086Z" fill="#FF8293"/>
<path d="M49.8583 56.0086C50.1903 54.25 50.4583 51.9379 50.6259 48.9244C50.6259 48.9244 51.831 55.452 57.6417 55.9786C58.0834 58.4324 57.7452 61.9227 49.8583 56.0086Z" fill="#FF6B7D"/>
<path d="M34.5511 47.231C26.2442 47.231 19.5107 39.5676 19.5107 30.1155C19.5107 20.6634 26.2442 13 34.5511 13H40.7931V47.231H34.5511Z" fill="#F6D14F"/>
<path d="M40.79 47.231C49.0966 47.231 55.8303 39.5682 55.8303 30.1155C55.8303 20.6629 49.0966 13 40.79 13C32.4835 13 25.7497 20.6629 25.7497 30.1155C25.7497 39.5682 32.4835 47.231 40.79 47.231Z" fill="#FFE262"/>
<path d="M40.79 43.0062C47.0466 43.0062 52.1186 37.2349 52.1186 30.1155C52.1186 22.9962 47.0466 17.2249 40.79 17.2249C34.5334 17.2249 29.4614 22.9962 29.4614 30.1155C29.4614 37.2349 34.5334 43.0062 40.79 43.0062Z" fill="#F6D14F"/>
<path d="M35.9528 47.2311L30.1504 58.4138C29.6239 59.0717 29.0261 59.6692 28.3679 60.1952C26.7128 61.4697 24.5021 62.0004 24.6066 55.6787C13.2945 62.2166 17.9486 52.8421 17.9486 52.8421L24.2186 38.5518C24.2186 38.5518 25.3493 42.908 28.7393 45.909C30.5533 46.7803 32.5397 47.2332 34.5521 47.2342L35.9528 47.2311Z" fill="#FF9FB3"/>
<path d="M28.3679 60.1973C26.7128 61.4718 24.5021 62.0025 24.6066 55.6807C25.8738 54.9494 27.3407 54.0173 29.0383 52.8494C29.0383 52.8494 26.0942 58.0083 28.3679 60.1973Z" fill="#FF8293"/>
<path d="M40.8965 36.4094L37.6772 38.4783C36.7348 39.0835 35.6083 38.3273 35.7955 37.1883L36.4483 33.1725C36.4853 32.9566 36.4705 32.735 36.405 32.526C36.3396 32.317 36.2253 32.1265 36.0717 31.9704L33.2176 29.1235C32.39 28.2959 32.8472 26.8766 33.981 26.7442L37.8303 26.2901C38.0345 26.2646 38.2287 26.1873 38.3944 26.0654C38.5601 25.9435 38.6918 25.7811 38.7769 25.5938L40.3793 22.1832C40.819 21.2459 42.0697 21.3556 42.4948 22.3507L43.9783 25.8152C44.0485 25.9944 44.1612 26.1539 44.3066 26.28C44.452 26.4061 44.6258 26.4951 44.8131 26.5394L47.9165 27.1663C48.7514 27.3349 49.0803 28.5504 48.4824 29.2352L46.2862 31.7604C46.1592 31.9115 46.0658 32.0878 46.0123 32.2778C45.9588 32.4678 45.9464 32.667 45.9759 32.8621L46.5076 36.4259C46.6555 37.4201 45.741 38.2683 44.9445 37.8566L41.9931 36.3359C41.8202 36.2499 41.6276 36.2113 41.4349 36.2242C41.2422 36.2371 41.0564 36.301 40.8965 36.4094Z" fill="#FCF4F6"/>
</g>
<defs>
<clipPath id="clip0_334_9421">
<rect width="40.7659" height="48" fill="white" transform="translate(17 13)"/>
</clipPath>
</defs>
</svg>
