<svg width="74" height="74" viewBox="0 0 74 74" fill="none" xmlns="http://www.w3.org/2000/svg">
<rect width="74" height="74" rx="37" fill="#F7F8F9"/>
<path d="M37.0332 20.5489C37.0332 20.0971 37.3999 19.7303 37.8517 19.7303C38.3035 19.7303 38.6703 20.0971 38.6703 20.5489V27.4371C38.6703 27.8915 38.3035 28.2556 37.8517 28.2556C37.3999 28.2556 37.0332 27.8915 37.0332 27.4371V20.5489Z" fill="#475066"/>
<path d="M37.0332 20.5489C37.0332 20.1741 37.2857 19.8579 37.6311 19.7622C37.9766 19.8579 38.2291 20.1741 38.2291 20.5489V27.4371C38.2291 27.8144 37.9766 28.1306 37.6311 28.2263C37.2857 28.1306 37.0332 27.8144 37.0332 27.4371V20.5489Z" fill="#5D6A85"/>
<path fill-rule="evenodd" clip-rule="evenodd" d="M37.0332 20.5489H46.2122L43.3182 17.4556L46.2122 14.3596H37.0332V20.5489Z" fill="#CC2A2E"/>
<path fill-rule="evenodd" clip-rule="evenodd" d="M37.0332 20.5489H44.9631L42.0718 17.4556L44.9631 14.3596H37.0332V20.5489Z" fill="#F85647"/>
<path d="M31.9149 27.437H42.1515V59.3587H31.9149V27.437Z" fill="#20A5D5"/>
<path d="M31.9149 27.437H39.9139V59.3587H31.9149V27.437Z" fill="#6AC8EB"/>
<path d="M16.7726 39.595H27.0065V59.3587H16.7726V39.595Z" fill="#1BBD86"/>
<path d="M16.7726 39.595H24.769V59.3587H16.7726V39.595Z" fill="#45DEA6"/>
<path d="M47.0599 36.0287H57.2965V59.3587H47.0599V36.0287Z" fill="#FECA5C"/>
<path d="M47.0599 36.0287H55.059V59.3587H47.0599V36.0287Z" fill="#FFE177"/>
<path d="M14.5323 55.5054H59.5341V59.3588H14.5323V55.5054Z" fill="#475066"/>
<path d="M14.5323 55.5054H57.2965V59.3588H14.5323V55.5054Z" fill="#5D6A85"/>
<path fill-rule="evenodd" clip-rule="evenodd" d="M52.1782 26.6027C55.0031 26.6027 57.2965 28.8961 57.2965 31.7209H47.0599C47.0599 28.8961 49.3507 26.6027 52.1782 26.6027Z" fill="#168BB5"/>
<path fill-rule="evenodd" clip-rule="evenodd" d="M56.1777 31.7209H47.0598C47.0598 29.0847 49.0556 26.9135 51.6174 26.6345C54.1818 26.9135 56.1777 29.0847 56.1777 31.7209Z" fill="#20A5D5"/>
<path fill-rule="evenodd" clip-rule="evenodd" d="M52.1782 26.6026C53.7542 26.6026 55.0377 25.3191 55.0377 23.7431C55.0377 22.1672 53.7542 20.8837 52.1782 20.8837C50.6023 20.8837 49.3187 22.1699 49.3187 23.7431C49.3187 25.3164 50.6023 26.6026 52.1782 26.6026Z" fill="#FFCBBE"/>
<path fill-rule="evenodd" clip-rule="evenodd" d="M51.6175 26.5495C50.3073 26.289 49.3187 25.133 49.3187 23.7431C49.3187 22.3533 50.3073 21.2 51.6175 20.9395C52.9303 21.1999 53.9189 22.3559 53.9189 23.7431C53.9189 25.1304 52.9303 26.289 51.6175 26.5495Z" fill="#FFDDCF"/>
<path fill-rule="evenodd" clip-rule="evenodd" d="M21.8883 30.1689C24.7158 30.1689 27.0065 32.4624 27.0065 35.2872H16.7726C16.7726 32.4624 19.0634 30.1689 21.8883 30.1689Z" fill="#168BB5"/>
<path fill-rule="evenodd" clip-rule="evenodd" d="M25.8877 35.2872H16.7726C16.7726 32.651 18.7657 30.4798 21.3302 30.2008C23.892 30.4799 25.8877 32.651 25.8877 35.2872Z" fill="#20A5D5"/>
<path fill-rule="evenodd" clip-rule="evenodd" d="M21.8883 30.1689C23.4642 30.1689 24.7477 28.8854 24.7477 27.3094C24.7477 25.7335 23.4642 24.45 21.8883 24.45C20.3123 24.45 19.0288 25.7362 19.0288 27.3094C19.0288 28.8826 20.315 30.1689 21.8883 30.1689Z" fill="#FFCBBE"/>
<path fill-rule="evenodd" clip-rule="evenodd" d="M21.3302 30.1157C20.0174 29.8553 19.0288 28.6993 19.0288 27.3094C19.0288 25.9196 20.0174 24.7662 21.3302 24.5057C22.6403 24.7662 23.6289 25.9222 23.6289 27.3094C23.6289 28.6966 22.6403 29.8553 21.3302 30.1157Z" fill="#FFDDCF"/>
</svg>
