<svg width="24" height="24" viewBox="0 0 24 24" fill="none" xmlns="http://www.w3.org/2000/svg">
<g clip-path="url(#clip0_334_9503)">
<path fill-rule="evenodd" clip-rule="evenodd" d="M24 12C24 18.6274 18.6274 24 12 24C5.37258 24 0 18.6274 0 12C0 5.37258 5.37258 0 12 0C18.6274 0 24 5.37258 24 12ZM12.43 8.85838C11.2628 9.34385 8.93013 10.3486 5.43188 11.8728C4.86382 12.0987 4.56625 12.3197 4.53916 12.5358C4.49338 12.9009 4.9507 13.0448 5.57346 13.2406C5.65817 13.2672 5.74594 13.2948 5.83593 13.3241C6.44863 13.5232 7.27282 13.7562 7.70128 13.7655C8.08993 13.7739 8.52372 13.6136 9.00263 13.2848C12.2711 11.0785 13.9584 9.96326 14.0643 9.93922C14.139 9.92226 14.2426 9.90093 14.3128 9.9633C14.3829 10.0257 14.376 10.1438 14.3686 10.1755C14.3233 10.3686 12.5281 12.0375 11.5991 12.9012C11.3095 13.1705 11.1041 13.3615 11.0621 13.4051C10.968 13.5028 10.8721 13.5952 10.78 13.6841C10.2108 14.2328 9.7839 14.6443 10.8036 15.3162C11.2936 15.6392 11.6857 15.9062 12.0769 16.1726C12.5042 16.4635 12.9303 16.7537 13.4816 17.1151C13.6221 17.2072 13.7562 17.3028 13.8869 17.396C14.3841 17.7504 14.8307 18.0689 15.3826 18.0181C15.7032 17.9886 16.0345 17.6871 16.2027 16.7878C16.6002 14.6626 17.3816 10.0579 17.5622 8.16042C17.578 7.99418 17.5581 7.78142 17.5421 7.68802C17.5262 7.59463 17.4928 7.46156 17.3714 7.36305C17.2276 7.24639 17.0056 7.22179 16.9064 7.22353C16.455 7.23149 15.7625 7.47227 12.43 8.85838Z" fill="#98A2B3"/>
</g>
<defs>
<clipPath id="clip0_334_9503">
<rect width="24" height="24" fill="white"/>
</clipPath>
</defs>
</svg>
