<svg width="38" height="37" viewBox="0 0 38 37" fill="none" xmlns="http://www.w3.org/2000/svg">
<path d="M28.8984 7.10059H32.9369V23.0467H28.8984V7.10059Z" fill="#FFBE40"/>
<path d="M28.8984 23.0469L30.9178 27.3978L32.9372 23.0469H28.8984Z" fill="#4D5E80"/>
<path d="M31.5214 3.77002H30.314C29.9383 3.77002 29.5781 3.91925 29.3124 4.18488C29.0468 4.4505 28.8976 4.81077 28.8976 5.18643V7.10146H32.9364V5.18556C32.9361 4.8103 32.787 4.45048 32.5217 4.18508C32.2564 3.91968 31.8967 3.7704 31.5214 3.77002Z" fill="#3C4465"/>
<path d="M30.412 7.10059H31.4237V23.0467H30.412V7.10059Z" fill="#F3963C"/>
<path d="M4.06277 3.77002V31.0367C4.06277 31.3247 4.1195 31.6099 4.22972 31.8759C4.33994 32.142 4.50149 32.3837 4.70514 32.5874C4.90879 32.791 5.15056 32.9525 5.41664 33.0627C5.68272 33.1729 5.9679 33.2296 6.25589 33.2295H28.1466C27.565 33.2295 27.0073 32.9985 26.596 32.5873C26.1848 32.176 25.9538 31.6183 25.9538 31.0367V3.77002H4.06277Z" fill="#FFF5F5"/>
<path d="M22.7825 15.6191C22.9166 15.6191 23.0453 15.5658 23.1402 15.471C23.235 15.3761 23.2883 15.2474 23.2883 15.1133C23.2883 14.9791 23.235 14.8505 23.1402 14.7556C23.0453 14.6607 22.9166 14.6074 22.7825 14.6074H11.9137C11.7796 14.6074 11.6509 14.6607 11.556 14.7556C11.4612 14.8505 11.4079 14.9791 11.4079 15.1133C11.4079 15.2474 11.4612 15.3761 11.556 15.471C11.6509 15.5658 11.7796 15.6191 11.9137 15.6191H22.7825Z" fill="#3C4465"/>
<path d="M22.7825 20.6353C22.9166 20.6353 23.0453 20.582 23.1402 20.4871C23.235 20.3922 23.2883 20.2636 23.2883 20.1294C23.2883 19.9952 23.235 19.8666 23.1402 19.7717C23.0453 19.6768 22.9166 19.6235 22.7825 19.6235H11.9137C11.7796 19.6235 11.6509 19.6768 11.556 19.7717C11.4612 19.8666 11.4079 19.9952 11.4079 20.1294C11.4079 20.2636 11.4612 20.3922 11.556 20.4871C11.6509 20.582 11.7796 20.6353 11.9137 20.6353H22.7825Z" fill="#3C4465"/>
<path d="M9.62953 21.833C9.69597 21.833 9.76177 21.8199 9.82316 21.7945C9.88455 21.7691 9.94033 21.7319 9.98731 21.6849C10.0343 21.6379 10.0716 21.5821 10.097 21.5207C10.1224 21.4593 10.1354 21.3935 10.1354 21.3271V18.9316C10.1354 18.8652 10.1224 18.7994 10.097 18.738C10.0716 18.6766 10.0343 18.6208 9.98731 18.5739C9.94033 18.5269 9.88455 18.4896 9.82316 18.4642C9.76177 18.4388 9.69597 18.4257 9.62953 18.4258H7.23407C7.09991 18.4258 6.97124 18.4791 6.87637 18.5739C6.78151 18.6688 6.72821 18.7975 6.72821 18.9316V21.3271C6.72821 21.4613 6.78151 21.5899 6.87637 21.6848C6.97124 21.7797 7.09991 21.833 7.23407 21.833H9.62953ZM7.73993 19.4375H9.12367V20.8212H7.73993V19.4375Z" fill="#00B7F0"/>
<path d="M9.62953 26.8496C9.69597 26.8496 9.76177 26.8365 9.82316 26.8111C9.88455 26.7857 9.94033 26.7485 9.98731 26.7015C10.0343 26.6545 10.0716 26.5987 10.097 26.5373C10.1224 26.4759 10.1354 26.4101 10.1354 26.3437V23.9482C10.1354 23.8818 10.1224 23.816 10.097 23.7546C10.0716 23.6932 10.0343 23.6374 9.98731 23.5905C9.94033 23.5435 9.88455 23.5062 9.82316 23.4808C9.76177 23.4554 9.69597 23.4423 9.62953 23.4424H7.23407C7.09991 23.4424 6.97124 23.4957 6.87637 23.5905C6.78151 23.6854 6.72821 23.8141 6.72821 23.9482V26.3437C6.72821 26.4779 6.78151 26.6065 6.87637 26.7014C6.97124 26.7963 7.09991 26.8496 7.23407 26.8496H9.62953ZM7.73993 24.4544H9.12367V25.8381H7.73993V24.4544Z" fill="#00B7F0"/>
<path d="M22.7825 25.6519C22.9166 25.6519 23.0453 25.5986 23.1402 25.5037C23.235 25.4088 23.2883 25.2802 23.2883 25.146C23.2883 25.0118 23.235 24.8832 23.1402 24.7883C23.0453 24.6934 22.9166 24.6401 22.7825 24.6401H11.9137C11.7796 24.6401 11.6509 24.6934 11.556 24.7883C11.4612 24.8832 11.4079 25.0118 11.4079 25.146C11.4079 25.2802 11.4612 25.4088 11.556 25.5037C11.6509 25.5986 11.7796 25.6519 11.9137 25.6519H22.7825Z" fill="#3C4465"/>
<path d="M8.46347 16.5554C8.59765 16.5554 8.72634 16.5022 8.82133 16.4074L10.6953 14.5337C10.7436 14.487 10.7822 14.4312 10.8087 14.3695C10.8352 14.3078 10.8491 14.2414 10.8497 14.1742C10.8502 14.107 10.8374 14.0404 10.812 13.9783C10.7865 13.9161 10.749 13.8596 10.7014 13.8122C10.6539 13.7647 10.5975 13.7271 10.5353 13.7017C10.4731 13.6763 10.4065 13.6635 10.3393 13.6641C10.2722 13.6647 10.2058 13.6786 10.1441 13.7052C10.0824 13.7317 10.0265 13.7702 9.97989 13.8186L8.46347 15.3344L7.74081 14.6118C7.69386 14.5648 7.63811 14.5276 7.57676 14.5021C7.51541 14.4767 7.44965 14.4636 7.38324 14.4636C7.31684 14.4636 7.25108 14.4767 7.18973 14.5021C7.12838 14.5276 7.07263 14.5648 7.02567 14.6118C6.97872 14.6587 6.94147 14.7145 6.91606 14.7758C6.89064 14.8372 6.87756 14.9029 6.87756 14.9693C6.87756 15.0357 6.89064 15.1015 6.91606 15.1628C6.94147 15.2242 6.97872 15.2799 7.02567 15.3269L8.10474 16.4063C8.15175 16.4535 8.20764 16.4911 8.26921 16.5167C8.33077 16.5423 8.3968 16.5554 8.46347 16.5554Z" fill="#E21E69"/>
<path d="M30.3397 31.0368V30.0005H8.44902V31.0368C8.44902 31.6184 8.21799 32.1761 7.80676 32.5873C7.39552 32.9986 6.83777 33.2296 6.2562 33.2296H28.1466C28.4346 33.2296 28.7198 33.173 28.9859 33.0628C29.2519 32.9526 29.4937 32.7911 29.6974 32.5874C29.901 32.3838 30.0626 32.1421 30.1728 31.876C30.283 31.6099 30.3397 31.3248 30.3397 31.0368Z" fill="#EFE1E1"/>
<path d="M9.14391 6.51221C9.27807 6.51221 9.40674 6.45891 9.5016 6.36404C9.59647 6.26918 9.64977 6.14051 9.64977 6.00635C9.64977 5.87219 9.59647 5.74352 9.5016 5.64865C9.40674 5.55378 9.27807 5.50049 9.14391 5.50049H6.62531C6.49114 5.50049 6.36248 5.55378 6.26761 5.64865C6.17274 5.74352 6.11945 5.87219 6.11945 6.00635V10.2125C6.11941 10.2789 6.13247 10.3447 6.15787 10.4061C6.18328 10.4675 6.22054 10.5233 6.26752 10.5703C6.3145 10.6173 6.37029 10.6545 6.43168 10.6799C6.49307 10.7053 6.55886 10.7184 6.62531 10.7184H9.14391C9.27807 10.7184 9.40674 10.6651 9.5016 10.5702C9.59647 10.4753 9.64977 10.3467 9.64977 10.2125C9.64977 10.0783 9.59647 9.94967 9.5016 9.8548C9.40674 9.75993 9.27807 9.70664 9.14391 9.70664H7.13116V8.61543H9.14391C9.27807 8.61543 9.40674 8.56213 9.5016 8.46726C9.59647 8.3724 9.64977 8.24373 9.64977 8.10957C9.64977 7.9754 9.59647 7.84674 9.5016 7.75187C9.40674 7.657 9.27807 7.60371 9.14391 7.60371H7.13116V6.51221H9.14391Z" fill="#3C4465"/>
<path d="M23.3912 10.7183C23.4577 10.7183 23.5235 10.7052 23.5849 10.6798C23.6462 10.6544 23.702 10.6172 23.749 10.5702C23.796 10.5232 23.8333 10.4674 23.8587 10.406C23.8841 10.3446 23.8971 10.2788 23.8971 10.2124V6.00626C23.897 5.90172 23.8646 5.79978 23.8042 5.71445C23.7438 5.62912 23.6585 5.56459 23.5599 5.52973C23.4614 5.49487 23.3544 5.4914 23.2538 5.51979C23.1532 5.54819 23.0639 5.60705 22.9981 5.68829L21.6014 7.41341L20.2055 5.688C20.1397 5.60676 20.0504 5.5479 19.9497 5.51951C19.8491 5.49111 19.7422 5.49458 19.6437 5.52944C19.5451 5.5643 19.4598 5.62883 19.3994 5.71416C19.339 5.79949 19.3066 5.90143 19.3065 6.00597V10.2124C19.3065 10.3466 19.3598 10.4752 19.4547 10.5701C19.5495 10.665 19.6782 10.7183 19.8123 10.7183C19.9465 10.7183 20.0752 10.665 20.17 10.5701C20.2649 10.4752 20.3182 10.3466 20.3182 10.2124V7.43538L21.2088 8.53526C21.2579 8.59131 21.3183 8.63622 21.3862 8.66699C21.454 8.69777 21.5276 8.71369 21.6021 8.71369C21.6766 8.71369 21.7502 8.69777 21.818 8.66699C21.8858 8.63622 21.9463 8.59131 21.9953 8.53526L22.8859 7.43683V10.2124C22.8859 10.2788 22.899 10.3445 22.9243 10.4059C22.9497 10.4673 22.9869 10.523 23.0338 10.57C23.0807 10.617 23.1365 10.6542 23.1978 10.6797C23.2591 10.7051 23.3248 10.7182 23.3912 10.7183Z" fill="#3C4465"/>
<path d="M10.5375 10.6208C10.5911 10.66 10.6519 10.6883 10.7165 10.7039C10.781 10.7196 10.8481 10.7224 10.9137 10.7122C10.9793 10.702 11.0423 10.6789 11.099 10.6443C11.1557 10.6098 11.2051 10.5643 11.2442 10.5107L12.3716 8.96679L13.4989 10.5107C13.5381 10.5644 13.5874 10.61 13.6442 10.6447C13.7009 10.6794 13.7639 10.7026 13.8296 10.7129C13.8953 10.7233 13.9624 10.7206 14.027 10.705C14.0917 10.6894 14.1526 10.6612 14.2064 10.6221C14.2602 10.583 14.3057 10.5336 14.3404 10.4769C14.3751 10.4202 14.3983 10.3571 14.4087 10.2914C14.419 10.2258 14.4163 10.1587 14.4007 10.094C14.3852 10.0294 14.357 9.9684 14.3179 9.91463L12.9991 8.10943L14.3179 6.30482C14.357 6.25118 14.3853 6.19035 14.401 6.12579C14.4167 6.06124 14.4195 5.99423 14.4093 5.92859C14.399 5.86294 14.376 5.79996 14.3414 5.74322C14.3069 5.68648 14.2615 5.63711 14.2079 5.59792C14.1542 5.55872 14.0934 5.53048 14.0288 5.51479C13.9643 5.49911 13.8973 5.49629 13.8316 5.5065C13.766 5.51672 13.703 5.53976 13.6463 5.57432C13.5895 5.60887 13.5402 5.65427 13.501 5.7079L12.3736 7.25208L11.2463 5.7079C11.1671 5.59958 11.0482 5.52713 10.9156 5.5065C10.783 5.48588 10.6477 5.51876 10.5394 5.59792C10.431 5.67707 10.3586 5.79602 10.338 5.92859C10.3173 6.06116 10.3502 6.19649 10.4294 6.30482L11.7481 8.10943L10.4274 9.91463C10.3484 10.0229 10.3157 10.1581 10.3364 10.2905C10.357 10.4229 10.4293 10.5417 10.5375 10.6208Z" fill="#3C4465"/>
<path d="M18.1199 10.7184C18.2541 10.7184 18.3827 10.6651 18.4776 10.5702C18.5725 10.4753 18.6257 10.3467 18.6257 10.2125V6.00635C18.6257 5.87221 18.5724 5.74359 18.4775 5.64874C18.3827 5.55389 18.254 5.50056 18.1199 5.50049H15.6013C15.4671 5.50049 15.3385 5.55378 15.2436 5.64865C15.1487 5.74352 15.0954 5.87219 15.0954 6.00635V10.2125C15.0954 10.3467 15.1487 10.4753 15.2436 10.5702C15.3385 10.6651 15.4671 10.7184 15.6013 10.7184C15.7355 10.7184 15.8641 10.6651 15.959 10.5702C16.0539 10.4753 16.1071 10.3467 16.1071 10.2125V8.61543H17.614V10.2125C17.614 10.2789 17.6271 10.3447 17.6525 10.4061C17.6779 10.4675 17.7151 10.5233 17.7621 10.5703C17.8091 10.6173 17.8649 10.6545 17.9263 10.6799C17.9877 10.7053 18.0534 10.7184 18.1199 10.7184ZM16.1071 7.60371V6.51221H17.614V7.60371H16.1071Z" fill="#3C4465"/>
</svg>
